G04*
G04 #@! TF.GenerationSoftware,Altium Limited,Altium Designer,20.0.7 (75)*
G04*
G04 Layer_Physical_Order=2*
G04 Layer_Color=16711680*
%FSLAX25Y25*%
%MOIN*%
G70*
G01*
G75*
%ADD10C,0.01000*%
%ADD16C,0.00500*%
%ADD88C,0.02000*%
%ADD89C,0.01181*%
%ADD90C,0.03150*%
%ADD91C,0.04000*%
%ADD93C,0.06200*%
%ADD94R,0.06200X0.06200*%
%ADD95C,0.07200*%
%ADD96R,0.06200X0.06200*%
%ADD97C,0.09000*%
%ADD98R,0.09000X0.09000*%
%ADD99C,0.30000*%
%ADD100C,0.23622*%
%ADD101C,0.02362*%
%ADD102C,0.04724*%
%ADD103C,0.02756*%
G36*
X421107Y374977D02*
X421346Y374393D01*
X421005Y373570D01*
X420930Y373000D01*
X425000D01*
Y372000D01*
X420930D01*
X421005Y371430D01*
X421374Y370539D01*
X421222Y370128D01*
X420844Y369539D01*
X408262D01*
X407848Y370539D01*
X412702Y375393D01*
X420791D01*
X421107Y374977D01*
D02*
G37*
G36*
X565000Y300000D02*
X620000Y245000D01*
Y215000D01*
X555000D01*
Y187500D01*
X497969D01*
X497587Y188424D01*
X503585Y194422D01*
X503917Y194919D01*
X504033Y195504D01*
Y224370D01*
X504949Y225286D01*
X505000Y225276D01*
X505851Y225445D01*
X506572Y225927D01*
X507055Y226649D01*
X507224Y227500D01*
X507055Y228351D01*
X506572Y229072D01*
X505851Y229555D01*
X505000Y229724D01*
X504492Y229623D01*
X503999Y230544D01*
X505684Y232229D01*
X505735Y232219D01*
X506586Y232388D01*
X507307Y232870D01*
X507790Y233592D01*
X507959Y234443D01*
X507790Y235294D01*
X507307Y236015D01*
X506586Y236497D01*
X505735Y236667D01*
X504884Y236497D01*
X504162Y236015D01*
X503680Y235294D01*
X503511Y234443D01*
X503521Y234392D01*
X498919Y229789D01*
X498587Y229293D01*
X498471Y228708D01*
Y198134D01*
X488306Y187969D01*
X487500Y187500D01*
Y187500D01*
X486973Y186718D01*
X486149Y186555D01*
X485428Y186073D01*
X484945Y185351D01*
X484776Y184500D01*
X484945Y183649D01*
X485428Y182928D01*
X486149Y182446D01*
X487000Y182276D01*
X487500Y181866D01*
Y104029D01*
X475633D01*
X473304Y106359D01*
Y261141D01*
X533906Y321744D01*
X534238Y322240D01*
X534354Y322825D01*
Y355352D01*
X534238Y355938D01*
X533906Y356434D01*
X524209Y366131D01*
X523713Y366463D01*
X523127Y366579D01*
X508083D01*
X489687Y384976D01*
X490069Y385900D01*
X496600D01*
Y394100D01*
X488400D01*
Y387569D01*
X487476Y387187D01*
X481952Y392711D01*
Y400020D01*
X481836Y400605D01*
X481504Y401101D01*
X473901Y408704D01*
X473994Y408930D01*
X474135Y410000D01*
X473994Y411070D01*
X473581Y412068D01*
X472924Y412924D01*
X472068Y413581D01*
X471070Y413995D01*
X470000Y414135D01*
X468930Y413995D01*
X467932Y413581D01*
X467076Y412924D01*
X466419Y412068D01*
X466006Y411070D01*
X465865Y410000D01*
X466006Y408930D01*
X466419Y407932D01*
X466728Y407529D01*
X466235Y406529D01*
X458634D01*
X456772Y408391D01*
X456994Y408930D01*
X457135Y410000D01*
X456994Y411070D01*
X456581Y412068D01*
X455924Y412924D01*
X455068Y413581D01*
X454070Y413995D01*
X453000Y414135D01*
X451930Y413995D01*
X450932Y413581D01*
X450922Y413574D01*
X449922Y414067D01*
Y415933D01*
X450922Y416426D01*
X450932Y416419D01*
X451930Y416006D01*
X452500Y415931D01*
Y420000D01*
X453000D01*
Y420500D01*
X457069D01*
X456994Y421070D01*
X456581Y422068D01*
X456574Y422078D01*
X457067Y423078D01*
X465933D01*
X466426Y422078D01*
X466419Y422068D01*
X466006Y421070D01*
X465931Y420500D01*
X470000D01*
X474069D01*
X473994Y421070D01*
X473581Y422068D01*
X472924Y422924D01*
X472852Y422980D01*
X472886Y424214D01*
X489336Y440664D01*
X489749Y441201D01*
X490008Y441828D01*
X490097Y442500D01*
Y464579D01*
X490421Y464903D01*
X503924D01*
X508164Y460664D01*
X508702Y460251D01*
X509328Y459992D01*
X510000Y459903D01*
X540000D01*
X540672Y459992D01*
X541298Y460251D01*
X541836Y460664D01*
X542249Y461201D01*
X542509Y461828D01*
X542597Y462500D01*
X542509Y463172D01*
X542249Y463799D01*
X541836Y464336D01*
X541298Y464749D01*
X540672Y465008D01*
X540000Y465097D01*
X511076D01*
X506836Y469336D01*
X506298Y469749D01*
X505672Y470009D01*
X505000Y470097D01*
X489345D01*
X488673Y470009D01*
X488047Y469749D01*
X487509Y469336D01*
X485664Y467491D01*
X485251Y466954D01*
X484992Y466327D01*
X484903Y465655D01*
Y443576D01*
X469599Y428272D01*
X450649D01*
X449977Y428183D01*
X449351Y427924D01*
X448813Y427511D01*
X445489Y424187D01*
X445076Y423649D01*
X444817Y423023D01*
X444728Y422351D01*
Y405675D01*
X444817Y405003D01*
X445076Y404376D01*
X445489Y403838D01*
X448900Y400427D01*
Y399573D01*
X440424Y391097D01*
X432000D01*
X431328Y391008D01*
X430701Y390749D01*
X430428Y390539D01*
X429708D01*
X429047Y391364D01*
X429008Y391532D01*
X429135Y392500D01*
X428995Y393570D01*
X428581Y394568D01*
X428244Y395007D01*
X428220Y395206D01*
X428407Y396126D01*
X428491Y396249D01*
X428647Y396353D01*
X437483Y405190D01*
X437835Y405716D01*
X437958Y406336D01*
Y425398D01*
X445938Y433378D01*
X456001D01*
X456649Y432945D01*
X457500Y432776D01*
X458351Y432945D01*
X459072Y433427D01*
X459555Y434149D01*
X459724Y435000D01*
X459555Y435851D01*
X459319Y436203D01*
X459726Y437190D01*
X460441Y437265D01*
X462793Y434913D01*
X462945Y434149D01*
X463427Y433427D01*
X464149Y432945D01*
X465000Y432776D01*
X465851Y432945D01*
X466573Y433427D01*
X467055Y434149D01*
X467224Y435000D01*
X467055Y435851D01*
X466573Y436573D01*
X465851Y437055D01*
X465087Y437207D01*
X462056Y440237D01*
X461530Y440589D01*
X460910Y440712D01*
X458578D01*
X458308Y441241D01*
X458189Y441712D01*
X458602Y442330D01*
X458771Y443181D01*
X458602Y444032D01*
X458754Y444647D01*
X459105Y445079D01*
X459399Y445064D01*
X460383Y444080D01*
X460859Y443762D01*
X460975Y443589D01*
X461696Y443107D01*
X462547Y442938D01*
X463398Y443107D01*
X464119Y443589D01*
X464602Y444310D01*
X464771Y445161D01*
X464602Y446012D01*
X464119Y446734D01*
X463398Y447216D01*
X462547Y447385D01*
X461696Y447216D01*
X461622Y447167D01*
X460526Y448263D01*
X460030Y448594D01*
X459445Y448710D01*
X458331D01*
X458061Y449244D01*
X457944Y449711D01*
X458358Y450330D01*
X458527Y451181D01*
X458358Y452032D01*
X457875Y452754D01*
X457832Y452782D01*
Y453793D01*
X458366Y454064D01*
X458832Y454181D01*
X459452Y453767D01*
X460303Y453598D01*
X461154Y453767D01*
X461875Y454249D01*
X462358Y454971D01*
X462527Y455822D01*
X462358Y456673D01*
X461875Y457394D01*
X461832Y457423D01*
Y469639D01*
X475339Y483146D01*
X532181D01*
X546408Y468919D01*
X546408Y468919D01*
X548471Y466856D01*
Y458144D01*
X528919Y438592D01*
X528587Y438096D01*
X528471Y437510D01*
Y381601D01*
X528428Y381573D01*
X527945Y380851D01*
X527776Y380000D01*
X527945Y379149D01*
X528428Y378428D01*
X529149Y377945D01*
X530000Y377776D01*
X530223Y377820D01*
X530256Y377805D01*
X530993Y376954D01*
X530971Y376843D01*
Y372630D01*
X531087Y372045D01*
X531419Y371548D01*
X534377Y368590D01*
X534873Y368258D01*
X535459Y368142D01*
X538664D01*
X538692Y368099D01*
X539414Y367617D01*
X540265Y367447D01*
X541116Y367617D01*
X541837Y368099D01*
X542319Y368820D01*
X542489Y369671D01*
X542418Y370026D01*
X543314Y370649D01*
X543471Y370552D01*
Y366601D01*
X543428Y366572D01*
X542945Y365851D01*
X542776Y365000D01*
X542945Y364149D01*
X543428Y363427D01*
X544149Y362945D01*
X545000Y362776D01*
X545851Y362945D01*
X546572Y363427D01*
X547055Y364149D01*
X547224Y365000D01*
X547055Y365851D01*
X546572Y366572D01*
X546529Y366601D01*
Y371500D01*
X546413Y372085D01*
X546081Y372581D01*
X539104Y379559D01*
Y383744D01*
X538988Y384329D01*
X538656Y384825D01*
X536854Y386627D01*
Y434671D01*
X556470Y454287D01*
X556802Y454783D01*
X556918Y455368D01*
Y469632D01*
X556802Y470217D01*
X556470Y470713D01*
X536102Y491081D01*
X535606Y491413D01*
X535020Y491529D01*
X472500D01*
X471915Y491413D01*
X471419Y491081D01*
X448919Y468581D01*
X448587Y468085D01*
X448471Y467500D01*
Y445000D01*
X448587Y444415D01*
X448919Y443919D01*
X450737Y442100D01*
X451234Y441768D01*
X451514Y441712D01*
X451416Y440712D01*
X446591D01*
X445970Y440589D01*
X445444Y440237D01*
X441654Y436448D01*
X440569Y436777D01*
X440555Y436851D01*
X440072Y437572D01*
X439351Y438055D01*
X438500Y438224D01*
X438084Y438141D01*
X437482Y439041D01*
X437555Y439149D01*
X437724Y440000D01*
X437555Y440851D01*
X437073Y441573D01*
X436351Y442055D01*
X435500Y442224D01*
X434649Y442055D01*
X433927Y441573D01*
X433899Y441529D01*
X431500D01*
X430566Y442291D01*
X430555Y442351D01*
X430072Y443073D01*
X429965Y444134D01*
X430055Y444287D01*
X430851Y444445D01*
X431572Y444928D01*
X432055Y445649D01*
X432224Y446500D01*
X432055Y447351D01*
X431692Y447894D01*
X431805Y448641D01*
X431958Y449017D01*
X432573Y449428D01*
X433055Y450149D01*
X433224Y451000D01*
X433055Y451851D01*
X432573Y452572D01*
X431851Y453055D01*
X431000Y453224D01*
X430149Y453055D01*
X429427Y452572D01*
X428945Y451851D01*
X428793Y451087D01*
X420613Y442906D01*
X420261Y442380D01*
X420138Y441759D01*
Y425777D01*
X393585Y399224D01*
X381018D01*
X380715Y400224D01*
X381180Y400535D01*
X381662Y401257D01*
X381831Y402107D01*
X381662Y402959D01*
X381180Y403680D01*
X380459Y404162D01*
X379695Y404314D01*
X377190Y406818D01*
X377373Y407383D01*
X377622Y407800D01*
X378351Y407945D01*
X379072Y408427D01*
X379555Y409149D01*
X379724Y410000D01*
X379555Y410851D01*
X379072Y411573D01*
X378351Y412055D01*
X377500Y412224D01*
X376649Y412055D01*
X375927Y411573D01*
X375445Y410851D01*
X375301Y410122D01*
X374883Y409873D01*
X374318Y409690D01*
X371542Y412466D01*
X371440Y412982D01*
X370958Y413703D01*
X370236Y414185D01*
X369385Y414355D01*
X368534Y414185D01*
X367813Y413703D01*
X367331Y412982D01*
X367161Y412131D01*
X367331Y411280D01*
X367813Y410558D01*
X368534Y410076D01*
X369385Y409907D01*
X369493Y409929D01*
X372479Y406943D01*
X371986Y406021D01*
X371920Y406035D01*
X371069Y405865D01*
X370348Y405383D01*
X370319Y405340D01*
X341309D01*
X340927Y406264D01*
X352449Y417786D01*
X352500Y417776D01*
X353351Y417945D01*
X354072Y418428D01*
X354555Y419149D01*
X354724Y420000D01*
X354555Y420851D01*
X354072Y421572D01*
X353351Y422055D01*
X352500Y422224D01*
X351649Y422055D01*
X350927Y421572D01*
X350445Y420851D01*
X350276Y420000D01*
X350286Y419949D01*
X337177Y406840D01*
X322823D01*
X308581Y421081D01*
X308323Y421254D01*
X307956Y421621D01*
X307460Y421952D01*
X306875Y422069D01*
X270539D01*
X269954Y421952D01*
X269458Y421621D01*
X263919Y416081D01*
X263587Y415585D01*
X263471Y415000D01*
Y402500D01*
X263587Y401915D01*
X263919Y401419D01*
X265286Y400051D01*
X265276Y400000D01*
X265445Y399149D01*
X265928Y398428D01*
X266649Y397945D01*
X267500Y397776D01*
X268351Y397945D01*
X269073Y398428D01*
X269555Y399149D01*
X269724Y400000D01*
X269555Y400851D01*
X269073Y401573D01*
X268351Y402055D01*
X267500Y402224D01*
X267449Y402214D01*
X266529Y403133D01*
Y414366D01*
X271173Y419010D01*
X283061D01*
X283443Y418086D01*
X276624Y411266D01*
X276292Y410770D01*
X276176Y410185D01*
Y405792D01*
X276133Y405763D01*
X275651Y405042D01*
X275481Y404191D01*
X275640Y403395D01*
X275597Y403332D01*
X274693Y402927D01*
X273360Y404260D01*
Y410538D01*
X273403Y410567D01*
X273885Y411289D01*
X274055Y412140D01*
X273885Y412991D01*
X273403Y413712D01*
X272682Y414194D01*
X271831Y414364D01*
X270980Y414194D01*
X270258Y413712D01*
X269776Y412991D01*
X269607Y412140D01*
X269776Y411289D01*
X270258Y410567D01*
X270301Y410538D01*
Y403626D01*
X270418Y403041D01*
X270749Y402545D01*
X273955Y399339D01*
X274151Y398553D01*
X274003Y397998D01*
X273482Y397320D01*
X273018Y396201D01*
X272860Y395000D01*
X273018Y393799D01*
X273482Y392680D01*
X274219Y391719D01*
X275180Y390982D01*
X275971Y390654D01*
Y341880D01*
X276087Y341295D01*
X276419Y340799D01*
X291971Y325247D01*
Y322194D01*
X290971Y321660D01*
X290851Y321740D01*
X290000Y321909D01*
X289149Y321740D01*
X288427Y321257D01*
X287945Y320536D01*
X287776Y319685D01*
X287945Y318834D01*
X288427Y318113D01*
X288471Y318084D01*
Y315000D01*
X288587Y314415D01*
X288919Y313919D01*
X289971Y312866D01*
Y302752D01*
X288971Y302130D01*
X288500Y302224D01*
X287649Y302055D01*
X287626Y302039D01*
X286374D01*
X286351Y302055D01*
X285500Y302224D01*
X284649Y302055D01*
X284467Y301933D01*
X284220Y301884D01*
X283558Y301442D01*
X273655Y291539D01*
X267374D01*
X267351Y291555D01*
X266500Y291724D01*
X265649Y291555D01*
X265626Y291539D01*
X264374D01*
X264351Y291555D01*
X264324Y291560D01*
X257084Y298800D01*
X256422Y299242D01*
X255642Y299397D01*
X243026D01*
Y390381D01*
X243082Y390437D01*
X243701Y390518D01*
X244820Y390982D01*
X245781Y391719D01*
X246518Y392680D01*
X246982Y393799D01*
X247140Y395000D01*
X246982Y396201D01*
X246518Y397320D01*
X245781Y398281D01*
X245526Y398476D01*
Y468247D01*
X260753Y483474D01*
X323247D01*
X333974Y472747D01*
Y468253D01*
X310360Y444640D01*
X309879Y444013D01*
X309577Y443283D01*
X309474Y442500D01*
Y440000D01*
Y437500D01*
X309577Y436717D01*
X309879Y435987D01*
X310360Y435360D01*
X310987Y434879D01*
X311717Y434577D01*
X312500Y434474D01*
X313283Y434577D01*
X314013Y434879D01*
X314640Y435360D01*
X315121Y435987D01*
X315423Y436717D01*
X315526Y437500D01*
Y441247D01*
X339140Y464860D01*
X339620Y465487D01*
X339923Y466217D01*
X340026Y467000D01*
Y474000D01*
X339923Y474783D01*
X339620Y475513D01*
X339140Y476140D01*
X332729Y482550D01*
X333112Y483474D01*
X405247D01*
X418018Y470703D01*
X417924Y470251D01*
X417621Y469685D01*
X416964Y469555D01*
X416243Y469072D01*
X416214Y469029D01*
X391286D01*
X391258Y469072D01*
X390536Y469555D01*
X389685Y469724D01*
X388834Y469555D01*
X388113Y469072D01*
X387631Y468351D01*
X387461Y467500D01*
X387631Y466649D01*
X388113Y465928D01*
X388834Y465445D01*
X389685Y465276D01*
X390536Y465445D01*
X391258Y465928D01*
X391286Y465971D01*
X416214D01*
X416243Y465928D01*
X416964Y465445D01*
X417815Y465276D01*
X418666Y465445D01*
X419224Y464616D01*
X416360Y461752D01*
X415879Y461125D01*
X415577Y460395D01*
X415474Y459612D01*
Y452253D01*
X407860Y444640D01*
X407379Y444013D01*
X407077Y443283D01*
X406974Y442500D01*
Y440000D01*
Y437500D01*
X407077Y436717D01*
X407379Y435987D01*
X407860Y435360D01*
X408487Y434879D01*
X409217Y434577D01*
X410000Y434474D01*
X410783Y434577D01*
X411513Y434879D01*
X412140Y435360D01*
X412620Y435987D01*
X412923Y436717D01*
X413026Y437500D01*
Y441247D01*
X420640Y448860D01*
X420640Y448860D01*
X421121Y449487D01*
X421423Y450217D01*
X421526Y451000D01*
X421526Y451000D01*
Y458359D01*
X424955Y461788D01*
X424955Y461788D01*
X425435Y462414D01*
X425738Y463144D01*
X425841Y463927D01*
Y470185D01*
X425841Y470185D01*
X425738Y470968D01*
X425435Y471698D01*
X424955Y472325D01*
X408640Y488640D01*
X408013Y489120D01*
X407283Y489423D01*
X406500Y489526D01*
X259500D01*
X258717Y489423D01*
X257987Y489120D01*
X257360Y488640D01*
X240360Y471640D01*
X239879Y471013D01*
X239577Y470283D01*
X239474Y469500D01*
Y398476D01*
X239219Y398281D01*
X238482Y397320D01*
X238018Y396201D01*
X237860Y395000D01*
X238003Y393916D01*
X237860Y393774D01*
X237380Y393147D01*
X237077Y392417D01*
X236974Y391634D01*
Y298753D01*
X235652Y297431D01*
X235525Y297266D01*
X235360Y297140D01*
X210360Y272140D01*
X209879Y271513D01*
X209577Y270783D01*
X209474Y270000D01*
Y237815D01*
X209577Y237032D01*
X209879Y236302D01*
X209997Y236149D01*
X210194Y235672D01*
X210675Y235045D01*
X216974Y228747D01*
Y205728D01*
X215040Y205264D01*
X212714Y204300D01*
X210566Y202984D01*
X208651Y201349D01*
X207016Y199434D01*
X205700Y197286D01*
X204736Y194960D01*
X204148Y192511D01*
X203951Y190000D01*
X204148Y187489D01*
X204736Y185040D01*
X205700Y182714D01*
X207016Y180566D01*
X208651Y178651D01*
X210566Y177016D01*
X212714Y175700D01*
X215040Y174736D01*
X217489Y174148D01*
X220000Y173951D01*
X222511Y174148D01*
X224960Y174736D01*
X227286Y175700D01*
X229434Y177016D01*
X231349Y178651D01*
X232984Y180566D01*
X234300Y182714D01*
X235264Y185040D01*
X235852Y187489D01*
X235929Y188471D01*
X387500D01*
X388085Y188587D01*
X388581Y188919D01*
X395634Y195971D01*
X411552D01*
X417471Y190051D01*
X417461Y190000D01*
X417630Y189149D01*
X418113Y188427D01*
X418834Y187945D01*
X419685Y187776D01*
X420536Y187945D01*
X421257Y188427D01*
X421740Y189149D01*
X421909Y190000D01*
X421740Y190851D01*
X421257Y191572D01*
X420536Y192054D01*
X419685Y192224D01*
X419634Y192214D01*
X413267Y198581D01*
X412770Y198913D01*
X412185Y199029D01*
X395000D01*
X394415Y198913D01*
X393919Y198581D01*
X386866Y191529D01*
X235929D01*
X235852Y192511D01*
X235264Y194960D01*
X234300Y197286D01*
X232984Y199434D01*
X231349Y201349D01*
X229434Y202984D01*
X227286Y204300D01*
X224960Y205264D01*
X223026Y205728D01*
Y229903D01*
X250500D01*
X251172Y229992D01*
X251799Y230251D01*
X252336Y230664D01*
X261081Y239408D01*
X261425Y239857D01*
X262643Y241075D01*
X263092Y241420D01*
X269217Y247544D01*
X269616Y247486D01*
X269968Y246424D01*
X266997Y243453D01*
X266666Y242957D01*
X266549Y242371D01*
Y239472D01*
X266666Y238887D01*
X266997Y238390D01*
X269047Y236340D01*
X269543Y236009D01*
X270129Y235892D01*
X273028D01*
X273613Y236009D01*
X274110Y236340D01*
X277740Y239971D01*
X278916D01*
X279501Y240087D01*
X279597Y240152D01*
X280270D01*
X280828Y239593D01*
X281100Y239187D01*
X281971Y238316D01*
Y201815D01*
X282087Y201230D01*
X282419Y200733D01*
X283101Y200051D01*
X283091Y200000D01*
X283260Y199149D01*
X283742Y198427D01*
X284464Y197945D01*
X285315Y197776D01*
X286166Y197945D01*
X286887Y198427D01*
X287369Y199149D01*
X287539Y200000D01*
X287369Y200851D01*
X286887Y201572D01*
X286166Y202055D01*
X285315Y202224D01*
X285029Y203168D01*
Y238950D01*
X284913Y239535D01*
X284581Y240031D01*
X283534Y241079D01*
X283441Y241218D01*
X283828Y242218D01*
X297315D01*
X297987Y242306D01*
X298614Y242566D01*
X299151Y242979D01*
X299211Y243039D01*
X299624Y243577D01*
X300807Y243852D01*
X300971Y243738D01*
Y239303D01*
X300904Y238331D01*
X300904Y238331D01*
Y238331D01*
X299971Y238239D01*
X299943Y238375D01*
X299883Y238679D01*
X299401Y239401D01*
X298679Y239883D01*
X297828Y240052D01*
X296977Y239883D01*
X296256Y239401D01*
X296227Y239358D01*
X295328D01*
X294743Y239241D01*
X294247Y238910D01*
X291265Y235928D01*
X290197D01*
X290168Y235971D01*
X289446Y236454D01*
X288595Y236623D01*
X287744Y236454D01*
X287023Y235971D01*
X286541Y235250D01*
X286371Y234399D01*
X286541Y233548D01*
X287023Y232826D01*
X287744Y232344D01*
X288595Y232175D01*
X289446Y232344D01*
X290168Y232826D01*
X290197Y232870D01*
X291899D01*
X292484Y232986D01*
X292980Y233317D01*
X295400Y235737D01*
X296256Y236256D01*
X296977Y235774D01*
X297828Y235605D01*
X298679Y235774D01*
X299401Y236256D01*
X299883Y236977D01*
X299943Y237282D01*
X299971Y237418D01*
X300904Y237326D01*
Y237326D01*
X300904Y237326D01*
X300971Y236354D01*
Y228697D01*
X291104Y218830D01*
X290772Y218334D01*
X290656Y217749D01*
Y211601D01*
X290613Y211573D01*
X290130Y210851D01*
X289961Y210000D01*
X290130Y209149D01*
X290613Y208428D01*
X291334Y207945D01*
X292185Y207776D01*
X293036Y207945D01*
X293758Y208428D01*
X294240Y209149D01*
X294409Y210000D01*
X294240Y210851D01*
X293758Y211573D01*
X293714Y211601D01*
Y217115D01*
X303581Y226982D01*
X303913Y227478D01*
X304029Y228064D01*
Y245407D01*
X303913Y245992D01*
X303581Y246488D01*
X293704Y256366D01*
X293714Y256417D01*
X293545Y257268D01*
X293063Y257989D01*
X292341Y258471D01*
X291857Y258568D01*
X291465Y259538D01*
X291463Y259588D01*
X296962Y265086D01*
X297293Y265582D01*
X297410Y266168D01*
Y358151D01*
X298410Y358454D01*
X298428Y358428D01*
X299149Y357945D01*
X300000Y357776D01*
X300851Y357945D01*
X301572Y358428D01*
X302055Y359149D01*
X302224Y360000D01*
X302055Y360851D01*
X301572Y361573D01*
X301529Y361601D01*
Y371866D01*
X305633Y375971D01*
X339367D01*
X357786Y357551D01*
X357776Y357500D01*
X357945Y356649D01*
X358428Y355927D01*
X359149Y355445D01*
X360000Y355276D01*
X360851Y355445D01*
X361573Y355927D01*
X362055Y356649D01*
X362224Y357500D01*
X362055Y358351D01*
X361573Y359072D01*
X360851Y359555D01*
X360000Y359724D01*
X359949Y359714D01*
X341081Y378581D01*
X340585Y378913D01*
X340000Y379029D01*
X305000D01*
X304415Y378913D01*
X303919Y378581D01*
X298919Y373581D01*
X298587Y373085D01*
X298471Y372500D01*
Y362572D01*
X298410Y362527D01*
X297410Y363030D01*
Y389347D01*
X304348Y396285D01*
X304651Y396345D01*
X305373Y396828D01*
X305855Y397549D01*
X306024Y398400D01*
X305855Y399251D01*
X305373Y399973D01*
X304651Y400455D01*
X303800Y400624D01*
X302949Y400455D01*
X302227Y399973D01*
X301745Y399251D01*
X301576Y398400D01*
X301669Y397932D01*
X294799Y391062D01*
X294467Y390565D01*
X294351Y389980D01*
Y368529D01*
X293351Y368189D01*
X293281Y368281D01*
X292320Y369018D01*
X291201Y369482D01*
X290000Y369640D01*
X288799Y369482D01*
X287680Y369018D01*
X286719Y368281D01*
X285982Y367320D01*
X285518Y366201D01*
X285360Y365000D01*
X285518Y363799D01*
X285982Y362680D01*
X286719Y361719D01*
X287680Y360982D01*
X288799Y360518D01*
X290000Y360360D01*
X291201Y360518D01*
X292320Y360982D01*
X293281Y361719D01*
X293351Y361811D01*
X294351Y361471D01*
Y328499D01*
X293427Y328116D01*
X279029Y342514D01*
Y390654D01*
X279820Y390982D01*
X280781Y391719D01*
X281518Y392680D01*
X281982Y393799D01*
X282140Y395000D01*
X282125Y395115D01*
X283020Y395971D01*
X290000D01*
X290585Y396087D01*
X291081Y396419D01*
X293133Y398471D01*
X298696D01*
X299282Y398587D01*
X299778Y398919D01*
X303309Y402450D01*
X305619D01*
X322288Y385781D01*
X322784Y385449D01*
X323369Y385333D01*
X398705D01*
X399291Y385449D01*
X399787Y385781D01*
X411819Y397813D01*
X412388Y397627D01*
X412800Y397380D01*
X412945Y396649D01*
X413427Y395928D01*
X414149Y395445D01*
X415000Y395276D01*
X415851Y395445D01*
X416573Y395928D01*
X417055Y396649D01*
X417206Y397413D01*
X420433Y400639D01*
X421002Y400526D01*
X421515Y400307D01*
X421986Y399693D01*
X422060Y399402D01*
X421970Y398397D01*
X417708Y394135D01*
X417092Y394012D01*
X416370Y393530D01*
X415888Y392809D01*
X415719Y391958D01*
X415888Y391107D01*
X416370Y390385D01*
X417092Y389903D01*
X417943Y389734D01*
X418794Y389903D01*
X419515Y390385D01*
X419998Y391107D01*
X420961Y391328D01*
X421057Y391306D01*
X421419Y390432D01*
X421489Y390341D01*
X421150Y389683D01*
X420948Y389403D01*
X420232Y389261D01*
X419571Y388819D01*
X410738Y379985D01*
X410396Y379941D01*
X409769Y379681D01*
X409232Y379268D01*
X342560Y312597D01*
X332845D01*
X332173Y312509D01*
X331546Y312249D01*
X331009Y311836D01*
X329164Y309991D01*
X328751Y309454D01*
X328491Y308827D01*
X328403Y308155D01*
Y303343D01*
X328491Y302671D01*
X328751Y302045D01*
X329164Y301507D01*
X332403Y298267D01*
Y265000D01*
Y260000D01*
Y255000D01*
X332491Y254328D01*
X332751Y253701D01*
X333164Y253164D01*
X333701Y252751D01*
X334328Y252491D01*
X335000Y252403D01*
X335672Y252491D01*
X336298Y252751D01*
X336836Y253164D01*
X337249Y253701D01*
X337509Y254328D01*
X337597Y255000D01*
Y260000D01*
Y265000D01*
Y299343D01*
X337509Y300015D01*
X337249Y300642D01*
X336836Y301180D01*
X336055Y301961D01*
X336469Y302961D01*
X345000D01*
X345780Y303116D01*
X346442Y303558D01*
X408345Y365461D01*
X420844D01*
X421222Y364872D01*
X421374Y364461D01*
X421005Y363570D01*
X420865Y362500D01*
X421005Y361430D01*
X421419Y360432D01*
X422076Y359576D01*
X422932Y358919D01*
X423930Y358506D01*
X425000Y358365D01*
X426070Y358506D01*
X427068Y358919D01*
X427924Y359576D01*
X428581Y360432D01*
X428995Y361430D01*
X429135Y362500D01*
X428995Y363570D01*
X428685Y364317D01*
X428597Y364607D01*
X429013Y365647D01*
X429067Y365683D01*
X434442Y371058D01*
X434884Y371720D01*
X435039Y372500D01*
Y374490D01*
X435929Y375108D01*
X436039Y375106D01*
X436719Y374219D01*
X437680Y373482D01*
X438799Y373018D01*
X440000Y372860D01*
X441201Y373018D01*
X442320Y373482D01*
X443281Y374219D01*
X444018Y375180D01*
X444482Y376299D01*
X444640Y377500D01*
X444482Y378701D01*
X444018Y379820D01*
X443281Y380781D01*
X442320Y381518D01*
X441201Y381982D01*
X441353Y382961D01*
X470000D01*
X470780Y383116D01*
X471442Y383558D01*
X475824Y387940D01*
X475851Y387945D01*
X476573Y388427D01*
X477055Y389149D01*
X477154Y389648D01*
X478095Y390038D01*
X478174Y390042D01*
X483054Y385162D01*
X482958Y384188D01*
X482476Y383466D01*
X482307Y382615D01*
X482476Y381764D01*
X482958Y381043D01*
X483680Y380561D01*
X484531Y380391D01*
X484582Y380401D01*
X504565Y360419D01*
X505061Y360087D01*
X505350Y360029D01*
X505252Y359029D01*
X503961D01*
X501909Y361081D01*
X501413Y361413D01*
X500828Y361529D01*
X495634D01*
X488581Y368581D01*
X488085Y368913D01*
X487500Y369029D01*
X466601D01*
X466573Y369073D01*
X465851Y369555D01*
X465000Y369724D01*
X464149Y369555D01*
X463427Y369073D01*
X463179Y368701D01*
X462139Y368443D01*
X461948Y368465D01*
X461886Y368514D01*
X461831Y369668D01*
X468133Y375971D01*
X480899D01*
X480928Y375927D01*
X481649Y375445D01*
X482500Y375276D01*
X483351Y375445D01*
X484072Y375927D01*
X484555Y376649D01*
X484724Y377500D01*
X484555Y378351D01*
X484072Y379072D01*
X483351Y379555D01*
X482500Y379724D01*
X481649Y379555D01*
X480928Y379072D01*
X480899Y379029D01*
X467500D01*
X466915Y378913D01*
X466419Y378581D01*
X458919Y371081D01*
X458587Y370585D01*
X458471Y370000D01*
Y367500D01*
X458587Y366915D01*
X458919Y366419D01*
X461419Y363919D01*
X461915Y363587D01*
X462500Y363471D01*
X467393D01*
X467594Y363222D01*
X467860Y362523D01*
X446419Y341081D01*
X446087Y340585D01*
X445971Y340000D01*
Y320644D01*
X413919Y288592D01*
X413587Y288095D01*
X413471Y287510D01*
Y286916D01*
X413427Y286887D01*
X412945Y286166D01*
X412776Y285315D01*
X412945Y284464D01*
X413427Y283742D01*
X414149Y283260D01*
X415000Y283091D01*
X415851Y283260D01*
X416573Y283742D01*
X417055Y284464D01*
X417224Y285315D01*
X417055Y286166D01*
X416573Y286887D01*
X416570Y286917D01*
X422547Y292894D01*
X423471Y292511D01*
Y286916D01*
X423427Y286887D01*
X422945Y286166D01*
X422776Y285315D01*
X422945Y284464D01*
X423427Y283742D01*
X424149Y283260D01*
X425000Y283091D01*
X425851Y283260D01*
X426573Y283742D01*
X427055Y284464D01*
X427224Y285315D01*
X427055Y286166D01*
X426573Y286887D01*
X426529Y286916D01*
Y294367D01*
X432547Y300384D01*
X433471Y300001D01*
Y286916D01*
X433427Y286887D01*
X432945Y286166D01*
X432776Y285315D01*
X432945Y284464D01*
X433427Y283742D01*
X434149Y283260D01*
X435000Y283091D01*
X435851Y283260D01*
X436573Y283742D01*
X437055Y284464D01*
X437224Y285315D01*
X437055Y286166D01*
X436573Y286887D01*
X436529Y286916D01*
Y301856D01*
X442547Y307874D01*
X443471Y307491D01*
Y286916D01*
X443428Y286887D01*
X442945Y286166D01*
X442776Y285315D01*
X442945Y284464D01*
X443428Y283742D01*
X444149Y283260D01*
X445000Y283091D01*
X445851Y283260D01*
X446572Y283742D01*
X447055Y284464D01*
X447224Y285315D01*
X447055Y286166D01*
X446572Y286887D01*
X446529Y286916D01*
Y309346D01*
X454386Y317202D01*
X454717Y317699D01*
X454834Y318284D01*
Y320764D01*
X455834Y321068D01*
X455928Y320928D01*
X456649Y320445D01*
X457500Y320276D01*
X458351Y320445D01*
X459072Y320928D01*
X459555Y321649D01*
X459724Y322500D01*
X459555Y323351D01*
X459072Y324073D01*
X459029Y324101D01*
Y329366D01*
X469514Y339851D01*
X491380D01*
X491966Y339967D01*
X492462Y340299D01*
X503167Y351004D01*
X503499Y351501D01*
X503615Y352086D01*
Y353541D01*
X503711Y354021D01*
Y355860D01*
X503801Y355971D01*
X517623D01*
X517674Y355863D01*
X517915Y354913D01*
X517419Y354581D01*
X507551Y344714D01*
X507500Y344724D01*
X506649Y344555D01*
X506093Y344183D01*
X505194Y344554D01*
X505112Y345449D01*
X507449Y347786D01*
X507500Y347776D01*
X508351Y347945D01*
X509072Y348428D01*
X509555Y349149D01*
X509724Y350000D01*
X509555Y350851D01*
X509072Y351572D01*
X508351Y352055D01*
X507500Y352224D01*
X506649Y352055D01*
X505928Y351572D01*
X505445Y350851D01*
X505276Y350000D01*
X505286Y349949D01*
X502419Y347081D01*
X502087Y346585D01*
X501971Y346000D01*
Y340843D01*
X502087Y340258D01*
X502419Y339762D01*
X505762Y336419D01*
X506258Y336087D01*
X506843Y335971D01*
X510843D01*
X511428Y336087D01*
X511925Y336419D01*
X514319Y338813D01*
X514888Y338627D01*
X515300Y338380D01*
X515445Y337649D01*
X515928Y336928D01*
X515971Y336899D01*
Y320685D01*
X461819Y266532D01*
X461487Y266036D01*
X461371Y265451D01*
Y206023D01*
X439953Y184606D01*
X439029Y184989D01*
Y197500D01*
X438913Y198085D01*
X438581Y198581D01*
X430332Y206831D01*
X430720Y207857D01*
X431166Y207945D01*
X431887Y208428D01*
X432370Y209149D01*
X432539Y210000D01*
X432370Y210851D01*
X431887Y211573D01*
X431166Y212055D01*
X430315Y212224D01*
X430264Y212214D01*
X424029Y218448D01*
Y232500D01*
X423913Y233085D01*
X423581Y233581D01*
X416081Y241081D01*
X415585Y241413D01*
X415000Y241529D01*
X405000D01*
X404415Y241413D01*
X403919Y241081D01*
X389372Y226535D01*
X360639D01*
X355804Y231369D01*
Y293631D01*
X380644Y318471D01*
X425000D01*
X425585Y318587D01*
X426081Y318919D01*
X432449Y325286D01*
X432500Y325276D01*
X433351Y325445D01*
X434072Y325927D01*
X434555Y326649D01*
X434724Y327500D01*
X434555Y328351D01*
X434072Y329072D01*
X433351Y329555D01*
X432500Y329724D01*
X431649Y329555D01*
X430928Y329072D01*
X430445Y328351D01*
X430276Y327500D01*
X430286Y327449D01*
X424367Y321529D01*
X381499D01*
X381116Y322453D01*
X388986Y330323D01*
X389601Y330445D01*
X390322Y330927D01*
X390805Y331649D01*
X390974Y332500D01*
X390805Y333351D01*
X390322Y334072D01*
X389601Y334555D01*
X388750Y334724D01*
X387899Y334555D01*
X387177Y334072D01*
X386695Y333351D01*
X386526Y332500D01*
X386578Y332241D01*
X351419Y297081D01*
X351087Y296585D01*
X350971Y296000D01*
Y230000D01*
X351087Y229415D01*
X351419Y228919D01*
X358919Y221419D01*
X359415Y221087D01*
X360000Y220971D01*
X390596D01*
X391181Y221087D01*
X391677Y221419D01*
X406229Y235971D01*
X414356D01*
X418466Y231861D01*
Y227505D01*
X418471Y227479D01*
Y215000D01*
X418587Y214415D01*
X418919Y213919D01*
X435971Y196867D01*
Y183133D01*
X434367Y181529D01*
X406290D01*
X404576Y183244D01*
X404555Y183351D01*
X404073Y184072D01*
X403351Y184555D01*
X402500Y184724D01*
X401649Y184555D01*
X400927Y184072D01*
X400445Y183351D01*
X400276Y182500D01*
X400445Y181649D01*
X400927Y180928D01*
X401649Y180446D01*
X402500Y180276D01*
X402600Y180296D01*
X402826Y180029D01*
X402361Y179029D01*
X375000D01*
X374415Y178913D01*
X373919Y178581D01*
X343919Y148581D01*
X343587Y148085D01*
X343471Y147500D01*
Y111219D01*
X341419Y109167D01*
X341419Y109167D01*
X341281Y109029D01*
X302500D01*
X301915Y108913D01*
X301419Y108581D01*
X296419Y103581D01*
X296087Y103085D01*
X295971Y102500D01*
Y96843D01*
X296087Y96258D01*
X296419Y95762D01*
X300762Y91419D01*
X301258Y91087D01*
X301843Y90971D01*
X305899D01*
X305927Y90927D01*
X306649Y90446D01*
X307500Y90276D01*
X308351Y90446D01*
X309072Y90927D01*
X309555Y91649D01*
X309700Y92380D01*
X310112Y92627D01*
X310681Y92813D01*
X344575Y58919D01*
X345072Y58587D01*
X345657Y58471D01*
X353399D01*
X353428Y58428D01*
X354149Y57946D01*
X355000Y57776D01*
X355851Y57946D01*
X356573Y58428D01*
X357055Y59149D01*
X357224Y60000D01*
X357055Y60851D01*
X356573Y61572D01*
X355851Y62055D01*
X355000Y62224D01*
X354149Y62055D01*
X353428Y61572D01*
X353399Y61529D01*
X346290D01*
X309238Y98581D01*
X308742Y98913D01*
X308157Y99029D01*
X304101D01*
X304072Y99072D01*
X303351Y99555D01*
X302500Y99724D01*
X301649Y99555D01*
X300927Y99072D01*
X300445Y98351D01*
X300437Y98308D01*
X300258Y98132D01*
X299331Y97874D01*
X299029Y98145D01*
Y101866D01*
X303134Y105971D01*
X341914D01*
X342499Y106087D01*
X342531Y106108D01*
X343168Y105331D01*
X341866Y104029D01*
X311601D01*
X311573Y104072D01*
X310851Y104554D01*
X310000Y104724D01*
X309149Y104554D01*
X308428Y104072D01*
X307945Y103351D01*
X307776Y102500D01*
X307945Y101649D01*
X308428Y100927D01*
X309149Y100445D01*
X310000Y100276D01*
X310851Y100445D01*
X311573Y100927D01*
X311601Y100971D01*
X342500D01*
X343085Y101087D01*
X343581Y101419D01*
X348581Y106419D01*
X348913Y106915D01*
X349029Y107500D01*
Y146856D01*
X366020Y163847D01*
X366697Y163600D01*
X366971Y163383D01*
Y130470D01*
X367087Y129885D01*
X367419Y129388D01*
X370286Y126521D01*
X370276Y126470D01*
X370445Y125619D01*
X370928Y124897D01*
X371649Y124415D01*
X372500Y124246D01*
X373351Y124415D01*
X374073Y124897D01*
X374555Y125619D01*
X374724Y126470D01*
X374555Y127321D01*
X374073Y128042D01*
X373351Y128524D01*
X372500Y128694D01*
X372449Y128683D01*
X370029Y131103D01*
Y132972D01*
X370563Y133242D01*
X371029Y133359D01*
X371649Y132946D01*
X372500Y132776D01*
X373351Y132946D01*
X374073Y133428D01*
X374555Y134149D01*
X374724Y135000D01*
X374555Y135851D01*
X374073Y136573D01*
X374029Y136601D01*
Y161937D01*
X375047Y162954D01*
X375971Y162572D01*
Y117500D01*
X376087Y116915D01*
X376419Y116419D01*
X401880Y90957D01*
Y68537D01*
X401347Y68266D01*
X400880Y68149D01*
X400261Y68563D01*
X399410Y68732D01*
X398559Y68563D01*
X397837Y68081D01*
X397469Y67529D01*
X391107D01*
X390521Y67413D01*
X390025Y67081D01*
X381419Y58475D01*
X381087Y57979D01*
X380971Y57393D01*
Y37500D01*
X381087Y36915D01*
X381419Y36419D01*
X388919Y28919D01*
X389415Y28587D01*
X390000Y28471D01*
X397334D01*
X397758Y28187D01*
X398343Y28071D01*
X401657D01*
X402242Y28187D01*
X402666Y28471D01*
X442968D01*
X443553Y28587D01*
X444049Y28919D01*
X446102Y30971D01*
X488696D01*
X488919Y30432D01*
X489576Y29576D01*
X490432Y28919D01*
X491430Y28506D01*
X492500Y28365D01*
X493570Y28506D01*
X494568Y28919D01*
X495424Y29576D01*
X496081Y30432D01*
X496494Y31430D01*
X496635Y32500D01*
X496494Y33570D01*
X496081Y34568D01*
X495424Y35424D01*
X494568Y36081D01*
X493570Y36494D01*
X492500Y36635D01*
X491430Y36494D01*
X490432Y36081D01*
X489576Y35424D01*
X488919Y34568D01*
X488696Y34029D01*
X473330D01*
X472948Y34953D01*
X503970Y65975D01*
X504302Y66472D01*
X504418Y67057D01*
Y70386D01*
X504910Y70776D01*
X505900Y70333D01*
Y65900D01*
X514100D01*
Y74100D01*
X514075D01*
X513692Y75024D01*
X514971Y76302D01*
X515971Y75888D01*
Y67500D01*
X516087Y66915D01*
X516419Y66419D01*
X518919Y63919D01*
X519415Y63587D01*
X520000Y63471D01*
X547837D01*
X548422Y63587D01*
X548919Y63919D01*
X551081Y66081D01*
X551413Y66578D01*
X551529Y67163D01*
Y95000D01*
X551413Y95585D01*
X551081Y96081D01*
X548581Y98581D01*
X548085Y98913D01*
X547500Y99029D01*
X535634D01*
X533087Y101576D01*
X533469Y102500D01*
X555000D01*
Y60000D01*
X580000D01*
Y10000D01*
X235000D01*
Y60000D01*
X180000D01*
Y245000D01*
X235000Y300000D01*
Y495000D01*
X565000D01*
Y300000D01*
D02*
G37*
G36*
X294351Y289553D02*
Y271029D01*
X293351Y270689D01*
X293281Y270781D01*
X292320Y271518D01*
X291201Y271982D01*
X290500Y272074D01*
Y267500D01*
X290000D01*
Y267000D01*
X285426D01*
X285518Y266299D01*
X285982Y265180D01*
X286719Y264219D01*
X287680Y263482D01*
X288593Y263104D01*
X288883Y262428D01*
X288945Y261991D01*
X288586Y261529D01*
X287500D01*
X286915Y261413D01*
X286419Y261081D01*
X284330Y258993D01*
X282548D01*
X282165Y259917D01*
X282844Y260596D01*
X282896Y260586D01*
X283747Y260755D01*
X284469Y261237D01*
X284951Y261959D01*
X285120Y262810D01*
X284951Y263661D01*
X284469Y264382D01*
X283747Y264864D01*
X282896Y265034D01*
X282045Y264864D01*
X281324Y264382D01*
X280842Y263661D01*
X280672Y262810D01*
X280682Y262760D01*
X278827Y260905D01*
X261548D01*
X260963Y260788D01*
X260467Y260457D01*
X249039Y249029D01*
X244101D01*
X244073Y249073D01*
X243351Y249555D01*
X242500Y249724D01*
X241649Y249555D01*
X240928Y249073D01*
X240445Y248351D01*
X240276Y247500D01*
X240445Y246649D01*
X240928Y245928D01*
X241649Y245445D01*
X242500Y245276D01*
X243351Y245445D01*
X244073Y245928D01*
X244101Y245971D01*
X246795D01*
X247178Y245047D01*
X246302Y244171D01*
X240492D01*
X237214Y247449D01*
X237224Y247500D01*
X237055Y248351D01*
X236573Y249073D01*
X235851Y249555D01*
X235000Y249724D01*
X234149Y249555D01*
X233428Y249073D01*
X232945Y248351D01*
X232776Y247500D01*
X232945Y246649D01*
X233428Y245928D01*
X234149Y245445D01*
X235000Y245276D01*
X235051Y245286D01*
X238308Y242029D01*
X237894Y241029D01*
X224822D01*
X219804Y246047D01*
Y266866D01*
X232362Y279424D01*
X242953D01*
X243539Y279540D01*
X244035Y279872D01*
X249925Y285762D01*
X253731D01*
X254316Y285879D01*
X254813Y286210D01*
X256128Y287526D01*
X257309D01*
X257870Y287637D01*
X258074Y287597D01*
X258925Y287766D01*
X259647Y288248D01*
X259970Y288732D01*
X260540Y288886D01*
X261445Y288649D01*
X261928Y287928D01*
X262649Y287445D01*
X263500Y287276D01*
X264351Y287445D01*
X264374Y287461D01*
X265626D01*
X265649Y287445D01*
X266500Y287276D01*
X267351Y287445D01*
X267374Y287461D01*
X273784D01*
X274198Y286461D01*
X272907Y285170D01*
X263448D01*
X262862Y285054D01*
X262452Y284780D01*
X262181Y284834D01*
X261330Y284665D01*
X260608Y284183D01*
X260126Y283461D01*
X259957Y282610D01*
X260126Y281759D01*
X260608Y281037D01*
X261330Y280555D01*
X262181Y280386D01*
X263032Y280555D01*
X263753Y281037D01*
X264235Y281759D01*
X264306Y282112D01*
X273541D01*
X274126Y282228D01*
X274622Y282560D01*
X281559Y289496D01*
X282336Y288859D01*
X282113Y288526D01*
X281944Y287675D01*
X282113Y286824D01*
X282595Y286102D01*
X283317Y285620D01*
X284168Y285451D01*
X285019Y285620D01*
X285740Y286102D01*
X286222Y286824D01*
X286238Y286901D01*
X289759D01*
X290344Y287017D01*
X290840Y287349D01*
X293427Y289935D01*
X294351Y289553D01*
D02*
G37*
G36*
X470246Y199225D02*
Y105725D01*
X470362Y105140D01*
X470694Y104644D01*
X473919Y101419D01*
X474415Y101087D01*
X475000Y100971D01*
X475384D01*
X475483Y99971D01*
X475444Y99963D01*
X474948Y99631D01*
X470369Y95052D01*
X470037Y94556D01*
X469921Y93970D01*
Y91314D01*
X468995Y91070D01*
X468581Y92068D01*
X467924Y92924D01*
X467068Y93581D01*
X466070Y93994D01*
X465500Y94070D01*
Y90000D01*
Y85930D01*
X466070Y86006D01*
X467068Y86419D01*
X467924Y87076D01*
X468581Y87932D01*
X468995Y88930D01*
X469921Y88686D01*
Y81314D01*
X468995Y81070D01*
X468581Y82068D01*
X467924Y82924D01*
X467068Y83581D01*
X466070Y83995D01*
X465000Y84135D01*
X463930Y83995D01*
X462932Y83581D01*
X462076Y82924D01*
X461419Y82068D01*
X461005Y81070D01*
X460865Y80000D01*
X461005Y78930D01*
X461229Y78391D01*
X458207Y75370D01*
X457204Y75230D01*
X456862Y75301D01*
X453771Y78391D01*
X453995Y78930D01*
X454135Y80000D01*
X453995Y81070D01*
X453581Y82068D01*
X452924Y82924D01*
X452068Y83581D01*
X451070Y83995D01*
X450000Y84135D01*
X448930Y83995D01*
X447932Y83581D01*
X447076Y82924D01*
X446419Y82068D01*
X446097Y81291D01*
X445097Y81490D01*
Y88510D01*
X446097Y88709D01*
X446419Y87932D01*
X447076Y87076D01*
X447932Y86419D01*
X448930Y86006D01*
X449500Y85930D01*
Y90000D01*
Y94070D01*
X448930Y93994D01*
X447932Y93581D01*
X447076Y92924D01*
X446419Y92068D01*
X446097Y91291D01*
X445097Y91490D01*
Y92500D01*
X445009Y93172D01*
X444749Y93799D01*
X444336Y94336D01*
X411836Y126836D01*
X397597Y141076D01*
Y151195D01*
X398281Y151719D01*
X399018Y152680D01*
X399482Y153799D01*
X399640Y155000D01*
X399482Y156201D01*
X399018Y157320D01*
X398281Y158281D01*
X397320Y159018D01*
X396201Y159482D01*
X395887Y159523D01*
X395529Y160579D01*
X398421Y163471D01*
X405899D01*
X405928Y163427D01*
X406649Y162945D01*
X407500Y162776D01*
X408351Y162945D01*
X409072Y163427D01*
X409555Y164149D01*
X409724Y165000D01*
X409555Y165851D01*
X409072Y166572D01*
X408351Y167054D01*
X407500Y167224D01*
X406649Y167054D01*
X405928Y166572D01*
X405899Y166529D01*
X397787D01*
X397202Y166413D01*
X396706Y166081D01*
X396106Y165481D01*
X395092Y165730D01*
X395019Y165809D01*
X395097Y166400D01*
X395008Y167072D01*
X394749Y167699D01*
X394617Y167871D01*
X395086Y168871D01*
X437951D01*
X438536Y168987D01*
X439033Y169319D01*
X440340Y170626D01*
X441094Y169965D01*
X440982Y169820D01*
X440518Y168701D01*
X440426Y168000D01*
X444500D01*
Y172074D01*
X443799Y171982D01*
X442680Y171518D01*
X442535Y171406D01*
X441874Y172160D01*
X469322Y199608D01*
X470246Y199225D01*
D02*
G37*
G36*
X388022Y158773D02*
X388519Y157746D01*
X388487Y157698D01*
X388371Y157113D01*
Y126390D01*
X388260Y126225D01*
X388091Y125374D01*
X388260Y124523D01*
X388742Y123802D01*
X389464Y123319D01*
X390315Y123150D01*
X391166Y123319D01*
X391887Y123802D01*
X392370Y124523D01*
X392539Y125374D01*
X392370Y126225D01*
X391887Y126946D01*
X391429Y127253D01*
Y139734D01*
X392429Y139799D01*
X392492Y139328D01*
X392751Y138701D01*
X393164Y138164D01*
X408164Y123164D01*
X408471Y122857D01*
Y106601D01*
X408427Y106572D01*
X407945Y105851D01*
X407776Y105000D01*
X407945Y104149D01*
X408427Y103428D01*
X409149Y102945D01*
X410000Y102776D01*
X410851Y102945D01*
X411573Y103428D01*
X412055Y104149D01*
X412224Y105000D01*
X412055Y105851D01*
X411573Y106572D01*
X411529Y106601D01*
Y118491D01*
X412453Y118874D01*
X436409Y94918D01*
X436226Y94420D01*
X435896Y94017D01*
X435500Y94070D01*
Y90000D01*
Y85930D01*
X436070Y86006D01*
X437068Y86419D01*
X437924Y87076D01*
X438581Y87932D01*
X438903Y88709D01*
X439903Y88510D01*
Y81490D01*
X438903Y81291D01*
X438581Y82068D01*
X437924Y82924D01*
X437068Y83581D01*
X436070Y83995D01*
X435000Y84135D01*
X433930Y83995D01*
X432932Y83581D01*
X432076Y82924D01*
X431419Y82068D01*
X431005Y81070D01*
X430865Y80000D01*
X431005Y78930D01*
X431419Y77932D01*
X432076Y77076D01*
X432932Y76419D01*
X433930Y76006D01*
X435000Y75865D01*
X436070Y76006D01*
X437068Y76419D01*
X437924Y77076D01*
X438581Y77932D01*
X438903Y78709D01*
X439903Y78510D01*
Y74576D01*
X439100Y74100D01*
X438903Y74100D01*
X430900D01*
Y65900D01*
X438903D01*
X439100Y65900D01*
X439903Y65424D01*
Y62689D01*
X439992Y62017D01*
X440251Y61390D01*
X440664Y60852D01*
X441563Y59953D01*
X441180Y59029D01*
X421601D01*
X421572Y59073D01*
X420851Y59554D01*
X420000Y59724D01*
X419149Y59554D01*
X418428Y59073D01*
X417945Y58351D01*
X417776Y57500D01*
X417945Y56649D01*
X418428Y55927D01*
X419149Y55445D01*
X420000Y55276D01*
X420851Y55445D01*
X421572Y55927D01*
X421601Y55971D01*
X443414D01*
X447888Y51497D01*
X448384Y51165D01*
X448969Y51049D01*
X454991D01*
X455160Y50848D01*
X455462Y50106D01*
X454386Y49029D01*
X421601D01*
X421572Y49073D01*
X420851Y49555D01*
X420000Y49724D01*
X419149Y49555D01*
X418428Y49073D01*
X417945Y48351D01*
X417776Y47500D01*
X417945Y46649D01*
X418115Y46396D01*
X417691Y45365D01*
X417065Y45294D01*
X406783Y55577D01*
X406287Y55908D01*
X405701Y56025D01*
X401260D01*
X401232Y56068D01*
X400510Y56550D01*
X399659Y56719D01*
X398808Y56550D01*
X398087Y56068D01*
X397605Y55346D01*
X397435Y54495D01*
X397605Y53644D01*
X398087Y52923D01*
X398541Y52619D01*
X398237Y51619D01*
X397182D01*
X397153Y51663D01*
X396432Y52145D01*
X395581Y52314D01*
X394730Y52145D01*
X394110Y51731D01*
X393644Y51848D01*
X393110Y52118D01*
Y59402D01*
X393713Y59804D01*
X394195Y60526D01*
X394364Y61377D01*
X394195Y62228D01*
X393713Y62949D01*
X392991Y63432D01*
X392794Y63471D01*
X392893Y64471D01*
X398533D01*
X398559Y64454D01*
X399342Y64298D01*
X399516Y64029D01*
X399800Y63342D01*
X399140Y62682D01*
X399089Y62692D01*
X398238Y62523D01*
X397516Y62041D01*
X397034Y61319D01*
X396865Y60468D01*
X397034Y59617D01*
X397516Y58896D01*
X398238Y58414D01*
X399089Y58244D01*
X399940Y58414D01*
X400661Y58896D01*
X401144Y59617D01*
X401313Y60468D01*
X401303Y60519D01*
X404491Y63708D01*
X404823Y64204D01*
X404939Y64789D01*
Y91590D01*
X404823Y92176D01*
X404491Y92672D01*
X379029Y118133D01*
Y139146D01*
X379992Y139328D01*
X380251Y138701D01*
X380664Y138164D01*
X381202Y137751D01*
X381828Y137492D01*
X382500Y137403D01*
X383172Y137492D01*
X383799Y137751D01*
X384336Y138164D01*
X384749Y138701D01*
X385009Y139328D01*
X385097Y140000D01*
Y156424D01*
X387511Y158838D01*
X388022Y158773D01*
D02*
G37*
G36*
X506728Y92471D02*
X506419Y92068D01*
X506005Y91070D01*
X505931Y90500D01*
X510000D01*
Y89500D01*
X505931D01*
X506005Y88930D01*
X506419Y87932D01*
X507035Y87129D01*
X506994Y86887D01*
X506667Y86129D01*
X499600D01*
X499015Y86013D01*
X498519Y85681D01*
X496609Y83772D01*
X496070Y83995D01*
X495000Y84135D01*
X493930Y83995D01*
X492932Y83581D01*
X492076Y82924D01*
X491419Y82068D01*
X491006Y81070D01*
X490865Y80000D01*
X491006Y78930D01*
X491419Y77932D01*
X492076Y77076D01*
X492932Y76419D01*
X493930Y76006D01*
X495000Y75865D01*
X496070Y76006D01*
X497068Y76419D01*
X497924Y77076D01*
X498581Y77932D01*
X498994Y78930D01*
X499135Y80000D01*
X498994Y81070D01*
X498771Y81609D01*
X500234Y83071D01*
X505928D01*
X506421Y82071D01*
X506419Y82068D01*
X506005Y81070D01*
X505865Y80000D01*
X505997Y78992D01*
X500100Y73094D01*
X499728Y73141D01*
X499100Y73442D01*
Y74100D01*
X491929D01*
Y74360D01*
X491813Y74945D01*
X491481Y75442D01*
X485842Y81081D01*
X485346Y81413D01*
X484760Y81529D01*
X483804D01*
X483581Y82068D01*
X482924Y82924D01*
X482068Y83581D01*
X481070Y83995D01*
X480000Y84135D01*
X478930Y83995D01*
X477932Y83581D01*
X477529Y83272D01*
X476529Y83765D01*
Y86235D01*
X477529Y86728D01*
X477932Y86419D01*
X478930Y86006D01*
X479500Y85930D01*
Y90000D01*
X480000D01*
Y90500D01*
X484069D01*
X483994Y91070D01*
X483581Y92068D01*
X483272Y92471D01*
X483765Y93471D01*
X491235D01*
X491728Y92471D01*
X491419Y92068D01*
X491006Y91070D01*
X490931Y90500D01*
X495000D01*
X499069D01*
X498994Y91070D01*
X498581Y92068D01*
X498272Y92471D01*
X498765Y93471D01*
X506235D01*
X506728Y92471D01*
D02*
G37*
G36*
X533919Y96419D02*
X534415Y96087D01*
X535000Y95971D01*
X546867D01*
X548471Y94367D01*
Y67796D01*
X547204Y66529D01*
X544100D01*
Y74100D01*
X535900D01*
Y66529D01*
X529100D01*
Y74100D01*
X520900D01*
Y67677D01*
X519900Y67263D01*
X519029Y68133D01*
Y85888D01*
X520029Y86302D01*
X522214Y84117D01*
X522158Y82987D01*
X522076Y82924D01*
X521419Y82068D01*
X521005Y81070D01*
X520865Y80000D01*
X521005Y78930D01*
X521419Y77932D01*
X522076Y77076D01*
X522932Y76419D01*
X523930Y76006D01*
X525000Y75865D01*
X526070Y76006D01*
X527068Y76419D01*
X527924Y77076D01*
X528581Y77932D01*
X528995Y78930D01*
X529135Y80000D01*
X528995Y81070D01*
X528581Y82068D01*
X527924Y82924D01*
X527068Y83581D01*
X526070Y83995D01*
X525790Y84031D01*
X525472Y85005D01*
X525537Y85262D01*
X526005Y85997D01*
X526070Y86006D01*
X527068Y86419D01*
X527924Y87076D01*
X528581Y87932D01*
X528995Y88930D01*
X528995Y88933D01*
X530051Y89292D01*
X531426Y87917D01*
Y87045D01*
X531542Y86459D01*
X531874Y85963D01*
X536229Y81609D01*
X536005Y81070D01*
X535865Y80000D01*
X536005Y78930D01*
X536419Y77932D01*
X537076Y77076D01*
X537932Y76419D01*
X538930Y76006D01*
X540000Y75865D01*
X541070Y76006D01*
X542068Y76419D01*
X542924Y77076D01*
X543581Y77932D01*
X543995Y78930D01*
X544135Y80000D01*
X543995Y81070D01*
X543581Y82068D01*
X542924Y82924D01*
X542068Y83581D01*
X541070Y83995D01*
X540000Y84135D01*
X538930Y83995D01*
X538391Y83772D01*
X534485Y87678D01*
Y88550D01*
X534368Y89135D01*
X534037Y89632D01*
X524037Y99631D01*
X523541Y99963D01*
X523502Y99971D01*
X523601Y100971D01*
X529366D01*
X533919Y96419D01*
D02*
G37*
%LPC*%
G36*
X280500Y477224D02*
X279649Y477055D01*
X279626Y477039D01*
X273374D01*
X273351Y477055D01*
X272500Y477224D01*
X271649Y477055D01*
X270928Y476573D01*
X270445Y475851D01*
X270276Y475000D01*
X270445Y474149D01*
X270928Y473427D01*
X271649Y472945D01*
X272500Y472776D01*
X273351Y472945D01*
X273374Y472961D01*
X279626D01*
X279649Y472945D01*
X280500Y472776D01*
X281351Y472945D01*
X282072Y473427D01*
X282555Y474149D01*
X282724Y475000D01*
X282555Y475851D01*
X282072Y476573D01*
X281351Y477055D01*
X280500Y477224D01*
D02*
G37*
G36*
X370320Y476587D02*
X369469Y476418D01*
X368748Y475936D01*
X368266Y475214D01*
X368097Y474364D01*
X368266Y473513D01*
X368748Y472791D01*
X369469Y472309D01*
X370320Y472140D01*
X371171Y472309D01*
X371195Y472324D01*
X377246D01*
X377318Y472276D01*
X378169Y472107D01*
X379020Y472276D01*
X379742Y472758D01*
X380224Y473480D01*
X380393Y474331D01*
X380224Y475182D01*
X379742Y475903D01*
X379020Y476385D01*
X378169Y476554D01*
X377406Y476403D01*
X371195D01*
X371171Y476418D01*
X370320Y476587D01*
D02*
G37*
G36*
X381500Y470724D02*
X380649Y470555D01*
X380626Y470539D01*
X368674D01*
X368651Y470555D01*
X367800Y470724D01*
X366949Y470555D01*
X366228Y470073D01*
X365745Y469351D01*
X365576Y468500D01*
X365745Y467649D01*
X366228Y466927D01*
X366949Y466445D01*
X367800Y466276D01*
X368651Y466445D01*
X368674Y466461D01*
X380626D01*
X380649Y466445D01*
X381500Y466276D01*
X382351Y466445D01*
X383072Y466927D01*
X383555Y467649D01*
X383724Y468500D01*
X383555Y469351D01*
X383072Y470073D01*
X382351Y470555D01*
X381500Y470724D01*
D02*
G37*
G36*
X320315Y469724D02*
X319464Y469555D01*
X318742Y469072D01*
X318714Y469029D01*
X293786D01*
X293758Y469072D01*
X293036Y469555D01*
X292185Y469724D01*
X291334Y469555D01*
X290613Y469072D01*
X290130Y468351D01*
X289961Y467500D01*
X290130Y466649D01*
X290613Y465928D01*
X291334Y465445D01*
X292185Y465276D01*
X293036Y465445D01*
X293758Y465928D01*
X293786Y465971D01*
X318714D01*
X318742Y465928D01*
X319464Y465445D01*
X320315Y465276D01*
X321166Y465445D01*
X321887Y465928D01*
X322370Y466649D01*
X322539Y467500D01*
X322370Y468351D01*
X321887Y469072D01*
X321166Y469555D01*
X320315Y469724D01*
D02*
G37*
G36*
X265315Y477224D02*
X264464Y477055D01*
X263742Y476573D01*
X263260Y475851D01*
X263091Y475000D01*
X263260Y474149D01*
X263276Y474126D01*
Y451685D01*
X263431Y450905D01*
X263873Y450243D01*
X266440Y447676D01*
X266445Y447649D01*
X266928Y446927D01*
X267649Y446445D01*
X268500Y446276D01*
X269351Y446445D01*
X269374Y446461D01*
X285792D01*
X286488Y446322D01*
X287339Y446492D01*
X288060Y446974D01*
X288542Y447695D01*
X288711Y448546D01*
X288542Y449397D01*
X288060Y450119D01*
X287339Y450601D01*
X286488Y450770D01*
X285637Y450601D01*
X285544Y450539D01*
X269374D01*
X269351Y450555D01*
X269324Y450560D01*
X267354Y452530D01*
Y468975D01*
X268354Y469074D01*
X268389Y468901D01*
X268446Y468614D01*
X268928Y467893D01*
X269649Y467411D01*
X270500Y467241D01*
X271351Y467411D01*
X271374Y467426D01*
X283305D01*
X283730Y467342D01*
X284580Y467511D01*
X285302Y467993D01*
X285784Y468714D01*
X285953Y469565D01*
X285784Y470416D01*
X285302Y471138D01*
X284580Y471620D01*
X283730Y471789D01*
X282878Y471620D01*
X282705Y471504D01*
X271374D01*
X271351Y471520D01*
X270500Y471689D01*
X269649Y471520D01*
X268928Y471038D01*
X268446Y470316D01*
X268389Y470029D01*
X268354Y469856D01*
X267354Y469955D01*
Y474126D01*
X267370Y474149D01*
X267539Y475000D01*
X267370Y475851D01*
X266887Y476573D01*
X266166Y477055D01*
X265315Y477224D01*
D02*
G37*
G36*
X470315Y469724D02*
X469464Y469555D01*
X468743Y469072D01*
X468260Y468351D01*
X468091Y467500D01*
X468260Y466649D01*
X468743Y465928D01*
X469464Y465445D01*
X470315Y465276D01*
X471166Y465445D01*
X471887Y465928D01*
X471916Y465971D01*
X476866D01*
X477786Y465051D01*
X477776Y465000D01*
X477945Y464149D01*
X478428Y463427D01*
X479149Y462945D01*
X480000Y462776D01*
X480851Y462945D01*
X481572Y463427D01*
X482055Y464149D01*
X482224Y465000D01*
X482055Y465851D01*
X481572Y466573D01*
X480851Y467055D01*
X480000Y467224D01*
X479949Y467214D01*
X478581Y468581D01*
X478085Y468913D01*
X477500Y469029D01*
X471916D01*
X471887Y469072D01*
X471166Y469555D01*
X470315Y469724D01*
D02*
G37*
G36*
X362815Y467224D02*
X361964Y467055D01*
X361243Y466573D01*
X360760Y465851D01*
X360591Y465000D01*
X360760Y464149D01*
X360776Y464126D01*
Y451985D01*
X360931Y451205D01*
X361373Y450543D01*
X363940Y447976D01*
X363945Y447949D01*
X364427Y447227D01*
X365149Y446745D01*
X366000Y446576D01*
X366851Y446745D01*
X366874Y446761D01*
X383126D01*
X383149Y446745D01*
X384000Y446576D01*
X384851Y446745D01*
X385573Y447227D01*
X386055Y447949D01*
X386224Y448800D01*
X386055Y449651D01*
X385573Y450373D01*
X384851Y450855D01*
X384000Y451024D01*
X383149Y450855D01*
X383126Y450839D01*
X366874D01*
X366851Y450855D01*
X366824Y450860D01*
X364854Y452830D01*
Y464126D01*
X364869Y464149D01*
X365039Y465000D01*
X364869Y465851D01*
X364387Y466573D01*
X363666Y467055D01*
X362815Y467224D01*
D02*
G37*
G36*
X493000Y434069D02*
Y430500D01*
X496569D01*
X496494Y431070D01*
X496081Y432068D01*
X495424Y432924D01*
X494568Y433581D01*
X493570Y433994D01*
X493000Y434069D01*
D02*
G37*
G36*
X492000D02*
X491430Y433994D01*
X490432Y433581D01*
X489576Y432924D01*
X488919Y432068D01*
X488506Y431070D01*
X488431Y430500D01*
X492000D01*
Y434069D01*
D02*
G37*
G36*
X496569Y429500D02*
X493000D01*
Y425931D01*
X493570Y426006D01*
X494568Y426419D01*
X495424Y427076D01*
X496081Y427932D01*
X496494Y428930D01*
X496569Y429500D01*
D02*
G37*
G36*
X492000D02*
X488431D01*
X488506Y428930D01*
X488919Y427932D01*
X489576Y427076D01*
X490432Y426419D01*
X491430Y426006D01*
X492000Y425931D01*
Y429500D01*
D02*
G37*
G36*
X474069Y419500D02*
X470500D01*
Y415931D01*
X471070Y416006D01*
X472068Y416419D01*
X472924Y417076D01*
X473581Y417932D01*
X473994Y418930D01*
X474069Y419500D01*
D02*
G37*
G36*
X457069D02*
X453500D01*
Y415931D01*
X454070Y416006D01*
X455068Y416419D01*
X455924Y417076D01*
X456581Y417932D01*
X456994Y418930D01*
X457069Y419500D01*
D02*
G37*
G36*
X469500D02*
X465931D01*
X466006Y418930D01*
X466419Y417932D01*
X467076Y417076D01*
X467932Y416419D01*
X468930Y416006D01*
X469500Y415931D01*
Y419500D01*
D02*
G37*
G36*
X492500Y424135D02*
X491430Y423994D01*
X490432Y423581D01*
X489576Y422924D01*
X488919Y422068D01*
X488506Y421070D01*
X488365Y420000D01*
X488506Y418930D01*
X488919Y417932D01*
X489576Y417076D01*
X490432Y416419D01*
X491430Y416006D01*
X492500Y415865D01*
X493570Y416006D01*
X494568Y416419D01*
X495424Y417076D01*
X496081Y417932D01*
X496494Y418930D01*
X496635Y420000D01*
X496494Y421070D01*
X496081Y422068D01*
X495424Y422924D01*
X494568Y423581D01*
X493570Y423994D01*
X492500Y424135D01*
D02*
G37*
G36*
X480000Y422224D02*
X479149Y422055D01*
X478428Y421572D01*
X477945Y420851D01*
X477776Y420000D01*
X477945Y419149D01*
X477961Y419126D01*
Y412500D01*
X478116Y411720D01*
X478558Y411058D01*
X488517Y401099D01*
X488506Y401070D01*
X488365Y400000D01*
X488506Y398930D01*
X488919Y397932D01*
X489576Y397076D01*
X490432Y396419D01*
X491430Y396006D01*
X492500Y395865D01*
X493570Y396006D01*
X494568Y396419D01*
X495424Y397076D01*
X496081Y397932D01*
X496494Y398930D01*
X496635Y400000D01*
X496494Y401070D01*
X496081Y402068D01*
X495424Y402924D01*
X494568Y403581D01*
X493570Y403995D01*
X492500Y404135D01*
X491430Y403995D01*
X491401Y403983D01*
X489544Y405840D01*
X490205Y406593D01*
X490432Y406419D01*
X491430Y406005D01*
X492500Y405865D01*
X493570Y406005D01*
X494568Y406419D01*
X495424Y407076D01*
X496081Y407932D01*
X496494Y408930D01*
X496635Y410000D01*
X496494Y411070D01*
X496081Y412068D01*
X495424Y412924D01*
X494568Y413581D01*
X493570Y413995D01*
X492500Y414135D01*
X491430Y413995D01*
X490432Y413581D01*
X489576Y412924D01*
X488919Y412068D01*
X488506Y411070D01*
X488365Y410000D01*
X488506Y408930D01*
X488919Y407932D01*
X489093Y407705D01*
X488340Y407044D01*
X482039Y413345D01*
Y419126D01*
X482055Y419149D01*
X482224Y420000D01*
X482055Y420851D01*
X481572Y421572D01*
X480851Y422055D01*
X480000Y422224D01*
D02*
G37*
G36*
X550500Y382074D02*
Y378000D01*
X554574D01*
X554482Y378701D01*
X554018Y379820D01*
X553281Y380781D01*
X552320Y381518D01*
X551201Y381982D01*
X550500Y382074D01*
D02*
G37*
G36*
X549500D02*
X548799Y381982D01*
X547680Y381518D01*
X546719Y380781D01*
X545982Y379820D01*
X545518Y378701D01*
X545426Y378000D01*
X549500D01*
Y382074D01*
D02*
G37*
G36*
X554574Y377000D02*
X550500D01*
Y372926D01*
X551201Y373018D01*
X552320Y373482D01*
X553281Y374219D01*
X554018Y375180D01*
X554482Y376299D01*
X554574Y377000D01*
D02*
G37*
G36*
X549500D02*
X545426D01*
X545518Y376299D01*
X545982Y375180D01*
X546719Y374219D01*
X547680Y373482D01*
X548799Y373018D01*
X549500Y372926D01*
Y377000D01*
D02*
G37*
G36*
X310000Y374724D02*
X309149Y374555D01*
X308428Y374073D01*
X307945Y373351D01*
X307776Y372500D01*
X307945Y371649D01*
X308428Y370928D01*
X308471Y370899D01*
Y368773D01*
X308078Y368451D01*
X306988D01*
X306573Y369073D01*
X305851Y369555D01*
X305000Y369724D01*
X304149Y369555D01*
X303428Y369073D01*
X302945Y368351D01*
X302776Y367500D01*
X302945Y366649D01*
X303428Y365928D01*
X304149Y365445D01*
X305000Y365276D01*
X305583Y365392D01*
X307403D01*
X308043Y364640D01*
X307749Y363673D01*
X307608Y363645D01*
X306887Y363163D01*
X306405Y362442D01*
X306236Y361591D01*
X306405Y360740D01*
X306887Y360018D01*
X307608Y359536D01*
X308459Y359367D01*
X309310Y359536D01*
X310032Y360018D01*
X310293Y360044D01*
X337377Y332960D01*
Y330274D01*
X337334Y330246D01*
X336852Y329524D01*
X336683Y328673D01*
X336852Y327822D01*
X337008Y327589D01*
X337059Y327513D01*
X336282Y326875D01*
X322303Y340854D01*
X322249Y340984D01*
X321836Y341521D01*
X321299Y341934D01*
X320672Y342194D01*
X320000Y342282D01*
X319328Y342194D01*
X318702Y341934D01*
X318164Y341521D01*
X317751Y340984D01*
X317492Y340357D01*
X317403Y339685D01*
Y339484D01*
X317492Y338812D01*
X317751Y338186D01*
X318164Y337648D01*
X332403Y323408D01*
Y322500D01*
X332491Y321828D01*
X332751Y321201D01*
X333164Y320664D01*
X333701Y320251D01*
X334328Y319991D01*
X335000Y319903D01*
X335672Y319991D01*
X336298Y320251D01*
X336836Y320664D01*
X337249Y321201D01*
X337509Y321828D01*
X337597Y322500D01*
Y324484D01*
X337509Y325156D01*
X337249Y325783D01*
X336979Y326135D01*
X337050Y326212D01*
X337050Y326212D01*
X337671Y326875D01*
X337741Y326829D01*
X338055Y326619D01*
X338906Y326449D01*
X339757Y326619D01*
X340479Y327101D01*
X340961Y327822D01*
X341130Y328673D01*
X340961Y329524D01*
X340529Y330171D01*
X340637Y330808D01*
X341658Y331179D01*
X346477Y326361D01*
Y324649D01*
X346433Y324621D01*
X345951Y323899D01*
X345782Y323048D01*
X345951Y322197D01*
X346433Y321476D01*
X347155Y320994D01*
X348006Y320824D01*
X348857Y320994D01*
X349578Y321476D01*
X350060Y322197D01*
X350230Y323048D01*
X350060Y323899D01*
X349578Y324621D01*
X349535Y324649D01*
Y326994D01*
X349419Y327579D01*
X349230Y327862D01*
X349573Y328862D01*
X352575D01*
X352604Y328819D01*
X353326Y328337D01*
X354176Y328168D01*
X355028Y328337D01*
X355749Y328819D01*
X356231Y329540D01*
X356400Y330391D01*
X356231Y331242D01*
X355749Y331964D01*
X355028Y332446D01*
X354176Y332615D01*
X353326Y332446D01*
X352604Y331964D01*
X352575Y331921D01*
X348030D01*
X320529Y359421D01*
X320887Y360477D01*
X321201Y360518D01*
X322320Y360982D01*
X323281Y361719D01*
X324018Y362680D01*
X324482Y363799D01*
X324640Y365000D01*
X324482Y366201D01*
X324018Y367320D01*
X323281Y368281D01*
X322320Y369018D01*
X321201Y369482D01*
X320000Y369640D01*
X318799Y369482D01*
X317680Y369018D01*
X316719Y368281D01*
X315982Y367320D01*
X315518Y366201D01*
X315477Y365887D01*
X314421Y365529D01*
X311529Y368421D01*
Y370899D01*
X311573Y370928D01*
X312055Y371649D01*
X312224Y372500D01*
X312055Y373351D01*
X311573Y374073D01*
X310851Y374555D01*
X310000Y374724D01*
D02*
G37*
G36*
X425000Y356635D02*
X423930Y356494D01*
X422932Y356081D01*
X422076Y355424D01*
X421419Y354568D01*
X421005Y353570D01*
X420865Y352500D01*
X421005Y351430D01*
X421419Y350432D01*
X422076Y349576D01*
X422932Y348919D01*
X423930Y348505D01*
X425000Y348365D01*
X426070Y348505D01*
X427068Y348919D01*
X427924Y349576D01*
X428581Y350432D01*
X428995Y351430D01*
X429135Y352500D01*
X428995Y353570D01*
X428581Y354568D01*
X427924Y355424D01*
X427068Y356081D01*
X426070Y356494D01*
X425000Y356635D01*
D02*
G37*
G36*
X425500Y346569D02*
Y343000D01*
X429070D01*
X428995Y343570D01*
X428581Y344568D01*
X427924Y345424D01*
X427068Y346081D01*
X426070Y346495D01*
X425500Y346569D01*
D02*
G37*
G36*
X424500D02*
X423930Y346495D01*
X422932Y346081D01*
X422076Y345424D01*
X421419Y344568D01*
X421005Y343570D01*
X420930Y343000D01*
X424500D01*
Y346569D01*
D02*
G37*
G36*
X429070Y342000D02*
X425500D01*
Y338431D01*
X426070Y338506D01*
X427068Y338919D01*
X427924Y339576D01*
X428581Y340432D01*
X428995Y341430D01*
X429070Y342000D01*
D02*
G37*
G36*
X424500D02*
X420930D01*
X421005Y341430D01*
X421419Y340432D01*
X422076Y339576D01*
X422932Y338919D01*
X423930Y338506D01*
X424500Y338431D01*
Y342000D01*
D02*
G37*
G36*
X429100Y336600D02*
X420900D01*
Y328400D01*
X429100D01*
Y336600D01*
D02*
G37*
G36*
X480000Y304724D02*
X479149Y304555D01*
X478428Y304072D01*
X477945Y303351D01*
X477776Y302500D01*
X477786Y302449D01*
X461419Y286081D01*
X461087Y285585D01*
X460971Y285000D01*
Y279101D01*
X460927Y279072D01*
X460445Y278351D01*
X460276Y277500D01*
X460445Y276649D01*
X460927Y275927D01*
X461649Y275445D01*
X462500Y275276D01*
X463351Y275445D01*
X464073Y275927D01*
X464555Y276649D01*
X464724Y277500D01*
X464555Y278351D01*
X464073Y279072D01*
X464029Y279101D01*
Y284366D01*
X479949Y300286D01*
X480000Y300276D01*
X480851Y300445D01*
X481572Y300927D01*
X482055Y301649D01*
X482224Y302500D01*
X482055Y303351D01*
X481572Y304072D01*
X480851Y304555D01*
X480000Y304724D01*
D02*
G37*
G36*
X270055Y323888D02*
X269204Y323719D01*
X268482Y323237D01*
X268000Y322515D01*
X267831Y321664D01*
X268000Y320813D01*
X268016Y320790D01*
Y320757D01*
X268171Y319977D01*
X268613Y319315D01*
X272129Y315799D01*
Y299203D01*
X270576Y297650D01*
X270134Y296989D01*
X269979Y296208D01*
Y296049D01*
X269964Y296026D01*
X269794Y295175D01*
X269964Y294324D01*
X270446Y293603D01*
X271167Y293121D01*
X272018Y292951D01*
X272869Y293121D01*
X273591Y293603D01*
X274073Y294324D01*
X274242Y295175D01*
X274180Y295486D01*
X275610Y296917D01*
X276052Y297578D01*
X276207Y298358D01*
Y316644D01*
X276052Y317424D01*
X275610Y318085D01*
X272238Y321458D01*
X272278Y321664D01*
X272109Y322515D01*
X271627Y323237D01*
X270906Y323719D01*
X270055Y323888D01*
D02*
G37*
G36*
X400000Y312851D02*
X397990Y312692D01*
X396029Y312222D01*
X394166Y311450D01*
X392447Y310396D01*
X390913Y309087D01*
X389604Y307553D01*
X388550Y305834D01*
X387778Y303971D01*
X387308Y302010D01*
X387149Y300000D01*
X387308Y297990D01*
X387778Y296029D01*
X388550Y294166D01*
X389604Y292447D01*
X390913Y290913D01*
X392447Y289604D01*
X394166Y288550D01*
X396029Y287778D01*
X397990Y287308D01*
X400000Y287149D01*
X402010Y287308D01*
X403971Y287778D01*
X405834Y288550D01*
X407553Y289604D01*
X409087Y290913D01*
X410396Y292447D01*
X411450Y294166D01*
X412222Y296029D01*
X412692Y297990D01*
X412851Y300000D01*
X412692Y302010D01*
X412222Y303971D01*
X411450Y305834D01*
X410396Y307553D01*
X409087Y309087D01*
X407553Y310396D01*
X405834Y311450D01*
X403971Y312222D01*
X402010Y312692D01*
X400000Y312851D01*
D02*
G37*
G36*
X572500Y279640D02*
X571299Y279482D01*
X570180Y279018D01*
X569219Y278281D01*
X568482Y277320D01*
X568018Y276201D01*
X567860Y275000D01*
X568018Y273799D01*
X568482Y272680D01*
X569219Y271719D01*
X570180Y270982D01*
X571299Y270518D01*
X572500Y270360D01*
X573701Y270518D01*
X574820Y270982D01*
X575781Y271719D01*
X576518Y272680D01*
X576982Y273799D01*
X577140Y275000D01*
X576982Y276201D01*
X576518Y277320D01*
X575781Y278281D01*
X574820Y279018D01*
X573701Y279482D01*
X572500Y279640D01*
D02*
G37*
G36*
X552500D02*
X551299Y279482D01*
X550180Y279018D01*
X549219Y278281D01*
X548482Y277320D01*
X548018Y276201D01*
X547860Y275000D01*
X548018Y273799D01*
X548482Y272680D01*
X549219Y271719D01*
X550180Y270982D01*
X551299Y270518D01*
X552500Y270360D01*
X553701Y270518D01*
X554820Y270982D01*
X555781Y271719D01*
X556518Y272680D01*
X556982Y273799D01*
X557140Y275000D01*
X556982Y276201D01*
X556518Y277320D01*
X555781Y278281D01*
X554820Y279018D01*
X553701Y279482D01*
X552500Y279640D01*
D02*
G37*
G36*
X527500Y259029D02*
X492500D01*
X491915Y258913D01*
X491419Y258581D01*
X486991Y254154D01*
X486201Y254482D01*
X485000Y254640D01*
X483799Y254482D01*
X482680Y254018D01*
X481719Y253281D01*
X480982Y252320D01*
X480518Y251201D01*
X480360Y250000D01*
X480518Y248799D01*
X480982Y247680D01*
X481719Y246719D01*
X482680Y245982D01*
X483799Y245518D01*
X485000Y245360D01*
X486201Y245518D01*
X487320Y245982D01*
X488281Y246719D01*
X489018Y247680D01*
X489482Y248799D01*
X489640Y250000D01*
X489482Y251201D01*
X489154Y251991D01*
X493133Y255971D01*
X526866D01*
X528346Y254491D01*
X527685Y253738D01*
X527320Y254018D01*
X526201Y254482D01*
X525000Y254640D01*
X523799Y254482D01*
X522680Y254018D01*
X521719Y253281D01*
X520982Y252320D01*
X520518Y251201D01*
X520360Y250000D01*
X520518Y248799D01*
X520982Y247680D01*
X521719Y246719D01*
X522680Y245982D01*
X523799Y245518D01*
X525000Y245360D01*
X526201Y245518D01*
X526991Y245846D01*
X536419Y236419D01*
X536915Y236087D01*
X537500Y235971D01*
X578696D01*
X578919Y235432D01*
X579576Y234576D01*
X580432Y233919D01*
X581430Y233506D01*
X582500Y233365D01*
X583570Y233506D01*
X584568Y233919D01*
X585424Y234576D01*
X586081Y235432D01*
X586494Y236430D01*
X586635Y237500D01*
X586494Y238570D01*
X586081Y239568D01*
X586546Y240591D01*
X587171Y240666D01*
X588729Y239109D01*
X588506Y238570D01*
X588365Y237500D01*
X588506Y236430D01*
X588919Y235432D01*
X589576Y234576D01*
X590432Y233919D01*
X591430Y233506D01*
X592500Y233365D01*
X593570Y233506D01*
X594568Y233919D01*
X595424Y234576D01*
X596081Y235432D01*
X596494Y236430D01*
X596635Y237500D01*
X596494Y238570D01*
X596081Y239568D01*
X595424Y240424D01*
X594568Y241081D01*
X593570Y241494D01*
X592500Y241635D01*
X591430Y241494D01*
X590891Y241271D01*
X588581Y243581D01*
X588085Y243913D01*
X587500Y244029D01*
X543133D01*
X541654Y245509D01*
X542315Y246262D01*
X542680Y245982D01*
X543799Y245518D01*
X545000Y245360D01*
X546201Y245518D01*
X547320Y245982D01*
X548281Y246719D01*
X549018Y247680D01*
X549345Y248471D01*
X589366D01*
X598729Y239109D01*
X598505Y238570D01*
X598365Y237500D01*
X598505Y236430D01*
X598919Y235432D01*
X599576Y234576D01*
X600432Y233919D01*
X601430Y233506D01*
X602500Y233365D01*
X603570Y233506D01*
X604568Y233919D01*
X605424Y234576D01*
X606081Y235432D01*
X606495Y236430D01*
X606635Y237500D01*
X606495Y238570D01*
X606081Y239568D01*
X605424Y240424D01*
X604568Y241081D01*
X603570Y241494D01*
X602500Y241635D01*
X601430Y241494D01*
X600891Y241271D01*
X591081Y251081D01*
X590585Y251413D01*
X590000Y251529D01*
X549345D01*
X549018Y252320D01*
X548281Y253281D01*
X547320Y254018D01*
X546201Y254482D01*
X545000Y254640D01*
X543799Y254482D01*
X542680Y254018D01*
X541719Y253281D01*
X540982Y252320D01*
X540518Y251201D01*
X540360Y250000D01*
X540518Y248799D01*
X540982Y247680D01*
X541262Y247315D01*
X540509Y246654D01*
X528581Y258581D01*
X528085Y258913D01*
X527500Y259029D01*
D02*
G37*
G36*
X616600Y241600D02*
X613000D01*
Y238000D01*
X616600D01*
Y241600D01*
D02*
G37*
G36*
X612000D02*
X608400D01*
Y238000D01*
X612000D01*
Y241600D01*
D02*
G37*
G36*
X616600Y237000D02*
X613000D01*
Y233400D01*
X616600D01*
Y237000D01*
D02*
G37*
G36*
X612000D02*
X608400D01*
Y233400D01*
X612000D01*
Y237000D01*
D02*
G37*
G36*
X612500Y231635D02*
X611430Y231494D01*
X610432Y231081D01*
X609576Y230424D01*
X608919Y229568D01*
X608505Y228570D01*
X608365Y227500D01*
X608505Y226430D01*
X608919Y225432D01*
X609576Y224576D01*
X610432Y223919D01*
X611430Y223505D01*
X612500Y223365D01*
X613570Y223505D01*
X614568Y223919D01*
X615424Y224576D01*
X616081Y225432D01*
X616495Y226430D01*
X616635Y227500D01*
X616495Y228570D01*
X616081Y229568D01*
X615424Y230424D01*
X614568Y231081D01*
X613570Y231494D01*
X612500Y231635D01*
D02*
G37*
G36*
X602500D02*
X601430Y231494D01*
X600432Y231081D01*
X599576Y230424D01*
X598919Y229568D01*
X598505Y228570D01*
X598365Y227500D01*
X598505Y226430D01*
X598919Y225432D01*
X599576Y224576D01*
X600432Y223919D01*
X601430Y223505D01*
X602500Y223365D01*
X603570Y223505D01*
X604568Y223919D01*
X605424Y224576D01*
X606081Y225432D01*
X606495Y226430D01*
X606635Y227500D01*
X606495Y228570D01*
X606081Y229568D01*
X605424Y230424D01*
X604568Y231081D01*
X603570Y231494D01*
X602500Y231635D01*
D02*
G37*
G36*
X505000Y254640D02*
X503799Y254482D01*
X502680Y254018D01*
X501719Y253281D01*
X500982Y252320D01*
X500518Y251201D01*
X500360Y250000D01*
X500518Y248799D01*
X500982Y247680D01*
X501719Y246719D01*
X502680Y245982D01*
X503799Y245518D01*
X505000Y245360D01*
X506201Y245518D01*
X506991Y245846D01*
X531419Y221419D01*
X531915Y221087D01*
X532500Y220971D01*
X587500D01*
X588085Y221087D01*
X588581Y221419D01*
X590891Y223728D01*
X591430Y223505D01*
X592500Y223365D01*
X593570Y223505D01*
X594568Y223919D01*
X595424Y224576D01*
X596081Y225432D01*
X596494Y226430D01*
X596635Y227500D01*
X596494Y228570D01*
X596081Y229568D01*
X595424Y230424D01*
X594568Y231081D01*
X593570Y231494D01*
X592500Y231635D01*
X591430Y231494D01*
X590432Y231081D01*
X589576Y230424D01*
X588919Y229568D01*
X588506Y228570D01*
X588365Y227500D01*
X588506Y226430D01*
X588729Y225891D01*
X587171Y224334D01*
X586546Y224409D01*
X586081Y225432D01*
X586494Y226430D01*
X586635Y227500D01*
X586494Y228570D01*
X586081Y229568D01*
X585424Y230424D01*
X584568Y231081D01*
X583570Y231494D01*
X582500Y231635D01*
X581430Y231494D01*
X580432Y231081D01*
X579576Y230424D01*
X578919Y229568D01*
X578506Y228570D01*
X578365Y227500D01*
X578506Y226430D01*
X578919Y225432D01*
X579228Y225029D01*
X578735Y224029D01*
X533134D01*
X509154Y248009D01*
X509482Y248799D01*
X509640Y250000D01*
X509482Y251201D01*
X509018Y252320D01*
X508281Y253281D01*
X507320Y254018D01*
X506201Y254482D01*
X505000Y254640D01*
D02*
G37*
G36*
X337500Y229640D02*
X336299Y229482D01*
X335180Y229018D01*
X334219Y228281D01*
X333482Y227320D01*
X333018Y226201D01*
X332860Y225000D01*
X333018Y223799D01*
X333482Y222680D01*
X334219Y221719D01*
X335180Y220982D01*
X336299Y220518D01*
X337500Y220360D01*
X338701Y220518D01*
X339820Y220982D01*
X340781Y221719D01*
X341518Y222680D01*
X341982Y223799D01*
X342140Y225000D01*
X341982Y226201D01*
X341518Y227320D01*
X340781Y228281D01*
X339820Y229018D01*
X338701Y229482D01*
X337500Y229640D01*
D02*
G37*
G36*
X438000Y227640D02*
X436799Y227482D01*
X435680Y227018D01*
X434719Y226281D01*
X433982Y225320D01*
X433518Y224201D01*
X433360Y223000D01*
X433518Y221799D01*
X433982Y220680D01*
X434719Y219719D01*
X435680Y218982D01*
X436799Y218518D01*
X438000Y218360D01*
X439201Y218518D01*
X440320Y218982D01*
X441281Y219719D01*
X442018Y220680D01*
X442482Y221799D01*
X442640Y223000D01*
X442482Y224201D01*
X442018Y225320D01*
X441281Y226281D01*
X440320Y227018D01*
X439201Y227482D01*
X438000Y227640D01*
D02*
G37*
G36*
X407500Y225097D02*
X403750D01*
X403078Y225009D01*
X402452Y224749D01*
X401914Y224336D01*
X396914Y219336D01*
X396501Y218798D01*
X396241Y218172D01*
X396153Y217500D01*
X396241Y216828D01*
X396501Y216201D01*
X396914Y215664D01*
X397451Y215251D01*
X398078Y214991D01*
X398750Y214903D01*
X399422Y214991D01*
X400048Y215251D01*
X400586Y215664D01*
X404826Y219903D01*
X407500D01*
X408172Y219991D01*
X408799Y220251D01*
X409336Y220664D01*
X409749Y221201D01*
X410008Y221828D01*
X410097Y222500D01*
X410008Y223172D01*
X409749Y223798D01*
X409336Y224336D01*
X408799Y224749D01*
X408172Y225009D01*
X407500Y225097D01*
D02*
G37*
G36*
X302815Y222224D02*
X301964Y222055D01*
X301242Y221572D01*
X300760Y220851D01*
X300591Y220000D01*
X300760Y219149D01*
X301242Y218427D01*
X301964Y217945D01*
X302815Y217776D01*
X303666Y217945D01*
X304387Y218427D01*
X304416Y218471D01*
X311210D01*
X317227Y212453D01*
X316844Y211529D01*
X304416D01*
X304387Y211573D01*
X303666Y212055D01*
X302815Y212224D01*
X301964Y212055D01*
X301242Y211573D01*
X300760Y210851D01*
X300591Y210000D01*
X300760Y209149D01*
X301242Y208428D01*
X301964Y207945D01*
X302815Y207776D01*
X303666Y207945D01*
X304387Y208428D01*
X304416Y208471D01*
X318699D01*
X328252Y198919D01*
X328748Y198587D01*
X329333Y198471D01*
X372126D01*
X372711Y198587D01*
X373207Y198919D01*
X379949Y205660D01*
X380000Y205650D01*
X380851Y205820D01*
X381573Y206301D01*
X382055Y207023D01*
X382224Y207874D01*
X382055Y208725D01*
X381573Y209447D01*
X380851Y209929D01*
X380000Y210098D01*
X379149Y209929D01*
X378428Y209447D01*
X377945Y208725D01*
X377776Y207874D01*
X377786Y207823D01*
X371493Y201529D01*
X329966D01*
X326137Y205359D01*
X326519Y206283D01*
X348455D01*
X349149Y205820D01*
X350000Y205650D01*
X350851Y205820D01*
X351572Y206301D01*
X352055Y207023D01*
X352224Y207874D01*
X352055Y208725D01*
X351572Y209447D01*
X350851Y209929D01*
X350000Y210098D01*
X349149Y209929D01*
X348428Y209447D01*
X348358Y209342D01*
X324664D01*
X312925Y221081D01*
X312428Y221413D01*
X311843Y221529D01*
X304416D01*
X304387Y221572D01*
X303666Y222055D01*
X302815Y222224D01*
D02*
G37*
G36*
X308000Y150482D02*
Y145500D01*
X312982D01*
X312858Y146436D01*
X312304Y147774D01*
X311423Y148923D01*
X310274Y149804D01*
X308936Y150358D01*
X308000Y150482D01*
D02*
G37*
G36*
X307000D02*
X306064Y150358D01*
X304726Y149804D01*
X303577Y148923D01*
X302696Y147774D01*
X302142Y146436D01*
X302018Y145500D01*
X307000D01*
Y150482D01*
D02*
G37*
G36*
X312982Y144500D02*
X308000D01*
Y139518D01*
X308936Y139642D01*
X310274Y140196D01*
X311423Y141077D01*
X312304Y142226D01*
X312858Y143564D01*
X312982Y144500D01*
D02*
G37*
G36*
X307000D02*
X302018D01*
X302142Y143564D01*
X302696Y142226D01*
X303577Y141077D01*
X304726Y140196D01*
X306064Y139642D01*
X307000Y139518D01*
Y144500D01*
D02*
G37*
G36*
X293000Y150500D02*
X282000D01*
Y139500D01*
X293000D01*
Y150500D01*
D02*
G37*
G36*
X370000Y109724D02*
X369149Y109555D01*
X368427Y109072D01*
X367945Y108351D01*
X367776Y107500D01*
X367786Y107449D01*
X361419Y101081D01*
X361087Y100585D01*
X360971Y100000D01*
Y90000D01*
X361087Y89415D01*
X361419Y88919D01*
X370971Y79366D01*
Y41601D01*
X370928Y41572D01*
X370445Y40851D01*
X370276Y40000D01*
X370445Y39149D01*
X370928Y38427D01*
X371649Y37945D01*
X372500Y37776D01*
X373351Y37945D01*
X374073Y38427D01*
X374555Y39149D01*
X374724Y40000D01*
X374555Y40851D01*
X374073Y41572D01*
X374029Y41601D01*
Y80000D01*
X373913Y80585D01*
X373581Y81081D01*
X370275Y84388D01*
X370633Y85444D01*
X371201Y85518D01*
X372320Y85982D01*
X373281Y86719D01*
X374018Y87680D01*
X374482Y88799D01*
X374640Y90000D01*
X374482Y91201D01*
X374018Y92320D01*
X373281Y93281D01*
X372320Y94018D01*
X371201Y94482D01*
X370000Y94640D01*
X368799Y94482D01*
X367680Y94018D01*
X366719Y93281D01*
X365982Y92320D01*
X365550Y91278D01*
X365465Y91183D01*
X364464Y90854D01*
X364029Y91189D01*
Y99366D01*
X369949Y105286D01*
X370000Y105276D01*
X370851Y105446D01*
X371572Y105928D01*
X372055Y106649D01*
X372224Y107500D01*
X372055Y108351D01*
X371572Y109072D01*
X370851Y109555D01*
X370000Y109724D01*
D02*
G37*
G36*
X220000Y106050D02*
X217489Y105852D01*
X215040Y105264D01*
X212714Y104300D01*
X210566Y102984D01*
X208651Y101349D01*
X207016Y99434D01*
X205700Y97286D01*
X204736Y94960D01*
X204148Y92511D01*
X203951Y90000D01*
X204148Y87489D01*
X204736Y85040D01*
X205700Y82714D01*
X207016Y80566D01*
X208651Y78651D01*
X210566Y77016D01*
X212714Y75700D01*
X215040Y74736D01*
X217489Y74148D01*
X220000Y73950D01*
X222511Y74148D01*
X224960Y74736D01*
X227286Y75700D01*
X229434Y77016D01*
X231349Y78651D01*
X232984Y80566D01*
X234300Y82714D01*
X235264Y85040D01*
X235852Y87489D01*
X236050Y90000D01*
X235852Y92511D01*
X235264Y94960D01*
X234300Y97286D01*
X232984Y99434D01*
X231349Y101349D01*
X229434Y102984D01*
X227286Y104300D01*
X224960Y105264D01*
X222511Y105852D01*
X220000Y106050D01*
D02*
G37*
G36*
X515500Y56570D02*
Y53000D01*
X519069D01*
X518995Y53570D01*
X518581Y54568D01*
X517924Y55424D01*
X517068Y56081D01*
X516070Y56494D01*
X515500Y56570D01*
D02*
G37*
G36*
X514500D02*
X513930Y56494D01*
X512932Y56081D01*
X512076Y55424D01*
X511419Y54568D01*
X511005Y53570D01*
X510930Y53000D01*
X514500D01*
Y56570D01*
D02*
G37*
G36*
X519069Y52000D02*
X515500D01*
Y48430D01*
X516070Y48505D01*
X517068Y48919D01*
X517924Y49576D01*
X518581Y50432D01*
X518995Y51430D01*
X519069Y52000D01*
D02*
G37*
G36*
X514500D02*
X510930D01*
X511005Y51430D01*
X511419Y50432D01*
X512076Y49576D01*
X512932Y48919D01*
X513930Y48505D01*
X514500Y48430D01*
Y52000D01*
D02*
G37*
G36*
X320000Y64724D02*
X319149Y64555D01*
X318427Y64073D01*
X317945Y63351D01*
X317776Y62500D01*
X317945Y61649D01*
X318427Y60927D01*
X319149Y60445D01*
X320000Y60276D01*
X320051Y60286D01*
X325971Y54366D01*
Y47852D01*
X325837Y47826D01*
X325115Y47344D01*
X324633Y46622D01*
X324464Y45771D01*
X324633Y44920D01*
X325115Y44199D01*
X325837Y43717D01*
X326688Y43547D01*
X327539Y43717D01*
X328260Y44199D01*
X328743Y44920D01*
X328911Y45769D01*
X328913Y45772D01*
X329029Y46357D01*
Y55000D01*
X328913Y55585D01*
X328581Y56081D01*
X322214Y62449D01*
X322224Y62500D01*
X322055Y63351D01*
X321572Y64073D01*
X320851Y64555D01*
X320000Y64724D01*
D02*
G37*
G36*
X493000Y46569D02*
Y43000D01*
X496569D01*
X496494Y43570D01*
X496081Y44568D01*
X495424Y45424D01*
X494568Y46081D01*
X493570Y46494D01*
X493000Y46569D01*
D02*
G37*
G36*
X492000D02*
X491430Y46494D01*
X490432Y46081D01*
X489576Y45424D01*
X488919Y44568D01*
X488506Y43570D01*
X488431Y43000D01*
X492000D01*
Y46569D01*
D02*
G37*
G36*
X496569Y42000D02*
X493000D01*
Y38431D01*
X493570Y38506D01*
X494568Y38919D01*
X495424Y39576D01*
X496081Y40432D01*
X496494Y41430D01*
X496569Y42000D01*
D02*
G37*
G36*
X492000D02*
X488431D01*
X488506Y41430D01*
X488919Y40432D01*
X489576Y39576D01*
X490432Y38919D01*
X491430Y38506D01*
X492000Y38431D01*
Y42000D01*
D02*
G37*
G36*
X515000Y46635D02*
X513930Y46494D01*
X512932Y46081D01*
X512076Y45424D01*
X511419Y44568D01*
X511005Y43570D01*
X510865Y42500D01*
X511005Y41430D01*
X511419Y40432D01*
X512076Y39576D01*
X512932Y38919D01*
X513930Y38506D01*
X515000Y38365D01*
X516070Y38506D01*
X517068Y38919D01*
X517924Y39576D01*
X518581Y40432D01*
X518995Y41430D01*
X519135Y42500D01*
X518995Y43570D01*
X518581Y44568D01*
X517924Y45424D01*
X517068Y46081D01*
X516070Y46494D01*
X515000Y46635D01*
D02*
G37*
G36*
Y36635D02*
X513930Y36494D01*
X512932Y36081D01*
X512076Y35424D01*
X511419Y34568D01*
X511005Y33570D01*
X510865Y32500D01*
X511005Y31430D01*
X511419Y30432D01*
X512076Y29576D01*
X512932Y28919D01*
X513930Y28506D01*
X515000Y28365D01*
X516070Y28506D01*
X517068Y28919D01*
X517924Y29576D01*
X518581Y30432D01*
X518995Y31430D01*
X519135Y32500D01*
X518995Y33570D01*
X518581Y34568D01*
X517924Y35424D01*
X517068Y36081D01*
X516070Y36494D01*
X515000Y36635D01*
D02*
G37*
G36*
X519100Y26600D02*
X510900D01*
Y18400D01*
X519100D01*
Y26600D01*
D02*
G37*
G36*
X496600D02*
X488400D01*
Y18400D01*
X496600D01*
Y26600D01*
D02*
G37*
G36*
X289500Y272074D02*
X288799Y271982D01*
X287680Y271518D01*
X286719Y270781D01*
X285982Y269820D01*
X285518Y268701D01*
X285426Y268000D01*
X289500D01*
Y272074D01*
D02*
G37*
G36*
X445500Y172074D02*
Y168000D01*
X449574D01*
X449482Y168701D01*
X449018Y169820D01*
X448281Y170781D01*
X447320Y171518D01*
X446201Y171982D01*
X445500Y172074D01*
D02*
G37*
G36*
X449574Y167000D02*
X445500D01*
Y162926D01*
X446201Y163018D01*
X447320Y163482D01*
X448281Y164219D01*
X449018Y165180D01*
X449482Y166299D01*
X449574Y167000D01*
D02*
G37*
G36*
X444500D02*
X440426D01*
X440518Y166299D01*
X440982Y165180D01*
X441719Y164219D01*
X442680Y163482D01*
X443799Y163018D01*
X444500Y162926D01*
Y167000D01*
D02*
G37*
G36*
X450500Y94070D02*
Y90500D01*
X454070D01*
X453995Y91070D01*
X453581Y92068D01*
X452924Y92924D01*
X452068Y93581D01*
X451070Y93994D01*
X450500Y94070D01*
D02*
G37*
G36*
X464500D02*
X463930Y93994D01*
X462932Y93581D01*
X462076Y92924D01*
X461419Y92068D01*
X461005Y91070D01*
X460930Y90500D01*
X464500D01*
Y94070D01*
D02*
G37*
G36*
X454070Y89500D02*
X450500D01*
Y85930D01*
X451070Y86006D01*
X452068Y86419D01*
X452924Y87076D01*
X453581Y87932D01*
X453995Y88930D01*
X454070Y89500D01*
D02*
G37*
G36*
X464500D02*
X460930D01*
X461005Y88930D01*
X461419Y87932D01*
X462076Y87076D01*
X462932Y86419D01*
X463930Y86006D01*
X464500Y85930D01*
Y89500D01*
D02*
G37*
G36*
X420500Y94070D02*
Y90500D01*
X424069D01*
X423994Y91070D01*
X423581Y92068D01*
X422924Y92924D01*
X422068Y93581D01*
X421070Y93994D01*
X420500Y94070D01*
D02*
G37*
G36*
X434500D02*
X433930Y93994D01*
X432932Y93581D01*
X432076Y92924D01*
X431419Y92068D01*
X431005Y91070D01*
X430931Y90500D01*
X434500D01*
Y94070D01*
D02*
G37*
G36*
X419500D02*
X418930Y93994D01*
X417932Y93581D01*
X417076Y92924D01*
X416419Y92068D01*
X416006Y91070D01*
X415931Y90500D01*
X419500D01*
Y94070D01*
D02*
G37*
G36*
X424069Y89500D02*
X420500D01*
Y85930D01*
X421070Y86006D01*
X422068Y86419D01*
X422924Y87076D01*
X423581Y87932D01*
X423994Y88930D01*
X424069Y89500D01*
D02*
G37*
G36*
X434500D02*
X430931D01*
X431005Y88930D01*
X431419Y87932D01*
X432076Y87076D01*
X432932Y86419D01*
X433930Y86006D01*
X434500Y85930D01*
Y89500D01*
D02*
G37*
G36*
X419500D02*
X415931D01*
X416006Y88930D01*
X416419Y87932D01*
X417076Y87076D01*
X417932Y86419D01*
X418930Y86006D01*
X419500Y85930D01*
Y89500D01*
D02*
G37*
G36*
X420000Y84135D02*
X418930Y83995D01*
X417932Y83581D01*
X417076Y82924D01*
X416419Y82068D01*
X416006Y81070D01*
X415865Y80000D01*
X416006Y78930D01*
X416419Y77932D01*
X417076Y77076D01*
X417932Y76419D01*
X418930Y76006D01*
X420000Y75865D01*
X421070Y76006D01*
X422068Y76419D01*
X422924Y77076D01*
X423581Y77932D01*
X423994Y78930D01*
X424135Y80000D01*
X423994Y81070D01*
X423581Y82068D01*
X422924Y82924D01*
X422068Y83581D01*
X421070Y83995D01*
X420000Y84135D01*
D02*
G37*
G36*
X424100Y74100D02*
X415900D01*
Y65900D01*
X424100D01*
Y74100D01*
D02*
G37*
G36*
X499069Y89500D02*
X495500D01*
Y85930D01*
X496070Y86006D01*
X497068Y86419D01*
X497924Y87076D01*
X498581Y87932D01*
X498994Y88930D01*
X499069Y89500D01*
D02*
G37*
G36*
X484069D02*
X480500D01*
Y85930D01*
X481070Y86006D01*
X482068Y86419D01*
X482924Y87076D01*
X483581Y87932D01*
X483994Y88930D01*
X484069Y89500D01*
D02*
G37*
G36*
X494500D02*
X490931D01*
X491006Y88930D01*
X491419Y87932D01*
X492076Y87076D01*
X492932Y86419D01*
X493930Y86006D01*
X494500Y85930D01*
Y89500D01*
D02*
G37*
G36*
X540500Y94070D02*
Y90500D01*
X544069D01*
X543995Y91070D01*
X543581Y92068D01*
X542924Y92924D01*
X542068Y93581D01*
X541070Y93994D01*
X540500Y94070D01*
D02*
G37*
G36*
X539500D02*
X538930Y93994D01*
X537932Y93581D01*
X537076Y92924D01*
X536419Y92068D01*
X536005Y91070D01*
X535930Y90500D01*
X539500D01*
Y94070D01*
D02*
G37*
G36*
X544069Y89500D02*
X540500D01*
Y85930D01*
X541070Y86006D01*
X542068Y86419D01*
X542924Y87076D01*
X543581Y87932D01*
X543995Y88930D01*
X544069Y89500D01*
D02*
G37*
G36*
X539500D02*
X535930D01*
X536005Y88930D01*
X536419Y87932D01*
X537076Y87076D01*
X537932Y86419D01*
X538930Y86006D01*
X539500Y85930D01*
Y89500D01*
D02*
G37*
%LPD*%
D10*
X478923Y391456D02*
X506829Y363550D01*
X478923Y391456D02*
Y393429D01*
X457500Y322500D02*
Y330000D01*
X468880Y341380D01*
X491380D01*
X484531Y382615D02*
X505646Y361500D01*
X460000Y370000D02*
X467500Y377500D01*
X482500D01*
X460000Y367500D02*
Y370000D01*
Y367500D02*
X462500Y365000D01*
X467500D01*
X465000Y367500D02*
X487500D01*
X495000Y360000D01*
X467500Y365000D02*
X468471Y365971D01*
X486867D01*
X495337Y357500D01*
X484157Y351000D02*
X490000Y356843D01*
Y357500D01*
X502181Y354021D02*
Y355860D01*
X500541Y357500D02*
X502181Y355860D01*
X502086Y352086D02*
Y353925D01*
X491380Y341380D02*
X502086Y352086D01*
Y353925D02*
X502181Y354021D01*
X495337Y357500D02*
X500541D01*
X494225Y349225D02*
X499957Y354957D01*
X500000D01*
X495000Y360000D02*
X500828D01*
X503328Y357500D02*
X520000D01*
X500828Y360000D02*
X503328Y357500D01*
X449754Y339744D02*
X465010Y355000D01*
X482500D01*
X464256Y349225D02*
X494225D01*
X453304Y338274D02*
X464256Y349225D01*
X473321Y405000D02*
X478923Y399398D01*
X508802Y363550D02*
X514771D01*
X505646Y361500D02*
X521657D01*
X480423Y392077D02*
X507450Y365050D01*
X514771Y363550D02*
X515046Y363275D01*
X506829Y363550D02*
X508802D01*
X478923Y393429D02*
Y399398D01*
X470443Y410000D02*
X480423Y400020D01*
Y392077D02*
Y400020D01*
X507450Y365050D02*
X523127D01*
X532825Y355352D01*
X470000Y410000D02*
X470443D01*
X502504Y195504D02*
Y225004D01*
X491000Y184000D02*
X502504Y195504D01*
X500000Y197500D02*
Y228708D01*
X487000Y184500D02*
X500000Y197500D01*
X282500Y262414D02*
X282896Y262810D01*
X273028Y237422D02*
X277107Y241500D01*
X278916D01*
X303800Y397900D02*
Y398400D01*
X295880Y389980D02*
X303800Y397900D01*
X295880Y266168D02*
Y389980D01*
X525000Y250000D02*
X537500Y237500D01*
X423625Y440125D02*
X430000Y446500D01*
X423625Y424333D02*
Y440125D01*
X425400Y438400D02*
X428500Y441500D01*
X425400Y423598D02*
Y438400D01*
X427000Y422687D02*
Y435500D01*
X326310Y393962D02*
X395764D01*
X425400Y423598D01*
X431500Y440000D02*
X435500D01*
X427000Y435500D02*
X431500Y440000D01*
X428950Y433950D02*
X430500Y435500D01*
X428950Y422127D02*
Y433950D01*
X430725Y431725D02*
X434000Y435000D01*
X430725Y421392D02*
Y431725D01*
X432500Y430000D02*
X438500Y436000D01*
X432500Y420657D02*
Y430000D01*
X397235Y390412D02*
X428950Y422127D01*
X396500Y392187D02*
X427000Y422687D01*
X397970Y388637D02*
X430725Y421392D01*
X422875Y367125D02*
X427625D01*
X422500Y367500D02*
X422875Y367125D01*
X421013Y387377D02*
X427902D01*
X422644Y377644D02*
X427744D01*
X425000Y320000D02*
X432500Y327500D01*
X380010Y320000D02*
X425000D01*
X291500Y294500D02*
Y313500D01*
X288500Y291500D02*
X291500Y294500D01*
X290000Y315000D02*
X291500Y313500D01*
X281400Y291500D02*
X288500D01*
X273541Y283641D02*
X281400Y291500D01*
X263448Y283641D02*
X273541D01*
X282566Y247925D02*
X284075Y249433D01*
X268078Y242371D02*
X273632Y247925D01*
X284075Y249433D02*
Y251567D01*
X259597Y253181D02*
X282460D01*
X284075Y251567D01*
X218275Y245413D02*
X224188Y239500D01*
X245916D01*
X261758Y257464D02*
X284964D01*
X246936Y242642D02*
X261758Y257464D01*
X239858Y242642D02*
X246936D01*
X261548Y259375D02*
X279460D01*
X249673Y247500D02*
X261548Y259375D01*
X242500Y247500D02*
X249673D01*
X389900Y125789D02*
Y157113D01*
Y125789D02*
X390315Y125374D01*
X402500Y182500D02*
X403157D01*
X405657Y180000D01*
X435000D01*
X437500Y182500D01*
Y197500D01*
X420000Y215000D02*
X437500Y197500D01*
X412185D02*
X419685Y190000D01*
X395000Y197500D02*
X412185D01*
X422500Y217815D02*
X430315Y210000D01*
X422500Y217815D02*
Y232500D01*
X388750Y332250D02*
Y332500D01*
X352500Y230000D02*
Y296000D01*
X292185Y467500D02*
X320315D01*
X389685D02*
X417815D01*
X470315D02*
X477500D01*
X480000Y465000D01*
X445000Y285315D02*
Y309980D01*
X453304Y318284D01*
X435000Y302490D02*
X451529Y319019D01*
X435000Y285315D02*
Y302490D01*
X425000Y285315D02*
Y295000D01*
X415000Y285315D02*
Y287510D01*
X289759Y288430D02*
X293500Y292171D01*
X284168Y287675D02*
X284923Y288430D01*
X289759D01*
X290000Y315000D02*
Y319685D01*
X277500Y341880D02*
X293500Y325880D01*
X262417Y282610D02*
X263448Y283641D01*
X262181Y282610D02*
X262417D01*
X283500Y201815D02*
Y238950D01*
Y201815D02*
X285315Y200000D01*
X247500Y225000D02*
X262500Y240000D01*
X242500Y225000D02*
X247500D01*
X265429Y240000D02*
X269507Y235922D01*
X262500Y240000D02*
X265429D01*
X276422Y235922D02*
X280000Y239500D01*
X269507Y235922D02*
X276422D01*
X280903Y241681D02*
X282181Y240403D01*
Y240269D02*
X283500Y238950D01*
X273632Y247925D02*
X282566D01*
X278916Y241500D02*
X279097Y241681D01*
X282181Y240269D02*
Y240403D01*
X279097Y241681D02*
X280903D01*
X270129Y237422D02*
X273028D01*
X268078Y239472D02*
X270129Y237422D01*
X288595Y234399D02*
X291899D01*
X295328Y237828D01*
X268078Y239472D02*
Y242371D01*
X284964Y257464D02*
X287500Y260000D01*
X289713D01*
X295880Y266168D01*
X372126Y200000D02*
X380000Y207874D01*
X329333Y200000D02*
X372126D01*
X292185Y217749D02*
X302500Y228064D01*
X292185Y210000D02*
Y217749D01*
X319333Y210000D02*
X329333Y200000D01*
X302815Y210000D02*
X319333D01*
X311843Y220000D02*
X324031Y207812D01*
X302815Y220000D02*
X311843D01*
X324031Y207812D02*
X349938D01*
X350000Y207874D01*
X257309Y289055D02*
X258074Y289820D01*
X247350Y291292D02*
X252074D01*
X310000Y367788D02*
X347396Y330391D01*
X310000Y367788D02*
Y372500D01*
X347396Y330391D02*
X354176D01*
X300000Y360000D02*
Y372500D01*
X305000Y377500D02*
X340000D01*
X300000Y372500D02*
X305000Y377500D01*
X340000D02*
X360000Y357500D01*
X265000Y402500D02*
X267500Y400000D01*
X265000Y402500D02*
Y415000D01*
X270539Y420539D01*
X306875D01*
X307414Y420000D01*
X277705Y410185D02*
X286560Y419039D01*
X306254D02*
X321482Y403811D01*
X286560Y419039D02*
X306254D01*
X303031Y415167D02*
X307616D01*
X307414Y420000D02*
X307500D01*
X271831Y403626D02*
Y412140D01*
X307500Y420000D02*
X322189Y405311D01*
X321482Y403811D02*
X371920D01*
X337811Y405311D02*
X352500Y420000D01*
X322189Y405311D02*
X337811D01*
X348006Y323048D02*
Y326994D01*
X308459Y361591D02*
X308500Y361631D01*
X305000Y367500D02*
X305578Y366922D01*
X308078D01*
X348006Y326994D01*
X308500Y361631D02*
X309132D01*
X310000Y362500D01*
X338906Y333594D01*
Y328673D02*
Y333594D01*
X395029Y395737D02*
X423625Y424333D01*
X277705Y404191D02*
Y410185D01*
X306253Y403979D02*
X323369Y386862D01*
X324105Y388637D02*
X397970D01*
X307723Y407529D02*
X324840Y390412D01*
X306988Y405754D02*
X324105Y388637D01*
X308458Y409304D02*
X325575Y392187D01*
X398705Y386862D02*
X432500Y420657D01*
X325575Y392187D02*
X396500D01*
X323369Y386862D02*
X398705D01*
X327045Y395737D02*
X395029D01*
X307616Y415167D02*
X327045Y395737D01*
X309193Y411079D02*
X326310Y393962D01*
X324840Y390412D02*
X397235D01*
X300039Y407529D02*
X307723D01*
X301940Y405754D02*
X306988D01*
X302676Y403979D02*
X306253D01*
X300843Y411079D02*
X309193D01*
X299304Y409304D02*
X308458D01*
X271831Y403626D02*
X275357Y400100D01*
X285361Y411856D02*
X289339D01*
X285339Y411833D02*
X285361Y411856D01*
X289137Y406400D02*
X298911D01*
X300039Y407529D01*
X293019Y408176D02*
X298176D01*
X289339Y411856D02*
X293019Y408176D01*
X294675Y412176D02*
X299747D01*
X298176Y408176D02*
X299304Y409304D01*
X289019Y406519D02*
X289137Y406400D01*
X284776Y402276D02*
X285000Y402500D01*
X299747Y412176D02*
X300843Y411079D01*
X298686Y402500D02*
X301940Y405754D01*
X298696Y400000D02*
X302676Y403979D01*
X451819Y443181D02*
X456547D01*
X450000Y445000D02*
X451819Y443181D01*
X450000Y445000D02*
Y467500D01*
X460303Y455822D02*
Y470272D01*
X474706Y484675D01*
X456303Y451181D02*
Y468783D01*
X473970Y486450D01*
X533550D01*
X450000Y467500D02*
X472500Y490000D01*
X473235Y488225D02*
X534285D01*
X472500Y490000D02*
X535020D01*
X451775Y450011D02*
Y466765D01*
X473235Y488225D01*
X451775Y450011D02*
X454605Y447181D01*
X474706Y484675D02*
X532815D01*
X534025Y378368D02*
Y382274D01*
X535800Y375043D02*
Y383009D01*
X537575Y378925D02*
Y383744D01*
X531775Y384523D02*
X534025Y382274D01*
X531775Y384523D02*
Y436775D01*
X535325Y385994D02*
Y435305D01*
X533550Y385259D02*
Y436040D01*
Y385259D02*
X535800Y383009D01*
X535325Y385994D02*
X537575Y383744D01*
X531775Y436775D02*
X551839Y456839D01*
X535325Y435305D02*
X555389Y455368D01*
X533550Y436040D02*
X553614Y456104D01*
X530000Y380000D02*
Y437510D01*
X550000Y457510D01*
X535020Y490000D02*
X555389Y469632D01*
X532815Y484675D02*
X547490Y470000D01*
X534285Y488225D02*
X553614Y468896D01*
X533550Y486450D02*
X551839Y468161D01*
X547490Y470000D02*
X547490D01*
X535459Y369671D02*
X540265D01*
X532500Y372630D02*
Y376843D01*
Y372630D02*
X535459Y369671D01*
X537575Y378925D02*
X545000Y371500D01*
X535800Y375043D02*
X536500Y374343D01*
X545000Y365000D02*
Y371500D01*
X532500Y376843D02*
X534025Y378368D01*
X555389Y455368D02*
Y469632D01*
X454605Y447181D02*
X459445D01*
X461465Y445161D01*
X462547D01*
X553614Y456104D02*
Y468896D01*
X551839Y456839D02*
Y468161D01*
X547490Y470000D02*
X550000Y467490D01*
Y457510D02*
Y467490D01*
X453304Y318284D02*
Y338274D01*
X447500Y340000D02*
X470000Y362500D01*
X449754Y319754D02*
Y339744D01*
X447500Y320010D02*
Y340000D01*
X451529Y339009D02*
X463520Y351000D01*
X425000Y295000D02*
X449754Y319754D01*
X415000Y287510D02*
X447500Y320010D01*
X451529Y319019D02*
Y339009D01*
X470000Y362500D02*
X482500D01*
X463520Y351000D02*
X484157D01*
X462500Y285000D02*
X480000Y302500D01*
X462500Y277500D02*
Y285000D01*
X507500Y342500D02*
X518500Y353500D01*
X521657D01*
X515046Y363275D02*
X522392D01*
X531050Y323560D02*
Y354617D01*
X522392Y363275D02*
X531050Y354617D01*
X532825Y322825D02*
Y355352D01*
X521657Y353500D02*
X524000Y355843D01*
Y359157D01*
X521657Y361500D02*
X524000Y359157D01*
X458000Y405000D02*
X473321D01*
X279460Y259375D02*
X282499Y262414D01*
X282500D01*
X550000Y67163D02*
Y95000D01*
X520000Y65000D02*
X547837D01*
X550000Y67163D01*
X517500Y67500D02*
X520000Y65000D01*
X275357Y400100D02*
X279873D01*
X282473Y397500D01*
X290000D02*
X292500Y400000D01*
X282473Y397500D02*
X290000D01*
X292500Y400000D02*
X298696D01*
X285000Y402500D02*
X298686D01*
X453000Y410000D02*
X458000Y405000D01*
X420000Y215000D02*
Y227500D01*
X390596Y222500D02*
X405596Y237500D01*
X414990D01*
X360000Y222500D02*
X390596D01*
X390005Y225005D02*
X405000Y240000D01*
X360005Y225005D02*
X390005D01*
X405000Y240000D02*
X415000D01*
X419995Y227505D02*
X420000Y227500D01*
X419995Y227505D02*
Y232495D01*
X414990Y237500D02*
X419995Y232495D01*
X415000Y240000D02*
X422500Y232500D01*
X502504Y225004D02*
X505000Y227500D01*
X500000Y228708D02*
X505735Y234443D01*
X505000Y250000D02*
X532500Y222500D01*
X587500D01*
X471775Y105725D02*
Y261775D01*
X354275Y294265D02*
X380010Y320000D01*
X352500Y296000D02*
X388750Y332250D01*
X354275Y230735D02*
Y294265D01*
Y230735D02*
X360005Y225005D01*
X352500Y230000D02*
X360000Y222500D01*
X468225Y203184D02*
Y263245D01*
X378950Y173950D02*
X436481D01*
X435745Y175725D02*
X464675Y204655D01*
Y264716D01*
X382104Y172175D02*
X437216D01*
X466450Y203919D02*
Y263981D01*
X437951Y170400D02*
X470000Y202449D01*
X436481Y173950D02*
X466450Y203919D01*
X470000Y202449D02*
Y262510D01*
X375000Y177500D02*
X435010D01*
X382900Y170400D02*
X437951D01*
X437216Y172175D02*
X468225Y203184D01*
X435010Y177500D02*
X462900Y205390D01*
X424249Y175725D02*
X435745D01*
X462900Y205390D02*
Y265451D01*
X387500Y190000D02*
X395000Y197500D01*
X345000Y147500D02*
X375000Y177500D01*
X347500Y147490D02*
X375735Y175725D01*
X424249D01*
X397787Y165000D02*
X407500D01*
X372500Y162571D02*
X382104Y172175D01*
X389900Y157113D02*
X397787Y165000D01*
X368500Y163500D02*
X378950Y173950D01*
X377500Y165000D02*
X382900Y170400D01*
X220000Y190000D02*
X387500D01*
X475000Y102500D02*
X530000D01*
X471775Y105725D02*
X475000Y102500D01*
X522500Y322541D02*
Y332500D01*
X527500Y325031D02*
Y339414D01*
X470000Y262510D02*
X531050Y323560D01*
X462900Y265451D02*
X517500Y320051D01*
Y338500D01*
X529275Y324295D02*
Y340735D01*
X464675Y264716D02*
X522500Y322541D01*
X468225Y263245D02*
X529275Y324295D01*
X471775Y261775D02*
X532825Y322825D01*
X466450Y263981D02*
X527500Y325031D01*
X442968Y30000D02*
X445468Y32500D01*
X390000Y30000D02*
X397943D01*
X398343Y29600D02*
X401657D01*
X382500Y37500D02*
X390000Y30000D01*
X401657Y29600D02*
X402057Y30000D01*
X442968D01*
X397943D02*
X398343Y29600D01*
X400000Y33600D02*
X400675Y34275D01*
X308157Y97500D02*
X345657Y60000D01*
X355000D01*
X503500Y346000D02*
X507500Y350000D01*
X503500Y340843D02*
Y346000D01*
Y340843D02*
X506843Y337500D01*
X510843D01*
X525735Y344275D02*
X529275Y340735D01*
X513333Y342500D02*
X515108Y344275D01*
X507500Y342500D02*
X513333D01*
X515108Y344275D02*
X525735D01*
X524414Y342500D02*
X527500Y339414D01*
X515843Y342500D02*
X524414D01*
X510843Y337500D02*
X515843Y342500D01*
X345000Y110586D02*
Y147500D01*
X368500Y130470D02*
Y163500D01*
Y130470D02*
X372500Y126470D01*
X535000Y97500D02*
X547500D01*
X530000Y102500D02*
X535000Y97500D01*
X547500D02*
X550000Y95000D01*
X476765Y96775D02*
X515725D01*
X532955Y87045D02*
Y88550D01*
X473225Y93235D02*
X476765Y96775D01*
X476030Y98550D02*
X522955D01*
X471450Y93970D02*
X476030Y98550D01*
X520400Y88095D02*
Y92100D01*
X522955Y98550D02*
X532955Y88550D01*
X515725Y96775D02*
X520400Y92100D01*
X477500Y95000D02*
X512500D01*
X517500Y90000D01*
X372500Y135000D02*
Y162571D01*
X377500Y117500D02*
Y165000D01*
Y117500D02*
X403410Y91590D01*
Y64789D02*
Y91590D01*
X399089Y60468D02*
X403410Y64789D01*
X517500Y67500D02*
Y90000D01*
X475000Y59950D02*
Y92500D01*
X471250Y65418D02*
X473225Y67393D01*
Y93235D01*
X475000Y92500D02*
X477500Y95000D01*
X469475Y66154D02*
X471450Y68129D01*
Y93970D01*
X479285Y61775D02*
X482607D01*
X476775Y59265D02*
X479285Y61775D01*
X455735Y38175D02*
X476775Y59215D01*
Y59265D01*
X480070Y60000D02*
X493321D01*
X501093Y67771D01*
X456470Y36400D02*
X480070Y60000D01*
X482607Y61775D02*
X490400Y69569D01*
X409794Y38175D02*
X455735D01*
X409059Y36400D02*
X456470D01*
X469475Y59445D02*
Y66154D01*
X454265Y41725D02*
X471250Y58710D01*
X425000Y45000D02*
X455030D01*
X455000Y39950D02*
X475000Y59950D01*
X420000Y47500D02*
X455019D01*
X455030Y45000D02*
X469475Y59445D01*
X411264Y41725D02*
X454265D01*
X455019Y47500D02*
X459000Y51481D01*
Y74000D01*
X471250Y58710D02*
Y65418D01*
X457500Y55000D02*
Y72500D01*
X448969Y52578D02*
X455078D01*
X450000Y80000D02*
X457500Y72500D01*
X402899Y50090D02*
X411264Y41725D01*
X410529Y39950D02*
X455000D01*
X405701Y54495D02*
X416697Y43500D01*
X423500D01*
X425000Y45000D01*
X398343Y37600D02*
X407858D01*
X392500Y37500D02*
X393265Y38265D01*
X407979Y42500D02*
X410529Y39950D01*
X393265Y38265D02*
X396498D01*
X408593Y39375D02*
X409794Y38175D01*
X407858Y37600D02*
X409059Y36400D01*
X405000Y43086D02*
Y44212D01*
X396498Y38265D02*
X397608Y39375D01*
X405000Y43086D02*
X405586Y42500D01*
X394243Y33500D02*
X398343Y37600D01*
X397608Y39375D02*
X408593D01*
X405586Y42500D02*
X407979D01*
X399659Y54495D02*
X405701D01*
X395581Y50090D02*
X402899D01*
X401836Y47375D02*
X405000Y44212D01*
X397238Y46090D02*
X398523Y47375D01*
X393924Y46090D02*
X397238D01*
X391581Y48433D02*
Y60817D01*
Y48433D02*
X393924Y46090D01*
X391581Y60817D02*
X392140Y61377D01*
X398523Y47375D02*
X401836D01*
X400675Y34275D02*
X470107D01*
X390843Y33500D02*
X394243D01*
X470107Y34275D02*
X502888Y67057D01*
X388500Y35843D02*
Y39157D01*
Y35843D02*
X390843Y33500D01*
X388500Y39157D02*
X392718Y43375D01*
X400180D01*
X347500Y107500D02*
Y147490D01*
X342500Y108086D02*
X345000Y110586D01*
X342500Y108086D02*
Y108086D01*
X302500Y107500D02*
X341914D01*
X342500Y108086D01*
X297500Y102500D02*
X302500Y107500D01*
X297500Y96843D02*
Y102500D01*
X301843Y92500D02*
X307500D01*
X297500Y96843D02*
X301843Y92500D01*
X310000Y102500D02*
X342500D01*
X347500Y107500D01*
X362500Y100000D02*
X370000Y107500D01*
X362500Y90000D02*
Y100000D01*
Y90000D02*
X372500Y80000D01*
X295328Y237828D02*
X297828D01*
X524005Y80995D02*
X525000Y80000D01*
X524005Y80995D02*
Y84490D01*
X520400Y88095D02*
X524005Y84490D01*
X455078Y52578D02*
X457500Y55000D01*
X459000Y74000D02*
X465000Y80000D01*
X420000Y57500D02*
X444048D01*
X490400Y69569D02*
Y74360D01*
X480000Y80000D02*
X484760D01*
X490400Y74360D01*
X445468Y32500D02*
X492500D01*
X391107Y66000D02*
X398901D01*
X399410Y66508D01*
X382500Y37500D02*
Y57393D01*
X532955Y87045D02*
X540000Y80000D01*
X511905Y84600D02*
X514600Y81905D01*
X501093Y71924D02*
X509168Y80000D01*
X506320Y74642D02*
X511147D01*
X501093Y67771D02*
Y71924D01*
X502888Y71210D02*
X506320Y74642D01*
X495005Y80005D02*
X499600Y84600D01*
X502888Y67057D02*
Y71210D01*
X514600Y78095D02*
Y81905D01*
X499600Y84600D02*
X511905D01*
X509168Y80000D02*
X510000D01*
X511147Y74642D02*
X514600Y78095D01*
X382500Y57393D02*
X391107Y66000D01*
X372500Y40000D02*
Y80000D01*
X410000Y105000D02*
Y125000D01*
X444048Y57500D02*
X448969Y52578D01*
X302500Y97500D02*
X308157D01*
X326688Y45771D02*
X327274Y46357D01*
X327500D02*
Y55000D01*
X327274Y46357D02*
X327500D01*
X587500Y222500D02*
X592500Y227500D01*
X485000Y250000D02*
X492500Y257500D01*
X527500D02*
X542500Y242500D01*
X492500Y257500D02*
X527500D01*
X587500Y242500D02*
X592500Y237500D01*
X542500Y242500D02*
X587500D01*
X537500Y237500D02*
X582500D01*
X545000Y250000D02*
X590000D01*
X602500Y237500D01*
X281000Y280000D02*
X287500D01*
X280500Y280500D02*
X281000Y280000D01*
X293500Y292171D02*
Y325880D01*
X291490Y256417D02*
X302500Y245407D01*
Y228064D02*
Y245407D01*
X235000Y247500D02*
X239858Y242642D01*
X277500Y341880D02*
Y395000D01*
X218275Y245413D02*
Y267500D01*
X245916Y239500D02*
X259597Y253181D01*
X249292Y287292D02*
X253731D01*
X242953Y280954D02*
X249292Y287292D01*
X231729Y280954D02*
X242953D01*
X241012Y284953D02*
X247350Y291292D01*
X253731Y287292D02*
X255495Y289055D01*
X257309D01*
X237500Y295000D02*
X237792Y295292D01*
X218275Y267500D02*
X231729Y280954D01*
X320000Y62500D02*
X327500Y55000D01*
X290000Y267500D02*
Y277500D01*
X287500Y280000D02*
X290000Y277500D01*
X625000Y245000D02*
X625000Y10000D01*
X620000Y5000D02*
X625000Y10000D01*
X570000Y300000D02*
X625000Y245000D01*
X180000Y5000D02*
X620000D01*
X175000Y10000D02*
X180000Y5000D01*
X175000Y10000D02*
Y15000D01*
X175000D02*
X175000D01*
X175000D02*
Y245000D01*
X230000Y300000D01*
Y540000D02*
X235000Y545000D01*
X230000Y300000D02*
Y540000D01*
X570000Y300000D02*
Y540000D01*
X565000Y545000D02*
X570000Y540000D01*
X235000Y545000D02*
X565000D01*
D16*
X237252Y4791D02*
X277252D01*
D88*
X366000Y448800D02*
X384000D01*
X362815Y451985D02*
X366000Y448800D01*
X362815Y451985D02*
Y465000D01*
X220000Y232500D02*
Y233004D01*
X367800Y468500D02*
X381500D01*
X470000Y420000D02*
X497500Y447500D01*
Y462500D01*
X407500Y367500D02*
X422500D01*
X345000Y305000D02*
X407500Y367500D01*
X429025Y388500D02*
X432000D01*
X427902Y387377D02*
X429025Y388500D01*
X411068Y377432D02*
X421907D01*
X427625Y367125D02*
X433000Y372500D01*
X439400Y385000D02*
X470000D01*
X427744Y377644D02*
X432100Y382000D01*
X433000Y378600D02*
X439400Y385000D01*
X411068Y377432D02*
X421013Y387377D01*
X432100Y382000D02*
Y388500D01*
X433000Y372500D02*
Y378600D01*
X285500Y300000D02*
X288500D01*
X274500Y289500D02*
X285000Y300000D01*
X285500D01*
X255642Y297358D02*
X263500Y289500D01*
X239858Y297358D02*
X255642D01*
X263500Y289500D02*
X266500D01*
X335000Y305000D02*
X345000D01*
X265315Y451685D02*
X268500Y448500D01*
X265315Y451685D02*
Y475000D01*
X270055Y320757D02*
Y321664D01*
Y320757D02*
X274168Y316644D01*
X266500Y289500D02*
X274500D01*
X272018Y296208D02*
X274168Y298358D01*
X272018Y295175D02*
Y296208D01*
X239306Y297358D02*
X239858D01*
X283629Y469465D02*
X283730Y469565D01*
X270500Y469465D02*
X283629D01*
X370320Y474364D02*
X378136D01*
X378169Y474331D01*
X268500Y448500D02*
X286441D01*
X286488Y448546D01*
X272500Y475000D02*
X280500D01*
X453000Y420000D02*
X470000D01*
X480000Y412500D02*
X492500Y400000D01*
X480000Y412500D02*
Y420000D01*
X470000Y385000D02*
X475000Y390000D01*
X274168Y298358D02*
Y316644D01*
X289944Y264944D02*
Y264971D01*
D89*
X421760Y441759D02*
X431000Y451000D01*
X421760Y425106D02*
Y441759D01*
X394256Y397603D02*
X421760Y425106D01*
X371925Y403806D02*
X378128Y397603D01*
X394256D01*
X379215Y402500D02*
X379608Y402107D01*
X379215Y402500D02*
Y402500D01*
X369584Y412131D02*
X379215Y402500D01*
X436337Y426070D02*
X445266Y435000D01*
X434366Y426865D02*
X446591Y439090D01*
X434366Y419884D02*
Y426865D01*
X446591Y439090D02*
X455125D01*
X436337Y406336D02*
Y426070D01*
X445266Y435000D02*
X457500D01*
X427500Y397500D02*
X436337Y406336D01*
X415000Y397500D02*
X420309Y402809D01*
Y405828D01*
X434366Y419884D01*
X423367Y397500D02*
X427500D01*
X417943Y392076D02*
X423367Y397500D01*
X417943Y391958D02*
Y392076D01*
X371925Y403806D02*
Y403811D01*
X455806Y439090D02*
X460910D01*
X455806Y439090D02*
X455806Y439090D01*
X455125Y439090D02*
X455806D01*
X455125Y439090D02*
X455125Y439090D01*
X460910Y439090D02*
X465000Y435000D01*
X369385Y412131D02*
X369584D01*
D90*
X335000Y322500D02*
Y324484D01*
X221400Y234555D02*
X223245Y236400D01*
X220000Y233004D02*
X221400Y234404D01*
X250500Y232500D02*
X259244Y241244D01*
Y241349D02*
X261151Y243256D01*
X259244Y241244D02*
Y241349D01*
X221400Y234404D02*
Y234555D01*
X268500Y250500D02*
X278500D01*
X220000Y232500D02*
X250500D01*
X489345Y467500D02*
X505000D01*
X535000Y462500D02*
X540000D01*
X530000D02*
X535000D01*
X335000Y265000D02*
Y299343D01*
Y255000D02*
Y260000D01*
Y265000D01*
X343636Y310000D02*
X411068Y377432D01*
X432000Y388500D02*
X441500D01*
X453000Y400000D01*
X332845Y310000D02*
X343636D01*
X448689Y56500D02*
X453343D01*
X453422Y56578D01*
X442500Y62689D02*
X448689Y56500D01*
X410000Y125000D02*
X442500Y92500D01*
X278500Y250500D02*
X281500D01*
X261256Y243256D02*
X268500Y250500D01*
X261000D02*
X264000D01*
X261000Y250000D02*
Y250500D01*
X247400Y236400D02*
X261000Y250000D01*
X223245Y236400D02*
X247400D01*
X320000Y339484D02*
Y339685D01*
Y339484D02*
X335000Y324484D01*
X331000Y303343D02*
X335000Y299343D01*
X331000Y303343D02*
Y308155D01*
X332845Y310000D01*
X487500Y442500D02*
Y465655D01*
X470675Y425675D02*
X487500Y442500D01*
X447325Y422351D02*
X450649Y425675D01*
X510000Y462500D02*
X530000D01*
X505000Y467500D02*
X510000Y462500D01*
X261151Y243256D02*
X261256D01*
X275472Y244815D02*
X297315D01*
X297375Y244875D01*
X271578Y240922D02*
X275472Y244815D01*
X487500Y465655D02*
X489345Y467500D01*
X447325Y405675D02*
Y422351D01*
X450649Y425675D02*
X470675D01*
X447325Y405675D02*
X453000Y400000D01*
X403750Y222500D02*
X407500D01*
X398750Y217500D02*
X403750Y222500D01*
X453000Y400000D02*
X470000D01*
X386567Y161567D02*
X387667D01*
X382500Y157500D02*
X386567Y161567D01*
X387667D02*
X392500Y166400D01*
X382500Y140000D02*
Y157500D01*
X442500Y62689D02*
Y92500D01*
X395000Y140000D02*
X410000Y125000D01*
X395000Y140000D02*
Y155000D01*
D91*
X212500Y237815D02*
Y270000D01*
X410000Y437500D02*
Y440000D01*
Y442500D01*
X418500Y451000D01*
Y459612D01*
X312500Y437500D02*
Y440000D01*
Y442500D01*
X337000Y467000D01*
Y474000D01*
X212500Y237815D02*
X212815Y237500D01*
Y237185D02*
Y237500D01*
X220000Y190000D02*
Y230000D01*
X406500Y486500D02*
X422815Y470185D01*
Y463927D02*
Y470185D01*
X418500Y459612D02*
X422815Y463927D01*
X239858Y297358D02*
X240000Y297500D01*
X237792Y295292D02*
X239858Y297358D01*
X324500Y486500D02*
X406500D01*
X324500D02*
X337000Y474000D01*
X259500Y486500D02*
X324500D01*
X242500Y469500D02*
X259500Y486500D01*
X242500Y395000D02*
Y469500D01*
X212500Y270000D02*
X237500Y295000D01*
X212815Y237185D02*
X220000Y230000D01*
X240000Y297500D02*
Y391634D01*
X242500Y394134D02*
Y395000D01*
X240000Y391634D02*
X242500Y394134D01*
D93*
X492500Y430000D02*
D03*
Y420000D02*
D03*
Y410000D02*
D03*
Y400000D02*
D03*
X277500Y507500D02*
D03*
X582500Y237500D02*
D03*
Y227500D02*
D03*
X612500D02*
D03*
X602500D02*
D03*
Y237500D02*
D03*
X592500D02*
D03*
Y227500D02*
D03*
X492500Y42500D02*
D03*
Y32500D02*
D03*
X515000D02*
D03*
Y42500D02*
D03*
Y52500D02*
D03*
X470000Y420000D02*
D03*
Y410000D02*
D03*
X540000Y90000D02*
D03*
Y80000D02*
D03*
X453000Y420000D02*
D03*
Y410000D02*
D03*
X510000Y90000D02*
D03*
Y80000D02*
D03*
X525000Y90000D02*
D03*
Y80000D02*
D03*
X480000Y90000D02*
D03*
Y80000D02*
D03*
X495000Y90000D02*
D03*
Y80000D02*
D03*
X450000Y90000D02*
D03*
Y80000D02*
D03*
X465000Y90000D02*
D03*
Y80000D02*
D03*
X425000Y342500D02*
D03*
Y352500D02*
D03*
Y362500D02*
D03*
Y372500D02*
D03*
Y382500D02*
D03*
Y392500D02*
D03*
Y402500D02*
D03*
X420000Y90000D02*
D03*
Y80000D02*
D03*
X435000Y90000D02*
D03*
Y80000D02*
D03*
X375000Y507500D02*
D03*
D94*
X492500Y390000D02*
D03*
Y22500D02*
D03*
X515000D02*
D03*
X470000Y400000D02*
D03*
X540000Y70000D02*
D03*
X453000Y400000D02*
D03*
X510000Y70000D02*
D03*
X525000D02*
D03*
X480000D02*
D03*
X495000D02*
D03*
X450000D02*
D03*
X465000D02*
D03*
X425000Y332500D02*
D03*
X420000Y70000D02*
D03*
X435000D02*
D03*
D95*
X320000Y365000D02*
D03*
X370000Y90000D02*
D03*
X290000Y365000D02*
D03*
X550000Y377500D02*
D03*
X440000D02*
D03*
X242500Y395000D02*
D03*
X290000Y267500D02*
D03*
X445000Y167500D02*
D03*
X438000Y223000D02*
D03*
X277500Y395000D02*
D03*
X395000Y155000D02*
D03*
X337500Y225000D02*
D03*
X572500Y275000D02*
D03*
X552500D02*
D03*
X505000Y250000D02*
D03*
X485000D02*
D03*
X545000D02*
D03*
X525000D02*
D03*
D96*
X287500Y507500D02*
D03*
X612500Y237500D02*
D03*
X385000Y507500D02*
D03*
D97*
X307500Y145000D02*
D03*
D98*
X287500D02*
D03*
D99*
X220000Y190000D02*
D03*
Y90000D02*
D03*
D100*
X250775Y524350D02*
D03*
X549225D02*
D03*
X400000Y300000D02*
D03*
X195700Y25700D02*
D03*
X604300D02*
D03*
D101*
X563000Y234000D02*
D03*
X560500D02*
D03*
X558000D02*
D03*
X555500D02*
D03*
X384000Y448800D02*
D03*
X366000D02*
D03*
X457500Y322500D02*
D03*
X484531Y382615D02*
D03*
X482500Y377500D02*
D03*
X465000Y367500D02*
D03*
X490000Y357500D02*
D03*
X500000Y354957D02*
D03*
X482500Y355000D02*
D03*
X491000Y184000D02*
D03*
X487000Y184500D02*
D03*
X282896Y262810D02*
D03*
X250000Y283500D02*
D03*
X576000Y253500D02*
D03*
X573500D02*
D03*
X571000D02*
D03*
X568500D02*
D03*
X576000Y246500D02*
D03*
X573500D02*
D03*
X571000D02*
D03*
X568500D02*
D03*
X537500Y255000D02*
D03*
X540000Y260000D02*
D03*
X537500Y257500D02*
D03*
X540000D02*
D03*
X537500Y260000D02*
D03*
Y262500D02*
D03*
Y265000D02*
D03*
Y267500D02*
D03*
Y280000D02*
D03*
Y277500D02*
D03*
Y272500D02*
D03*
X490000Y207500D02*
D03*
X487500D02*
D03*
X542500Y210000D02*
D03*
Y212500D02*
D03*
Y215000D02*
D03*
Y217500D02*
D03*
X545000Y210000D02*
D03*
Y212500D02*
D03*
Y217500D02*
D03*
Y215000D02*
D03*
X537500Y275000D02*
D03*
Y270000D02*
D03*
X541000Y344500D02*
D03*
Y347000D02*
D03*
Y349500D02*
D03*
X313500Y96500D02*
D03*
Y99500D02*
D03*
X355000Y50000D02*
D03*
X352500D02*
D03*
X350000D02*
D03*
X315000Y327500D02*
D03*
Y330000D02*
D03*
Y332500D02*
D03*
X447500Y372500D02*
D03*
Y377500D02*
D03*
X452500D02*
D03*
X442500Y357500D02*
D03*
X303800Y398400D02*
D03*
X410000Y440000D02*
D03*
Y437500D02*
D03*
Y442500D02*
D03*
X312500Y440000D02*
D03*
Y437500D02*
D03*
Y442500D02*
D03*
X283730Y469565D02*
D03*
X329500Y381500D02*
D03*
X338000Y372500D02*
D03*
X327500Y383500D02*
D03*
X336000Y374500D02*
D03*
X431000Y451000D02*
D03*
X430000Y446500D02*
D03*
X428500Y441500D02*
D03*
X430500Y435500D02*
D03*
X435500Y440000D02*
D03*
X434000Y435000D02*
D03*
X438500Y436000D02*
D03*
X381500Y468500D02*
D03*
X492500Y462500D02*
D03*
X497500D02*
D03*
X502500D02*
D03*
X530000D02*
D03*
X535000D02*
D03*
X540000D02*
D03*
X367800Y468500D02*
D03*
X419685Y210000D02*
D03*
Y200000D02*
D03*
X410315D02*
D03*
X399685Y210000D02*
D03*
X405000Y135500D02*
D03*
X386500D02*
D03*
X393000D02*
D03*
X392000Y108500D02*
D03*
X202500Y232500D02*
D03*
Y227500D02*
D03*
X197500D02*
D03*
X192500D02*
D03*
X187500D02*
D03*
X182500D02*
D03*
Y232500D02*
D03*
X187500D02*
D03*
X192500D02*
D03*
X197500D02*
D03*
X212815Y237500D02*
D03*
Y247500D02*
D03*
X477500Y447500D02*
D03*
Y440000D02*
D03*
X480000Y444961D02*
D03*
X477500Y445000D02*
D03*
X480000Y442500D02*
D03*
X477500D02*
D03*
X447500Y470000D02*
D03*
X450000Y472500D02*
D03*
X447500D02*
D03*
Y480000D02*
D03*
Y477500D02*
D03*
X450000D02*
D03*
X452500Y475000D02*
D03*
X447500D02*
D03*
Y490000D02*
D03*
Y492500D02*
D03*
X450000D02*
D03*
X335000Y265000D02*
D03*
Y260000D02*
D03*
Y255000D02*
D03*
X395900Y62700D02*
D03*
X390000Y75000D02*
D03*
X392500Y72500D02*
D03*
X390000D02*
D03*
Y70000D02*
D03*
X302500Y72500D02*
D03*
Y70000D02*
D03*
Y67500D02*
D03*
X312500Y77500D02*
D03*
Y70000D02*
D03*
Y75000D02*
D03*
X350000Y52500D02*
D03*
X352500D02*
D03*
X355000D02*
D03*
Y55000D02*
D03*
X352500D02*
D03*
X540000Y390000D02*
D03*
Y395000D02*
D03*
Y400000D02*
D03*
Y405000D02*
D03*
Y410000D02*
D03*
Y415000D02*
D03*
Y420000D02*
D03*
Y425000D02*
D03*
Y430000D02*
D03*
X442500Y242500D02*
D03*
Y245000D02*
D03*
Y247500D02*
D03*
X445000D02*
D03*
Y242500D02*
D03*
X317500Y327500D02*
D03*
Y330000D02*
D03*
Y332500D02*
D03*
X320000D02*
D03*
Y330000D02*
D03*
Y327500D02*
D03*
X357500Y204000D02*
D03*
X355000D02*
D03*
X357500Y206500D02*
D03*
X355000D02*
D03*
X367500Y195000D02*
D03*
X365000D02*
D03*
X362500D02*
D03*
X360000D02*
D03*
X367500Y187500D02*
D03*
X365000D02*
D03*
X362500D02*
D03*
X360000D02*
D03*
X415000Y210000D02*
D03*
Y212500D02*
D03*
Y215000D02*
D03*
Y217500D02*
D03*
X430000Y222500D02*
D03*
Y220000D02*
D03*
X427500D02*
D03*
X390000Y372500D02*
D03*
X387500Y370000D02*
D03*
X385000Y372500D02*
D03*
X387500Y375000D02*
D03*
Y372500D02*
D03*
X385000Y375000D02*
D03*
Y370000D02*
D03*
X390000D02*
D03*
Y375000D02*
D03*
X385000Y217500D02*
D03*
X387500D02*
D03*
X382500D02*
D03*
X380000D02*
D03*
X377500D02*
D03*
X375000D02*
D03*
X372500D02*
D03*
X370000D02*
D03*
X367500D02*
D03*
X414000Y374000D02*
D03*
Y371000D02*
D03*
X432500Y327500D02*
D03*
X387000Y103000D02*
D03*
X394500Y106000D02*
D03*
X389500Y100500D02*
D03*
X288500Y300000D02*
D03*
X285500D02*
D03*
X449000Y56500D02*
D03*
X266500Y289500D02*
D03*
X263500D02*
D03*
X281500Y250500D02*
D03*
X278500D02*
D03*
X261000D02*
D03*
X264000D02*
D03*
X320000Y339685D02*
D03*
X390315Y125374D02*
D03*
X448500Y430500D02*
D03*
X402500Y182500D02*
D03*
X419685Y190000D02*
D03*
X430315Y210000D02*
D03*
X388750Y332500D02*
D03*
X335000Y305000D02*
D03*
X265315Y475000D02*
D03*
X292185Y467500D02*
D03*
X320315D02*
D03*
X362815Y465000D02*
D03*
X389685Y467500D02*
D03*
X417815D02*
D03*
X470315D02*
D03*
X445000Y285315D02*
D03*
X435000D02*
D03*
X425000D02*
D03*
X415000D02*
D03*
X270055Y321664D02*
D03*
X290000Y319685D02*
D03*
X285315Y200000D02*
D03*
X262500Y240000D02*
D03*
X280000Y239500D02*
D03*
X288595Y234399D02*
D03*
X271578Y240922D02*
D03*
X380000Y207874D02*
D03*
X292185Y210000D02*
D03*
X302815D02*
D03*
Y220000D02*
D03*
X350000Y207874D02*
D03*
X460000Y215000D02*
D03*
Y217500D02*
D03*
Y220000D02*
D03*
Y222500D02*
D03*
Y225000D02*
D03*
X450000Y215000D02*
D03*
Y217500D02*
D03*
Y220000D02*
D03*
Y222500D02*
D03*
Y225000D02*
D03*
X465000Y165000D02*
D03*
Y167500D02*
D03*
Y170000D02*
D03*
Y172500D02*
D03*
Y175000D02*
D03*
Y177500D02*
D03*
Y180000D02*
D03*
X475000Y165000D02*
D03*
Y167500D02*
D03*
Y170000D02*
D03*
Y172500D02*
D03*
Y175000D02*
D03*
Y177500D02*
D03*
Y180000D02*
D03*
X422500Y20000D02*
D03*
X425000D02*
D03*
X427500D02*
D03*
X430000D02*
D03*
X432500D02*
D03*
X197500Y237500D02*
D03*
Y242500D02*
D03*
Y247500D02*
D03*
X202500Y252500D02*
D03*
X425000Y310000D02*
D03*
X422500D02*
D03*
X420000D02*
D03*
X422500Y312500D02*
D03*
Y307500D02*
D03*
X395110Y445153D02*
D03*
X395000Y440000D02*
D03*
Y420000D02*
D03*
X405000Y340000D02*
D03*
X400000D02*
D03*
X395000D02*
D03*
X347500Y277500D02*
D03*
Y272500D02*
D03*
Y275000D02*
D03*
Y270000D02*
D03*
Y265000D02*
D03*
Y260000D02*
D03*
X352500Y135000D02*
D03*
Y132500D02*
D03*
Y130000D02*
D03*
Y127500D02*
D03*
Y125000D02*
D03*
Y120000D02*
D03*
Y122500D02*
D03*
X340000Y120000D02*
D03*
Y122500D02*
D03*
Y125000D02*
D03*
Y127500D02*
D03*
Y130000D02*
D03*
Y132500D02*
D03*
Y135000D02*
D03*
X427500Y52500D02*
D03*
X432500D02*
D03*
X437500D02*
D03*
X442500D02*
D03*
X425000Y25000D02*
D03*
Y22500D02*
D03*
X430000D02*
D03*
Y25000D02*
D03*
X432500Y22500D02*
D03*
X427500D02*
D03*
X422500D02*
D03*
X435000Y110000D02*
D03*
X432500Y112500D02*
D03*
X430000Y115000D02*
D03*
X427500Y117500D02*
D03*
X435000Y107500D02*
D03*
X425000Y117500D02*
D03*
X430000Y112500D02*
D03*
X425000Y100000D02*
D03*
X422500Y102500D02*
D03*
X420000Y105000D02*
D03*
X417500Y107500D02*
D03*
X420000D02*
D03*
X425000Y102500D02*
D03*
X487500Y217500D02*
D03*
Y212500D02*
D03*
X490000D02*
D03*
Y217500D02*
D03*
X452500Y222500D02*
D03*
Y217500D02*
D03*
X457500D02*
D03*
Y222500D02*
D03*
X477500Y167500D02*
D03*
Y172500D02*
D03*
Y177500D02*
D03*
X467500D02*
D03*
Y172500D02*
D03*
Y167500D02*
D03*
X490000Y372500D02*
D03*
X495000Y367500D02*
D03*
X517500Y392500D02*
D03*
X512500Y397500D02*
D03*
X502500Y387500D02*
D03*
X507500Y382500D02*
D03*
X450000Y475000D02*
D03*
X394476Y93438D02*
D03*
X312500Y72500D02*
D03*
X302500Y65000D02*
D03*
X232500Y242500D02*
D03*
X258074Y289820D02*
D03*
X272018Y295175D02*
D03*
X252074Y291292D02*
D03*
X262181Y282610D02*
D03*
X242500Y225000D02*
D03*
X237500D02*
D03*
X232500D02*
D03*
X270500Y469465D02*
D03*
X334922Y209994D02*
D03*
X352500Y420000D02*
D03*
X292500Y427500D02*
D03*
X271831Y412140D02*
D03*
X303031Y415167D02*
D03*
X267500Y400000D02*
D03*
X310000Y372500D02*
D03*
X282500Y432500D02*
D03*
X292500D02*
D03*
X272500D02*
D03*
X262500D02*
D03*
Y437500D02*
D03*
X267500D02*
D03*
X272500D02*
D03*
X277500D02*
D03*
X282500D02*
D03*
X287500D02*
D03*
X292500D02*
D03*
X287500Y427500D02*
D03*
X282500D02*
D03*
X277500D02*
D03*
X272500D02*
D03*
X267500D02*
D03*
X262500D02*
D03*
X380000Y437500D02*
D03*
X375000D02*
D03*
X370000D02*
D03*
X365000D02*
D03*
X360000D02*
D03*
Y432500D02*
D03*
X370000D02*
D03*
X360000Y427500D02*
D03*
X365000D02*
D03*
X370000D02*
D03*
X247500Y330000D02*
D03*
X297828Y237828D02*
D03*
X272500Y270000D02*
D03*
X270000Y267500D02*
D03*
X267500Y272500D02*
D03*
Y267500D02*
D03*
X270000Y272500D02*
D03*
X272500D02*
D03*
X270000Y270000D02*
D03*
X267500D02*
D03*
X320000Y62500D02*
D03*
X241012Y284953D02*
D03*
X235000Y247500D02*
D03*
X291490Y256417D02*
D03*
X297375Y244875D02*
D03*
X284168Y287675D02*
D03*
X280500Y280500D02*
D03*
X326688Y45771D02*
D03*
X302500Y97500D02*
D03*
X310000Y102500D02*
D03*
X307500Y92500D02*
D03*
X420000Y57500D02*
D03*
X410000Y105000D02*
D03*
X370000Y107500D02*
D03*
X372500Y40000D02*
D03*
X392500Y70000D02*
D03*
X392140Y61377D02*
D03*
X395581Y50090D02*
D03*
X399410Y66508D02*
D03*
X399089Y60468D02*
D03*
X453422Y56578D02*
D03*
X350000Y55000D02*
D03*
X252500Y330000D02*
D03*
X247500Y325000D02*
D03*
X252500D02*
D03*
X247500Y320000D02*
D03*
X252500D02*
D03*
X247500Y315000D02*
D03*
X252500D02*
D03*
X247500Y335000D02*
D03*
X252500D02*
D03*
X247500Y340000D02*
D03*
X252500D02*
D03*
X247500Y310000D02*
D03*
X252500D02*
D03*
Y305000D02*
D03*
X227500Y225000D02*
D03*
Y220000D02*
D03*
X232500D02*
D03*
X237500D02*
D03*
X222500Y257500D02*
D03*
Y267500D02*
D03*
Y262500D02*
D03*
X207500Y267500D02*
D03*
Y262500D02*
D03*
X202500D02*
D03*
X207500Y257500D02*
D03*
X202500D02*
D03*
X197500D02*
D03*
X192500Y252500D02*
D03*
X197500D02*
D03*
X227500Y215000D02*
D03*
X232500D02*
D03*
X237749Y214730D02*
D03*
X227500Y210000D02*
D03*
X232500D02*
D03*
X237500D02*
D03*
X232500Y205000D02*
D03*
X237500D02*
D03*
Y200000D02*
D03*
X242500Y220000D02*
D03*
Y215000D02*
D03*
Y210000D02*
D03*
Y205000D02*
D03*
Y200000D02*
D03*
Y195000D02*
D03*
X247500Y345000D02*
D03*
X252500D02*
D03*
Y350000D02*
D03*
X247500D02*
D03*
Y355000D02*
D03*
X252500D02*
D03*
Y360000D02*
D03*
X247500D02*
D03*
Y365000D02*
D03*
X252500D02*
D03*
Y370000D02*
D03*
X247500D02*
D03*
Y375000D02*
D03*
X252500D02*
D03*
Y380000D02*
D03*
X247500D02*
D03*
Y385000D02*
D03*
X252500D02*
D03*
Y390000D02*
D03*
X247500D02*
D03*
X222500Y252500D02*
D03*
Y247500D02*
D03*
X227500D02*
D03*
X242500Y185000D02*
D03*
X237500Y180000D02*
D03*
X242500D02*
D03*
Y175000D02*
D03*
X237500D02*
D03*
X232500D02*
D03*
X227500Y170000D02*
D03*
X232500D02*
D03*
X237500D02*
D03*
X242500D02*
D03*
Y165000D02*
D03*
X237500D02*
D03*
X232500D02*
D03*
X227500D02*
D03*
X222500Y170000D02*
D03*
Y165000D02*
D03*
X227500Y242500D02*
D03*
X239685Y277500D02*
D03*
X422500Y25000D02*
D03*
X427500D02*
D03*
X432500D02*
D03*
Y110000D02*
D03*
X427500Y115000D02*
D03*
X400180Y43375D02*
D03*
X392500Y37500D02*
D03*
X399659Y54495D02*
D03*
X420000Y47500D02*
D03*
X527500Y57500D02*
D03*
X532500D02*
D03*
X527500Y52500D02*
D03*
X522500D02*
D03*
Y57500D02*
D03*
Y47500D02*
D03*
X272500Y267500D02*
D03*
X362500Y262500D02*
D03*
X372500D02*
D03*
X382500D02*
D03*
X392500D02*
D03*
X362500Y252500D02*
D03*
X372500D02*
D03*
X382500D02*
D03*
X392500D02*
D03*
X362500Y242500D02*
D03*
X382500D02*
D03*
X392500D02*
D03*
X372500Y232500D02*
D03*
X490000Y220000D02*
D03*
X457500D02*
D03*
Y225000D02*
D03*
X452500Y220000D02*
D03*
Y215000D02*
D03*
X427500Y240000D02*
D03*
X432500Y245315D02*
D03*
X417500Y247500D02*
D03*
X507500Y342500D02*
D03*
X372500Y135000D02*
D03*
Y126470D02*
D03*
X487500Y215000D02*
D03*
Y220000D02*
D03*
Y210000D02*
D03*
X522500Y332500D02*
D03*
X517500Y338500D02*
D03*
X507500Y350000D02*
D03*
X487500Y375000D02*
D03*
X492500Y370000D02*
D03*
X500000Y390000D02*
D03*
X382500Y140000D02*
D03*
X392500Y166400D02*
D03*
X457500Y215000D02*
D03*
X355000Y60000D02*
D03*
X425000Y52500D02*
D03*
X430000D02*
D03*
X435000D02*
D03*
X440000D02*
D03*
X417500Y110000D02*
D03*
X422500Y105000D02*
D03*
X427500Y100000D02*
D03*
X400000Y33600D02*
D03*
X187500Y247500D02*
D03*
X182500Y242500D02*
D03*
X187500D02*
D03*
X192500D02*
D03*
X187500Y237500D02*
D03*
X182500D02*
D03*
X467500Y180000D02*
D03*
Y175000D02*
D03*
Y170000D02*
D03*
Y165000D02*
D03*
X407500D02*
D03*
X462500Y277500D02*
D03*
X362500Y232500D02*
D03*
X372500Y242500D02*
D03*
X382500Y232500D02*
D03*
X477500Y175000D02*
D03*
Y170000D02*
D03*
Y180000D02*
D03*
Y165000D02*
D03*
X452500Y225000D02*
D03*
X490000Y210000D02*
D03*
Y215000D02*
D03*
X505735Y234443D02*
D03*
X505000Y227500D02*
D03*
X392500Y232500D02*
D03*
X427500Y222500D02*
D03*
X452500Y362500D02*
D03*
Y357500D02*
D03*
Y367500D02*
D03*
X457500Y362500D02*
D03*
X447500Y357500D02*
D03*
Y362500D02*
D03*
Y367500D02*
D03*
X505000Y385000D02*
D03*
X510000Y380000D02*
D03*
X515000Y395000D02*
D03*
X480000Y465000D02*
D03*
X475000Y390000D02*
D03*
X480000Y420000D02*
D03*
X335000Y322500D02*
D03*
X242500Y247500D02*
D03*
X390000Y427500D02*
D03*
X385000D02*
D03*
X390000Y432500D02*
D03*
X380000Y427500D02*
D03*
X390000Y437500D02*
D03*
X385000D02*
D03*
X380000Y432500D02*
D03*
X375000Y427500D02*
D03*
X277705Y404191D02*
D03*
X369385Y412131D02*
D03*
X371920Y403811D02*
D03*
X377500Y410000D02*
D03*
X510000Y400000D02*
D03*
X445000Y245000D02*
D03*
X510000Y475000D02*
D03*
X505000D02*
D03*
X500000D02*
D03*
X522500Y62500D02*
D03*
X527500D02*
D03*
X532500D02*
D03*
X457500Y367500D02*
D03*
X452500Y372500D02*
D03*
X457500D02*
D03*
Y377500D02*
D03*
X482500Y362500D02*
D03*
X541000Y352000D02*
D03*
X520000Y357500D02*
D03*
Y390000D02*
D03*
X515000Y475000D02*
D03*
X480000Y302500D02*
D03*
X407500Y222500D02*
D03*
X398750Y217500D02*
D03*
X545000Y365000D02*
D03*
X496993Y365507D02*
D03*
X462547Y445161D02*
D03*
X465000Y435000D02*
D03*
X456547Y443181D02*
D03*
X457500Y435000D02*
D03*
X456303Y451181D02*
D03*
X540265Y369671D02*
D03*
X530000Y380000D02*
D03*
X536500Y374343D02*
D03*
X460303Y455822D02*
D03*
X415000Y397500D02*
D03*
X417943Y391958D02*
D03*
X284776Y402276D02*
D03*
X289019Y406519D02*
D03*
X294675Y412176D02*
D03*
X285339Y411833D02*
D03*
X379608Y402107D02*
D03*
X272500Y475000D02*
D03*
X280500D02*
D03*
X286488Y448546D02*
D03*
X378169Y474331D02*
D03*
X370320Y474364D02*
D03*
X360000Y357500D02*
D03*
X340000Y442500D02*
D03*
Y437500D02*
D03*
Y432500D02*
D03*
Y427500D02*
D03*
Y422500D02*
D03*
X335000D02*
D03*
Y427500D02*
D03*
Y432500D02*
D03*
Y437500D02*
D03*
Y442500D02*
D03*
X345000D02*
D03*
Y437500D02*
D03*
Y432500D02*
D03*
Y427500D02*
D03*
Y422500D02*
D03*
X335000Y447500D02*
D03*
X340000D02*
D03*
X345000D02*
D03*
X415000Y425000D02*
D03*
X410000Y420000D02*
D03*
Y425000D02*
D03*
X405000Y420000D02*
D03*
Y425000D02*
D03*
X400000D02*
D03*
Y420000D02*
D03*
Y430000D02*
D03*
Y435000D02*
D03*
Y440000D02*
D03*
Y445000D02*
D03*
X395000Y435000D02*
D03*
Y430000D02*
D03*
Y425000D02*
D03*
X268500Y448500D02*
D03*
X338906Y328673D02*
D03*
X354176Y330391D02*
D03*
X348006Y323048D02*
D03*
X305000Y367500D02*
D03*
X300000Y360000D02*
D03*
X308459Y361591D02*
D03*
X392500Y340000D02*
D03*
X397500D02*
D03*
X402500D02*
D03*
X407500D02*
D03*
X425000Y307500D02*
D03*
X419922Y307493D02*
D03*
Y312493D02*
D03*
X424922D02*
D03*
X347500Y257500D02*
D03*
X347422Y262493D02*
D03*
Y267494D02*
D03*
X329922Y219993D02*
D03*
Y214994D02*
D03*
X334922D02*
D03*
X329922Y209994D02*
D03*
D102*
X277500Y432500D02*
D03*
X287500D02*
D03*
X375000D02*
D03*
X365000D02*
D03*
X492500Y319400D02*
D03*
X488700Y323000D02*
D03*
X496100D02*
D03*
X492500Y326600D02*
D03*
X267500Y432500D02*
D03*
X385000D02*
D03*
D103*
X499700Y326600D02*
D03*
X496100Y330200D02*
D03*
X499700Y319400D02*
D03*
X496100Y315800D02*
D03*
X485200Y326700D02*
D03*
X485300Y319300D02*
D03*
X488900Y315800D02*
D03*
X488800Y330200D02*
D03*
M02*
