G04*
G04 #@! TF.GenerationSoftware,Altium Limited,Altium Designer,20.0.7 (75)*
G04*
G04 Layer_Color=16711935*
%FSLAX25Y25*%
%MOIN*%
G70*
G01*
G75*
%ADD10C,0.01000*%
%ADD16C,0.00500*%
%ADD77C,0.07000*%
%ADD78R,0.07000X0.07000*%
%ADD79C,0.08000*%
%ADD80R,0.07000X0.07000*%
%ADD81C,0.09800*%
%ADD82R,0.09800X0.09800*%
%ADD83C,0.30800*%
%ADD84C,0.24422*%
%ADD85C,0.03162*%
%ADD86C,0.05524*%
%ADD87C,0.03556*%
D10*
X625000Y245000D02*
X625000Y10000D01*
X620000Y5000D02*
X625000Y10000D01*
X570000Y300000D02*
X625000Y245000D01*
X180000Y5000D02*
X620000D01*
X175000Y10000D02*
X180000Y5000D01*
X175000Y10000D02*
Y15000D01*
X175000D02*
X175000D01*
X175000D02*
Y245000D01*
X230000Y300000D01*
Y540000D02*
X235000Y545000D01*
X230000Y300000D02*
Y540000D01*
X570000Y300000D02*
Y540000D01*
X565000Y545000D02*
X570000Y540000D01*
X235000Y545000D02*
X565000D01*
D16*
X237252Y4791D02*
X277252D01*
D77*
X492500Y430000D02*
D03*
Y420000D02*
D03*
Y410000D02*
D03*
Y400000D02*
D03*
X277500Y507500D02*
D03*
X582500Y237500D02*
D03*
Y227500D02*
D03*
X612500D02*
D03*
X602500D02*
D03*
Y237500D02*
D03*
X592500D02*
D03*
Y227500D02*
D03*
X492500Y42500D02*
D03*
Y32500D02*
D03*
X515000D02*
D03*
Y42500D02*
D03*
Y52500D02*
D03*
X470000Y420000D02*
D03*
Y410000D02*
D03*
X540000Y90000D02*
D03*
Y80000D02*
D03*
X453000Y420000D02*
D03*
Y410000D02*
D03*
X510000Y90000D02*
D03*
Y80000D02*
D03*
X525000Y90000D02*
D03*
Y80000D02*
D03*
X480000Y90000D02*
D03*
Y80000D02*
D03*
X495000Y90000D02*
D03*
Y80000D02*
D03*
X450000Y90000D02*
D03*
Y80000D02*
D03*
X465000Y90000D02*
D03*
Y80000D02*
D03*
X425000Y342500D02*
D03*
Y352500D02*
D03*
Y362500D02*
D03*
Y372500D02*
D03*
Y382500D02*
D03*
Y392500D02*
D03*
Y402500D02*
D03*
X420000Y90000D02*
D03*
Y80000D02*
D03*
X435000Y90000D02*
D03*
Y80000D02*
D03*
X375000Y507500D02*
D03*
D78*
X492500Y390000D02*
D03*
Y22500D02*
D03*
X515000D02*
D03*
X470000Y400000D02*
D03*
X540000Y70000D02*
D03*
X453000Y400000D02*
D03*
X510000Y70000D02*
D03*
X525000D02*
D03*
X480000D02*
D03*
X495000D02*
D03*
X450000D02*
D03*
X465000D02*
D03*
X425000Y332500D02*
D03*
X420000Y70000D02*
D03*
X435000D02*
D03*
D79*
X320000Y365000D02*
D03*
X370000Y90000D02*
D03*
X290000Y365000D02*
D03*
X550000Y377500D02*
D03*
X440000D02*
D03*
X242500Y395000D02*
D03*
X290000Y267500D02*
D03*
X445000Y167500D02*
D03*
X438000Y223000D02*
D03*
X277500Y395000D02*
D03*
X395000Y155000D02*
D03*
X337500Y225000D02*
D03*
X572500Y275000D02*
D03*
X552500D02*
D03*
X505000Y250000D02*
D03*
X485000D02*
D03*
X545000D02*
D03*
X525000D02*
D03*
D80*
X287500Y507500D02*
D03*
X612500Y237500D02*
D03*
X385000Y507500D02*
D03*
D81*
X307500Y145000D02*
D03*
D82*
X287500D02*
D03*
D83*
X220000Y190000D02*
D03*
Y90000D02*
D03*
D84*
X250775Y524350D02*
D03*
X549225D02*
D03*
X400000Y300000D02*
D03*
X195700Y25700D02*
D03*
X604300D02*
D03*
D85*
X563000Y234000D02*
D03*
X560500D02*
D03*
X558000D02*
D03*
X555500D02*
D03*
X384000Y448800D02*
D03*
X366000D02*
D03*
X457500Y322500D02*
D03*
X484531Y382615D02*
D03*
X482500Y377500D02*
D03*
X465000Y367500D02*
D03*
X490000Y357500D02*
D03*
X500000Y354957D02*
D03*
X482500Y355000D02*
D03*
X491000Y184000D02*
D03*
X487000Y184500D02*
D03*
X282896Y262810D02*
D03*
X250000Y283500D02*
D03*
X576000Y253500D02*
D03*
X573500D02*
D03*
X571000D02*
D03*
X568500D02*
D03*
X576000Y246500D02*
D03*
X573500D02*
D03*
X571000D02*
D03*
X568500D02*
D03*
X537500Y255000D02*
D03*
X540000Y260000D02*
D03*
X537500Y257500D02*
D03*
X540000D02*
D03*
X537500Y260000D02*
D03*
Y262500D02*
D03*
Y265000D02*
D03*
Y267500D02*
D03*
Y280000D02*
D03*
Y277500D02*
D03*
Y272500D02*
D03*
X490000Y207500D02*
D03*
X487500D02*
D03*
X542500Y210000D02*
D03*
Y212500D02*
D03*
Y215000D02*
D03*
Y217500D02*
D03*
X545000Y210000D02*
D03*
Y212500D02*
D03*
Y217500D02*
D03*
Y215000D02*
D03*
X537500Y275000D02*
D03*
Y270000D02*
D03*
X541000Y344500D02*
D03*
Y347000D02*
D03*
Y349500D02*
D03*
X313500Y96500D02*
D03*
Y99500D02*
D03*
X355000Y50000D02*
D03*
X352500D02*
D03*
X350000D02*
D03*
X315000Y327500D02*
D03*
Y330000D02*
D03*
Y332500D02*
D03*
X447500Y372500D02*
D03*
Y377500D02*
D03*
X452500D02*
D03*
X442500Y357500D02*
D03*
X303800Y398400D02*
D03*
X410000Y440000D02*
D03*
Y437500D02*
D03*
Y442500D02*
D03*
X312500Y440000D02*
D03*
Y437500D02*
D03*
Y442500D02*
D03*
X283730Y469565D02*
D03*
X329500Y381500D02*
D03*
X338000Y372500D02*
D03*
X327500Y383500D02*
D03*
X336000Y374500D02*
D03*
X431000Y451000D02*
D03*
X430000Y446500D02*
D03*
X428500Y441500D02*
D03*
X430500Y435500D02*
D03*
X435500Y440000D02*
D03*
X434000Y435000D02*
D03*
X438500Y436000D02*
D03*
X381500Y468500D02*
D03*
X492500Y462500D02*
D03*
X497500D02*
D03*
X502500D02*
D03*
X530000D02*
D03*
X535000D02*
D03*
X540000D02*
D03*
X367800Y468500D02*
D03*
X419685Y210000D02*
D03*
Y200000D02*
D03*
X410315D02*
D03*
X399685Y210000D02*
D03*
X405000Y135500D02*
D03*
X386500D02*
D03*
X393000D02*
D03*
X392000Y108500D02*
D03*
X202500Y232500D02*
D03*
Y227500D02*
D03*
X197500D02*
D03*
X192500D02*
D03*
X187500D02*
D03*
X182500D02*
D03*
Y232500D02*
D03*
X187500D02*
D03*
X192500D02*
D03*
X197500D02*
D03*
X212815Y237500D02*
D03*
Y247500D02*
D03*
X477500Y447500D02*
D03*
Y440000D02*
D03*
X480000Y444961D02*
D03*
X477500Y445000D02*
D03*
X480000Y442500D02*
D03*
X477500D02*
D03*
X447500Y470000D02*
D03*
X450000Y472500D02*
D03*
X447500D02*
D03*
Y480000D02*
D03*
Y477500D02*
D03*
X450000D02*
D03*
X452500Y475000D02*
D03*
X447500D02*
D03*
Y490000D02*
D03*
Y492500D02*
D03*
X450000D02*
D03*
X335000Y265000D02*
D03*
Y260000D02*
D03*
Y255000D02*
D03*
X395900Y62700D02*
D03*
X390000Y75000D02*
D03*
X392500Y72500D02*
D03*
X390000D02*
D03*
Y70000D02*
D03*
X302500Y72500D02*
D03*
Y70000D02*
D03*
Y67500D02*
D03*
X312500Y77500D02*
D03*
Y70000D02*
D03*
Y75000D02*
D03*
X350000Y52500D02*
D03*
X352500D02*
D03*
X355000D02*
D03*
Y55000D02*
D03*
X352500D02*
D03*
X540000Y390000D02*
D03*
Y395000D02*
D03*
Y400000D02*
D03*
Y405000D02*
D03*
Y410000D02*
D03*
Y415000D02*
D03*
Y420000D02*
D03*
Y425000D02*
D03*
Y430000D02*
D03*
X442500Y242500D02*
D03*
Y245000D02*
D03*
Y247500D02*
D03*
X445000D02*
D03*
Y242500D02*
D03*
X317500Y327500D02*
D03*
Y330000D02*
D03*
Y332500D02*
D03*
X320000D02*
D03*
Y330000D02*
D03*
Y327500D02*
D03*
X357500Y204000D02*
D03*
X355000D02*
D03*
X357500Y206500D02*
D03*
X355000D02*
D03*
X367500Y195000D02*
D03*
X365000D02*
D03*
X362500D02*
D03*
X360000D02*
D03*
X367500Y187500D02*
D03*
X365000D02*
D03*
X362500D02*
D03*
X360000D02*
D03*
X415000Y210000D02*
D03*
Y212500D02*
D03*
Y215000D02*
D03*
Y217500D02*
D03*
X430000Y222500D02*
D03*
Y220000D02*
D03*
X427500D02*
D03*
X390000Y372500D02*
D03*
X387500Y370000D02*
D03*
X385000Y372500D02*
D03*
X387500Y375000D02*
D03*
Y372500D02*
D03*
X385000Y375000D02*
D03*
Y370000D02*
D03*
X390000D02*
D03*
Y375000D02*
D03*
X385000Y217500D02*
D03*
X387500D02*
D03*
X382500D02*
D03*
X380000D02*
D03*
X377500D02*
D03*
X375000D02*
D03*
X372500D02*
D03*
X370000D02*
D03*
X367500D02*
D03*
X414000Y374000D02*
D03*
Y371000D02*
D03*
X432500Y327500D02*
D03*
X387000Y103000D02*
D03*
X394500Y106000D02*
D03*
X389500Y100500D02*
D03*
X288500Y300000D02*
D03*
X285500D02*
D03*
X449000Y56500D02*
D03*
X266500Y289500D02*
D03*
X263500D02*
D03*
X281500Y250500D02*
D03*
X278500D02*
D03*
X261000D02*
D03*
X264000D02*
D03*
X320000Y339685D02*
D03*
X390315Y125374D02*
D03*
X448500Y430500D02*
D03*
X402500Y182500D02*
D03*
X419685Y190000D02*
D03*
X430315Y210000D02*
D03*
X388750Y332500D02*
D03*
X335000Y305000D02*
D03*
X265315Y475000D02*
D03*
X292185Y467500D02*
D03*
X320315D02*
D03*
X362815Y465000D02*
D03*
X389685Y467500D02*
D03*
X417815D02*
D03*
X470315D02*
D03*
X445000Y285315D02*
D03*
X435000D02*
D03*
X425000D02*
D03*
X415000D02*
D03*
X270055Y321664D02*
D03*
X290000Y319685D02*
D03*
X285315Y200000D02*
D03*
X262500Y240000D02*
D03*
X280000Y239500D02*
D03*
X288595Y234399D02*
D03*
X271578Y240922D02*
D03*
X380000Y207874D02*
D03*
X292185Y210000D02*
D03*
X302815D02*
D03*
Y220000D02*
D03*
X350000Y207874D02*
D03*
X460000Y215000D02*
D03*
Y217500D02*
D03*
Y220000D02*
D03*
Y222500D02*
D03*
Y225000D02*
D03*
X450000Y215000D02*
D03*
Y217500D02*
D03*
Y220000D02*
D03*
Y222500D02*
D03*
Y225000D02*
D03*
X465000Y165000D02*
D03*
Y167500D02*
D03*
Y170000D02*
D03*
Y172500D02*
D03*
Y175000D02*
D03*
Y177500D02*
D03*
Y180000D02*
D03*
X475000Y165000D02*
D03*
Y167500D02*
D03*
Y170000D02*
D03*
Y172500D02*
D03*
Y175000D02*
D03*
Y177500D02*
D03*
Y180000D02*
D03*
X422500Y20000D02*
D03*
X425000D02*
D03*
X427500D02*
D03*
X430000D02*
D03*
X432500D02*
D03*
X197500Y237500D02*
D03*
Y242500D02*
D03*
Y247500D02*
D03*
X202500Y252500D02*
D03*
X425000Y310000D02*
D03*
X422500D02*
D03*
X420000D02*
D03*
X422500Y312500D02*
D03*
Y307500D02*
D03*
X395110Y445153D02*
D03*
X395000Y440000D02*
D03*
Y420000D02*
D03*
X405000Y340000D02*
D03*
X400000D02*
D03*
X395000D02*
D03*
X347500Y277500D02*
D03*
Y272500D02*
D03*
Y275000D02*
D03*
Y270000D02*
D03*
Y265000D02*
D03*
Y260000D02*
D03*
X352500Y135000D02*
D03*
Y132500D02*
D03*
Y130000D02*
D03*
Y127500D02*
D03*
Y125000D02*
D03*
Y120000D02*
D03*
Y122500D02*
D03*
X340000Y120000D02*
D03*
Y122500D02*
D03*
Y125000D02*
D03*
Y127500D02*
D03*
Y130000D02*
D03*
Y132500D02*
D03*
Y135000D02*
D03*
X427500Y52500D02*
D03*
X432500D02*
D03*
X437500D02*
D03*
X442500D02*
D03*
X425000Y25000D02*
D03*
Y22500D02*
D03*
X430000D02*
D03*
Y25000D02*
D03*
X432500Y22500D02*
D03*
X427500D02*
D03*
X422500D02*
D03*
X435000Y110000D02*
D03*
X432500Y112500D02*
D03*
X430000Y115000D02*
D03*
X427500Y117500D02*
D03*
X435000Y107500D02*
D03*
X425000Y117500D02*
D03*
X430000Y112500D02*
D03*
X425000Y100000D02*
D03*
X422500Y102500D02*
D03*
X420000Y105000D02*
D03*
X417500Y107500D02*
D03*
X420000D02*
D03*
X425000Y102500D02*
D03*
X487500Y217500D02*
D03*
Y212500D02*
D03*
X490000D02*
D03*
Y217500D02*
D03*
X452500Y222500D02*
D03*
Y217500D02*
D03*
X457500D02*
D03*
Y222500D02*
D03*
X477500Y167500D02*
D03*
Y172500D02*
D03*
Y177500D02*
D03*
X467500D02*
D03*
Y172500D02*
D03*
Y167500D02*
D03*
X490000Y372500D02*
D03*
X495000Y367500D02*
D03*
X517500Y392500D02*
D03*
X512500Y397500D02*
D03*
X502500Y387500D02*
D03*
X507500Y382500D02*
D03*
X450000Y475000D02*
D03*
X394476Y93438D02*
D03*
X312500Y72500D02*
D03*
X302500Y65000D02*
D03*
X232500Y242500D02*
D03*
X258074Y289820D02*
D03*
X272018Y295175D02*
D03*
X252074Y291292D02*
D03*
X262181Y282610D02*
D03*
X242500Y225000D02*
D03*
X237500D02*
D03*
X232500D02*
D03*
X270500Y469465D02*
D03*
X334922Y209994D02*
D03*
X352500Y420000D02*
D03*
X292500Y427500D02*
D03*
X271831Y412140D02*
D03*
X303031Y415167D02*
D03*
X267500Y400000D02*
D03*
X310000Y372500D02*
D03*
X282500Y432500D02*
D03*
X292500D02*
D03*
X272500D02*
D03*
X262500D02*
D03*
Y437500D02*
D03*
X267500D02*
D03*
X272500D02*
D03*
X277500D02*
D03*
X282500D02*
D03*
X287500D02*
D03*
X292500D02*
D03*
X287500Y427500D02*
D03*
X282500D02*
D03*
X277500D02*
D03*
X272500D02*
D03*
X267500D02*
D03*
X262500D02*
D03*
X380000Y437500D02*
D03*
X375000D02*
D03*
X370000D02*
D03*
X365000D02*
D03*
X360000D02*
D03*
Y432500D02*
D03*
X370000D02*
D03*
X360000Y427500D02*
D03*
X365000D02*
D03*
X370000D02*
D03*
X247500Y330000D02*
D03*
X297828Y237828D02*
D03*
X272500Y270000D02*
D03*
X270000Y267500D02*
D03*
X267500Y272500D02*
D03*
Y267500D02*
D03*
X270000Y272500D02*
D03*
X272500D02*
D03*
X270000Y270000D02*
D03*
X267500D02*
D03*
X320000Y62500D02*
D03*
X241012Y284953D02*
D03*
X235000Y247500D02*
D03*
X291490Y256417D02*
D03*
X297375Y244875D02*
D03*
X284168Y287675D02*
D03*
X280500Y280500D02*
D03*
X326688Y45771D02*
D03*
X302500Y97500D02*
D03*
X310000Y102500D02*
D03*
X307500Y92500D02*
D03*
X420000Y57500D02*
D03*
X410000Y105000D02*
D03*
X370000Y107500D02*
D03*
X372500Y40000D02*
D03*
X392500Y70000D02*
D03*
X392140Y61377D02*
D03*
X395581Y50090D02*
D03*
X399410Y66508D02*
D03*
X399089Y60468D02*
D03*
X453422Y56578D02*
D03*
X350000Y55000D02*
D03*
X252500Y330000D02*
D03*
X247500Y325000D02*
D03*
X252500D02*
D03*
X247500Y320000D02*
D03*
X252500D02*
D03*
X247500Y315000D02*
D03*
X252500D02*
D03*
X247500Y335000D02*
D03*
X252500D02*
D03*
X247500Y340000D02*
D03*
X252500D02*
D03*
X247500Y310000D02*
D03*
X252500D02*
D03*
Y305000D02*
D03*
X227500Y225000D02*
D03*
Y220000D02*
D03*
X232500D02*
D03*
X237500D02*
D03*
X222500Y257500D02*
D03*
Y267500D02*
D03*
Y262500D02*
D03*
X207500Y267500D02*
D03*
Y262500D02*
D03*
X202500D02*
D03*
X207500Y257500D02*
D03*
X202500D02*
D03*
X197500D02*
D03*
X192500Y252500D02*
D03*
X197500D02*
D03*
X227500Y215000D02*
D03*
X232500D02*
D03*
X237749Y214730D02*
D03*
X227500Y210000D02*
D03*
X232500D02*
D03*
X237500D02*
D03*
X232500Y205000D02*
D03*
X237500D02*
D03*
Y200000D02*
D03*
X242500Y220000D02*
D03*
Y215000D02*
D03*
Y210000D02*
D03*
Y205000D02*
D03*
Y200000D02*
D03*
Y195000D02*
D03*
X247500Y345000D02*
D03*
X252500D02*
D03*
Y350000D02*
D03*
X247500D02*
D03*
Y355000D02*
D03*
X252500D02*
D03*
Y360000D02*
D03*
X247500D02*
D03*
Y365000D02*
D03*
X252500D02*
D03*
Y370000D02*
D03*
X247500D02*
D03*
Y375000D02*
D03*
X252500D02*
D03*
Y380000D02*
D03*
X247500D02*
D03*
Y385000D02*
D03*
X252500D02*
D03*
Y390000D02*
D03*
X247500D02*
D03*
X222500Y252500D02*
D03*
Y247500D02*
D03*
X227500D02*
D03*
X242500Y185000D02*
D03*
X237500Y180000D02*
D03*
X242500D02*
D03*
Y175000D02*
D03*
X237500D02*
D03*
X232500D02*
D03*
X227500Y170000D02*
D03*
X232500D02*
D03*
X237500D02*
D03*
X242500D02*
D03*
Y165000D02*
D03*
X237500D02*
D03*
X232500D02*
D03*
X227500D02*
D03*
X222500Y170000D02*
D03*
Y165000D02*
D03*
X227500Y242500D02*
D03*
X239685Y277500D02*
D03*
X422500Y25000D02*
D03*
X427500D02*
D03*
X432500D02*
D03*
Y110000D02*
D03*
X427500Y115000D02*
D03*
X400180Y43375D02*
D03*
X392500Y37500D02*
D03*
X399659Y54495D02*
D03*
X420000Y47500D02*
D03*
X527500Y57500D02*
D03*
X532500D02*
D03*
X527500Y52500D02*
D03*
X522500D02*
D03*
Y57500D02*
D03*
Y47500D02*
D03*
X272500Y267500D02*
D03*
X362500Y262500D02*
D03*
X372500D02*
D03*
X382500D02*
D03*
X392500D02*
D03*
X362500Y252500D02*
D03*
X372500D02*
D03*
X382500D02*
D03*
X392500D02*
D03*
X362500Y242500D02*
D03*
X382500D02*
D03*
X392500D02*
D03*
X372500Y232500D02*
D03*
X490000Y220000D02*
D03*
X457500D02*
D03*
Y225000D02*
D03*
X452500Y220000D02*
D03*
Y215000D02*
D03*
X427500Y240000D02*
D03*
X432500Y245315D02*
D03*
X417500Y247500D02*
D03*
X507500Y342500D02*
D03*
X372500Y135000D02*
D03*
Y126470D02*
D03*
X487500Y215000D02*
D03*
Y220000D02*
D03*
Y210000D02*
D03*
X522500Y332500D02*
D03*
X517500Y338500D02*
D03*
X507500Y350000D02*
D03*
X487500Y375000D02*
D03*
X492500Y370000D02*
D03*
X500000Y390000D02*
D03*
X382500Y140000D02*
D03*
X392500Y166400D02*
D03*
X457500Y215000D02*
D03*
X355000Y60000D02*
D03*
X425000Y52500D02*
D03*
X430000D02*
D03*
X435000D02*
D03*
X440000D02*
D03*
X417500Y110000D02*
D03*
X422500Y105000D02*
D03*
X427500Y100000D02*
D03*
X400000Y33600D02*
D03*
X187500Y247500D02*
D03*
X182500Y242500D02*
D03*
X187500D02*
D03*
X192500D02*
D03*
X187500Y237500D02*
D03*
X182500D02*
D03*
X467500Y180000D02*
D03*
Y175000D02*
D03*
Y170000D02*
D03*
Y165000D02*
D03*
X407500D02*
D03*
X462500Y277500D02*
D03*
X362500Y232500D02*
D03*
X372500Y242500D02*
D03*
X382500Y232500D02*
D03*
X477500Y175000D02*
D03*
Y170000D02*
D03*
Y180000D02*
D03*
Y165000D02*
D03*
X452500Y225000D02*
D03*
X490000Y210000D02*
D03*
Y215000D02*
D03*
X505735Y234443D02*
D03*
X505000Y227500D02*
D03*
X392500Y232500D02*
D03*
X427500Y222500D02*
D03*
X452500Y362500D02*
D03*
Y357500D02*
D03*
Y367500D02*
D03*
X457500Y362500D02*
D03*
X447500Y357500D02*
D03*
Y362500D02*
D03*
Y367500D02*
D03*
X505000Y385000D02*
D03*
X510000Y380000D02*
D03*
X515000Y395000D02*
D03*
X480000Y465000D02*
D03*
X475000Y390000D02*
D03*
X480000Y420000D02*
D03*
X335000Y322500D02*
D03*
X242500Y247500D02*
D03*
X390000Y427500D02*
D03*
X385000D02*
D03*
X390000Y432500D02*
D03*
X380000Y427500D02*
D03*
X390000Y437500D02*
D03*
X385000D02*
D03*
X380000Y432500D02*
D03*
X375000Y427500D02*
D03*
X277705Y404191D02*
D03*
X369385Y412131D02*
D03*
X371920Y403811D02*
D03*
X377500Y410000D02*
D03*
X510000Y400000D02*
D03*
X445000Y245000D02*
D03*
X510000Y475000D02*
D03*
X505000D02*
D03*
X500000D02*
D03*
X522500Y62500D02*
D03*
X527500D02*
D03*
X532500D02*
D03*
X457500Y367500D02*
D03*
X452500Y372500D02*
D03*
X457500D02*
D03*
Y377500D02*
D03*
X482500Y362500D02*
D03*
X541000Y352000D02*
D03*
X520000Y357500D02*
D03*
Y390000D02*
D03*
X515000Y475000D02*
D03*
X480000Y302500D02*
D03*
X407500Y222500D02*
D03*
X398750Y217500D02*
D03*
X545000Y365000D02*
D03*
X496993Y365507D02*
D03*
X462547Y445161D02*
D03*
X465000Y435000D02*
D03*
X456547Y443181D02*
D03*
X457500Y435000D02*
D03*
X456303Y451181D02*
D03*
X540265Y369671D02*
D03*
X530000Y380000D02*
D03*
X536500Y374343D02*
D03*
X460303Y455822D02*
D03*
X415000Y397500D02*
D03*
X417943Y391958D02*
D03*
X284776Y402276D02*
D03*
X289019Y406519D02*
D03*
X294675Y412176D02*
D03*
X285339Y411833D02*
D03*
X379608Y402107D02*
D03*
X272500Y475000D02*
D03*
X280500D02*
D03*
X286488Y448546D02*
D03*
X378169Y474331D02*
D03*
X370320Y474364D02*
D03*
X360000Y357500D02*
D03*
X340000Y442500D02*
D03*
Y437500D02*
D03*
Y432500D02*
D03*
Y427500D02*
D03*
Y422500D02*
D03*
X335000D02*
D03*
Y427500D02*
D03*
Y432500D02*
D03*
Y437500D02*
D03*
Y442500D02*
D03*
X345000D02*
D03*
Y437500D02*
D03*
Y432500D02*
D03*
Y427500D02*
D03*
Y422500D02*
D03*
X335000Y447500D02*
D03*
X340000D02*
D03*
X345000D02*
D03*
X415000Y425000D02*
D03*
X410000Y420000D02*
D03*
Y425000D02*
D03*
X405000Y420000D02*
D03*
Y425000D02*
D03*
X400000D02*
D03*
Y420000D02*
D03*
Y430000D02*
D03*
Y435000D02*
D03*
Y440000D02*
D03*
Y445000D02*
D03*
X395000Y435000D02*
D03*
Y430000D02*
D03*
Y425000D02*
D03*
X268500Y448500D02*
D03*
X338906Y328673D02*
D03*
X354176Y330391D02*
D03*
X348006Y323048D02*
D03*
X305000Y367500D02*
D03*
X300000Y360000D02*
D03*
X308459Y361591D02*
D03*
X392500Y340000D02*
D03*
X397500D02*
D03*
X402500D02*
D03*
X407500D02*
D03*
X425000Y307500D02*
D03*
X419922Y307493D02*
D03*
Y312493D02*
D03*
X424922D02*
D03*
X347500Y257500D02*
D03*
X347422Y262493D02*
D03*
Y267494D02*
D03*
X329922Y219993D02*
D03*
Y214994D02*
D03*
X334922D02*
D03*
X329922Y209994D02*
D03*
D86*
X277500Y432500D02*
D03*
X287500D02*
D03*
X375000D02*
D03*
X365000D02*
D03*
X492500Y319400D02*
D03*
X488700Y323000D02*
D03*
X496100D02*
D03*
X492500Y326600D02*
D03*
X267500Y432500D02*
D03*
X385000D02*
D03*
D87*
X499700Y326600D02*
D03*
X496100Y330200D02*
D03*
X499700Y319400D02*
D03*
X496100Y315800D02*
D03*
X485200Y326700D02*
D03*
X485300Y319300D02*
D03*
X488900Y315800D02*
D03*
X488800Y330200D02*
D03*
M02*
