M48
;Layer_Color=9474304
;FILE_FORMAT=2:5
INCH,LZ
;TYPE=PLATED
T1F00S00C0.01181
T2F00S00C0.02756
T3F00S00C0.04200
T4F00S00C0.05118
T5F00S00C0.12992
T6F00S00C0.20000
%
T01
X03025Y0065
Y00675
Y007
Y00725
Y00975
X03075Y00925
X031Y01025
X03135Y00995
Y00965
X03125Y00775
Y0075
Y00725
Y007
X032Y00625
X0326688Y0045771
X035Y005
X03525
X0355
Y00525
X03525
X035
Y0055
X03525
X0355
Y006
X03725Y004
X03925Y00375
X04Y00336
X040018Y0043375
X0395581Y005009
X0399659Y0054495
X0399089Y0060468
X03959Y00627
X039214Y0061377
X03925Y007
Y00725
X039
Y0075
Y007
X039941Y0066508
X042Y00575
Y00475
X0425Y00525
X04275
X043
X04325
X0435
X04375
X044
X04425
X0449Y00565
X0453422Y0056578
X04325Y0025
X043
Y00225
Y002
X04275
X0425
X04225
Y00225
X0425
Y0025
X04225
X04275
Y00225
X04325
Y002
X04275Y01
X0425
Y01025
X04225
Y0105
X042
Y01075
X04175
Y011
X041Y0105
X03945Y0106
X0392Y01085
X0387Y0103
X03895Y01005
X0394476Y0093438
X0390315Y0125374
X0393Y01355
X03865
X03825Y014
X03725Y0135
Y012647
X03525Y01275
Y013
Y01325
Y0135
Y0125
Y01225
Y012
X034
Y01225
Y0125
Y01275
Y013
Y01325
Y0135
X037Y01075
X0405Y01355
X0425Y01175
X04275
Y0115
X043
Y01125
X04325
Y011
X0435
Y01075
X05225Y00625
Y00575
X05275
X05325
Y00625
X05275
Y00525
X05225
Y00475
X04775Y0165
X0475
Y01675
Y017
Y01725
Y0175
Y01775
Y018
X04775
Y01775
Y0175
Y01725
Y017
Y01675
X0487Y01845
X0491Y0184
X049Y02075
X04875
Y021
Y02125
X049
Y021
Y0215
Y02175
X04875
Y0215
Y022
X049
X0505Y02275
X0505735Y0234443
X05555Y0234
X0558
X05605
X0563
X05685Y02465
X0571
X05735
X0576
Y02535
X05735
X0571
X05685
X05375Y0255
Y02575
X054
Y026
X05375
Y02625
Y0265
Y02675
Y027
Y02725
Y0275
Y02775
Y028
X05425Y02175
Y0215
Y02125
Y021
X0545
Y02125
Y0215
Y02175
X048Y03025
X04625Y02775
X0445Y0285315
X0435
X0425
X0415
X0419922Y0307493
X042Y031
X04225
X0425
Y03075
X04225
X0424922Y0312493
X0419922
X04175Y02475
X04325Y0245315
X04425Y0245
Y02425
X0445
Y0245
Y02475
X04425
X04275Y024
Y02225
X043
Y022
X04275
X0430315Y021
X0419685
X0415
Y02125
Y0215
Y02175
X04075Y02225
X039875Y02175
X0399685Y021
X03875Y02175
X0385
X03825
X038
X03775
X0375
X03725
X037
X03675
X03725Y02325
X03625
Y02425
Y02525
Y02625
X03725
X03825
X03925
Y02525
X03825
X03725
Y02425
X03825
X03925
Y02325
X03825
X038Y0207874
X03575Y02065
Y0204
X0355
Y02065
X035Y0207874
X0334922Y0209994
Y0214994
X0329922
Y0219993
Y0209994
X036Y0195
X03625
X0365
X03675
Y01875
X0365
X03625
X036
X04025Y01825
X04075Y0165
X03925Y01664
X0419685Y019
Y02
X0410315
X045Y0215
Y02175
Y022
Y02225
Y0225
X04525
Y02225
Y022
Y02175
Y0215
X04575
X046
Y02175
Y022
Y02225
Y0225
X04575
Y02225
Y022
Y02175
X0465Y018
Y01775
Y0175
Y01725
Y017
Y01675
Y0165
X04675
Y01675
Y017
Y01725
Y0175
Y01775
Y018
X03475Y02575
Y026
X0347422Y0262493
X03475Y0265
X0347422Y0267494
X03475Y027
Y02725
Y0275
Y02775
X0335Y0265
Y026
Y0255
Y0305
X02885Y03
X02855
X0284168Y0287675
X02805Y02805
X02725Y02725
Y027
X027
Y02675
X02675
Y027
Y02725
X027
X02725Y02675
X0282896Y026281
X02815Y02505
X02785
X028Y02395
X0271578Y0240922
X02625Y024
X0261Y02505
X0264
X02425Y02475
X0235
X02325Y02425
X02275
Y02475
X02225
Y02525
Y02575
Y02625
Y02675
X02075
Y02625
X02025
Y02575
Y02525
X01975
Y02475
Y02425
Y02375
Y02325
X02025
Y02275
X01975
X01925
X01875
X01825
Y02325
X01875
X01925
Y02425
X01875
Y02475
X01925Y02525
X01975Y02575
X02075
X0212815Y02475
Y02375
X01875
X01825
Y02425
X02275Y0225
X02325
X02375
X02425
Y022
X02375
X02325
X02275
Y0215
X02325
Y021
X02275
X02375
X0237749Y021473
X02425Y0215
Y021
Y0205
X02375
X02325
X02375Y02
X02425
Y0195
Y0185
Y018
X02375
Y0175
X02425
Y017
X02375
X02325
Y0175
X02275Y017
Y0165
X02325
X02375
X02425
X02225
Y017
X0285315Y02
X0292185Y021
X0302815
Y022
X0297828Y0237828
X0297375Y0244875
X029149Y0256417
X0288595Y0234399
X0262181Y028261
X02635Y02895
X02665
X0258074Y028982
X0252074Y0291292
X025Y02835
X0241012Y0284953
X0239685Y02775
X02475Y031
X02525
Y0305
X0272018Y0295175
X0270055Y0321664
X02525Y032
Y0325
Y033
X02475
Y0325
Y032
Y0315
X02525
Y0335
X02475
Y034
X02525
Y0345
X02475
Y035
X02525
Y0355
X02475
Y036
X02525
Y0365
X02475
Y037
X02525
Y0375
X02475
Y038
X02525
Y0385
X02475
Y039
X02525
X02675Y04
X0277705Y0404191
X0284776Y0402276
X0289019Y0406519
X0285339Y0411833
X0294675Y0412176
X0303031Y0415167
X03038Y03984
X031Y03725
X0305Y03675
X0308459Y0361591
X03Y036
X029Y0319685
X02925Y04275
Y04325
Y04375
X02875
X02825
Y04325
Y04275
X02875
X02775
X02725
Y04325
Y04375
X02675
X02625
Y04325
Y04275
X02675
X0271831Y041214
X02775Y04375
X02685Y04485
X0286488Y0448546
X0292185Y04675
X0320315
X03125Y04425
Y044
Y04375
X0335
X034
Y04425
X0335
Y04475
X034
X0345
Y04425
Y04375
Y04325
X034
Y04275
Y04225
X0335
Y04275
Y04325
X0345Y04275
Y04225
X03525Y042
X036Y04275
Y04325
Y04375
X0365
X037
X0375
X038
X0385
X039
Y04325
Y04275
X0385
X038
Y04325
X037
Y04275
X0365
X0375
X03775Y041
X0379608Y0402107
X037192Y0403811
X0369385Y0412131
X0395Y042
X04
X0405
X041
Y0425
X0415
X0405
X04
Y043
Y0435
Y044
X0395
Y0435
Y043
Y0425
X039511Y0445153
X04Y0445
X041Y04425
Y044
Y04375
X04285Y04415
X043Y04465
X0431Y0451
X04355Y044
X0434Y0435
X04305Y04355
X04385Y0436
X04485Y04305
X04575Y0435
X0465
X0462547Y0445161
X0456547Y0443181
X0456303Y0451181
X0460303Y0455822
X0417815Y04675
X0389685
X03815Y04685
X03678
X0362815Y0465
X0366Y04488
X0384
X0385Y0375
Y03725
X03875
X039
Y037
X03875
X0385
X03875Y0375
X039
X0414Y0374
Y0371
X0417943Y0391958
X0415Y03975
X04475Y03775
Y03725
Y03675
X04525
Y03625
Y03575
X04475
X04425
X04475Y03625
X04575
Y03675
Y03725
X04525
Y03775
X04575
X0465Y03675
X04575Y03225
X04325Y03275
X04225Y03125
X04075Y034
X0405
X04025
X04
X03975
X0395
X03925
X038875Y03325
X0354176Y0330391
X0348006Y0323048
X0335Y03225
X0338906Y0328673
X032Y03275
X03175
X0315
Y033
Y03325
X03175
Y033
X032
Y03325
Y0339685
X0338Y03725
X0336Y03745
X03295Y03815
X03275Y03835
X036Y03575
X04825Y0355
Y03625
X049Y03575
X05Y0354957
X05075Y035
Y03425
X05175Y03385
X05225Y03325
X052Y03575
X0541Y0352
Y03495
Y0347
Y03445
X0545Y0365
X0540265Y0369671
X05365Y0374343
X053Y038
X054Y039
Y0395
Y04
Y0405
Y041
Y0415
Y042
Y0425
Y043
Y04625
X0535
X053
X05025
X04975
X04925
X048Y0465
X0470315Y04675
X04775Y04475
Y0445
Y04425
Y044
X048Y04425
Y0444961
Y042
X0475Y039
X0484531Y0382615
X04825Y03775
X04875Y0375
X049Y03725
X04925Y037
X0495Y03675
X0496993Y0365507
X05025Y03875
X05Y039
X0505Y0385
X05075Y03825
X051Y038
X05175Y03925
X0515Y0395
X05125Y03975
X051Y04
X052Y039
X04997Y03266
X04961Y03302
X04888
X04852Y03267
X04853Y03193
X04889Y03158
X04961
X04997Y03194
X05Y0475
X0505
X051
X0515
X04525
X045
Y04725
X04475
Y047
Y0475
Y04775
Y048
X045Y04775
X04475Y049
Y04925
X045
X0378169Y0474331
X037032Y0474364
X02805Y0475
X02725
X0265315
X02705Y0469465
X028373Y0469565
T02
X02675Y04325
X02775
X02875
X0365
X0375
X0385
X04887Y0323
X04925Y03194
X04961Y0323
X04925Y03266
T03
X037Y009
X042
Y008
Y007
X0435
Y008
Y009
X045
Y008
Y007
X0465
Y008
Y009
X0395Y0155
X048Y009
Y008
Y007
X0495
Y008
Y009
X051
Y008
Y007
X0525
Y008
Y009
X054
Y008
Y007
X0515Y00525
Y00425
Y00325
Y00225
X04925
Y00325
Y00425
X0485Y025
X0505
X0525
X0545
X05525Y0275
X05725
X05825Y02375
Y02275
X05925
X06025
X06125
Y02375
X06025
X05925
X0438Y0223
X0445Y01675
X03375Y0225
X029Y02675
Y0365
X02775Y0395
X02425
X032Y0365
X0425Y03625
Y03525
Y03425
Y03325
Y03725
Y03825
Y03925
Y04025
X0453Y04
Y041
Y042
X044Y03775
X047Y04
Y041
Y042
X04925
Y043
Y041
Y04
Y039
X055Y03775
X0385Y05075
X0375
X02875
X02775
T04
X02875Y0145
X03075
T05
X01957Y00257
X06043
X04Y03
X0549225Y052435
X0250775
T06
X022Y009
Y019
M30
