G04*
G04 #@! TF.GenerationSoftware,Altium Limited,Altium Designer,20.0.7 (75)*
G04*
G04 Layer_Color=65535*
%FSLAX25Y25*%
%MOIN*%
G70*
G01*
G75*
%ADD10C,0.01000*%
%ADD11C,0.00984*%
%ADD12C,0.00787*%
%ADD13C,0.00394*%
%ADD14C,0.00600*%
%ADD15C,0.00598*%
%ADD16C,0.00500*%
G36*
X502800Y540000D02*
X505200D01*
Y539200D01*
X506000D01*
Y538400D01*
Y537600D01*
Y536800D01*
X503600D01*
Y537600D01*
Y538400D01*
X502800D01*
Y537600D01*
X502000D01*
Y538400D01*
X501200D01*
Y537600D01*
X500400D01*
Y536800D01*
X498800D01*
Y536000D01*
X498000D01*
Y535200D01*
Y534400D01*
Y533600D01*
X497200D01*
Y532800D01*
Y532000D01*
X498000D01*
Y531200D01*
Y530400D01*
X498800D01*
Y529600D01*
X499600D01*
Y528800D01*
X500400D01*
Y528000D01*
X502800D01*
Y527200D01*
X505200D01*
Y526400D01*
X506000D01*
Y525600D01*
Y524800D01*
Y524000D01*
Y523200D01*
X505200D01*
Y524000D01*
Y524800D01*
X504400D01*
Y525600D01*
X502800D01*
Y526400D01*
X501200D01*
Y525600D01*
X500400D01*
Y526400D01*
Y527200D01*
X498800D01*
Y528000D01*
Y528800D01*
X498000D01*
Y529600D01*
X497200D01*
Y530400D01*
Y531200D01*
X496400D01*
Y532000D01*
Y532800D01*
Y533600D01*
X495600D01*
Y534400D01*
Y535200D01*
Y536000D01*
X496400D01*
Y536800D01*
X495600D01*
Y537600D01*
X496400D01*
Y536800D01*
X497200D01*
Y537600D01*
X498000D01*
Y538400D01*
X499600D01*
Y539200D01*
X500400D01*
Y540000D01*
X501200D01*
Y540800D01*
X502800D01*
Y540000D01*
D02*
G37*
G36*
X512400D02*
X513200D01*
Y539200D01*
X514800D01*
Y538400D01*
Y537600D01*
X516400D01*
Y536800D01*
X517200D01*
Y536000D01*
X518000D01*
Y535200D01*
Y534400D01*
X517200D01*
Y533600D01*
Y532800D01*
Y532000D01*
X516400D01*
Y532800D01*
Y533600D01*
X515600D01*
Y534400D01*
Y535200D01*
X514800D01*
Y536000D01*
Y536800D01*
X513200D01*
Y537600D01*
X509200D01*
Y536800D01*
X507600D01*
Y537600D01*
Y538400D01*
Y539200D01*
X508400D01*
Y540000D01*
X510000D01*
Y540800D01*
X512400D01*
Y540000D01*
D02*
G37*
G36*
X522000Y533600D02*
X522800D01*
Y532800D01*
X524400D01*
Y532000D01*
Y531200D01*
X525200D01*
Y530400D01*
X522800D01*
Y531200D01*
X521200D01*
Y530400D01*
Y529600D01*
X520400D01*
Y530400D01*
Y531200D01*
X519600D01*
Y530400D01*
X518800D01*
Y529600D01*
X517200D01*
Y530400D01*
X518000D01*
Y531200D01*
Y532000D01*
X518800D01*
Y532800D01*
Y533600D01*
X520400D01*
Y534400D01*
X522000D01*
Y533600D01*
D02*
G37*
G36*
X488400Y529600D02*
Y528800D01*
X487600D01*
Y529600D01*
Y530400D01*
X488400D01*
Y529600D01*
D02*
G37*
G36*
X493200Y533600D02*
X494000D01*
Y532800D01*
X494800D01*
Y532000D01*
Y531200D01*
X495600D01*
Y530400D01*
Y529600D01*
X496400D01*
Y528800D01*
Y528000D01*
X495600D01*
Y528800D01*
Y529600D01*
X494000D01*
Y530400D01*
Y531200D01*
X490800D01*
Y530400D01*
X488400D01*
Y531200D01*
X489200D01*
Y532000D01*
X490000D01*
Y532800D01*
Y533600D01*
X491600D01*
Y534400D01*
X493200D01*
Y533600D01*
D02*
G37*
G36*
X516400Y531200D02*
Y530400D01*
X515600D01*
Y529600D01*
Y528800D01*
X514800D01*
Y528000D01*
X514000D01*
Y527200D01*
Y526400D01*
X513200D01*
Y525600D01*
X509200D01*
Y524800D01*
X508400D01*
Y524000D01*
X507600D01*
Y524800D01*
Y525600D01*
Y526400D01*
X508400D01*
Y527200D01*
X510800D01*
Y528000D01*
X512400D01*
Y528800D01*
X514000D01*
Y529600D01*
Y530400D01*
X514800D01*
Y531200D01*
X515600D01*
Y532000D01*
X516400D01*
Y531200D01*
D02*
G37*
G36*
X526800Y527200D02*
Y526400D01*
X528400D01*
Y525600D01*
X527600D01*
Y524800D01*
Y524000D01*
Y523200D01*
X528400D01*
Y522400D01*
X527600D01*
Y521600D01*
X526800D01*
Y520800D01*
Y520000D01*
X525200D01*
Y519200D01*
X519600D01*
Y520000D01*
X518000D01*
Y519200D01*
X517200D01*
Y520000D01*
X516400D01*
Y519200D01*
X515600D01*
Y520000D01*
X514800D01*
Y520800D01*
X513200D01*
Y521600D01*
X510000D01*
Y520800D01*
X506800D01*
Y521600D01*
X509200D01*
Y522400D01*
X510000D01*
Y523200D01*
X511600D01*
Y524000D01*
Y524800D01*
X512400D01*
Y524000D01*
X513200D01*
Y523200D01*
X515600D01*
Y522400D01*
X517200D01*
Y521600D01*
X519600D01*
Y520800D01*
X520400D01*
Y521600D01*
X521200D01*
Y520800D01*
X522000D01*
Y521600D01*
X523600D01*
Y522400D01*
X524400D01*
Y523200D01*
X525200D01*
Y524000D01*
X526000D01*
Y524800D01*
Y525600D01*
Y526400D01*
Y527200D01*
Y528000D01*
X526800D01*
Y527200D01*
D02*
G37*
G36*
X487600Y525600D02*
Y524800D01*
Y524000D01*
X488400D01*
Y523200D01*
X489200D01*
Y522400D01*
X490000D01*
Y521600D01*
X490800D01*
Y520800D01*
X494000D01*
Y521600D01*
X496400D01*
Y522400D01*
X498000D01*
Y523200D01*
X500400D01*
Y524000D01*
Y524800D01*
X501200D01*
Y524000D01*
Y523200D01*
X502800D01*
Y522400D01*
X504400D01*
Y521600D01*
X505200D01*
Y520800D01*
X502800D01*
Y521600D01*
X500400D01*
Y520800D01*
X498800D01*
Y520000D01*
X498000D01*
Y519200D01*
X497200D01*
Y520000D01*
X496400D01*
Y519200D01*
X495600D01*
Y520000D01*
X494000D01*
Y519200D01*
X492400D01*
Y518400D01*
X491600D01*
Y519200D01*
X489200D01*
Y520000D01*
X486800D01*
Y520800D01*
X486000D01*
Y521600D01*
Y522400D01*
Y523200D01*
Y524000D01*
Y524800D01*
Y525600D01*
Y526400D01*
X487600D01*
Y525600D01*
D02*
G37*
G36*
X509200Y517600D02*
X510000D01*
Y516800D01*
X509200D01*
Y516000D01*
X510000D01*
Y515200D01*
X511600D01*
Y516000D01*
X512400D01*
Y515200D01*
X514000D01*
Y514400D01*
X513200D01*
Y513600D01*
Y512800D01*
X512400D01*
Y513600D01*
X511600D01*
Y514400D01*
X510000D01*
Y513600D01*
X508400D01*
Y514400D01*
Y515200D01*
Y516000D01*
Y516800D01*
X505200D01*
Y516000D01*
X504400D01*
Y516800D01*
X503600D01*
Y517600D01*
Y518400D01*
X509200D01*
Y517600D01*
D02*
G37*
G36*
X504400Y515200D02*
Y514400D01*
X505200D01*
Y513600D01*
X506000D01*
Y512800D01*
X505200D01*
Y513600D01*
X503600D01*
Y514400D01*
X502000D01*
Y513600D01*
X501200D01*
Y512800D01*
X498800D01*
Y513600D01*
X500400D01*
Y514400D01*
Y515200D01*
X503600D01*
Y516000D01*
X504400D01*
Y515200D01*
D02*
G37*
G36*
X524400Y517600D02*
X525200D01*
Y516800D01*
X526000D01*
Y516000D01*
Y515200D01*
Y514400D01*
X526800D01*
Y513600D01*
X526000D01*
Y512800D01*
Y512000D01*
Y511200D01*
X525200D01*
Y510400D01*
X524400D01*
Y511200D01*
Y512000D01*
X525200D01*
Y512800D01*
Y513600D01*
Y514400D01*
Y515200D01*
X524400D01*
Y516000D01*
Y516800D01*
X521200D01*
Y517600D01*
X523600D01*
Y518400D01*
X524400D01*
Y517600D01*
D02*
G37*
G36*
X507600Y511200D02*
X508400D01*
Y510400D01*
X510000D01*
Y509600D01*
X511600D01*
Y510400D01*
X512400D01*
Y511200D01*
X513200D01*
Y510400D01*
Y509600D01*
Y508800D01*
X514000D01*
Y508000D01*
Y507200D01*
Y506400D01*
Y505600D01*
X515600D01*
Y504800D01*
X514000D01*
Y504000D01*
Y503200D01*
Y502400D01*
X513200D01*
Y501600D01*
Y500800D01*
X512400D01*
Y500000D01*
X510000D01*
Y499200D01*
X508400D01*
Y498400D01*
X506800D01*
Y499200D01*
X506000D01*
Y498400D01*
X505200D01*
Y499200D01*
X503600D01*
Y500000D01*
X501200D01*
Y500800D01*
X500400D01*
Y501600D01*
Y502400D01*
X499600D01*
Y503200D01*
Y504000D01*
X498800D01*
Y504800D01*
Y505600D01*
Y506400D01*
X499600D01*
Y507200D01*
Y508000D01*
Y508800D01*
Y509600D01*
X500400D01*
Y510400D01*
Y511200D01*
X501200D01*
Y510400D01*
X502000D01*
Y509600D01*
X503600D01*
Y510400D01*
X505200D01*
Y511200D01*
X506000D01*
Y512000D01*
X507600D01*
Y511200D01*
D02*
G37*
G36*
X502000Y518400D02*
X501200D01*
Y517600D01*
X498800D01*
Y516800D01*
X498000D01*
Y516000D01*
Y515200D01*
Y514400D01*
X497200D01*
Y513600D01*
Y512800D01*
X498000D01*
Y512000D01*
X496400D01*
Y511200D01*
Y510400D01*
X495600D01*
Y509600D01*
X494000D01*
Y510400D01*
X494800D01*
Y511200D01*
Y512000D01*
X495600D01*
Y512800D01*
Y513600D01*
X496400D01*
Y514400D01*
Y515200D01*
Y516000D01*
X497200D01*
Y516800D01*
Y517600D01*
X498000D01*
Y518400D01*
X500400D01*
Y519200D01*
X502000D01*
Y518400D01*
D02*
G37*
G36*
X490000Y517600D02*
X492400D01*
Y516800D01*
X489200D01*
Y516000D01*
Y515200D01*
X488400D01*
Y514400D01*
Y513600D01*
Y512800D01*
Y512000D01*
X489200D01*
Y511200D01*
Y510400D01*
X490800D01*
Y509600D01*
X489200D01*
Y510400D01*
X488400D01*
Y511200D01*
X487600D01*
Y512000D01*
Y512800D01*
X486800D01*
Y513600D01*
Y514400D01*
Y515200D01*
X487600D01*
Y516000D01*
Y516800D01*
Y517600D01*
X489200D01*
Y518400D01*
X490000D01*
Y517600D01*
D02*
G37*
G36*
X512400Y519200D02*
X513200D01*
Y518400D01*
X515600D01*
Y517600D01*
X516400D01*
Y516800D01*
Y516000D01*
Y515200D01*
X517200D01*
Y514400D01*
Y513600D01*
Y512800D01*
X518000D01*
Y512000D01*
Y511200D01*
X518800D01*
Y510400D01*
X519600D01*
Y509600D01*
X522000D01*
Y508800D01*
X519600D01*
Y509600D01*
X518000D01*
Y510400D01*
X517200D01*
Y511200D01*
X516400D01*
Y512000D01*
X515600D01*
Y512800D01*
Y513600D01*
Y514400D01*
Y515200D01*
X514800D01*
Y516000D01*
Y516800D01*
Y517600D01*
X512400D01*
Y518400D01*
X511600D01*
Y519200D01*
Y520000D01*
X512400D01*
Y519200D01*
D02*
G37*
G36*
X494000Y508800D02*
X493200D01*
Y508000D01*
X492400D01*
Y508800D01*
X491600D01*
Y509600D01*
X494000D01*
Y508800D01*
D02*
G37*
D10*
X327874Y365000D02*
G03*
X327874Y365000I-7874J0D01*
G01*
X377874Y90000D02*
G03*
X377874Y90000I-7874J0D01*
G01*
X297874Y365000D02*
G03*
X297874Y365000I-7874J0D01*
G01*
X557874Y377500D02*
G03*
X557874Y377500I-7874J0D01*
G01*
X447874D02*
G03*
X447874Y377500I-7874J0D01*
G01*
X250374Y395000D02*
G03*
X250374Y395000I-7874J0D01*
G01*
X297874Y267500D02*
G03*
X297874Y267500I-7874J0D01*
G01*
X452874Y167500D02*
G03*
X452874Y167500I-7874J0D01*
G01*
X445874Y223000D02*
G03*
X445874Y223000I-7874J0D01*
G01*
X285374Y395000D02*
G03*
X285374Y395000I-7874J0D01*
G01*
X402874Y155000D02*
G03*
X402874Y155000I-7874J0D01*
G01*
X345374Y225000D02*
G03*
X345374Y225000I-7874J0D01*
G01*
X580374Y275000D02*
G03*
X580374Y275000I-7874J0D01*
G01*
X560374D02*
G03*
X560374Y275000I-7874J0D01*
G01*
X512874Y250000D02*
G03*
X512874Y250000I-7874J0D01*
G01*
X492874D02*
G03*
X492874Y250000I-7874J0D01*
G01*
X552874D02*
G03*
X552874Y250000I-7874J0D01*
G01*
X532874D02*
G03*
X532874Y250000I-7874J0D01*
G01*
X262520Y277972D02*
G03*
X262520Y277972I-394J0D01*
G01*
X320000Y357126D02*
Y361063D01*
X312126Y365000D02*
X316063D01*
X320000Y368937D02*
Y372874D01*
X323937Y365000D02*
X327874D01*
X543000Y466500D02*
Y488000D01*
Y437000D02*
Y458500D01*
X489000Y437000D02*
X543000D01*
X489000D02*
Y458500D01*
Y466500D02*
Y488000D01*
X543000D01*
X401500Y226500D02*
X417500D01*
Y230500D01*
Y264500D02*
Y268500D01*
X401500D02*
X417500D01*
X473000Y134000D02*
Y155500D01*
X478000Y118500D02*
Y124500D01*
X475000Y121500D02*
X481000D01*
X473000Y104500D02*
Y126000D01*
X419000Y104500D02*
X473000D01*
X419000D02*
Y126000D01*
Y134000D02*
Y155500D01*
X473000D01*
Y39000D02*
Y60500D01*
Y9500D02*
Y31000D01*
X419000Y9500D02*
X473000D01*
X419000D02*
Y31000D01*
Y39000D02*
Y60500D01*
X473000D01*
X414000Y445323D02*
X422500D01*
Y416823D02*
Y445323D01*
X414000Y416823D02*
X422500D01*
X397500D02*
X406000D01*
X397500D02*
Y445323D01*
X406000D01*
X316500D02*
X325000D01*
Y416823D02*
Y445323D01*
X316500Y416823D02*
X325000D01*
X300000D02*
X308500D01*
X300000D02*
Y445323D01*
X308500D01*
X493500Y204571D02*
Y223571D01*
X464000Y204571D02*
Y223571D01*
X476000Y190571D02*
X481500D01*
X476000Y237571D02*
X481500D01*
X560000Y175000D02*
Y242500D01*
X615000Y130000D02*
X617500Y132500D01*
X610000Y130000D02*
X617500Y137500D01*
X605000Y130000D02*
X617500Y142500D01*
X600000Y130000D02*
X617500Y147500D01*
X595000Y130000D02*
X617500Y152500D01*
X590000Y130000D02*
X617500Y157500D01*
X585000Y130000D02*
X617500Y162500D01*
X580000Y130000D02*
X617500Y167500D01*
X575000Y130000D02*
X617500Y172500D01*
X570000Y130000D02*
X612500Y172500D01*
X565000Y130000D02*
X607500Y172500D01*
X560000Y130000D02*
X602500Y172500D01*
X555000Y130000D02*
X597500Y172500D01*
X550000Y130000D02*
X592500Y172500D01*
X545000Y130000D02*
X587500Y172500D01*
X540000Y130000D02*
X582500Y172500D01*
X535000Y130000D02*
X577500Y172500D01*
X530000Y130000D02*
X572500Y172500D01*
X525000Y130000D02*
X567500Y172500D01*
X520000Y130000D02*
X562500Y172500D01*
X515000Y130000D02*
X557500Y172500D01*
X510000Y130000D02*
X552500Y172500D01*
X505000Y130000D02*
X547500Y172500D01*
X500000Y130000D02*
X542500Y172500D01*
X500000Y135000D02*
X537500Y172500D01*
X500000Y140000D02*
X532500Y172500D01*
X500000Y145000D02*
X527500Y172500D01*
X500000Y150000D02*
X522500Y172500D01*
X500000Y155000D02*
X517500Y172500D01*
X500000Y160000D02*
X512500Y172500D01*
X500000Y165000D02*
X507500Y172500D01*
X500000Y170000D02*
X502500Y172500D01*
X497500Y175000D02*
X557500D01*
X497500Y127500D02*
Y175000D01*
Y127500D02*
X557500D01*
X370000Y93937D02*
Y97874D01*
X362126Y90000D02*
X366063D01*
X370000Y82126D02*
Y86063D01*
X373937Y90000D02*
X377874D01*
X293937Y365000D02*
X297874D01*
X290000Y368937D02*
Y372874D01*
X282126Y365000D02*
X286063D01*
X290000Y357126D02*
Y361063D01*
X553937Y377500D02*
X557874D01*
X550000Y381437D02*
Y385374D01*
X542126Y377500D02*
X546063D01*
X550000Y369626D02*
Y373563D01*
X443937Y377500D02*
X447874D01*
X440000Y381437D02*
Y385374D01*
X432126Y377500D02*
X436063D01*
X440000Y369626D02*
Y373563D01*
X242500Y398937D02*
Y402874D01*
X234626Y395000D02*
X238563D01*
X242500Y387126D02*
Y391063D01*
X246437Y395000D02*
X250374D01*
X283500Y493000D02*
X301000D01*
X284000Y477000D02*
X301000D01*
X293937Y267500D02*
X297874D01*
X290000Y271437D02*
Y275374D01*
X282126Y267500D02*
X286063D01*
X290000Y259626D02*
Y263563D01*
X448937Y167500D02*
X452874D01*
X445000Y171437D02*
Y175374D01*
X437126Y167500D02*
X441063D01*
X445000Y159626D02*
Y163563D01*
X441937Y223000D02*
X445874D01*
X438000Y226937D02*
Y230874D01*
X430126Y223000D02*
X434063D01*
X438000Y215126D02*
Y219063D01*
X281437Y395000D02*
X285374D01*
X277500Y398937D02*
Y402874D01*
X269626Y395000D02*
X273563D01*
X277500Y387126D02*
Y391063D01*
X398937Y155000D02*
X402874D01*
X395000Y158937D02*
Y162874D01*
X387126Y155000D02*
X391063D01*
X395000Y147126D02*
Y151063D01*
X341437Y225000D02*
X345374D01*
X337500Y228937D02*
Y232874D01*
X329626Y225000D02*
X333563D01*
X337500Y217126D02*
Y221063D01*
X576437Y275000D02*
X580374D01*
X572500Y278937D02*
Y282874D01*
X564626Y275000D02*
X568563D01*
X572500Y267126D02*
Y271063D01*
X556437Y275000D02*
X560374D01*
X552500Y278937D02*
Y282874D01*
X544626Y275000D02*
X548563D01*
X552500Y267126D02*
Y271063D01*
X508937Y250000D02*
X512874D01*
X505000Y253937D02*
Y257874D01*
X497126Y250000D02*
X501063D01*
X505000Y242126D02*
Y246063D01*
X488937Y250000D02*
X492874D01*
X485000Y253937D02*
Y257874D01*
X477126Y250000D02*
X481063D01*
X485000Y242126D02*
Y246063D01*
X548937Y250000D02*
X552874D01*
X545000Y253937D02*
Y257874D01*
X537126Y250000D02*
X541063D01*
X545000Y242126D02*
Y246063D01*
X528937Y250000D02*
X532874D01*
X525000Y253937D02*
Y257874D01*
X517126Y250000D02*
X521063D01*
X525000Y242126D02*
Y246063D01*
X381500Y477000D02*
X398500D01*
X381000Y493000D02*
X398500D01*
X355157Y292657D02*
Y299000D01*
Y306000D02*
Y312343D01*
X374843Y292657D02*
Y295000D01*
Y310000D02*
Y312343D01*
X355157Y292657D02*
X374843D01*
X355157Y312343D02*
X374843D01*
X310157Y209842D02*
X316500D01*
X323500D02*
X329843D01*
X310157Y190157D02*
X312500D01*
X327500D02*
X329843D01*
X310157D02*
Y209842D01*
X329843Y190157D02*
Y209842D01*
X612500Y127500D02*
X617500D01*
X602500D02*
X607500D01*
X592500D02*
X597500D01*
X582500D02*
X587500D01*
X572500D02*
X577500D01*
X562500D02*
X567500D01*
X560000Y60000D02*
Y122500D01*
X620000Y42500D02*
Y122500D01*
X380000Y407500D02*
X417500D01*
X380000Y327500D02*
Y407500D01*
Y327500D02*
X382500D01*
X417500D01*
X560000Y242500D02*
X575000D01*
X620000Y127500D02*
Y242500D01*
X533716Y190500D02*
X539217D01*
X533716Y237500D02*
X539217D01*
X551217Y204500D02*
Y223500D01*
X521716Y204500D02*
Y223500D01*
X346236Y373500D02*
Y376000D01*
Y366000D02*
Y368500D01*
Y373500D01*
Y376000D02*
X348236D01*
Y366000D02*
Y376000D01*
X346236Y366000D02*
X348236D01*
X370158Y209842D02*
X376500D01*
X383500D02*
X389843D01*
X370158Y190157D02*
X372500D01*
X387500D02*
X389843D01*
X370158D02*
Y209842D01*
X389843Y190157D02*
Y209842D01*
X340158D02*
X346500D01*
X353500D02*
X359843D01*
X340158Y190157D02*
X342500D01*
X357500D02*
X359843D01*
X340158D02*
Y209842D01*
X359843Y190157D02*
Y209842D01*
X281055Y327164D02*
Y344664D01*
X258752Y326929D02*
Y344429D01*
X312000Y271000D02*
X329500D01*
X312235Y248697D02*
X329735D01*
X312000Y316000D02*
X329500D01*
X312235Y293697D02*
X329735D01*
X275000Y147000D02*
X279000D01*
X277000Y145000D02*
Y149000D01*
X257500Y65000D02*
Y215000D01*
X182500Y65000D02*
X257500D01*
X182500D02*
Y215000D01*
X257500D01*
X549000Y455001D02*
X545001D01*
X547001Y453001D02*
Y457000D01*
X479000Y27501D02*
X475001D01*
X477001Y25501D02*
Y29500D01*
X425999Y443823D02*
Y439824D01*
X427999Y441823D02*
X424000D01*
X328499Y443823D02*
Y439824D01*
X330499Y441823D02*
X326500D01*
X625000Y245000D02*
X625000Y10000D01*
X620000Y5000D02*
X625000Y10000D01*
X570000Y300000D02*
X625000Y245000D01*
X180000Y5000D02*
X620000D01*
X175000Y10000D02*
X180000Y5000D01*
X175000Y10000D02*
Y15000D01*
X175000D02*
X175000D01*
X175000D02*
Y245000D01*
X230000Y300000D01*
Y540000D02*
X235000Y545000D01*
X230000Y300000D02*
Y540000D01*
X570000Y300000D02*
Y540000D01*
X565000Y545000D02*
X570000Y540000D01*
X235000Y545000D02*
X565000D01*
D11*
X367146Y55689D02*
G03*
X367146Y55689I-492J0D01*
G01*
Y75689D02*
G03*
X367146Y75689I-492J0D01*
G01*
X314646Y407815D02*
G03*
X314646Y407815I-492J0D01*
G01*
X541339Y19685D02*
G03*
X541339Y19685I-492J0D01*
G01*
Y39685D02*
G03*
X541339Y39685I-492J0D01*
G01*
X297146Y407815D02*
G03*
X297146Y407815I-492J0D01*
G01*
X344728Y378500D02*
G03*
X344728Y378500I-492J0D01*
G01*
D12*
X487500Y385000D02*
X497500D01*
X487500D02*
Y435000D01*
X497500Y385000D02*
Y435000D01*
X487500D02*
X497500D01*
X393898Y441161D02*
Y446969D01*
X355906Y439783D02*
X394094D01*
X355906Y425216D02*
Y439783D01*
Y425216D02*
X394094D01*
Y439783D01*
X363425Y342953D02*
X366575D01*
X363425Y337047D02*
X366575D01*
X296595Y425216D02*
Y439783D01*
X258405Y425216D02*
X296595D01*
X258405D02*
Y439783D01*
X296595D01*
X296398Y441161D02*
Y446969D01*
X250925Y305453D02*
X254075D01*
X250925Y299547D02*
X254075D01*
X313425Y457953D02*
X316575D01*
X313425Y452047D02*
X316575D01*
X295925Y452047D02*
X299075D01*
X295925Y457953D02*
X299075D01*
X410925Y464547D02*
X414075D01*
X410925Y470453D02*
X414075D01*
X432047Y343425D02*
Y346575D01*
X437953Y343425D02*
Y346575D01*
X400925Y112421D02*
X404075D01*
X400925Y118327D02*
X404075D01*
X400925Y122421D02*
X404075D01*
X400925Y128327D02*
X404075D01*
X383425Y112421D02*
X386575D01*
X383425Y118327D02*
X386575D01*
X383425Y122421D02*
X386575D01*
X383425Y128327D02*
X386575D01*
X364094Y49193D02*
Y53130D01*
X367244D01*
X375905Y49193D02*
Y53130D01*
X372756D02*
X375905D01*
X364094Y69193D02*
Y73130D01*
X367244D01*
X375905Y69193D02*
Y73130D01*
X372756D02*
X375905D01*
X380532Y78898D02*
X386339D01*
X387717Y40905D02*
Y79094D01*
Y40905D02*
X402283D01*
Y79094D01*
X387717D02*
X402283D01*
X363425Y332953D02*
X366575D01*
X363425Y327047D02*
X366575D01*
X311595Y401319D02*
Y405256D01*
X314744D01*
X323406Y401319D02*
Y405256D01*
X320256D02*
X323406D01*
X313425Y464547D02*
X316575D01*
X313425Y470453D02*
X316575D01*
X258425Y477953D02*
X261575D01*
X258425Y472047D02*
X261575D01*
X258425Y467953D02*
X261575D01*
X258425Y462047D02*
X261575D01*
X258425Y457953D02*
X261575D01*
X258425Y452047D02*
X261575D01*
X272500Y502500D02*
X292500D01*
Y512500D01*
X272500D02*
X292500D01*
X272500Y502500D02*
Y512500D01*
X252953Y423425D02*
Y426575D01*
X247047Y423425D02*
Y426575D01*
X295925Y464547D02*
X299075D01*
X295925Y470453D02*
X299075D01*
X410925Y457953D02*
X414075D01*
X410925Y452047D02*
X414075D01*
X355925Y462047D02*
X359075D01*
X355925Y467953D02*
X359075D01*
X393425Y470453D02*
X396575D01*
X393425Y464547D02*
X396575D01*
X393425Y452047D02*
X396575D01*
X393425Y457953D02*
X396575D01*
X363425Y322953D02*
X366575D01*
X363425Y317047D02*
X366575D01*
X355925Y452047D02*
X359075D01*
X355925Y457953D02*
X359075D01*
X465453Y258425D02*
Y261575D01*
X459547Y258425D02*
Y261575D01*
X455453Y258425D02*
Y261575D01*
X449547Y258425D02*
Y261575D01*
X445453Y258425D02*
Y261575D01*
X439547Y258425D02*
Y261575D01*
X435453Y258425D02*
Y261575D01*
X429547Y258425D02*
Y261575D01*
X447953Y278425D02*
Y281575D01*
X442047Y278425D02*
Y281575D01*
X442500Y271500D02*
X447500D01*
X437953Y278425D02*
Y281575D01*
X432047Y278425D02*
Y281575D01*
X432500Y271500D02*
X437500D01*
X427953Y278425D02*
Y281575D01*
X422047Y278425D02*
Y281575D01*
X422500Y271500D02*
X427500D01*
X417953Y278425D02*
Y281575D01*
X412047Y278425D02*
Y281575D01*
X412500Y271500D02*
X417500D01*
X463425Y464547D02*
X466575D01*
X463425Y470453D02*
X466575D01*
X452716Y460354D02*
X467283D01*
Y429646D02*
Y460354D01*
X452716Y429646D02*
X467283D01*
X452716D02*
Y460354D01*
X445532Y461339D02*
X451339D01*
X462047Y483425D02*
Y486575D01*
X467953Y483425D02*
Y486575D01*
X577500Y242500D02*
X617500D01*
X577500Y222500D02*
X617500D01*
Y242500D01*
X577500Y222500D02*
Y242500D01*
X497500Y17500D02*
Y47500D01*
X487500D02*
X497500D01*
X487500Y17500D02*
Y47500D01*
Y17500D02*
X497500D01*
X398425Y82047D02*
X401575D01*
X398425Y87953D02*
X401575D01*
X598425Y252953D02*
X601575D01*
X598425Y247047D02*
X601575D01*
X555453Y328110D02*
Y331260D01*
X549547Y328110D02*
Y331260D01*
X555453Y348425D02*
Y351575D01*
X549547Y348425D02*
Y351575D01*
X562953Y45925D02*
Y49075D01*
X557047Y45925D02*
Y49075D01*
X567047Y45925D02*
Y49075D01*
X572953Y45925D02*
Y49075D01*
X557047Y25925D02*
Y29075D01*
X562953Y25925D02*
Y29075D01*
X572953Y25925D02*
Y29075D01*
X567047Y25925D02*
Y29075D01*
X531595Y22244D02*
X534744D01*
X531595D02*
Y26181D01*
X540256Y22244D02*
X543405D01*
Y26181D01*
X531595Y42244D02*
X534744D01*
X531595D02*
Y46181D01*
X540256Y42244D02*
X543405D01*
Y46181D01*
X442047Y343425D02*
Y346575D01*
X447953Y343425D02*
Y346575D01*
X332047Y88425D02*
Y91575D01*
X337953Y88425D02*
Y91575D01*
X332047Y70925D02*
Y74075D01*
X337953Y70925D02*
Y74075D01*
X298445Y105228D02*
X316555D01*
Y64772D02*
Y105228D01*
X298445Y64772D02*
X316555D01*
X298445D02*
Y105228D01*
X290374Y103898D02*
X297067D01*
X285453Y88425D02*
Y91575D01*
X279547Y88425D02*
Y91575D01*
X295925Y49547D02*
X299075D01*
X295925Y55453D02*
X299075D01*
X295925Y45453D02*
X299075D01*
X295925Y39547D02*
X299075D01*
X313425Y39547D02*
X316575D01*
X313425Y45453D02*
X316575D01*
X313425Y49547D02*
X316575D01*
X313425Y55453D02*
X316575D01*
X342047Y88425D02*
Y91575D01*
X347953Y88425D02*
Y91575D01*
X352047Y88425D02*
Y91575D01*
X357953Y88425D02*
Y91575D01*
X347953Y70925D02*
Y74075D01*
X342047Y70925D02*
Y74075D01*
X342500Y64000D02*
X347500D01*
X518453Y221425D02*
Y224575D01*
X512547Y221425D02*
Y224575D01*
X442047Y310925D02*
Y314075D01*
X447953Y310925D02*
Y314075D01*
X442500Y321000D02*
X447500D01*
X437953Y310925D02*
Y314075D01*
X432047Y310925D02*
Y314075D01*
X518453Y201425D02*
Y204575D01*
X512547Y201425D02*
Y204575D01*
X454547Y200610D02*
Y203760D01*
X460453Y200610D02*
Y203760D01*
X510000Y57500D02*
X520000D01*
Y17500D02*
Y57500D01*
X510000Y17500D02*
Y57500D01*
Y17500D02*
X520000D01*
X357953Y70925D02*
Y74075D01*
X352047Y70925D02*
Y74075D01*
X352500Y64000D02*
X357500D01*
X435453Y238425D02*
Y241575D01*
X429547Y238425D02*
Y241575D01*
X403425Y197047D02*
X406575D01*
X403425Y202953D02*
X406575D01*
X205925Y240453D02*
X209075D01*
X205925Y234547D02*
X209075D01*
X205925Y250453D02*
X209075D01*
X205925Y244547D02*
X209075D01*
X423425Y212953D02*
X426575D01*
X423425Y207047D02*
X426575D01*
X433500Y207500D02*
Y212500D01*
X423425Y187047D02*
X426575D01*
X423425Y192953D02*
X426575D01*
X423425Y202953D02*
X426575D01*
X423425Y197047D02*
X426575D01*
X403425Y192953D02*
X406575D01*
X403425Y187047D02*
X406575D01*
X403425Y207047D02*
X406575D01*
X403425Y212953D02*
X406575D01*
X332953Y343425D02*
Y346575D01*
X327047Y343425D02*
Y346575D01*
X317047Y343425D02*
Y346575D01*
X322953Y343425D02*
Y346575D01*
X317500Y353500D02*
X322500D01*
X307047Y343425D02*
Y346575D01*
X312953Y343425D02*
Y346575D01*
X307500Y353500D02*
X312500D01*
X363425Y372047D02*
X366575D01*
X363425Y377953D02*
X366575D01*
X298425Y377047D02*
X301575D01*
X298425Y382953D02*
X301575D01*
X302756Y405256D02*
X305906D01*
Y401319D02*
Y405256D01*
X294094D02*
X297244D01*
X294094Y401319D02*
Y405256D01*
X315925Y387953D02*
X319075D01*
X315925Y382047D02*
X319075D01*
X340925Y395453D02*
X344075D01*
X340925Y389547D02*
X344075D01*
X351000Y390000D02*
Y395000D01*
X358425Y395453D02*
X361575D01*
X358425Y389547D02*
X361575D01*
X358425Y405453D02*
X361575D01*
X358425Y399547D02*
X361575D01*
X340925Y405453D02*
X344075D01*
X340925Y399547D02*
X344075D01*
X362953Y148425D02*
Y151575D01*
X357047Y148425D02*
Y151575D01*
X342953Y148425D02*
Y151575D01*
X337047Y148425D02*
Y151575D01*
X352953Y148425D02*
Y151575D01*
X347047Y148425D02*
Y151575D01*
X352953Y165925D02*
Y169075D01*
X347047Y165925D02*
Y169075D01*
X347500Y159000D02*
X352500D01*
X362953Y165925D02*
Y169075D01*
X357047Y165925D02*
Y169075D01*
X357500Y159000D02*
X362500D01*
X342953Y165925D02*
Y169075D01*
X337047Y165925D02*
Y169075D01*
X337500Y159000D02*
X342500D01*
X243425Y280453D02*
X246575D01*
X243425Y274547D02*
X246575D01*
X295925Y222953D02*
X299075D01*
X295925Y217047D02*
X299075D01*
X295925Y212953D02*
X299075D01*
X295925Y207047D02*
X299075D01*
X295925Y197047D02*
X299075D01*
X295925Y202953D02*
X299075D01*
X289952Y303425D02*
Y306575D01*
X284047Y303425D02*
Y306575D01*
X278425Y197047D02*
X281575D01*
X278425Y202953D02*
X281575D01*
X278425Y212953D02*
X281575D01*
X278425Y207047D02*
X281575D01*
X278425Y222953D02*
X281575D01*
X278425Y217047D02*
X281575D01*
X225925Y264547D02*
X229075D01*
X225925Y270453D02*
X229075D01*
X225925Y280453D02*
X229075D01*
X225925Y274547D02*
X229075D01*
X225925Y254547D02*
X229075D01*
X225925Y260453D02*
X229075D01*
X243425Y270453D02*
X246575D01*
X243425Y264547D02*
X246575D01*
X243425Y260453D02*
X246575D01*
X243425Y254547D02*
X246575D01*
X287047Y343425D02*
Y346575D01*
X292953Y343425D02*
Y346575D01*
X308425Y287953D02*
X311575D01*
X308425Y282047D02*
X311575D01*
X308425Y242953D02*
X311575D01*
X308425Y237047D02*
X311575D01*
X292953Y323425D02*
Y326575D01*
X287047Y323425D02*
Y326575D01*
X335925Y242953D02*
X339075D01*
X335925Y237047D02*
X339075D01*
X335925Y287953D02*
X339075D01*
X335925Y282047D02*
X339075D01*
X267953Y293425D02*
Y296575D01*
X262047Y293425D02*
Y296575D01*
X281000Y151500D02*
X314000D01*
X281000Y138500D02*
Y151500D01*
Y138500D02*
X314000D01*
Y151500D01*
X277047Y243425D02*
Y246575D01*
X282953Y243425D02*
Y246575D01*
X259547Y243425D02*
Y246575D01*
X265453Y243425D02*
Y246575D01*
X475000Y395000D02*
Y425000D01*
X465000D02*
X475000D01*
X465000Y395000D02*
Y425000D01*
Y395000D02*
X475000D01*
X545000Y65000D02*
Y95000D01*
X535000D02*
X545000D01*
X535000Y65000D02*
Y95000D01*
Y65000D02*
X545000D01*
X458000Y395000D02*
Y425000D01*
X448000D02*
X458000D01*
X448000Y395000D02*
Y425000D01*
Y395000D02*
X458000D01*
X515000Y65000D02*
Y95000D01*
X505000D02*
X515000D01*
X505000Y65000D02*
Y95000D01*
Y65000D02*
X515000D01*
X530000D02*
Y95000D01*
X520000D02*
X530000D01*
X520000Y65000D02*
Y95000D01*
Y65000D02*
X530000D01*
X485000D02*
Y95000D01*
X475000D02*
X485000D01*
X475000Y65000D02*
Y95000D01*
Y65000D02*
X485000D01*
X500000D02*
Y95000D01*
X490000D02*
X500000D01*
X490000Y65000D02*
Y95000D01*
Y65000D02*
X500000D01*
X455000D02*
Y95000D01*
X445000D02*
X455000D01*
X445000Y65000D02*
Y95000D01*
Y65000D02*
X455000D01*
X470000D02*
Y95000D01*
X460000D02*
X470000D01*
X460000Y65000D02*
Y95000D01*
Y65000D02*
X470000D01*
X420000Y407500D02*
X430000D01*
Y327500D02*
Y407500D01*
X420000Y327500D02*
X430000D01*
X420000D02*
Y407500D01*
X425000Y65000D02*
Y95000D01*
X415000D02*
X425000D01*
X415000Y65000D02*
Y95000D01*
Y65000D02*
X425000D01*
X440000D02*
Y95000D01*
X430000D02*
X440000D01*
X430000Y65000D02*
Y95000D01*
Y65000D02*
X440000D01*
X370000Y502500D02*
Y512500D01*
X390000D01*
Y502500D02*
Y512500D01*
X370000Y502500D02*
X390000D01*
D13*
X463031Y281594D02*
X471890D01*
X463031D02*
X471890D01*
X525039D02*
X533898D01*
X525039D02*
X533898D01*
Y357382D02*
Y381988D01*
Y357382D02*
Y381988D01*
X463031D02*
X533898D01*
X463031D02*
X533898D01*
X463031Y356398D02*
Y381988D01*
Y356398D02*
Y381988D01*
D14*
X355600Y291638D02*
X356600D01*
X356100D01*
Y288639D01*
X355600D01*
X356600D01*
X358099Y288139D02*
X360099D01*
X361098Y288639D02*
Y291638D01*
X362098Y290638D01*
X363098Y291638D01*
Y288639D01*
X365597Y291638D02*
X364597D01*
X364097Y291138D01*
Y289139D01*
X364597Y288639D01*
X365597D01*
X366097Y289139D01*
Y291138D01*
X365597Y291638D01*
X367096D02*
X369096D01*
X368096D01*
Y288639D01*
X355600Y283100D02*
X356600D01*
X356100D01*
Y286099D01*
X355600Y285599D01*
X358099Y283100D02*
Y285099D01*
X359099Y286099D01*
X360099Y285099D01*
Y283100D01*
Y284599D01*
X358099D01*
X361098D02*
X363098D01*
X364097Y285599D02*
X364597Y286099D01*
X365597D01*
X366097Y285599D01*
Y285099D01*
X365597Y284599D01*
X365097D01*
X365597D01*
X366097Y284100D01*
Y283600D01*
X365597Y283100D01*
X364597D01*
X364097Y283600D01*
X367096Y283100D02*
Y283600D01*
X367596D01*
Y283100D01*
X367096D01*
X371595Y286099D02*
X369596D01*
Y284599D01*
X370595Y285099D01*
X371095D01*
X371595Y284599D01*
Y283600D01*
X371095Y283100D01*
X370095D01*
X369596Y283600D01*
X372594Y283100D02*
Y285099D01*
X373594Y286099D01*
X374594Y285099D01*
Y283100D01*
Y284599D01*
X372594D01*
X433100Y486599D02*
Y483600D01*
X434599D01*
X435099Y484100D01*
Y484599D01*
X434599Y485099D01*
X433100D01*
X434599D01*
X435099Y485599D01*
Y486099D01*
X434599Y486599D01*
X433100D01*
X436099D02*
Y483600D01*
X437599D01*
X438098Y484100D01*
Y486099D01*
X437599Y486599D01*
X436099D01*
X441097Y486099D02*
X440598Y486599D01*
X439598D01*
X439098Y486099D01*
Y484100D01*
X439598Y483600D01*
X440598D01*
X441097Y484100D01*
X442097Y483100D02*
X444096D01*
X446596Y486599D02*
X445596D01*
X445096Y486099D01*
Y484100D01*
X445596Y483600D01*
X446596D01*
X447095Y484100D01*
Y486099D01*
X446596Y486599D01*
X448095Y483600D02*
Y486599D01*
X450095Y483600D01*
Y486599D01*
X501900Y385100D02*
X498901D01*
Y386599D01*
X499401Y387099D01*
X500400D01*
X500900Y386599D01*
Y385100D01*
Y386100D02*
X501900Y387099D01*
Y388099D02*
Y389598D01*
X501400Y390098D01*
X500900Y389598D01*
Y388599D01*
X500400Y388099D01*
X499901Y388599D01*
Y390098D01*
X499401Y391598D02*
X499901D01*
Y391098D01*
Y392098D01*
Y391598D01*
X501400D01*
X501900Y392098D01*
X365099Y103599D02*
X363100D01*
Y102100D01*
X364100Y102599D01*
X364599D01*
X365099Y102100D01*
Y101100D01*
X364599Y100600D01*
X363600D01*
X363100Y101100D01*
X366099Y102599D02*
X367099Y100600D01*
X368098Y102599D01*
X369098Y103599D02*
Y101100D01*
X369598Y100600D01*
X370598D01*
X371097Y101100D01*
Y103599D01*
X372097Y100600D02*
X373597D01*
X374096Y101100D01*
X373597Y101600D01*
X372597D01*
X372097Y102100D01*
X372597Y102599D01*
X374096D01*
X375096Y103599D02*
Y100600D01*
X376596D01*
X377096Y101100D01*
Y101600D01*
Y102100D01*
X376596Y102599D01*
X375096D01*
X237250Y407939D02*
Y405939D01*
X238250Y404940D01*
X239250Y405939D01*
Y407939D01*
X240249D02*
Y404940D01*
X241749D01*
X242249Y405440D01*
Y405939D01*
X241749Y406439D01*
X240249D01*
X241749D01*
X242249Y406939D01*
Y407439D01*
X241749Y407939D01*
X240249D01*
X243748Y406939D02*
X244748D01*
X245248Y406439D01*
Y404940D01*
X243748D01*
X243248Y405440D01*
X243748Y405939D01*
X245248D01*
X246747Y407439D02*
Y406939D01*
X246247D01*
X247247D01*
X246747D01*
Y405440D01*
X247247Y404940D01*
X435600Y390599D02*
X436100Y391099D01*
X437100D01*
X437599Y390599D01*
Y390099D01*
X437100Y389599D01*
X436600D01*
X437100D01*
X437599Y389100D01*
Y388600D01*
X437100Y388100D01*
X436100D01*
X435600Y388600D01*
X438599Y390099D02*
X439599Y388100D01*
X440598Y390099D01*
X441598Y390599D02*
X442098Y391099D01*
X443098D01*
X443597Y390599D01*
Y390099D01*
X443098Y389599D01*
X442598D01*
X443098D01*
X443597Y389100D01*
Y388600D01*
X443098Y388100D01*
X442098D01*
X441598Y388600D01*
X547599Y390599D02*
X547099Y391099D01*
X546100D01*
X545600Y390599D01*
Y388600D01*
X546100Y388100D01*
X547099D01*
X547599Y388600D01*
Y389599D01*
X546600D01*
X548599Y388100D02*
Y390099D01*
X550099D01*
X550598Y389599D01*
Y388100D01*
X553597Y391099D02*
Y388100D01*
X552098D01*
X551598Y388600D01*
Y389599D01*
X552098Y390099D01*
X553597D01*
X556596Y390599D02*
X556097Y391099D01*
X555097D01*
X554597Y390599D01*
Y390099D01*
X555097Y389599D01*
X556097D01*
X556596Y389100D01*
Y388600D01*
X556097Y388100D01*
X555097D01*
X554597Y388600D01*
X287599Y280599D02*
X287100Y281099D01*
X286100D01*
X285600Y280599D01*
Y278600D01*
X286100Y278100D01*
X287100D01*
X287599Y278600D01*
Y279599D01*
X286600D01*
X288599Y278100D02*
Y280099D01*
X290099D01*
X290598Y279599D01*
Y278100D01*
X293597Y281099D02*
Y278100D01*
X292098D01*
X291598Y278600D01*
Y279599D01*
X292098Y280099D01*
X293597D01*
X294597Y278100D02*
Y281099D01*
X296097D01*
X296596Y280599D01*
Y279599D01*
X296097Y279100D01*
X294597D01*
X442599Y180599D02*
X442100Y181099D01*
X441100D01*
X440600Y180599D01*
Y178600D01*
X441100Y178100D01*
X442100D01*
X442599Y178600D01*
Y179599D01*
X441600D01*
X443599Y178100D02*
Y180099D01*
X445098D01*
X445598Y179599D01*
Y178100D01*
X448597Y181099D02*
Y178100D01*
X447098D01*
X446598Y178600D01*
Y179599D01*
X447098Y180099D01*
X448597D01*
X451596Y180599D02*
X451097Y181099D01*
X450097D01*
X449597Y180599D01*
Y180099D01*
X450097Y179599D01*
X451097D01*
X451596Y179100D01*
Y178600D01*
X451097Y178100D01*
X450097D01*
X449597Y178600D01*
X500600Y260600D02*
Y263599D01*
X501600Y262599D01*
X502599Y263599D01*
Y260600D01*
X504099D02*
X505098D01*
X505598Y261100D01*
Y262100D01*
X505098Y262599D01*
X504099D01*
X503599Y262100D01*
Y261100D01*
X504099Y260600D01*
X506598D02*
X508098D01*
X508597Y261100D01*
X508098Y261600D01*
X507098D01*
X506598Y262100D01*
X507098Y262599D01*
X508597D01*
X509597Y260600D02*
X510597D01*
X510097D01*
Y262599D01*
X509597D01*
X482599Y263099D02*
X482099Y263599D01*
X481100D01*
X480600Y263099D01*
Y262599D01*
X481100Y262100D01*
X482099D01*
X482599Y261600D01*
Y261100D01*
X482099Y260600D01*
X481100D01*
X480600Y261100D01*
X485598Y262599D02*
X484099D01*
X483599Y262100D01*
Y261100D01*
X484099Y260600D01*
X485598D01*
X486598D02*
Y263599D01*
Y261600D02*
X488098Y262599D01*
X486598Y261600D02*
X488098Y260600D01*
X540099Y263099D02*
X539600Y263599D01*
X538600D01*
X538100Y263099D01*
Y261100D01*
X538600Y260600D01*
X539600D01*
X540099Y261100D01*
X542598Y260600D02*
X541599D01*
X541099Y261100D01*
Y262100D01*
X541599Y262599D01*
X542598D01*
X543098Y262100D01*
Y261600D01*
X541099D01*
X544098Y260600D02*
Y263599D01*
X546097Y260600D01*
Y263599D01*
X547097Y262599D02*
Y260600D01*
Y261600D01*
X547597Y262100D01*
X548097Y262599D01*
X548597D01*
X550596Y260600D02*
Y263099D01*
Y262100D01*
X550096D01*
X551096D01*
X550596D01*
Y263099D01*
X551096Y263599D01*
X520600Y260600D02*
Y263599D01*
X521600Y262599D01*
X522599Y263599D01*
Y260600D01*
X523599D02*
X524599D01*
X524099D01*
Y262599D01*
X523599D01*
X526098Y260600D02*
X527598D01*
X528098Y261100D01*
X527598Y261600D01*
X526598D01*
X526098Y262100D01*
X526598Y262599D01*
X528098D01*
X529597Y260600D02*
X530597D01*
X531097Y261100D01*
Y262100D01*
X530597Y262599D01*
X529597D01*
X529097Y262100D01*
Y261100D01*
X529597Y260600D01*
X570099Y288099D02*
X569599Y288599D01*
X568600D01*
X568100Y288099D01*
Y287599D01*
X568600Y287100D01*
X569599D01*
X570099Y286600D01*
Y286100D01*
X569599Y285600D01*
X568600D01*
X568100Y286100D01*
X573098Y287599D02*
X571599D01*
X571099Y287100D01*
Y286100D01*
X571599Y285600D01*
X573098D01*
X574098D02*
X575098D01*
X574598D01*
Y288599D01*
X574098D01*
X550099Y288099D02*
X549600Y288599D01*
X548600D01*
X548100Y288099D01*
Y287599D01*
X548600Y287100D01*
X549600D01*
X550099Y286600D01*
Y286100D01*
X549600Y285600D01*
X548600D01*
X548100Y286100D01*
X553098Y288599D02*
Y285600D01*
X551599D01*
X551099Y286100D01*
Y287100D01*
X551599Y287599D01*
X553098D01*
X554598D02*
X555598D01*
X556097Y287100D01*
Y285600D01*
X554598D01*
X554098Y286100D01*
X554598Y286600D01*
X556097D01*
X443100Y230599D02*
X443600Y231099D01*
X444599D01*
X445099Y231599D01*
X447599Y228100D02*
Y231099D01*
X446099Y229599D01*
X448098D01*
X449098Y230099D02*
X450098Y228100D01*
X451097Y230099D01*
X452097Y231099D02*
Y228600D01*
X452597Y228100D01*
X453597D01*
X454096Y228600D01*
Y231099D01*
X455096Y228100D02*
X456596D01*
X457095Y228600D01*
X456596Y229100D01*
X455596D01*
X455096Y229599D01*
X455596Y230099D01*
X457095D01*
X458095Y231099D02*
Y228100D01*
X459595D01*
X460094Y228600D01*
Y229100D01*
Y229599D01*
X459595Y230099D01*
X458095D01*
X273100Y408599D02*
Y405600D01*
X274600D01*
X275099Y406100D01*
Y406600D01*
X274600Y407099D01*
X273100D01*
X274600D01*
X275099Y407599D01*
Y408099D01*
X274600Y408599D01*
X273100D01*
X276099Y405600D02*
Y408599D01*
Y406600D02*
X277599Y407599D01*
X276099Y406600D02*
X277599Y405600D01*
X281097Y408599D02*
X279098D01*
Y405600D01*
X281097D01*
X279098Y407099D02*
X280098D01*
X282097Y405600D02*
Y407599D01*
X283597D01*
X284096Y407099D01*
Y405600D01*
X392599Y168599D02*
X390600D01*
Y167099D01*
X391600Y167599D01*
X392099D01*
X392599Y167099D01*
Y166100D01*
X392099Y165600D01*
X391100D01*
X390600Y166100D01*
X393599Y167599D02*
X394599Y165600D01*
X395598Y167599D01*
X396598Y167099D02*
X398597D01*
X401596Y165600D02*
X399597D01*
X401596Y167599D01*
Y168099D01*
X401097Y168599D01*
X400097D01*
X399597Y168099D01*
X347599Y221099D02*
X345600D01*
Y219600D01*
X346600Y220099D01*
X347099D01*
X347599Y219600D01*
Y218600D01*
X347099Y218100D01*
X346100D01*
X345600Y218600D01*
X348599Y220099D02*
X349599Y218100D01*
X350598Y220099D01*
X351598Y219600D02*
X353597D01*
X354597Y218100D02*
X355597D01*
X355097D01*
Y221099D01*
X354597Y220599D01*
X285600Y378099D02*
X286100Y378599D01*
X287100D01*
X287599Y379099D01*
X290099Y375600D02*
Y378599D01*
X288599Y377099D01*
X290598D01*
X291598Y377599D02*
X292598Y375600D01*
X293597Y377599D01*
X315600Y378099D02*
X316100Y378599D01*
X317099D01*
X317599Y378099D01*
Y377599D01*
X317099Y377099D01*
X316600D01*
X317099D01*
X317599Y376600D01*
Y376100D01*
X317099Y375600D01*
X316100D01*
X315600Y376100D01*
X318599Y377599D02*
X319599Y375600D01*
X320598Y377599D01*
X321598Y378099D02*
X322098Y378599D01*
X323098D01*
X323597Y378099D01*
Y377599D01*
X323098Y377099D01*
X322598D01*
X323098D01*
X323597Y376600D01*
Y376100D01*
X323098Y375600D01*
X322098D01*
X321598Y376100D01*
X538600Y97600D02*
X539600D01*
X539100D01*
Y100599D01*
X538600Y100099D01*
X525599Y97600D02*
X523600D01*
X525599Y99599D01*
Y100099D01*
X525100Y100599D01*
X524100D01*
X523600Y100099D01*
X508600D02*
X509100Y100599D01*
X510100D01*
X510599Y100099D01*
Y99599D01*
X510100Y99099D01*
X509600D01*
X510100D01*
X510599Y98600D01*
Y98100D01*
X510100Y97600D01*
X509100D01*
X508600Y98100D01*
X495099Y97600D02*
Y100599D01*
X493600Y99099D01*
X495599D01*
X480599Y100599D02*
X478600D01*
Y99099D01*
X479600Y99599D01*
X480099D01*
X480599Y99099D01*
Y98100D01*
X480099Y97600D01*
X479100D01*
X478600Y98100D01*
X465599Y100599D02*
X464600Y100099D01*
X463600Y99099D01*
Y98100D01*
X464100Y97600D01*
X465099D01*
X465599Y98100D01*
Y98600D01*
X465099Y99099D01*
X463600D01*
X448600Y100599D02*
X450599D01*
Y100099D01*
X448600Y98100D01*
Y97600D01*
X433600Y100099D02*
X434100Y100599D01*
X435100D01*
X435599Y100099D01*
Y99599D01*
X435100Y99099D01*
X435599Y98600D01*
Y98100D01*
X435100Y97600D01*
X434100D01*
X433600Y98100D01*
Y98600D01*
X434100Y99099D01*
X433600Y99599D01*
Y100099D01*
X434100Y99099D02*
X435100D01*
X418600Y98100D02*
X419100Y97600D01*
X420099D01*
X420599Y98100D01*
Y100099D01*
X420099Y100599D01*
X419100D01*
X418600Y100099D01*
Y99599D01*
X419100Y99099D01*
X420599D01*
X410901Y67599D02*
X410401Y67099D01*
Y66100D01*
X410901Y65600D01*
X411401D01*
X411901Y66100D01*
Y67099D01*
X412401Y67599D01*
X412900D01*
X413400Y67099D01*
Y66100D01*
X412900Y65600D01*
X414400Y68599D02*
X411401D01*
Y70099D01*
X411901Y70598D01*
X412900D01*
X413400Y70099D01*
Y68599D01*
X411401Y72098D02*
Y73098D01*
X411901Y73597D01*
X413400D01*
Y72098D01*
X412900Y71598D01*
X412401Y72098D01*
Y73597D01*
X411401Y74597D02*
X413400D01*
X412401D01*
X411901Y75097D01*
X411401Y75597D01*
Y76097D01*
X413400Y79096D02*
Y78096D01*
X412900Y77596D01*
X411901D01*
X411401Y78096D01*
Y79096D01*
X411901Y79596D01*
X412401D01*
Y77596D01*
X410901Y85593D02*
X410401Y85094D01*
Y84094D01*
X410901Y83594D01*
X411401D01*
X411901Y84094D01*
Y85094D01*
X412401Y85593D01*
X412900D01*
X413400Y85094D01*
Y84094D01*
X412900Y83594D01*
X413400Y88093D02*
Y87093D01*
X412900Y86593D01*
X411901D01*
X411401Y87093D01*
Y88093D01*
X411901Y88593D01*
X412401D01*
Y86593D01*
X411401Y89592D02*
X413400D01*
X412401D01*
X411901Y90092D01*
X411401Y90592D01*
Y91092D01*
Y92591D02*
X413400Y93591D01*
X411401Y94591D01*
X413400Y96090D02*
Y97090D01*
X412900Y97590D01*
X411901D01*
X411401Y97090D01*
Y96090D01*
X411901Y95590D01*
X412900D01*
X413400Y96090D01*
Y98589D02*
Y100089D01*
X412900Y100589D01*
X412401Y100089D01*
Y99089D01*
X411901Y98589D01*
X411401Y99089D01*
Y100589D01*
X548400Y88600D02*
Y90599D01*
X547901Y80599D02*
X547401Y80099D01*
Y79100D01*
X547901Y78600D01*
X548401D01*
X548901Y79100D01*
Y80099D01*
X549400Y80599D01*
X549900D01*
X550400Y80099D01*
Y79100D01*
X549900Y78600D01*
X548400Y68600D02*
Y70599D01*
X547401Y69600D02*
X549400D01*
X460901Y397599D02*
X460401Y397099D01*
Y396100D01*
X460901Y395600D01*
X462900D01*
X463400Y396100D01*
Y397099D01*
X462900Y397599D01*
X461401Y399099D02*
Y400099D01*
X461901Y400598D01*
X463400D01*
Y399099D01*
X462900Y398599D01*
X462400Y399099D01*
Y400598D01*
X463400Y401598D02*
X461401D01*
Y402098D01*
X461901Y402598D01*
X463400D01*
X461901D01*
X461401Y403098D01*
X461901Y403597D01*
X463400D01*
X460401Y404597D02*
Y406596D01*
X460901D01*
X462900Y404597D01*
X463400D01*
Y406596D01*
X443901Y397599D02*
X443401Y397099D01*
Y396100D01*
X443901Y395600D01*
X445900D01*
X446400Y396100D01*
Y397099D01*
X445900Y397599D01*
X444401Y399099D02*
Y400099D01*
X444901Y400598D01*
X446400D01*
Y399099D01*
X445900Y398599D01*
X445400Y399099D01*
Y400598D01*
X446400Y401598D02*
X444401D01*
Y402098D01*
X444901Y402598D01*
X446400D01*
X444901D01*
X444401Y403098D01*
X444901Y403597D01*
X446400D01*
X443401Y404597D02*
X443901D01*
X444901Y405597D01*
X443901Y406596D01*
X443401D01*
X444901Y405597D02*
X446400D01*
X478400Y398600D02*
Y400599D01*
X477401Y399600D02*
X479400D01*
X477901Y410599D02*
X477401Y410100D01*
Y409100D01*
X477901Y408600D01*
X478401D01*
X478900Y409100D01*
Y410100D01*
X479400Y410599D01*
X479900D01*
X480400Y410100D01*
Y409100D01*
X479900Y408600D01*
X478400Y418600D02*
Y420599D01*
X482401Y397099D02*
X481901Y396600D01*
Y395600D01*
X482401Y395100D01*
X484400D01*
X484900Y395600D01*
Y396600D01*
X484400Y397099D01*
X482901Y398599D02*
Y399599D01*
X483400Y400098D01*
X484900D01*
Y398599D01*
X484400Y398099D01*
X483900Y398599D01*
Y400098D01*
X484900Y401098D02*
X482901D01*
Y401598D01*
X483400Y402098D01*
X484900D01*
X483400D01*
X482901Y402598D01*
X483400Y403097D01*
X484900D01*
X499401Y407099D02*
X498901Y406600D01*
Y405600D01*
X499401Y405100D01*
X499901D01*
X500400Y405600D01*
Y406600D01*
X500900Y407099D01*
X501400D01*
X501900Y406600D01*
Y405600D01*
X501400Y405100D01*
X498901Y410098D02*
X501900D01*
Y408599D01*
X501400Y408099D01*
X500400D01*
X499901Y408599D01*
Y410098D01*
Y411598D02*
Y412598D01*
X500400Y413097D01*
X501900D01*
Y411598D01*
X501400Y411098D01*
X500900Y411598D01*
Y413097D01*
X498901Y395100D02*
X500900D01*
X501900Y396100D01*
X500900Y397099D01*
X498901D01*
X499901Y400098D02*
Y398599D01*
X500400Y398099D01*
X501400D01*
X501900Y398599D01*
Y400098D01*
X499901Y403097D02*
Y401598D01*
X500400Y401098D01*
X501400D01*
X501900Y401598D01*
Y403097D01*
X499401Y418099D02*
X498901Y417599D01*
Y416600D01*
X499401Y416100D01*
X499901D01*
X500400Y416600D01*
Y417599D01*
X500900Y418099D01*
X501400D01*
X501900Y417599D01*
Y416600D01*
X501400Y416100D01*
X499901Y421098D02*
Y419599D01*
X500400Y419099D01*
X501400D01*
X501900Y419599D01*
Y421098D01*
Y422098D02*
Y423098D01*
Y422598D01*
X498901D01*
Y422098D01*
X500400Y40600D02*
Y42599D01*
X499901Y32599D02*
X499401Y32100D01*
Y31100D01*
X499901Y30600D01*
X500401D01*
X500901Y31100D01*
Y32100D01*
X501400Y32599D01*
X501900D01*
X502400Y32100D01*
Y31100D01*
X501900Y30600D01*
X500400Y21600D02*
Y23599D01*
X499401Y22600D02*
X501400D01*
X481901Y20099D02*
X481401Y19600D01*
Y18600D01*
X481901Y18100D01*
X482401D01*
X482900Y18600D01*
Y19600D01*
X483400Y20099D01*
X483900D01*
X484400Y19600D01*
Y18600D01*
X483900Y18100D01*
X484400Y22599D02*
Y21599D01*
X483900Y21099D01*
X482900D01*
X482401Y21599D01*
Y22599D01*
X482900Y23098D01*
X483400D01*
Y21099D01*
X482401Y24098D02*
X484400D01*
X483400D01*
X482900Y24598D01*
X482401Y25098D01*
Y25598D01*
Y27097D02*
X484400Y28097D01*
X482401Y29096D01*
X484400Y30596D02*
Y31596D01*
X483900Y32096D01*
X482900D01*
X482401Y31596D01*
Y30596D01*
X482900Y30096D01*
X483900D01*
X484400Y30596D01*
X481901Y35094D02*
X481401Y34595D01*
Y33595D01*
X481901Y33095D01*
X482401D01*
X482900Y33595D01*
Y34595D01*
X483400Y35094D01*
X483900D01*
X484400Y34595D01*
Y33595D01*
X483900Y33095D01*
X484400Y36594D02*
Y37594D01*
X483900Y38094D01*
X482900D01*
X482401Y37594D01*
Y36594D01*
X482900Y36094D01*
X483900D01*
X484400Y36594D01*
Y39093D02*
X482401D01*
Y40593D01*
X482900Y41093D01*
X484400D01*
X482401Y42592D02*
Y43592D01*
X482900Y44092D01*
X484400D01*
Y42592D01*
X483900Y42092D01*
X483400Y42592D01*
Y44092D01*
X482401Y45091D02*
X484400D01*
X483400D01*
X482900Y45591D01*
X482401Y46091D01*
Y46591D01*
X481401Y48090D02*
Y50090D01*
X481901D01*
X483900Y48090D01*
X484400D01*
Y50090D01*
X380100Y413099D02*
X381100D01*
X380600D01*
Y410100D01*
X380100D01*
X381100D01*
X382599D02*
Y413099D01*
X383599Y412099D01*
X384598Y413099D01*
Y410100D01*
X385598Y413099D02*
Y410600D01*
X386098Y410100D01*
X387098D01*
X387598Y410600D01*
Y413099D01*
X520901Y27600D02*
Y29599D01*
Y28600D01*
X523900D01*
X521901Y30599D02*
X523900D01*
X522901D01*
X522401Y31099D01*
X521901Y31599D01*
Y32099D01*
X524900Y34598D02*
Y35098D01*
X524400Y35597D01*
X521901D01*
Y34098D01*
X522401Y33598D01*
X523400D01*
X523900Y34098D01*
Y35597D01*
X504901Y20599D02*
X504401Y20099D01*
Y19100D01*
X504901Y18600D01*
X505401D01*
X505900Y19100D01*
Y20099D01*
X506400Y20599D01*
X506900D01*
X507400Y20099D01*
Y19100D01*
X506900Y18600D01*
X507400Y22099D02*
Y23099D01*
X506900Y23598D01*
X505900D01*
X505401Y23099D01*
Y22099D01*
X505900Y21599D01*
X506900D01*
X507400Y22099D01*
Y24598D02*
X505401D01*
Y26098D01*
X505900Y26597D01*
X507400D01*
X505401Y28097D02*
Y29097D01*
X505900Y29596D01*
X507400D01*
Y28097D01*
X506900Y27597D01*
X506400Y28097D01*
Y29596D01*
X505401Y30596D02*
X507400D01*
X506400D01*
X505900Y31096D01*
X505401Y31596D01*
Y32096D01*
X521901Y50599D02*
X521401Y50099D01*
Y49100D01*
X521901Y48600D01*
X523900D01*
X524400Y49100D01*
Y50099D01*
X523900Y50599D01*
X522900D01*
Y49600D01*
X524400Y51599D02*
X522401D01*
Y53099D01*
X522900Y53598D01*
X524400D01*
X521401Y56597D02*
X524400D01*
Y55098D01*
X523900Y54598D01*
X522900D01*
X522401Y55098D01*
Y56597D01*
X521401Y17600D02*
X523400D01*
X524400Y18600D01*
X523400Y19599D01*
X521401D01*
X522401Y22598D02*
Y21099D01*
X522900Y20599D01*
X523900D01*
X524400Y21099D01*
Y22598D01*
X522401Y25597D02*
Y24098D01*
X522900Y23598D01*
X523900D01*
X524400Y24098D01*
Y25597D01*
X521401Y40599D02*
Y38600D01*
X524400D01*
Y40599D01*
X522900Y38600D02*
Y39600D01*
X522401Y43598D02*
Y42099D01*
X522900Y41599D01*
X523900D01*
X524400Y42099D01*
Y43598D01*
X521401Y44598D02*
X524400D01*
X522900D01*
X522401Y45098D01*
Y46098D01*
X522900Y46597D01*
X524400D01*
X499401Y428099D02*
X498901Y427599D01*
Y426600D01*
X499401Y426100D01*
X501400D01*
X501900Y426600D01*
Y427599D01*
X501400Y428099D01*
X500400D01*
Y427100D01*
X501900Y429099D02*
X499901D01*
Y430598D01*
X500400Y431098D01*
X501900D01*
X498901Y434097D02*
X501900D01*
Y432598D01*
X501400Y432098D01*
X500400D01*
X499901Y432598D01*
Y434097D01*
X352100Y62099D02*
X354099D01*
X353100D01*
Y59100D01*
X355099Y61099D02*
X357098Y59100D01*
X356099Y60100D01*
X357098Y61099D01*
X355099Y59100D01*
X342100D02*
Y62099D01*
X343600D01*
X344099Y61599D01*
Y60599D01*
X343600Y60100D01*
X342100D01*
X343100D02*
X344099Y59100D01*
X345099Y61099D02*
X347098Y59100D01*
X346099Y60100D01*
X347098Y61099D01*
X345099Y59100D01*
X523100Y186099D02*
Y183100D01*
X524600D01*
X525099Y183600D01*
Y184100D01*
X524600Y184599D01*
X523100D01*
X524600D01*
X525099Y185099D01*
Y185599D01*
X524600Y186099D01*
X523100D01*
X526599Y185599D02*
Y185099D01*
X526099D01*
X527099D01*
X526599D01*
Y183600D01*
X527099Y183100D01*
X310600Y185599D02*
X311100Y186099D01*
X312100D01*
X312599Y185599D01*
Y185099D01*
X312100Y184599D01*
X311600D01*
X312100D01*
X312599Y184100D01*
Y183600D01*
X312100Y183100D01*
X311100D01*
X310600Y183600D01*
X313599Y185099D02*
X314599Y183100D01*
X315598Y185099D01*
X316598Y185599D02*
X317098Y186099D01*
X318098D01*
X318597Y185599D01*
Y185099D01*
X318098Y184599D01*
X317598D01*
X318098D01*
X318597Y184100D01*
Y183600D01*
X318098Y183100D01*
X317098D01*
X316598Y183600D01*
X465600Y183100D02*
Y186099D01*
X467100D01*
X467599Y185599D01*
Y184599D01*
X467100Y184100D01*
X465600D01*
X466600D02*
X467599Y183100D01*
X468599D02*
X470098D01*
X470598Y183600D01*
X470098Y184100D01*
X469099D01*
X468599Y184599D01*
X469099Y185099D01*
X470598D01*
X472098Y185599D02*
Y185099D01*
X471598D01*
X472598D01*
X472098D01*
Y183600D01*
X472598Y183100D01*
X372599Y186599D02*
X370600D01*
Y185099D01*
X371600Y185599D01*
X372099D01*
X372599Y185099D01*
Y184100D01*
X372099Y183600D01*
X371100D01*
X370600Y184100D01*
X373599Y185599D02*
X374599Y183600D01*
X375598Y185599D01*
X376598Y183100D02*
X378597D01*
X381596Y183600D02*
X379597D01*
X381596Y185599D01*
Y186099D01*
X381097Y186599D01*
X380097D01*
X379597Y186099D01*
X342599Y186599D02*
X340600D01*
Y185099D01*
X341600Y185599D01*
X342099D01*
X342599Y185099D01*
Y184100D01*
X342099Y183600D01*
X341100D01*
X340600Y184100D01*
X343599Y185599D02*
X344599Y183600D01*
X345598Y185599D01*
X346598Y183100D02*
X348597D01*
X349597Y183600D02*
X350597D01*
X350097D01*
Y186599D01*
X349597Y186099D01*
X423750Y420252D02*
X423251Y419752D01*
Y418752D01*
X423750Y418252D01*
X425750D01*
X426250Y418752D01*
Y419752D01*
X425750Y420252D01*
X426250Y422751D02*
X423251D01*
X424750Y421251D01*
Y423251D01*
X426749Y424250D02*
Y426250D01*
X426250Y427249D02*
Y428249D01*
Y427749D01*
X423251D01*
X423750Y427249D01*
X426250Y431748D02*
Y429748D01*
X424250Y431748D01*
X423750D01*
X423251Y431248D01*
Y430248D01*
X423750Y429748D01*
X326250Y421501D02*
X325751Y421001D01*
Y420002D01*
X326250Y419502D01*
X328250D01*
X328750Y420002D01*
Y421001D01*
X328250Y421501D01*
X328750Y424000D02*
X325751D01*
X327250Y422501D01*
Y424500D01*
X329249Y425500D02*
Y427499D01*
X328250Y428499D02*
X328750Y428999D01*
Y429998D01*
X328250Y430498D01*
X326250D01*
X325751Y429998D01*
Y428999D01*
X326250Y428499D01*
X326750D01*
X327250Y428999D01*
Y430498D01*
X433750Y356751D02*
X433251Y356251D01*
Y355252D01*
X433750Y354752D01*
X435750D01*
X436250Y355252D01*
Y356251D01*
X435750Y356751D01*
X436250Y357751D02*
Y358750D01*
Y358251D01*
X433251D01*
X433750Y357751D01*
X436749Y360250D02*
Y362249D01*
X433750Y363249D02*
X433251Y363749D01*
Y364749D01*
X433750Y365248D01*
X434250D01*
X434750Y364749D01*
X435250Y365248D01*
X435750D01*
X436250Y364749D01*
Y363749D01*
X435750Y363249D01*
X435250D01*
X434750Y363749D01*
X434250Y363249D01*
X433750D01*
X434750Y363749D02*
Y364749D01*
X337752Y456250D02*
X337252Y456749D01*
X336252D01*
X335752Y456250D01*
Y454250D01*
X336252Y453750D01*
X337252D01*
X337752Y454250D01*
X340251Y453750D02*
Y456749D01*
X338751Y455250D01*
X340751D01*
X341750Y453251D02*
X343750D01*
X344749Y453750D02*
X345749D01*
X345249D01*
Y456749D01*
X344749Y456250D01*
X349248Y456749D02*
X347249D01*
Y455250D01*
X348248Y455750D01*
X348748D01*
X349248Y455250D01*
Y454250D01*
X348748Y453750D01*
X347748D01*
X347249Y454250D01*
X509250Y216502D02*
X506251D01*
Y218002D01*
X506750Y218501D01*
X507750D01*
X508250Y218002D01*
Y216502D01*
Y217502D02*
X509250Y218501D01*
Y219501D02*
Y220501D01*
Y220001D01*
X506251D01*
X506750Y219501D01*
X509749Y222000D02*
Y224000D01*
X509250Y224999D02*
Y225999D01*
Y225499D01*
X506251D01*
X506750Y224999D01*
X509250Y228998D02*
X506251D01*
X507750Y227499D01*
Y229498D01*
X509250Y196502D02*
X506251D01*
Y198002D01*
X506750Y198502D01*
X507750D01*
X508250Y198002D01*
Y196502D01*
Y197502D02*
X509250Y198502D01*
Y199501D02*
Y200501D01*
Y200001D01*
X506251D01*
X506750Y199501D01*
X509749Y202000D02*
Y204000D01*
X509250Y204999D02*
Y205999D01*
Y205499D01*
X506251D01*
X506750Y204999D01*
Y207499D02*
X506251Y207998D01*
Y208998D01*
X506750Y209498D01*
X507250D01*
X507750Y208998D01*
Y208498D01*
Y208998D01*
X508250Y209498D01*
X508750D01*
X509250Y208998D01*
Y207998D01*
X508750Y207499D01*
X377002Y496250D02*
Y499249D01*
X378501D01*
X379001Y498750D01*
Y497750D01*
X378501Y497250D01*
X377002D01*
X378001D02*
X379001Y496250D01*
X381500D02*
Y499249D01*
X380001Y497750D01*
X382000D01*
X383000Y495751D02*
X384999D01*
X385999Y499249D02*
X387998D01*
Y498750D01*
X385999Y496750D01*
Y496250D01*
X279502D02*
Y499249D01*
X281001D01*
X281501Y498750D01*
Y497750D01*
X281001Y497250D01*
X279502D01*
X280502D02*
X281501Y496250D01*
X284000D02*
Y499249D01*
X282501Y497750D01*
X284500D01*
X285500Y495751D02*
X287499D01*
X290498Y499249D02*
X289498Y498750D01*
X288499Y497750D01*
Y496750D01*
X288999Y496250D01*
X289998D01*
X290498Y496750D01*
Y497250D01*
X289998Y497750D01*
X288499D01*
X255751Y317002D02*
X258750D01*
Y319001D01*
X256250Y320001D02*
X255751Y320501D01*
Y321500D01*
X256250Y322000D01*
X256750D01*
X257250Y321500D01*
Y321001D01*
Y321500D01*
X257750Y322000D01*
X258250D01*
X258750Y321500D01*
Y320501D01*
X258250Y320001D01*
X259249Y323000D02*
Y324999D01*
X256250Y325999D02*
X255751Y326499D01*
Y327498D01*
X256250Y327998D01*
X256750D01*
X257250Y327498D01*
Y326998D01*
Y327498D01*
X257750Y327998D01*
X258250D01*
X258750Y327498D01*
Y326499D01*
X258250Y325999D01*
X302002Y319249D02*
Y316250D01*
X304001D01*
X305001Y318750D02*
X305501Y319249D01*
X306500D01*
X307000Y318750D01*
Y318250D01*
X306500Y317750D01*
X306000D01*
X306500D01*
X307000Y317250D01*
Y316750D01*
X306500Y316250D01*
X305501D01*
X305001Y316750D01*
X308000Y315751D02*
X309999D01*
X312998Y316250D02*
X310999D01*
X312998Y318250D01*
Y318750D01*
X312498Y319249D01*
X311499D01*
X310999Y318750D01*
X302502Y274249D02*
Y271250D01*
X304501D01*
X305501Y273750D02*
X306000Y274249D01*
X307000D01*
X307500Y273750D01*
Y273250D01*
X307000Y272750D01*
X306500D01*
X307000D01*
X307500Y272250D01*
Y271750D01*
X307000Y271250D01*
X306000D01*
X305501Y271750D01*
X308500Y270751D02*
X310499D01*
X311499Y271250D02*
X312498D01*
X311999D01*
Y274249D01*
X311499Y273750D01*
X442002Y466749D02*
Y464250D01*
X442502Y463750D01*
X443501D01*
X444001Y464250D01*
Y466749D01*
X446500Y463750D02*
Y466749D01*
X445001Y465250D01*
X447000D01*
X448000Y463251D02*
X449999D01*
X450999Y466250D02*
X451499Y466749D01*
X452498D01*
X452998Y466250D01*
Y465750D01*
X452498Y465250D01*
X451999D01*
X452498D01*
X452998Y464750D01*
Y464250D01*
X452498Y463750D01*
X451499D01*
X450999Y464250D01*
X335751Y367002D02*
X338250D01*
X338750Y367502D01*
Y368501D01*
X338250Y369001D01*
X335751D01*
X336250Y370001D02*
X335751Y370501D01*
Y371500D01*
X336250Y372000D01*
X336750D01*
X337250Y371500D01*
Y371001D01*
Y371500D01*
X337750Y372000D01*
X338250D01*
X338750Y371500D01*
Y370501D01*
X338250Y370001D01*
X339249Y373000D02*
Y374999D01*
X336250Y375999D02*
X335751Y376499D01*
Y377498D01*
X336250Y377998D01*
X336750D01*
X337250Y377498D01*
Y376999D01*
Y377498D01*
X337750Y377998D01*
X338250D01*
X338750Y377498D01*
Y376499D01*
X338250Y375999D01*
X380002Y84249D02*
Y81750D01*
X380502Y81250D01*
X381501D01*
X382001Y81750D01*
Y84249D01*
X385000Y81250D02*
X383001D01*
X385000Y83250D01*
Y83750D01*
X384500Y84249D01*
X383501D01*
X383001Y83750D01*
X386000Y80751D02*
X387999D01*
X388999Y81250D02*
X389998D01*
X389498D01*
Y84249D01*
X388999Y83750D01*
X289752Y111749D02*
Y109250D01*
X290251Y108750D01*
X291251D01*
X291751Y109250D01*
Y111749D01*
X292751Y108750D02*
X293750D01*
X293251D01*
Y111749D01*
X292751Y111250D01*
X295250Y108251D02*
X297249D01*
X300248Y108750D02*
X298249D01*
X300248Y110750D01*
Y111250D01*
X299748Y111749D01*
X298749D01*
X298249Y111250D01*
X471250Y253752D02*
X468251D01*
Y255252D01*
X468750Y255751D01*
X469750D01*
X470250Y255252D01*
Y253752D01*
Y254752D02*
X471250Y255751D01*
Y258251D02*
X468251D01*
X469750Y256751D01*
Y258750D01*
X471749Y259750D02*
Y261749D01*
X471250Y262749D02*
Y263749D01*
Y263249D01*
X468251D01*
X468750Y262749D01*
X471250Y265248D02*
Y266248D01*
Y265748D01*
X468251D01*
X468750Y265248D01*
X458750Y238252D02*
X455751D01*
Y239752D01*
X456250Y240251D01*
X457250D01*
X457750Y239752D01*
Y238252D01*
Y239252D02*
X458750Y240251D01*
Y242751D02*
X455751D01*
X457250Y241251D01*
Y243251D01*
X459249Y244250D02*
Y246250D01*
X458750Y247249D02*
Y248249D01*
Y247749D01*
X455751D01*
X456250Y247249D01*
Y249748D02*
X455751Y250248D01*
Y251248D01*
X456250Y251748D01*
X458250D01*
X458750Y251248D01*
Y250248D01*
X458250Y249748D01*
X456250D01*
X453750Y239502D02*
X450751D01*
Y241001D01*
X451250Y241501D01*
X452250D01*
X452750Y241001D01*
Y239502D01*
Y240501D02*
X453750Y241501D01*
Y244000D02*
X450751D01*
X452250Y242501D01*
Y244500D01*
X454249Y245500D02*
Y247499D01*
X453250Y248499D02*
X453750Y248999D01*
Y249998D01*
X453250Y250498D01*
X451250D01*
X450751Y249998D01*
Y248999D01*
X451250Y248499D01*
X451750D01*
X452250Y248999D01*
Y250498D01*
X448750Y239502D02*
X445751D01*
Y241001D01*
X446250Y241501D01*
X447250D01*
X447750Y241001D01*
Y239502D01*
Y240501D02*
X448750Y241501D01*
Y244000D02*
X445751D01*
X447250Y242501D01*
Y244500D01*
X449249Y245500D02*
Y247499D01*
X446250Y248499D02*
X445751Y248999D01*
Y249998D01*
X446250Y250498D01*
X446750D01*
X447250Y249998D01*
X447750Y250498D01*
X448250D01*
X448750Y249998D01*
Y248999D01*
X448250Y248499D01*
X447750D01*
X447250Y248999D01*
X446750Y248499D01*
X446250D01*
X447250Y248999D02*
Y249998D01*
X389502Y472750D02*
Y475749D01*
X391001D01*
X391501Y475250D01*
Y474250D01*
X391001Y473750D01*
X389502D01*
X390501D02*
X391501Y472750D01*
X394000D02*
Y475749D01*
X392501Y474250D01*
X394500D01*
X395500Y472251D02*
X397499D01*
X400498Y475749D02*
X398499D01*
Y474250D01*
X399499Y474750D01*
X399998D01*
X400498Y474250D01*
Y473250D01*
X399998Y472750D01*
X398999D01*
X398499Y473250D01*
X292002Y472250D02*
Y475249D01*
X293501D01*
X294001Y474750D01*
Y473750D01*
X293501Y473250D01*
X292002D01*
X293002D02*
X294001Y472250D01*
X296500D02*
Y475249D01*
X295001Y473750D01*
X297000D01*
X298000Y471751D02*
X299999D01*
X302498Y472250D02*
Y475249D01*
X300999Y473750D01*
X302998D01*
X239502Y463750D02*
Y466749D01*
X241001D01*
X241501Y466250D01*
Y465250D01*
X241001Y464750D01*
X239502D01*
X240501D02*
X241501Y463750D01*
X244000D02*
Y466749D01*
X242501Y465250D01*
X244500D01*
X245500Y463251D02*
X247499D01*
X250498Y463750D02*
X248499D01*
X250498Y465750D01*
Y466250D01*
X249998Y466749D01*
X248999D01*
X248499Y466250D01*
X372502Y318750D02*
Y321749D01*
X374001D01*
X374501Y321250D01*
Y320250D01*
X374001Y319750D01*
X372502D01*
X373501D02*
X374501Y318750D01*
X377000D02*
Y321749D01*
X375501Y320250D01*
X377500D01*
X378500Y318251D02*
X380499D01*
X381499Y318750D02*
X382498D01*
X381998D01*
Y321749D01*
X381499Y321250D01*
X368750Y143002D02*
X365751D01*
Y144502D01*
X366250Y145002D01*
X367250D01*
X367750Y144502D01*
Y143002D01*
Y144002D02*
X368750Y145002D01*
X366250Y146001D02*
X365751Y146501D01*
Y147501D01*
X366250Y148001D01*
X366750D01*
X367250Y147501D01*
Y147001D01*
Y147501D01*
X367750Y148001D01*
X368250D01*
X368750Y147501D01*
Y146501D01*
X368250Y146001D01*
X369249Y149000D02*
Y151000D01*
X368750Y153999D02*
Y151999D01*
X366750Y153999D01*
X366250D01*
X365751Y153499D01*
Y152499D01*
X366250Y151999D01*
X368750Y156498D02*
X365751D01*
X367250Y154998D01*
Y156998D01*
X378750Y143002D02*
X375751D01*
Y144502D01*
X376250Y145002D01*
X377250D01*
X377750Y144502D01*
Y143002D01*
Y144002D02*
X378750Y145002D01*
X376250Y146001D02*
X375751Y146501D01*
Y147501D01*
X376250Y148001D01*
X376750D01*
X377250Y147501D01*
Y147001D01*
Y147501D01*
X377750Y148001D01*
X378250D01*
X378750Y147501D01*
Y146501D01*
X378250Y146001D01*
X379249Y149000D02*
Y151000D01*
X378750Y153999D02*
Y151999D01*
X376750Y153999D01*
X376250D01*
X375751Y153499D01*
Y152499D01*
X376250Y151999D01*
Y154998D02*
X375751Y155498D01*
Y156498D01*
X376250Y156998D01*
X376750D01*
X377250Y156498D01*
Y155998D01*
Y156498D01*
X377750Y156998D01*
X378250D01*
X378750Y156498D01*
Y155498D01*
X378250Y154998D01*
X373750Y143002D02*
X370751D01*
Y144502D01*
X371250Y145002D01*
X372250D01*
X372750Y144502D01*
Y143002D01*
Y144002D02*
X373750Y145002D01*
X371250Y146001D02*
X370751Y146501D01*
Y147501D01*
X371250Y148001D01*
X371750D01*
X372250Y147501D01*
Y147001D01*
Y147501D01*
X372750Y148001D01*
X373250D01*
X373750Y147501D01*
Y146501D01*
X373250Y146001D01*
X374249Y149000D02*
Y151000D01*
X373750Y153999D02*
Y151999D01*
X371750Y153999D01*
X371250D01*
X370751Y153499D01*
Y152499D01*
X371250Y151999D01*
X373750Y156998D02*
Y154998D01*
X371750Y156998D01*
X371250D01*
X370751Y156498D01*
Y155498D01*
X371250Y154998D01*
X348750Y338502D02*
X345751D01*
Y340002D01*
X346250Y340501D01*
X347250D01*
X347750Y340002D01*
Y338502D01*
Y339502D02*
X348750Y340501D01*
X346250Y341501D02*
X345751Y342001D01*
Y343001D01*
X346250Y343500D01*
X346750D01*
X347250Y343001D01*
Y342501D01*
Y343001D01*
X347750Y343500D01*
X348250D01*
X348750Y343001D01*
Y342001D01*
X348250Y341501D01*
X349249Y344500D02*
Y346499D01*
X348750Y349499D02*
Y347499D01*
X346750Y349499D01*
X346250D01*
X345751Y348999D01*
Y347999D01*
X346250Y347499D01*
X348750Y350498D02*
Y351498D01*
Y350998D01*
X345751D01*
X346250Y350498D01*
X398002Y181250D02*
Y184249D01*
X399502D01*
X400002Y183750D01*
Y182750D01*
X399502Y182250D01*
X398002D01*
X399002D02*
X400002Y181250D01*
X401001Y183750D02*
X401501Y184249D01*
X402501D01*
X403001Y183750D01*
Y183250D01*
X402501Y182750D01*
X402001D01*
X402501D01*
X403001Y182250D01*
Y181750D01*
X402501Y181250D01*
X401501D01*
X401001Y181750D01*
X404000Y180751D02*
X406000D01*
X408999Y181250D02*
X406999D01*
X408999Y183250D01*
Y183750D01*
X408499Y184249D01*
X407499D01*
X406999Y183750D01*
X409998D02*
X410498Y184249D01*
X411498D01*
X411998Y183750D01*
Y181750D01*
X411498Y181250D01*
X410498D01*
X409998Y181750D01*
Y183750D01*
X398252Y171250D02*
Y174249D01*
X399752D01*
X400251Y173750D01*
Y172750D01*
X399752Y172250D01*
X398252D01*
X399252D02*
X400251Y171250D01*
X401251Y173750D02*
X401751Y174249D01*
X402751D01*
X403251Y173750D01*
Y173250D01*
X402751Y172750D01*
X402251D01*
X402751D01*
X403251Y172250D01*
Y171750D01*
X402751Y171250D01*
X401751D01*
X401251Y171750D01*
X404250Y170751D02*
X406250D01*
X407249Y171250D02*
X408249D01*
X407749D01*
Y174249D01*
X407249Y173750D01*
X409749Y171750D02*
X410248Y171250D01*
X411248D01*
X411748Y171750D01*
Y173750D01*
X411248Y174249D01*
X410248D01*
X409749Y173750D01*
Y173250D01*
X410248Y172750D01*
X411748D01*
X293252Y386250D02*
Y389249D01*
X294752D01*
X295251Y388750D01*
Y387750D01*
X294752Y387250D01*
X293252D01*
X294252D02*
X295251Y386250D01*
X296251Y388750D02*
X296751Y389249D01*
X297751D01*
X298251Y388750D01*
Y388250D01*
X297751Y387750D01*
X297251D01*
X297751D01*
X298251Y387250D01*
Y386750D01*
X297751Y386250D01*
X296751D01*
X296251Y386750D01*
X299250Y385751D02*
X301250D01*
X302249Y386250D02*
X303249D01*
X302749D01*
Y389249D01*
X302249Y388750D01*
X304749D02*
X305248Y389249D01*
X306248D01*
X306748Y388750D01*
Y388250D01*
X306248Y387750D01*
X306748Y387250D01*
Y386750D01*
X306248Y386250D01*
X305248D01*
X304749Y386750D01*
Y387250D01*
X305248Y387750D01*
X304749Y388250D01*
Y388750D01*
X305248Y387750D02*
X306248D01*
X353252Y383750D02*
Y386749D01*
X354752D01*
X355252Y386250D01*
Y385250D01*
X354752Y384750D01*
X353252D01*
X354252D02*
X355252Y383750D01*
X356251Y386250D02*
X356751Y386749D01*
X357751D01*
X358251Y386250D01*
Y385750D01*
X357751Y385250D01*
X357251D01*
X357751D01*
X358251Y384750D01*
Y384250D01*
X357751Y383750D01*
X356751D01*
X356251Y384250D01*
X359250Y383251D02*
X361250D01*
X362249Y383750D02*
X363249D01*
X362749D01*
Y386749D01*
X362249Y386250D01*
X366748Y386749D02*
X365748Y386250D01*
X364749Y385250D01*
Y384250D01*
X365248Y383750D01*
X366248D01*
X366748Y384250D01*
Y384750D01*
X366248Y385250D01*
X364749D01*
X310752Y391250D02*
Y394249D01*
X312252D01*
X312752Y393750D01*
Y392750D01*
X312252Y392250D01*
X310752D01*
X311752D02*
X312752Y391250D01*
X313751Y393750D02*
X314251Y394249D01*
X315251D01*
X315751Y393750D01*
Y393250D01*
X315251Y392750D01*
X314751D01*
X315251D01*
X315751Y392250D01*
Y391750D01*
X315251Y391250D01*
X314251D01*
X313751Y391750D01*
X316750Y390751D02*
X318750D01*
X319749Y391250D02*
X320749D01*
X320249D01*
Y394249D01*
X319749Y393750D01*
X324248Y394249D02*
X322249D01*
Y392750D01*
X323248Y393250D01*
X323748D01*
X324248Y392750D01*
Y391750D01*
X323748Y391250D01*
X322748D01*
X322249Y391750D01*
X335752Y408750D02*
Y411749D01*
X337252D01*
X337752Y411250D01*
Y410250D01*
X337252Y409750D01*
X335752D01*
X336752D02*
X337752Y408750D01*
X338751Y411250D02*
X339251Y411749D01*
X340251D01*
X340751Y411250D01*
Y410750D01*
X340251Y410250D01*
X339751D01*
X340251D01*
X340751Y409750D01*
Y409250D01*
X340251Y408750D01*
X339251D01*
X338751Y409250D01*
X341750Y408251D02*
X343750D01*
X344749Y408750D02*
X345749D01*
X345249D01*
Y411749D01*
X344749Y411250D01*
X348748Y408750D02*
Y411749D01*
X347249Y410250D01*
X349248D01*
X353252Y408750D02*
Y411749D01*
X354752D01*
X355252Y411250D01*
Y410250D01*
X354752Y409750D01*
X353252D01*
X354252D02*
X355252Y408750D01*
X356251Y411250D02*
X356751Y411749D01*
X357751D01*
X358251Y411250D01*
Y410750D01*
X357751Y410250D01*
X357251D01*
X357751D01*
X358251Y409750D01*
Y409250D01*
X357751Y408750D01*
X356751D01*
X356251Y409250D01*
X359250Y408251D02*
X361250D01*
X362249Y408750D02*
X363249D01*
X362749D01*
Y411749D01*
X362249Y411250D01*
X364749D02*
X365248Y411749D01*
X366248D01*
X366748Y411250D01*
Y410750D01*
X366248Y410250D01*
X365748D01*
X366248D01*
X366748Y409750D01*
Y409250D01*
X366248Y408750D01*
X365248D01*
X364749Y409250D01*
X418752Y176250D02*
Y179249D01*
X420252D01*
X420751Y178750D01*
Y177750D01*
X420252Y177250D01*
X418752D01*
X419752D02*
X420751Y176250D01*
X421751Y178750D02*
X422251Y179249D01*
X423251D01*
X423750Y178750D01*
Y178250D01*
X423251Y177750D01*
X422751D01*
X423251D01*
X423750Y177250D01*
Y176750D01*
X423251Y176250D01*
X422251D01*
X421751Y176750D01*
X424750Y175751D02*
X426749D01*
X427749Y176250D02*
X428749D01*
X428249D01*
Y179249D01*
X427749Y178750D01*
X430248Y176250D02*
X431248D01*
X430748D01*
Y179249D01*
X430248Y178750D01*
X418252Y171250D02*
Y174249D01*
X419752D01*
X420252Y173750D01*
Y172750D01*
X419752Y172250D01*
X418252D01*
X419252D02*
X420252Y171250D01*
X421251Y173750D02*
X421751Y174249D01*
X422751D01*
X423251Y173750D01*
Y173250D01*
X422751Y172750D01*
X422251D01*
X422751D01*
X423251Y172250D01*
Y171750D01*
X422751Y171250D01*
X421751D01*
X421251Y171750D01*
X424250Y170751D02*
X426250D01*
X427249Y171250D02*
X428249D01*
X427749D01*
Y174249D01*
X427249Y173750D01*
X429748D02*
X430248Y174249D01*
X431248D01*
X431748Y173750D01*
Y171750D01*
X431248Y171250D01*
X430248D01*
X429748Y171750D01*
Y173750D01*
X272002Y181250D02*
Y184249D01*
X273501D01*
X274001Y183750D01*
Y182750D01*
X273501Y182250D01*
X272002D01*
X273002D02*
X274001Y181250D01*
X275001Y183750D02*
X275501Y184249D01*
X276500D01*
X277000Y183750D01*
Y183250D01*
X276500Y182750D01*
X276000D01*
X276500D01*
X277000Y182250D01*
Y181750D01*
X276500Y181250D01*
X275501D01*
X275001Y181750D01*
X278000Y180751D02*
X279999D01*
X280999Y181750D02*
X281499Y181250D01*
X282498D01*
X282998Y181750D01*
Y183750D01*
X282498Y184249D01*
X281499D01*
X280999Y183750D01*
Y183250D01*
X281499Y182750D01*
X282998D01*
X272002Y186250D02*
Y189249D01*
X273501D01*
X274001Y188750D01*
Y187750D01*
X273501Y187250D01*
X272002D01*
X273002D02*
X274001Y186250D01*
X275001Y188750D02*
X275501Y189249D01*
X276500D01*
X277000Y188750D01*
Y188250D01*
X276500Y187750D01*
X276000D01*
X276500D01*
X277000Y187250D01*
Y186750D01*
X276500Y186250D01*
X275501D01*
X275001Y186750D01*
X278000Y185751D02*
X279999D01*
X280999Y188750D02*
X281499Y189249D01*
X282498D01*
X282998Y188750D01*
Y188250D01*
X282498Y187750D01*
X282998Y187250D01*
Y186750D01*
X282498Y186250D01*
X281499D01*
X280999Y186750D01*
Y187250D01*
X281499Y187750D01*
X280999Y188250D01*
Y188750D01*
X281499Y187750D02*
X282498D01*
X272002Y191250D02*
Y194249D01*
X273501D01*
X274001Y193750D01*
Y192750D01*
X273501Y192250D01*
X272002D01*
X273002D02*
X274001Y191250D01*
X275001Y193750D02*
X275501Y194249D01*
X276500D01*
X277000Y193750D01*
Y193250D01*
X276500Y192750D01*
X276000D01*
X276500D01*
X277000Y192250D01*
Y191750D01*
X276500Y191250D01*
X275501D01*
X275001Y191750D01*
X278000Y190751D02*
X279999D01*
X280999Y194249D02*
X282998D01*
Y193750D01*
X280999Y191750D01*
Y191250D01*
X289502Y181250D02*
Y184249D01*
X291001D01*
X291501Y183750D01*
Y182750D01*
X291001Y182250D01*
X289502D01*
X290501D02*
X291501Y181250D01*
X292501Y183750D02*
X293001Y184249D01*
X294000D01*
X294500Y183750D01*
Y183250D01*
X294000Y182750D01*
X293500D01*
X294000D01*
X294500Y182250D01*
Y181750D01*
X294000Y181250D01*
X293001D01*
X292501Y181750D01*
X295500Y180751D02*
X297499D01*
X300498Y184249D02*
X299499Y183750D01*
X298499Y182750D01*
Y181750D01*
X298999Y181250D01*
X299998D01*
X300498Y181750D01*
Y182250D01*
X299998Y182750D01*
X298499D01*
X289502Y186250D02*
Y189249D01*
X291001D01*
X291501Y188750D01*
Y187750D01*
X291001Y187250D01*
X289502D01*
X290501D02*
X291501Y186250D01*
X292501Y188750D02*
X293001Y189249D01*
X294000D01*
X294500Y188750D01*
Y188250D01*
X294000Y187750D01*
X293500D01*
X294000D01*
X294500Y187250D01*
Y186750D01*
X294000Y186250D01*
X293001D01*
X292501Y186750D01*
X295500Y185751D02*
X297499D01*
X300498Y189249D02*
X298499D01*
Y187750D01*
X299499Y188250D01*
X299998D01*
X300498Y187750D01*
Y186750D01*
X299998Y186250D01*
X298999D01*
X298499Y186750D01*
X289502Y191250D02*
Y194249D01*
X291001D01*
X291501Y193750D01*
Y192750D01*
X291001Y192250D01*
X289502D01*
X290501D02*
X291501Y191250D01*
X292501Y193750D02*
X293001Y194249D01*
X294000D01*
X294500Y193750D01*
Y193250D01*
X294000Y192750D01*
X293500D01*
X294000D01*
X294500Y192250D01*
Y191750D01*
X294000Y191250D01*
X293001D01*
X292501Y191750D01*
X295500Y190751D02*
X297499D01*
X299998Y191250D02*
Y194249D01*
X298499Y192750D01*
X300498D01*
X219502Y248750D02*
Y251749D01*
X221001D01*
X221501Y251250D01*
Y250250D01*
X221001Y249750D01*
X219502D01*
X220501D02*
X221501Y248750D01*
X222501Y251250D02*
X223001Y251749D01*
X224000D01*
X224500Y251250D01*
Y250750D01*
X224000Y250250D01*
X223500D01*
X224000D01*
X224500Y249750D01*
Y249250D01*
X224000Y248750D01*
X223001D01*
X222501Y249250D01*
X225500Y248251D02*
X227499D01*
X228499Y251250D02*
X228999Y251749D01*
X229998D01*
X230498Y251250D01*
Y250750D01*
X229998Y250250D01*
X229499D01*
X229998D01*
X230498Y249750D01*
Y249250D01*
X229998Y248750D01*
X228999D01*
X228499Y249250D01*
X219502Y243750D02*
Y246749D01*
X221001D01*
X221501Y246250D01*
Y245250D01*
X221001Y244750D01*
X219502D01*
X220501D02*
X221501Y243750D01*
X222501Y246250D02*
X223001Y246749D01*
X224000D01*
X224500Y246250D01*
Y245750D01*
X224000Y245250D01*
X223500D01*
X224000D01*
X224500Y244750D01*
Y244250D01*
X224000Y243750D01*
X223001D01*
X222501Y244250D01*
X225500Y243251D02*
X227499D01*
X230498Y243750D02*
X228499D01*
X230498Y245750D01*
Y246250D01*
X229998Y246749D01*
X228999D01*
X228499Y246250D01*
X220002Y238750D02*
Y241749D01*
X221501D01*
X222001Y241250D01*
Y240250D01*
X221501Y239750D01*
X220002D01*
X221001D02*
X222001Y238750D01*
X223001Y241250D02*
X223500Y241749D01*
X224500D01*
X225000Y241250D01*
Y240750D01*
X224500Y240250D01*
X224000D01*
X224500D01*
X225000Y239750D01*
Y239250D01*
X224500Y238750D01*
X223500D01*
X223001Y239250D01*
X226000Y238251D02*
X227999D01*
X228999Y238750D02*
X229998D01*
X229499D01*
Y241749D01*
X228999Y241250D01*
X379502Y106624D02*
Y109624D01*
X381001D01*
X381501Y109124D01*
Y108124D01*
X381001Y107624D01*
X379502D01*
X380502D02*
X381501Y106624D01*
X384500D02*
X382501D01*
X384500Y108624D01*
Y109124D01*
X384000Y109624D01*
X383001D01*
X382501Y109124D01*
X385500Y106125D02*
X387499D01*
X389998Y106624D02*
Y109624D01*
X388499Y108124D01*
X390498D01*
X397002Y106624D02*
Y109624D01*
X398501D01*
X399001Y109124D01*
Y108124D01*
X398501Y107624D01*
X397002D01*
X398002D02*
X399001Y106624D01*
X402000D02*
X400001D01*
X402000Y108624D01*
Y109124D01*
X401500Y109624D01*
X400501D01*
X400001Y109124D01*
X403000Y106125D02*
X404999D01*
X405999Y109124D02*
X406499Y109624D01*
X407498D01*
X407998Y109124D01*
Y108624D01*
X407498Y108124D01*
X406998D01*
X407498D01*
X407998Y107624D01*
Y107124D01*
X407498Y106624D01*
X406499D01*
X405999Y107124D01*
X379502Y131624D02*
Y134624D01*
X381001D01*
X381501Y134124D01*
Y133124D01*
X381001Y132624D01*
X379502D01*
X380502D02*
X381501Y131624D01*
X384500D02*
X382501D01*
X384500Y133624D01*
Y134124D01*
X384000Y134624D01*
X383001D01*
X382501Y134124D01*
X385500Y131125D02*
X387499D01*
X390498Y131624D02*
X388499D01*
X390498Y133624D01*
Y134124D01*
X389998Y134624D01*
X388999D01*
X388499Y134124D01*
X397502Y131624D02*
Y134624D01*
X399001D01*
X399501Y134124D01*
Y133124D01*
X399001Y132624D01*
X397502D01*
X398501D02*
X399501Y131624D01*
X402500D02*
X400501D01*
X402500Y133624D01*
Y134124D01*
X402000Y134624D01*
X401000D01*
X400501Y134124D01*
X403500Y131125D02*
X405499D01*
X406499Y131624D02*
X407498D01*
X406998D01*
Y134624D01*
X406499Y134124D01*
X451250Y195687D02*
X448251D01*
Y197187D01*
X448750Y197687D01*
X449750D01*
X450250Y197187D01*
Y195687D01*
Y196687D02*
X451250Y197687D01*
Y198686D02*
Y199686D01*
Y199186D01*
X448251D01*
X448750Y198686D01*
X451749Y201185D02*
Y203185D01*
X451250Y204184D02*
Y205184D01*
Y204684D01*
X448251D01*
X448750Y204184D01*
X451250Y208683D02*
Y206684D01*
X449250Y208683D01*
X448750D01*
X448251Y208183D01*
Y207183D01*
X448750Y206684D01*
X309002Y58750D02*
Y61749D01*
X310502D01*
X311001Y61250D01*
Y60250D01*
X310502Y59750D01*
X309002D01*
X310002D02*
X311001Y58750D01*
X312001D02*
X313001D01*
X312501D01*
Y61749D01*
X312001Y61250D01*
X314500Y58251D02*
X316499D01*
X317499Y58750D02*
X318499D01*
X317999D01*
Y61749D01*
X317499Y61250D01*
X319998Y58750D02*
X320998D01*
X320498D01*
Y61749D01*
X319998Y61250D01*
X308502Y33750D02*
Y36749D01*
X310002D01*
X310502Y36250D01*
Y35250D01*
X310002Y34750D01*
X308502D01*
X309502D02*
X310502Y33750D01*
X311501D02*
X312501D01*
X312001D01*
Y36749D01*
X311501Y36250D01*
X314000Y33251D02*
X316000D01*
X316999Y33750D02*
X317999D01*
X317499D01*
Y36749D01*
X316999Y36250D01*
X319498D02*
X319998Y36749D01*
X320998D01*
X321498Y36250D01*
Y34250D01*
X320998Y33750D01*
X319998D01*
X319498Y34250D01*
Y36250D01*
X546250Y344752D02*
X543251D01*
Y346251D01*
X543750Y346751D01*
X544750D01*
X545250Y346251D01*
Y344752D01*
Y345751D02*
X546250Y346751D01*
Y347751D02*
Y348750D01*
Y348251D01*
X543251D01*
X543750Y347751D01*
X546749Y350250D02*
Y352249D01*
X545750Y353249D02*
X546250Y353749D01*
Y354749D01*
X545750Y355248D01*
X543750D01*
X543251Y354749D01*
Y353749D01*
X543750Y353249D01*
X544250D01*
X544750Y353749D01*
Y355248D01*
X546250Y324752D02*
X543251D01*
Y326251D01*
X543750Y326751D01*
X544750D01*
X545250Y326251D01*
Y324752D01*
Y325751D02*
X546250Y326751D01*
Y327751D02*
Y328750D01*
Y328251D01*
X543251D01*
X543750Y327751D01*
X546749Y330250D02*
Y332249D01*
X543750Y333249D02*
X543251Y333749D01*
Y334749D01*
X543750Y335248D01*
X544250D01*
X544750Y334749D01*
X545250Y335248D01*
X545750D01*
X546250Y334749D01*
Y333749D01*
X545750Y333249D01*
X545250D01*
X544750Y333749D01*
X544250Y333249D01*
X543750D01*
X544750Y333749D02*
Y334749D01*
X356250Y99752D02*
X353251D01*
Y101251D01*
X353750Y101751D01*
X354750D01*
X355250Y101251D01*
Y99752D01*
Y100751D02*
X356250Y101751D01*
Y102751D02*
Y103750D01*
Y103251D01*
X353251D01*
X353750Y102751D01*
X356749Y105250D02*
Y107249D01*
X353251Y108249D02*
Y110248D01*
X353750D01*
X355750Y108249D01*
X356250D01*
X346250Y99752D02*
X343251D01*
Y101251D01*
X343750Y101751D01*
X344750D01*
X345250Y101251D01*
Y99752D01*
Y100751D02*
X346250Y101751D01*
Y102751D02*
Y103750D01*
Y103251D01*
X343251D01*
X343750Y102751D01*
X346749Y105250D02*
Y107249D01*
X343251Y110248D02*
X343750Y109249D01*
X344750Y108249D01*
X345750D01*
X346250Y108749D01*
Y109748D01*
X345750Y110248D01*
X345250D01*
X344750Y109748D01*
Y108249D01*
X553750Y22252D02*
X550751D01*
Y23751D01*
X551250Y24251D01*
X552250D01*
X552750Y23751D01*
Y22252D01*
Y23251D02*
X553750Y24251D01*
Y25251D02*
Y26250D01*
Y25751D01*
X550751D01*
X551250Y25251D01*
X554249Y27750D02*
Y29749D01*
X550751Y32748D02*
Y30749D01*
X552250D01*
X551750Y31749D01*
Y32248D01*
X552250Y32748D01*
X553250D01*
X553750Y32248D01*
Y31249D01*
X553250Y30749D01*
X578750Y22252D02*
X575751D01*
Y23751D01*
X576250Y24251D01*
X577250D01*
X577750Y23751D01*
Y22252D01*
Y23251D02*
X578750Y24251D01*
Y25251D02*
Y26250D01*
Y25751D01*
X575751D01*
X576250Y25251D01*
X579249Y27750D02*
Y29749D01*
X578750Y32248D02*
X575751D01*
X577250Y30749D01*
Y32748D01*
X578750Y42252D02*
X575751D01*
Y43751D01*
X576250Y44251D01*
X577250D01*
X577750Y43751D01*
Y42252D01*
Y43251D02*
X578750Y44251D01*
Y45251D02*
Y46250D01*
Y45751D01*
X575751D01*
X576250Y45251D01*
X579249Y47750D02*
Y49749D01*
X576250Y50749D02*
X575751Y51249D01*
Y52249D01*
X576250Y52748D01*
X576750D01*
X577250Y52249D01*
Y51749D01*
Y52249D01*
X577750Y52748D01*
X578250D01*
X578750Y52249D01*
Y51249D01*
X578250Y50749D01*
X553750Y42252D02*
X550751D01*
Y43751D01*
X551250Y44251D01*
X552250D01*
X552750Y43751D01*
Y42252D01*
Y43251D02*
X553750Y44251D01*
Y45251D02*
Y46250D01*
Y45751D01*
X550751D01*
X551250Y45251D01*
X554249Y47750D02*
Y49749D01*
X553750Y52748D02*
Y50749D01*
X551750Y52748D01*
X551250D01*
X550751Y52249D01*
Y51249D01*
X551250Y50749D01*
X436250Y322751D02*
X433251D01*
Y324251D01*
X433750Y324751D01*
X434750D01*
X435250Y324251D01*
Y322751D01*
Y323751D02*
X436250Y324751D01*
Y325751D02*
Y326750D01*
Y326250D01*
X433251D01*
X433750Y325751D01*
X436749Y328250D02*
Y330249D01*
X436250Y331249D02*
Y332248D01*
Y331749D01*
X433251D01*
X433750Y331249D01*
X314001Y411750D02*
Y413750D01*
X313501Y414249D01*
X312502D01*
X312002Y413750D01*
Y411750D01*
X312502Y411250D01*
X313501D01*
X313001Y412250D02*
X314001Y411250D01*
X313501D02*
X314001Y411750D01*
X315001Y413750D02*
X315501Y414249D01*
X316500D01*
X317000Y413750D01*
Y413250D01*
X316500Y412750D01*
X316001D01*
X316500D01*
X317000Y412250D01*
Y411750D01*
X316500Y411250D01*
X315501D01*
X315001Y411750D01*
X318000Y410751D02*
X319999D01*
X322998Y411250D02*
X320999D01*
X322998Y413250D01*
Y413750D01*
X322498Y414249D01*
X321499D01*
X320999Y413750D01*
X297001Y411750D02*
Y413750D01*
X296501Y414249D01*
X295501D01*
X295002Y413750D01*
Y411750D01*
X295501Y411250D01*
X296501D01*
X296001Y412250D02*
X297001Y411250D01*
X296501D02*
X297001Y411750D01*
X298001Y413750D02*
X298500Y414249D01*
X299500D01*
X300000Y413750D01*
Y413250D01*
X299500Y412750D01*
X299000D01*
X299500D01*
X300000Y412250D01*
Y411750D01*
X299500Y411250D01*
X298500D01*
X298001Y411750D01*
X301000Y410751D02*
X302999D01*
X303999Y411250D02*
X304998D01*
X304499D01*
Y414249D01*
X303999Y413750D01*
X361750Y46501D02*
X359750D01*
X359251Y46001D01*
Y45002D01*
X359750Y44502D01*
X361750D01*
X362250Y45002D01*
Y46001D01*
X361250Y45502D02*
X362250Y46501D01*
Y46001D02*
X361750Y46501D01*
X362250Y49500D02*
Y47501D01*
X360250Y49500D01*
X359750D01*
X359251Y49000D01*
Y48001D01*
X359750Y47501D01*
X362749Y50500D02*
Y52499D01*
X362250Y55498D02*
Y53499D01*
X360250Y55498D01*
X359750D01*
X359251Y54998D01*
Y53999D01*
X359750Y53499D01*
X361750Y66001D02*
X359750D01*
X359251Y65501D01*
Y64502D01*
X359750Y64002D01*
X361750D01*
X362250Y64502D01*
Y65501D01*
X361250Y65001D02*
X362250Y66001D01*
Y65501D02*
X361750Y66001D01*
X362250Y69000D02*
Y67001D01*
X360250Y69000D01*
X359750D01*
X359251Y68500D01*
Y67501D01*
X359750Y67001D01*
X362749Y70000D02*
Y71999D01*
X362250Y72999D02*
Y73998D01*
Y73499D01*
X359251D01*
X359750Y72999D01*
X534251Y54250D02*
Y56250D01*
X533751Y56749D01*
X532752D01*
X532252Y56250D01*
Y54250D01*
X532752Y53750D01*
X533751D01*
X533251Y54750D02*
X534251Y53750D01*
X533751D02*
X534251Y54250D01*
X535251Y53750D02*
X536250D01*
X535751D01*
Y56749D01*
X535251Y56250D01*
X537750Y53251D02*
X539749D01*
X542748Y53750D02*
X540749D01*
X542748Y55750D01*
Y56250D01*
X542248Y56749D01*
X541249D01*
X540749Y56250D01*
X534751Y34250D02*
Y36250D01*
X534251Y36749D01*
X533251D01*
X532752Y36250D01*
Y34250D01*
X533251Y33750D01*
X534251D01*
X533751Y34750D02*
X534751Y33750D01*
X534251D02*
X534751Y34250D01*
X535751Y33750D02*
X536750D01*
X536250D01*
Y36749D01*
X535751Y36250D01*
X538250Y33251D02*
X540249D01*
X541249Y33750D02*
X542248D01*
X541749D01*
Y36749D01*
X541249Y36250D01*
X316250Y149998D02*
X319249D01*
Y148499D01*
X318750Y147999D01*
X317750D01*
X317250Y148499D01*
Y149998D01*
X318750Y146999D02*
X319249Y146500D01*
Y145500D01*
X318750Y145000D01*
X318250D01*
X317750Y145500D01*
Y146000D01*
Y145500D01*
X317250Y145000D01*
X316750D01*
X316250Y145500D01*
Y146500D01*
X316750Y146999D01*
X315751Y144000D02*
Y142001D01*
X316250Y141001D02*
Y140002D01*
Y140501D01*
X319249D01*
X318750Y141001D01*
X443251Y289502D02*
X446250D01*
Y291001D01*
X445750Y291501D01*
X443750D01*
X443251Y291001D01*
Y289502D01*
X446250Y294000D02*
X443251D01*
X444750Y292501D01*
Y294500D01*
X446749Y295500D02*
Y297499D01*
X446250Y299998D02*
X443251D01*
X444750Y298499D01*
Y300498D01*
X433251Y289502D02*
X436250D01*
Y291001D01*
X435750Y291501D01*
X433750D01*
X433251Y291001D01*
Y289502D01*
X436250Y294000D02*
X433251D01*
X434750Y292501D01*
Y294500D01*
X436749Y295500D02*
Y297499D01*
X433750Y298499D02*
X433251Y298999D01*
Y299998D01*
X433750Y300498D01*
X434250D01*
X434750Y299998D01*
Y299499D01*
Y299998D01*
X435250Y300498D01*
X435750D01*
X436250Y299998D01*
Y298999D01*
X435750Y298499D01*
X423251Y289502D02*
X426250D01*
Y291001D01*
X425750Y291501D01*
X423750D01*
X423251Y291001D01*
Y289502D01*
X426250Y294000D02*
X423251D01*
X424750Y292501D01*
Y294500D01*
X426749Y295500D02*
Y297499D01*
X426250Y300498D02*
Y298499D01*
X424250Y300498D01*
X423750D01*
X423251Y299998D01*
Y298999D01*
X423750Y298499D01*
X413251Y290002D02*
X416250D01*
Y291501D01*
X415750Y292001D01*
X413750D01*
X413251Y291501D01*
Y290002D01*
X416250Y294500D02*
X413251D01*
X414750Y293001D01*
Y295000D01*
X416749Y296000D02*
Y297999D01*
X416250Y298999D02*
Y299998D01*
Y299499D01*
X413251D01*
X413750Y298999D01*
X365751Y162002D02*
X368750D01*
Y163501D01*
X368250Y164001D01*
X366250D01*
X365751Y163501D01*
Y162002D01*
X366250Y165001D02*
X365751Y165501D01*
Y166500D01*
X366250Y167000D01*
X366750D01*
X367250Y166500D01*
Y166000D01*
Y166500D01*
X367750Y167000D01*
X368250D01*
X368750Y166500D01*
Y165501D01*
X368250Y165001D01*
X369249Y168000D02*
Y169999D01*
X366250Y170999D02*
X365751Y171499D01*
Y172498D01*
X366250Y172998D01*
X366750D01*
X367250Y172498D01*
X367750Y172998D01*
X368250D01*
X368750Y172498D01*
Y171499D01*
X368250Y170999D01*
X367750D01*
X367250Y171499D01*
X366750Y170999D01*
X366250D01*
X367250Y171499D02*
Y172498D01*
X375751Y162002D02*
X378750D01*
Y163501D01*
X378250Y164001D01*
X376250D01*
X375751Y163501D01*
Y162002D01*
X376250Y165001D02*
X375751Y165501D01*
Y166500D01*
X376250Y167000D01*
X376750D01*
X377250Y166500D01*
Y166000D01*
Y166500D01*
X377750Y167000D01*
X378250D01*
X378750Y166500D01*
Y165501D01*
X378250Y165001D01*
X379249Y168000D02*
Y169999D01*
X375751Y170999D02*
Y172998D01*
X376250D01*
X378250Y170999D01*
X378750D01*
X370751Y162002D02*
X373750D01*
Y163501D01*
X373250Y164001D01*
X371250D01*
X370751Y163501D01*
Y162002D01*
X371250Y165001D02*
X370751Y165501D01*
Y166500D01*
X371250Y167000D01*
X371750D01*
X372250Y166500D01*
Y166000D01*
Y166500D01*
X372750Y167000D01*
X373250D01*
X373750Y166500D01*
Y165501D01*
X373250Y165001D01*
X374249Y168000D02*
Y169999D01*
X370751Y172998D02*
X371250Y171999D01*
X372250Y170999D01*
X373250D01*
X373750Y171499D01*
Y172498D01*
X373250Y172998D01*
X372750D01*
X372250Y172498D01*
Y170999D01*
X340751Y339502D02*
X343750D01*
Y341001D01*
X343250Y341501D01*
X341250D01*
X340751Y341001D01*
Y339502D01*
X341250Y342501D02*
X340751Y343001D01*
Y344000D01*
X341250Y344500D01*
X341750D01*
X342250Y344000D01*
Y343500D01*
Y344000D01*
X342750Y344500D01*
X343250D01*
X343750Y344000D01*
Y343001D01*
X343250Y342501D01*
X344249Y345500D02*
Y347499D01*
X340751Y350498D02*
Y348499D01*
X342250D01*
X341750Y349499D01*
Y349998D01*
X342250Y350498D01*
X343250D01*
X343750Y349998D01*
Y348999D01*
X343250Y348499D01*
X335751Y339502D02*
X338750D01*
Y341001D01*
X338250Y341501D01*
X336250D01*
X335751Y341001D01*
Y339502D01*
X336250Y342501D02*
X335751Y343001D01*
Y344000D01*
X336250Y344500D01*
X336750D01*
X337250Y344000D01*
Y343500D01*
Y344000D01*
X337750Y344500D01*
X338250D01*
X338750Y344000D01*
Y343001D01*
X338250Y342501D01*
X339249Y345500D02*
Y347499D01*
X338750Y349998D02*
X335751D01*
X337250Y348499D01*
Y350498D01*
X419502Y184249D02*
Y181250D01*
X421001D01*
X421501Y181750D01*
Y183750D01*
X421001Y184249D01*
X419502D01*
X422501Y183750D02*
X423001Y184249D01*
X424000D01*
X424500Y183750D01*
Y183250D01*
X424000Y182750D01*
X423500D01*
X424000D01*
X424500Y182250D01*
Y181750D01*
X424000Y181250D01*
X423001D01*
X422501Y181750D01*
X425500Y180751D02*
X427499D01*
X428499Y183750D02*
X428999Y184249D01*
X429998D01*
X430498Y183750D01*
Y183250D01*
X429998Y182750D01*
X429498D01*
X429998D01*
X430498Y182250D01*
Y181750D01*
X429998Y181250D01*
X428999D01*
X428499Y181750D01*
X335002Y386749D02*
Y383750D01*
X336501D01*
X337001Y384250D01*
Y386250D01*
X336501Y386749D01*
X335002D01*
X338001Y386250D02*
X338500Y386749D01*
X339500D01*
X340000Y386250D01*
Y385750D01*
X339500Y385250D01*
X339000D01*
X339500D01*
X340000Y384750D01*
Y384250D01*
X339500Y383750D01*
X338500D01*
X338001Y384250D01*
X341000Y383251D02*
X342999D01*
X343999Y383750D02*
X344998D01*
X344498D01*
Y386749D01*
X343999Y386250D01*
X443251Y322252D02*
X446250D01*
Y323751D01*
X445750Y324251D01*
X443750D01*
X443251Y323751D01*
Y322252D01*
X446250Y325251D02*
Y326250D01*
Y325751D01*
X443251D01*
X443750Y325251D01*
X446749Y327750D02*
Y329749D01*
X443750Y330749D02*
X443251Y331249D01*
Y332248D01*
X443750Y332748D01*
X444250D01*
X444750Y332248D01*
Y331749D01*
Y332248D01*
X445250Y332748D01*
X445750D01*
X446250Y332248D01*
Y331249D01*
X445750Y330749D01*
X240251Y456250D02*
X239752Y456749D01*
X238752D01*
X238252Y456250D01*
Y454250D01*
X238752Y453750D01*
X239752D01*
X240251Y454250D01*
X242751Y453750D02*
Y456749D01*
X241251Y455250D01*
X243251D01*
X244250Y453251D02*
X246250D01*
X247249Y453750D02*
X248249D01*
X247749D01*
Y456749D01*
X247249Y456250D01*
X251248Y453750D02*
Y456749D01*
X249748Y455250D01*
X251748D01*
X460252Y474750D02*
X459752Y475249D01*
X458752D01*
X458252Y474750D01*
Y472750D01*
X458752Y472250D01*
X459752D01*
X460252Y472750D01*
X462751Y472250D02*
Y475249D01*
X461251Y473750D01*
X463251D01*
X464250Y471751D02*
X466250D01*
X467249Y472250D02*
X468249D01*
X467749D01*
Y475249D01*
X467249Y474750D01*
X469748D02*
X470248Y475249D01*
X471248D01*
X471748Y474750D01*
Y474250D01*
X471248Y473750D01*
X470748D01*
X471248D01*
X471748Y473250D01*
Y472750D01*
X471248Y472250D01*
X470248D01*
X469748Y472750D01*
X407751Y462750D02*
X407252Y463249D01*
X406252D01*
X405752Y462750D01*
Y460750D01*
X406252Y460250D01*
X407252D01*
X407751Y460750D01*
X410251Y460250D02*
Y463249D01*
X408751Y461750D01*
X410750D01*
X411750Y459751D02*
X413749D01*
X414749Y460250D02*
X415749D01*
X415249D01*
Y463249D01*
X414749Y462750D01*
X417248Y460250D02*
X418248D01*
X417748D01*
Y463249D01*
X417248Y462750D01*
X337752Y466250D02*
X337252Y466749D01*
X336252D01*
X335752Y466250D01*
Y464250D01*
X336252Y463750D01*
X337252D01*
X337752Y464250D01*
X340251Y463750D02*
Y466749D01*
X338751Y465250D01*
X340751D01*
X341750Y463251D02*
X343750D01*
X344749Y463750D02*
X345749D01*
X345249D01*
Y466749D01*
X344749Y466250D01*
X347249D02*
X347748Y466749D01*
X348748D01*
X349248Y466250D01*
Y464250D01*
X348748Y463750D01*
X347748D01*
X347249Y464250D01*
Y466250D01*
X311001Y462750D02*
X310501Y463249D01*
X309502D01*
X309002Y462750D01*
Y460750D01*
X309502Y460250D01*
X310501D01*
X311001Y460750D01*
X313500Y460250D02*
Y463249D01*
X312001Y461750D01*
X314000D01*
X315000Y459751D02*
X316999D01*
X317999Y462750D02*
X318499Y463249D01*
X319498D01*
X319998Y462750D01*
Y462250D01*
X319498Y461750D01*
X319998Y461250D01*
Y460750D01*
X319498Y460250D01*
X318499D01*
X317999Y460750D01*
Y461250D01*
X318499Y461750D01*
X317999Y462250D01*
Y462750D01*
X318499Y461750D02*
X319498D01*
X241501Y476250D02*
X241001Y476749D01*
X240002D01*
X239502Y476250D01*
Y474250D01*
X240002Y473750D01*
X241001D01*
X241501Y474250D01*
X244000Y473750D02*
Y476749D01*
X242501Y475250D01*
X244500D01*
X245500Y473251D02*
X247499D01*
X248499Y476749D02*
X250498D01*
Y476250D01*
X248499Y474250D01*
Y473750D01*
X241250Y421501D02*
X240751Y421001D01*
Y420002D01*
X241250Y419502D01*
X243250D01*
X243750Y420002D01*
Y421001D01*
X243250Y421501D01*
X243750Y424000D02*
X240751D01*
X242250Y422501D01*
Y424500D01*
X244249Y425500D02*
Y427499D01*
X240751Y430498D02*
Y428499D01*
X242250D01*
X241750Y429499D01*
Y429998D01*
X242250Y430498D01*
X243250D01*
X243750Y429998D01*
Y428999D01*
X243250Y428499D01*
X409501Y475250D02*
X409001Y475749D01*
X408002D01*
X407502Y475250D01*
Y473250D01*
X408002Y472750D01*
X409001D01*
X409501Y473250D01*
X412000Y472750D02*
Y475749D01*
X410501Y474250D01*
X412500D01*
X413500Y472251D02*
X415499D01*
X417998Y472750D02*
Y475749D01*
X416499Y474250D01*
X418498D01*
X311001Y474750D02*
X310501Y475249D01*
X309502D01*
X309002Y474750D01*
Y472750D01*
X309502Y472250D01*
X310501D01*
X311001Y472750D01*
X313500Y472250D02*
Y475249D01*
X312001Y473750D01*
X314000D01*
X315000Y471751D02*
X316999D01*
X317999Y474750D02*
X318499Y475249D01*
X319498D01*
X319998Y474750D01*
Y474250D01*
X319498Y473750D01*
X318999D01*
X319498D01*
X319998Y473250D01*
Y472750D01*
X319498Y472250D01*
X318499D01*
X317999Y472750D01*
X391501Y462750D02*
X391001Y463249D01*
X390002D01*
X389502Y462750D01*
Y460750D01*
X390002Y460250D01*
X391001D01*
X391501Y460750D01*
X394000Y460250D02*
Y463249D01*
X392501Y461750D01*
X394500D01*
X395500Y459751D02*
X397499D01*
X400498Y460250D02*
X398499D01*
X400498Y462250D01*
Y462750D01*
X399998Y463249D01*
X398999D01*
X398499Y462750D01*
X294501D02*
X294001Y463249D01*
X293002D01*
X292502Y462750D01*
Y460750D01*
X293002Y460250D01*
X294001D01*
X294501Y460750D01*
X297000Y460250D02*
Y463249D01*
X295501Y461750D01*
X297500D01*
X298500Y459751D02*
X300499D01*
X301499Y460250D02*
X302498D01*
X301998D01*
Y463249D01*
X301499Y462750D01*
X286250Y240251D02*
X285751Y239752D01*
Y238752D01*
X286250Y238252D01*
X288250D01*
X288750Y238752D01*
Y239752D01*
X288250Y240251D01*
X286250Y241251D02*
X285751Y241751D01*
Y242751D01*
X286250Y243251D01*
X286750D01*
X287250Y242751D01*
Y242251D01*
Y242751D01*
X287750Y243251D01*
X288250D01*
X288750Y242751D01*
Y241751D01*
X288250Y241251D01*
X289249Y244250D02*
Y246250D01*
X288750Y247249D02*
Y248249D01*
Y247749D01*
X285751D01*
X286250Y247249D01*
X288250Y249748D02*
X288750Y250248D01*
Y251248D01*
X288250Y251748D01*
X286250D01*
X285751Y251248D01*
Y250248D01*
X286250Y249748D01*
X286750D01*
X287250Y250248D01*
Y251748D01*
X268750Y240251D02*
X268251Y239752D01*
Y238752D01*
X268750Y238252D01*
X270750D01*
X271250Y238752D01*
Y239752D01*
X270750Y240251D01*
X268750Y241251D02*
X268251Y241751D01*
Y242751D01*
X268750Y243251D01*
X269250D01*
X269750Y242751D01*
Y242251D01*
Y242751D01*
X270250Y243251D01*
X270750D01*
X271250Y242751D01*
Y241751D01*
X270750Y241251D01*
X271749Y244250D02*
Y246250D01*
X271250Y247249D02*
Y248249D01*
Y247749D01*
X268251D01*
X268750Y247249D01*
Y249748D02*
X268251Y250248D01*
Y251248D01*
X268750Y251748D01*
X269250D01*
X269750Y251248D01*
X270250Y251748D01*
X270750D01*
X271250Y251248D01*
Y250248D01*
X270750Y249748D01*
X270250D01*
X269750Y250248D01*
X269250Y249748D01*
X268750D01*
X269750Y250248D02*
Y251248D01*
X400251Y178750D02*
X399752Y179249D01*
X398752D01*
X398252Y178750D01*
Y176750D01*
X398752Y176250D01*
X399752D01*
X400251Y176750D01*
X401251Y178750D02*
X401751Y179249D01*
X402751D01*
X403251Y178750D01*
Y178250D01*
X402751Y177750D01*
X402251D01*
X402751D01*
X403251Y177250D01*
Y176750D01*
X402751Y176250D01*
X401751D01*
X401251Y176750D01*
X404250Y175751D02*
X406250D01*
X407249Y176250D02*
X408249D01*
X407749D01*
Y179249D01*
X407249Y178750D01*
X409749Y179249D02*
X411748D01*
Y178750D01*
X409749Y176750D01*
Y176250D01*
X438750Y235251D02*
X438251Y234752D01*
Y233752D01*
X438750Y233252D01*
X440750D01*
X441250Y233752D01*
Y234752D01*
X440750Y235251D01*
X438750Y236251D02*
X438251Y236751D01*
Y237751D01*
X438750Y238251D01*
X439250D01*
X439750Y237751D01*
Y237251D01*
Y237751D01*
X440250Y238251D01*
X440750D01*
X441250Y237751D01*
Y236751D01*
X440750Y236251D01*
X441749Y239250D02*
Y241250D01*
X441250Y242249D02*
Y243249D01*
Y242749D01*
X438251D01*
X438750Y242249D01*
X438251Y246748D02*
X438750Y245748D01*
X439750Y244748D01*
X440750D01*
X441250Y245248D01*
Y246248D01*
X440750Y246748D01*
X440250D01*
X439750Y246248D01*
Y244748D01*
X187751Y238750D02*
X187252Y239249D01*
X186252D01*
X185752Y238750D01*
Y236750D01*
X186252Y236250D01*
X187252D01*
X187751Y236750D01*
X188751Y238750D02*
X189251Y239249D01*
X190251D01*
X190751Y238750D01*
Y238250D01*
X190251Y237750D01*
X189751D01*
X190251D01*
X190751Y237250D01*
Y236750D01*
X190251Y236250D01*
X189251D01*
X188751Y236750D01*
X191750Y235751D02*
X193750D01*
X194749Y236250D02*
X195749D01*
X195249D01*
Y239249D01*
X194749Y238750D01*
X199248Y239249D02*
X197248D01*
Y237750D01*
X198248Y238250D01*
X198748D01*
X199248Y237750D01*
Y236750D01*
X198748Y236250D01*
X197748D01*
X197248Y236750D01*
X187751Y248750D02*
X187252Y249249D01*
X186252D01*
X185752Y248750D01*
Y246750D01*
X186252Y246250D01*
X187252D01*
X187751Y246750D01*
X188751Y248750D02*
X189251Y249249D01*
X190251D01*
X190751Y248750D01*
Y248250D01*
X190251Y247750D01*
X189751D01*
X190251D01*
X190751Y247250D01*
Y246750D01*
X190251Y246250D01*
X189251D01*
X188751Y246750D01*
X191750Y245751D02*
X193750D01*
X194749Y246250D02*
X195749D01*
X195249D01*
Y249249D01*
X194749Y248750D01*
X198748Y246250D02*
Y249249D01*
X197248Y247750D01*
X199248D01*
X360251Y368750D02*
X359752Y369249D01*
X358752D01*
X358252Y368750D01*
Y366750D01*
X358752Y366250D01*
X359752D01*
X360251Y366750D01*
X361251Y368750D02*
X361751Y369249D01*
X362751D01*
X363251Y368750D01*
Y368250D01*
X362751Y367750D01*
X362251D01*
X362751D01*
X363251Y367250D01*
Y366750D01*
X362751Y366250D01*
X361751D01*
X361251Y366750D01*
X364250Y365751D02*
X366250D01*
X367249Y366250D02*
X368249D01*
X367749D01*
Y369249D01*
X367249Y368750D01*
X369748D02*
X370248Y369249D01*
X371248D01*
X371748Y368750D01*
Y368250D01*
X371248Y367750D01*
X370748D01*
X371248D01*
X371748Y367250D01*
Y366750D01*
X371248Y366250D01*
X370248D01*
X369748Y366750D01*
X237752Y251250D02*
X237252Y251749D01*
X236252D01*
X235752Y251250D01*
Y249250D01*
X236252Y248750D01*
X237252D01*
X237752Y249250D01*
X238751Y251250D02*
X239251Y251749D01*
X240251D01*
X240751Y251250D01*
Y250750D01*
X240251Y250250D01*
X239751D01*
X240251D01*
X240751Y249750D01*
Y249250D01*
X240251Y248750D01*
X239251D01*
X238751Y249250D01*
X241750Y248251D02*
X243750D01*
X244749Y248750D02*
X245749D01*
X245249D01*
Y251749D01*
X244749Y251250D01*
X249248Y248750D02*
X247249D01*
X249248Y250750D01*
Y251250D01*
X248748Y251749D01*
X247748D01*
X247249Y251250D01*
X293250Y300751D02*
X292750Y300252D01*
Y299252D01*
X293250Y298752D01*
X295249D01*
X295749Y299252D01*
Y300252D01*
X295249Y300751D01*
X293250Y301751D02*
X292750Y302251D01*
Y303251D01*
X293250Y303750D01*
X293750D01*
X294249Y303251D01*
Y302751D01*
Y303251D01*
X294749Y303750D01*
X295249D01*
X295749Y303251D01*
Y302251D01*
X295249Y301751D01*
X296249Y304750D02*
Y306749D01*
X295749Y307749D02*
Y308749D01*
Y308249D01*
X292750D01*
X293250Y307749D01*
X295749Y310248D02*
Y311248D01*
Y310748D01*
X292750D01*
X293250Y310248D01*
X260251Y308750D02*
X259752Y309249D01*
X258752D01*
X258252Y308750D01*
Y306750D01*
X258752Y306250D01*
X259752D01*
X260251Y306750D01*
X261251Y308750D02*
X261751Y309249D01*
X262751D01*
X263251Y308750D01*
Y308250D01*
X262751Y307750D01*
X262251D01*
X262751D01*
X263251Y307250D01*
Y306750D01*
X262751Y306250D01*
X261751D01*
X261251Y306750D01*
X264250Y305751D02*
X266250D01*
X267249Y306250D02*
X268249D01*
X267749D01*
Y309249D01*
X267249Y308750D01*
X269748D02*
X270248Y309249D01*
X271248D01*
X271748Y308750D01*
Y306750D01*
X271248Y306250D01*
X270248D01*
X269748Y306750D01*
Y308750D01*
X296250Y319001D02*
X295751Y318501D01*
Y317502D01*
X296250Y317002D01*
X298250D01*
X298750Y317502D01*
Y318501D01*
X298250Y319001D01*
X296250Y320001D02*
X295751Y320501D01*
Y321500D01*
X296250Y322000D01*
X296750D01*
X297250Y321500D01*
Y321001D01*
Y321500D01*
X297750Y322000D01*
X298250D01*
X298750Y321500D01*
Y320501D01*
X298250Y320001D01*
X299249Y323000D02*
Y324999D01*
X298250Y325999D02*
X298750Y326499D01*
Y327498D01*
X298250Y327998D01*
X296250D01*
X295751Y327498D01*
Y326499D01*
X296250Y325999D01*
X296750D01*
X297250Y326499D01*
Y327998D01*
X304001Y278750D02*
X303501Y279249D01*
X302502D01*
X302002Y278750D01*
Y276750D01*
X302502Y276250D01*
X303501D01*
X304001Y276750D01*
X305001Y278750D02*
X305501Y279249D01*
X306500D01*
X307000Y278750D01*
Y278250D01*
X306500Y277750D01*
X306000D01*
X306500D01*
X307000Y277250D01*
Y276750D01*
X306500Y276250D01*
X305501D01*
X305001Y276750D01*
X308000Y275751D02*
X309999D01*
X310999Y278750D02*
X311499Y279249D01*
X312498D01*
X312998Y278750D01*
Y278250D01*
X312498Y277750D01*
X312998Y277250D01*
Y276750D01*
X312498Y276250D01*
X311499D01*
X310999Y276750D01*
Y277250D01*
X311499Y277750D01*
X310999Y278250D01*
Y278750D01*
X311499Y277750D02*
X312498D01*
X304001Y233750D02*
X303501Y234249D01*
X302502D01*
X302002Y233750D01*
Y231750D01*
X302502Y231250D01*
X303501D01*
X304001Y231750D01*
X305001Y233750D02*
X305501Y234249D01*
X306500D01*
X307000Y233750D01*
Y233250D01*
X306500Y232750D01*
X306000D01*
X306500D01*
X307000Y232250D01*
Y231750D01*
X306500Y231250D01*
X305501D01*
X305001Y231750D01*
X308000Y230751D02*
X309999D01*
X310999Y234249D02*
X312998D01*
Y233750D01*
X310999Y231750D01*
Y231250D01*
X239281Y299241D02*
X238781Y298742D01*
Y297742D01*
X239281Y297242D01*
X241280D01*
X241780Y297742D01*
Y298742D01*
X241280Y299241D01*
X239281Y300241D02*
X238781Y300741D01*
Y301741D01*
X239281Y302240D01*
X239781D01*
X240281Y301741D01*
Y301241D01*
Y301741D01*
X240780Y302240D01*
X241280D01*
X241780Y301741D01*
Y300741D01*
X241280Y300241D01*
X242280Y303240D02*
Y305239D01*
X238781Y308238D02*
X239281Y307239D01*
X240281Y306239D01*
X241280D01*
X241780Y306739D01*
Y307739D01*
X241280Y308238D01*
X240780D01*
X240281Y307739D01*
Y306239D01*
X239001Y246250D02*
X238501Y246749D01*
X237502D01*
X237002Y246250D01*
Y244250D01*
X237502Y243750D01*
X238501D01*
X239001Y244250D01*
X240001Y246250D02*
X240501Y246749D01*
X241500D01*
X242000Y246250D01*
Y245750D01*
X241500Y245250D01*
X241001D01*
X241500D01*
X242000Y244750D01*
Y244250D01*
X241500Y243750D01*
X240501D01*
X240001Y244250D01*
X243000Y243251D02*
X244999D01*
X247998Y246749D02*
X245999D01*
Y245250D01*
X246999Y245750D01*
X247498D01*
X247998Y245250D01*
Y244250D01*
X247498Y243750D01*
X246499D01*
X245999Y244250D01*
X239001Y241250D02*
X238501Y241749D01*
X237502D01*
X237002Y241250D01*
Y239250D01*
X237502Y238750D01*
X238501D01*
X239001Y239250D01*
X240001Y241250D02*
X240501Y241749D01*
X241500D01*
X242000Y241250D01*
Y240750D01*
X241500Y240250D01*
X241001D01*
X241500D01*
X242000Y239750D01*
Y239250D01*
X241500Y238750D01*
X240501D01*
X240001Y239250D01*
X243000Y238251D02*
X244999D01*
X247498Y238750D02*
Y241749D01*
X245999Y240250D01*
X247998D01*
X296250Y339001D02*
X295751Y338501D01*
Y337502D01*
X296250Y337002D01*
X298250D01*
X298750Y337502D01*
Y338501D01*
X298250Y339001D01*
X296250Y340001D02*
X295751Y340501D01*
Y341500D01*
X296250Y342000D01*
X296750D01*
X297250Y341500D01*
Y341001D01*
Y341500D01*
X297750Y342000D01*
X298250D01*
X298750Y341500D01*
Y340501D01*
X298250Y340001D01*
X299249Y343000D02*
Y344999D01*
X296250Y345999D02*
X295751Y346499D01*
Y347498D01*
X296250Y347998D01*
X296750D01*
X297250Y347498D01*
Y346999D01*
Y347498D01*
X297750Y347998D01*
X298250D01*
X298750Y347498D01*
Y346499D01*
X298250Y345999D01*
X331501Y278750D02*
X331001Y279249D01*
X330002D01*
X329502Y278750D01*
Y276750D01*
X330002Y276250D01*
X331001D01*
X331501Y276750D01*
X332501Y278750D02*
X333001Y279249D01*
X334000D01*
X334500Y278750D01*
Y278250D01*
X334000Y277750D01*
X333501D01*
X334000D01*
X334500Y277250D01*
Y276750D01*
X334000Y276250D01*
X333001D01*
X332501Y276750D01*
X335500Y275751D02*
X337499D01*
X340498Y276250D02*
X338499D01*
X340498Y278250D01*
Y278750D01*
X339998Y279249D01*
X338999D01*
X338499Y278750D01*
X332001Y233750D02*
X331501Y234249D01*
X330502D01*
X330002Y233750D01*
Y231750D01*
X330502Y231250D01*
X331501D01*
X332001Y231750D01*
X333001Y233750D02*
X333501Y234249D01*
X334500D01*
X335000Y233750D01*
Y233250D01*
X334500Y232750D01*
X334000D01*
X334500D01*
X335000Y232250D01*
Y231750D01*
X334500Y231250D01*
X333501D01*
X333001Y231750D01*
X336000Y230751D02*
X337999D01*
X338999Y231250D02*
X339998D01*
X339498D01*
Y234249D01*
X338999Y233750D01*
X397001Y93750D02*
X396501Y94249D01*
X395501D01*
X395002Y93750D01*
Y91750D01*
X395501Y91250D01*
X396501D01*
X397001Y91750D01*
X400000Y91250D02*
X398001D01*
X400000Y93250D01*
Y93750D01*
X399500Y94249D01*
X398500D01*
X398001Y93750D01*
X401000Y90751D02*
X402999D01*
X403999Y91250D02*
X404998D01*
X404498D01*
Y94249D01*
X403999Y93750D01*
X294251Y61250D02*
X293751Y61749D01*
X292752D01*
X292252Y61250D01*
Y59250D01*
X292752Y58750D01*
X293751D01*
X294251Y59250D01*
X295251Y58750D02*
X296250D01*
X295751D01*
Y61749D01*
X295251Y61250D01*
X297750Y58251D02*
X299749D01*
X300749Y61749D02*
X302748D01*
Y61250D01*
X300749Y59250D01*
Y58750D01*
X294251Y36250D02*
X293751Y36749D01*
X292752D01*
X292252Y36250D01*
Y34250D01*
X292752Y33750D01*
X293751D01*
X294251Y34250D01*
X295251Y33750D02*
X296250D01*
X295751D01*
Y36749D01*
X295251Y36250D01*
X297750Y33251D02*
X299749D01*
X302748Y36749D02*
X301749Y36250D01*
X300749Y35250D01*
Y34250D01*
X301249Y33750D01*
X302249D01*
X302748Y34250D01*
Y34750D01*
X302249Y35250D01*
X300749D01*
X594499Y259499D02*
X593999Y259999D01*
X593000D01*
X592500Y259499D01*
Y257500D01*
X593000Y257000D01*
X593999D01*
X594499Y257500D01*
X595499Y257000D02*
X596499D01*
X595999D01*
Y259999D01*
X595499Y259499D01*
X597998Y256500D02*
X599998D01*
X602997Y259999D02*
X600997D01*
Y258500D01*
X601997Y258999D01*
X602497D01*
X602997Y258500D01*
Y257500D01*
X602497Y257000D01*
X601497D01*
X600997Y257500D01*
X443750Y356751D02*
X443251Y356251D01*
Y355252D01*
X443750Y354752D01*
X445750D01*
X446250Y355252D01*
Y356251D01*
X445750Y356751D01*
X446250Y357751D02*
Y358750D01*
Y358251D01*
X443251D01*
X443750Y357751D01*
X446749Y360250D02*
Y362249D01*
X446250Y364749D02*
X443251D01*
X444750Y363249D01*
Y365248D01*
X273750Y86751D02*
X273251Y86251D01*
Y85251D01*
X273750Y84752D01*
X275750D01*
X276250Y85251D01*
Y86251D01*
X275750Y86751D01*
X276250Y87751D02*
Y88750D01*
Y88251D01*
X273251D01*
X273750Y87751D01*
X276749Y90250D02*
Y92249D01*
X273750Y93249D02*
X273251Y93749D01*
Y94749D01*
X273750Y95248D01*
X274250D01*
X274750Y94749D01*
Y94249D01*
Y94749D01*
X275250Y95248D01*
X275750D01*
X276250Y94749D01*
Y93749D01*
X275750Y93249D01*
X333750Y101751D02*
X333251Y101251D01*
Y100251D01*
X333750Y99752D01*
X335750D01*
X336250Y100251D01*
Y101251D01*
X335750Y101751D01*
X336250Y102751D02*
Y103750D01*
Y103251D01*
X333251D01*
X333750Y102751D01*
X336749Y105250D02*
Y107249D01*
X336250Y110248D02*
Y108249D01*
X334250Y110248D01*
X333750D01*
X333251Y109748D01*
Y108749D01*
X333750Y108249D01*
X333750Y54751D02*
X333251Y54251D01*
Y53251D01*
X333750Y52751D01*
X335750D01*
X336250Y53251D01*
Y54251D01*
X335750Y54751D01*
X336250Y55751D02*
Y56750D01*
Y56250D01*
X333251D01*
X333750Y55751D01*
X336749Y58250D02*
Y60249D01*
X336250Y61249D02*
Y62248D01*
Y61749D01*
X333251D01*
X333750Y61249D01*
D15*
X302598Y25667D02*
X304598D01*
X303598D01*
Y22668D01*
X306097Y24667D02*
X307097D01*
X307597Y24167D01*
Y22668D01*
X306097D01*
X305597Y23168D01*
X306097Y23667D01*
X307597D01*
X308596Y22668D02*
Y24667D01*
X310096D01*
X310596Y24167D01*
Y22668D01*
X311596D02*
Y25667D01*
Y23667D02*
X313095Y24667D01*
X311596Y23667D02*
X313095Y22668D01*
X317594D02*
Y24667D01*
X318593Y25667D01*
X319593Y24667D01*
Y22668D01*
Y24167D01*
X317594D01*
X320593Y22668D02*
X321592D01*
X321092D01*
Y25667D01*
X320593D01*
X323092Y21668D02*
Y24667D01*
X324591D01*
X325091Y24167D01*
Y23168D01*
X324591Y22668D01*
X323092D01*
X326091Y25667D02*
Y22668D01*
Y24167D01*
X326591Y24667D01*
X327590D01*
X328090Y24167D01*
Y22668D01*
X329590Y24667D02*
X330589D01*
X331089Y24167D01*
Y22668D01*
X329590D01*
X329090Y23168D01*
X329590Y23667D01*
X331089D01*
X302598Y16633D02*
Y19632D01*
X304098D01*
X304598Y19132D01*
Y18133D01*
X304098Y17633D01*
X302598D01*
X303598D02*
X304598Y16633D01*
X307097D02*
X306097D01*
X305597Y17133D01*
Y18133D01*
X306097Y18632D01*
X307097D01*
X307597Y18133D01*
Y17633D01*
X305597D01*
X308596Y18632D02*
X309596Y16633D01*
X310596Y18632D01*
X311596Y16633D02*
Y17133D01*
X312095D01*
Y16633D01*
X311596D01*
X319093Y19132D02*
X318593Y19632D01*
X317594D01*
X317094Y19132D01*
Y17133D01*
X317594Y16633D01*
X318593D01*
X319093Y17133D01*
X302598Y14597D02*
Y11598D01*
X304098D01*
X304598Y12098D01*
Y14097D01*
X304098Y14597D01*
X302598D01*
X307097Y11598D02*
X306097D01*
X305597Y12098D01*
Y13098D01*
X306097Y13598D01*
X307097D01*
X307597Y13098D01*
Y12598D01*
X305597D01*
X308596Y11598D02*
X310096D01*
X310596Y12098D01*
X310096Y12598D01*
X309096D01*
X308596Y13098D01*
X309096Y13598D01*
X310596D01*
X311596Y11598D02*
X312595D01*
X312095D01*
Y13598D01*
X311596D01*
X315094Y10598D02*
X315594D01*
X316094Y11098D01*
Y13598D01*
X314595D01*
X314095Y13098D01*
Y12098D01*
X314595Y11598D01*
X316094D01*
X317094D02*
Y13598D01*
X318593D01*
X319093Y13098D01*
Y11598D01*
X321592D02*
X320593D01*
X320093Y12098D01*
Y13098D01*
X320593Y13598D01*
X321592D01*
X322092Y13098D01*
Y12598D01*
X320093D01*
X323092Y13598D02*
Y11598D01*
Y12598D01*
X323592Y13098D01*
X324092Y13598D01*
X324591D01*
X326091D02*
X326591D01*
Y13098D01*
X326091D01*
Y13598D01*
Y12098D02*
X326591D01*
Y11598D01*
X326091D01*
Y12098D01*
X333588Y14597D02*
X332589D01*
X333089D01*
Y12098D01*
X332589Y11598D01*
X332089D01*
X331589Y12098D01*
X335088Y11598D02*
X336088D01*
X336587Y12098D01*
Y13098D01*
X336088Y13598D01*
X335088D01*
X334588Y13098D01*
Y12098D01*
X335088Y11598D01*
X337587Y14597D02*
Y11598D01*
Y13098D01*
X338087Y13598D01*
X339087D01*
X339586Y13098D01*
Y11598D01*
X340586D02*
Y13598D01*
X342086D01*
X342585Y13098D01*
Y11598D01*
X343585Y13098D02*
X345585D01*
X346584Y14597D02*
Y11598D01*
X347584Y12598D01*
X348584Y11598D01*
Y14597D01*
X349583Y11598D02*
X350583D01*
X350083D01*
Y13598D01*
X349583D01*
X352082Y11598D02*
X353082D01*
X352582D01*
Y14597D01*
X352082D01*
X354582Y11598D02*
X355581D01*
X355081D01*
Y14597D01*
X354582D01*
X357081Y11598D02*
X358081D01*
X357581D01*
Y13598D01*
X357081D01*
X360080D02*
X361080D01*
X361579Y13098D01*
Y11598D01*
X360080D01*
X359580Y12098D01*
X360080Y12598D01*
X361579D01*
X362579Y11598D02*
Y13598D01*
X363079D01*
X363579Y13098D01*
Y11598D01*
Y13098D01*
X364078Y13598D01*
X364578Y13098D01*
Y11598D01*
X368577Y14597D02*
Y11598D01*
X370576D01*
X373076D02*
X372076D01*
X371576Y12098D01*
Y13098D01*
X372076Y13598D01*
X373076D01*
X373575Y13098D01*
Y12598D01*
X371576D01*
X374575Y14597D02*
Y11598D01*
X376075D01*
X376574Y12098D01*
Y12598D01*
Y13098D01*
X376075Y13598D01*
X374575D01*
X379074Y11598D02*
X378074D01*
X377574Y12098D01*
Y13098D01*
X378074Y13598D01*
X379074D01*
X379573Y13098D01*
Y12598D01*
X377574D01*
X380573Y11598D02*
X381573D01*
X381073D01*
Y14597D01*
X380573D01*
X350751Y434502D02*
X353250D01*
X353750Y435002D01*
Y436001D01*
X353250Y436501D01*
X350751D01*
X353750Y439000D02*
X350751D01*
X352250Y437501D01*
Y439500D01*
X354249Y440500D02*
Y442499D01*
X353750Y445498D02*
Y443499D01*
X351750Y445498D01*
X351250D01*
X350751Y444998D01*
Y443999D01*
X351250Y443499D01*
X357500Y347000D02*
Y349999D01*
X358999D01*
X359499Y349499D01*
Y348499D01*
X358999Y348000D01*
X357500D01*
X358500D02*
X359499Y347000D01*
X361999D02*
Y349999D01*
X360499Y348499D01*
X362498D01*
X363498Y346500D02*
X365497D01*
X366497Y347000D02*
X367497D01*
X366997D01*
Y349999D01*
X366497Y349499D01*
X370996Y349999D02*
X368996D01*
Y348499D01*
X369996Y348999D01*
X370496D01*
X370996Y348499D01*
Y347500D01*
X370496Y347000D01*
X369496D01*
X368996Y347500D01*
X491501Y493750D02*
X491001Y494249D01*
X490002D01*
X489502Y493750D01*
Y491750D01*
X490002Y491250D01*
X491001D01*
X491501Y491750D01*
X494500Y491250D02*
X492501D01*
X494500Y493250D01*
Y493750D01*
X494000Y494249D01*
X493001D01*
X492501Y493750D01*
X495500Y490751D02*
X497499D01*
X499998Y491250D02*
Y494249D01*
X498499Y492750D01*
X500498D01*
X476501Y58750D02*
X476001Y59249D01*
X475002D01*
X474502Y58750D01*
Y56750D01*
X475002Y56250D01*
X476001D01*
X476501Y56750D01*
X479500Y56250D02*
X477501D01*
X479500Y58250D01*
Y58750D01*
X479000Y59249D01*
X478001D01*
X477501Y58750D01*
X480500Y55751D02*
X482499D01*
X483499Y58750D02*
X483999Y59249D01*
X484998D01*
X485498Y58750D01*
Y58250D01*
X484998Y57750D01*
X484499D01*
X484998D01*
X485498Y57250D01*
Y56750D01*
X484998Y56250D01*
X483999D01*
X483499Y56750D01*
X253251Y435002D02*
X255750D01*
X256250Y435501D01*
Y436501D01*
X255750Y437001D01*
X253251D01*
X256250Y439500D02*
X253251D01*
X254750Y438001D01*
Y440000D01*
X256749Y441000D02*
Y442999D01*
X256250Y443999D02*
Y444998D01*
Y444498D01*
X253251D01*
X253750Y443999D01*
X577700Y246000D02*
Y248999D01*
X579200D01*
X579699Y248499D01*
Y247499D01*
X579200Y247000D01*
X577700D01*
X580699Y246000D02*
X581699D01*
X581199D01*
Y248999D01*
X580699Y248499D01*
X583198Y245500D02*
X585198D01*
X588197Y246000D02*
X586197D01*
X588197Y247999D01*
Y248499D01*
X587697Y248999D01*
X586697D01*
X586197Y248499D01*
X459001Y161250D02*
X458501Y161749D01*
X457502D01*
X457002Y161250D01*
Y159250D01*
X457502Y158750D01*
X458501D01*
X459001Y159250D01*
X462000Y158750D02*
X460001D01*
X462000Y160750D01*
Y161250D01*
X461500Y161749D01*
X460501D01*
X460001Y161250D01*
X463000Y158251D02*
X464999D01*
X467998Y158750D02*
X465999D01*
X467998Y160750D01*
Y161250D01*
X467498Y161749D01*
X466499D01*
X465999Y161250D01*
X473750Y478252D02*
X470751D01*
Y479752D01*
X471250Y480252D01*
X472250D01*
X472750Y479752D01*
Y478252D01*
Y479252D02*
X473750Y480252D01*
Y482751D02*
X470751D01*
X472250Y481251D01*
Y483251D01*
X474249Y484250D02*
Y486250D01*
X473750Y487249D02*
Y488249D01*
Y487749D01*
X470751D01*
X471250Y487249D01*
Y489748D02*
X470751Y490248D01*
Y491248D01*
X471250Y491748D01*
X471750D01*
X472250Y491248D01*
Y490748D01*
Y491248D01*
X472750Y491748D01*
X473250D01*
X473750Y491248D01*
Y490248D01*
X473250Y489748D01*
D16*
X376250Y323252D02*
X373251D01*
Y324752D01*
X373750Y325252D01*
X374750D01*
X375250Y324752D01*
Y323252D01*
Y324252D02*
X376250Y325252D01*
Y327751D02*
X373251D01*
X374750Y326251D01*
Y328251D01*
X376749Y329250D02*
Y331250D01*
X376250Y332249D02*
Y333249D01*
Y332749D01*
X373251D01*
X373750Y332249D01*
X376250Y336248D02*
X373251D01*
X374750Y334749D01*
Y336748D01*
X237252Y4791D02*
X277252D01*
M02*
