G04*
G04 #@! TF.GenerationSoftware,Altium Limited,Altium Designer,20.0.7 (75)*
G04*
G04 Layer_Color=8421504*
%FSLAX25Y25*%
%MOIN*%
G70*
G01*
G75*
%ADD10C,0.01000*%
%ADD16C,0.00500*%
%ADD17R,0.20472X0.07874*%
%ADD18R,0.01772X0.05807*%
%ADD19R,0.04331X0.06693*%
%ADD20R,0.23622X0.07874*%
%ADD21R,0.15000X0.04000*%
%ADD22R,0.45000X0.44000*%
%ADD23R,0.06299X0.11811*%
%ADD24R,0.11024X0.12598*%
%ADD25R,0.05236X0.05236*%
%ADD26R,0.07874X0.03543*%
%ADD27R,0.03543X0.07874*%
%ADD28R,0.06693X0.04331*%
%ADD29R,0.02362X0.03347*%
%ADD30R,0.05807X0.01772*%
%ADD31R,0.05906X0.14567*%
%ADD32R,0.07874X0.05118*%
%ADD33R,0.05118X0.07874*%
%ADD34R,0.01575X0.05512*%
%ADD35R,0.07874X0.07874*%
%ADD36R,0.07480X0.07874*%
%ADD37R,0.06693X0.01772*%
%ADD38R,0.03937X0.02362*%
%ADD39R,0.21000X0.09500*%
%ADD40R,0.09500X0.21000*%
%ADD41R,0.10630X0.10630*%
G04:AMPARAMS|DCode=42|XSize=9.84mil|YSize=25.59mil|CornerRadius=0mil|HoleSize=0mil|Usage=FLASHONLY|Rotation=0.000|XOffset=0mil|YOffset=0mil|HoleType=Round|Shape=Octagon|*
%AMOCTAGOND42*
4,1,8,-0.00246,0.01280,0.00246,0.01280,0.00492,0.01034,0.00492,-0.01034,0.00246,-0.01280,-0.00246,-0.01280,-0.00492,-0.01034,-0.00492,0.01034,-0.00246,0.01280,0.0*
%
%ADD42OCTAGOND42*%

%ADD43R,0.00984X0.02559*%
%ADD44R,0.02559X0.00984*%
G04:AMPARAMS|DCode=45|XSize=9.84mil|YSize=25.59mil|CornerRadius=0mil|HoleSize=0mil|Usage=FLASHONLY|Rotation=90.000|XOffset=0mil|YOffset=0mil|HoleType=Round|Shape=Octagon|*
%AMOCTAGOND45*
4,1,8,-0.01280,-0.00246,-0.01280,0.00246,-0.01034,0.00492,0.01034,0.00492,0.01280,0.00246,0.01280,-0.00246,0.01034,-0.00492,-0.01034,-0.00492,-0.01280,-0.00246,0.0*
%
%ADD45OCTAGOND45*%

%ADD46R,0.05512X0.04331*%
D10*
X625000Y245000D02*
X625000Y10000D01*
X620000Y5000D02*
X625000Y10000D01*
X570000Y300000D02*
X625000Y245000D01*
X180000Y5000D02*
X620000D01*
X175000Y10000D02*
X180000Y5000D01*
X175000Y10000D02*
Y15000D01*
X175000D02*
X175000D01*
X175000D02*
Y245000D01*
X230000Y300000D01*
Y540000D02*
X235000Y545000D01*
X230000Y300000D02*
Y540000D01*
X570000Y300000D02*
Y540000D01*
X565000Y545000D02*
X570000Y540000D01*
X235000Y545000D02*
X565000D01*
D16*
X237252Y4791D02*
X277252D01*
D17*
X375000Y432500D02*
D03*
X277500D02*
D03*
D18*
X391634Y420933D02*
D03*
X389075D02*
D03*
X386516D02*
D03*
X383957D02*
D03*
X381398D02*
D03*
X378839D02*
D03*
X376279D02*
D03*
X373721D02*
D03*
X371161D02*
D03*
X368602D02*
D03*
X366043D02*
D03*
X363484D02*
D03*
X360925D02*
D03*
X358366D02*
D03*
Y444067D02*
D03*
X360925D02*
D03*
X363484D02*
D03*
X366043D02*
D03*
X368602D02*
D03*
X371161D02*
D03*
X373721D02*
D03*
X376279D02*
D03*
X378839D02*
D03*
X381398D02*
D03*
X383957D02*
D03*
X386516D02*
D03*
X389075D02*
D03*
X391634D02*
D03*
X294134D02*
D03*
X291575D02*
D03*
X289016D02*
D03*
X286457D02*
D03*
X283898D02*
D03*
X281339D02*
D03*
X278780D02*
D03*
X276220D02*
D03*
X273661D02*
D03*
X271102D02*
D03*
X268543D02*
D03*
X265984D02*
D03*
X263425D02*
D03*
X260866D02*
D03*
Y420933D02*
D03*
X263425D02*
D03*
X265984D02*
D03*
X268543D02*
D03*
X271102D02*
D03*
X273661D02*
D03*
X276220D02*
D03*
X278780D02*
D03*
X281339D02*
D03*
X283898D02*
D03*
X286457D02*
D03*
X289016D02*
D03*
X291575D02*
D03*
X294134D02*
D03*
D19*
X359685Y340000D02*
D03*
X370315D02*
D03*
X247185Y302500D02*
D03*
X257815D02*
D03*
X309685Y455000D02*
D03*
X320315D02*
D03*
X302815D02*
D03*
X292185D02*
D03*
X417815Y467500D02*
D03*
X407185D02*
D03*
X407815Y115374D02*
D03*
X397185D02*
D03*
X407815Y125374D02*
D03*
X397185D02*
D03*
X390315Y115374D02*
D03*
X379685D02*
D03*
X390315Y125374D02*
D03*
X379685D02*
D03*
X359685Y330000D02*
D03*
X370315D02*
D03*
X320315Y467500D02*
D03*
X309685D02*
D03*
X254685Y475000D02*
D03*
X265315D02*
D03*
X254685Y465000D02*
D03*
X265315D02*
D03*
X254685Y455000D02*
D03*
X265315D02*
D03*
X302815Y467500D02*
D03*
X292185D02*
D03*
X407185Y455000D02*
D03*
X417815D02*
D03*
X362815Y465000D02*
D03*
X352185D02*
D03*
X389685Y467500D02*
D03*
X400315D02*
D03*
Y455000D02*
D03*
X389685D02*
D03*
X359685Y320000D02*
D03*
X370315D02*
D03*
X362815Y455000D02*
D03*
X352185D02*
D03*
X470315Y467500D02*
D03*
X459685D02*
D03*
X405315Y85000D02*
D03*
X394685D02*
D03*
X594685Y250000D02*
D03*
X605315D02*
D03*
X302815Y52500D02*
D03*
X292185D02*
D03*
Y42500D02*
D03*
X302815D02*
D03*
X320315D02*
D03*
X309685D02*
D03*
X320315Y52500D02*
D03*
X309685D02*
D03*
X410315Y200000D02*
D03*
X399685D02*
D03*
X202185Y237500D02*
D03*
X212815D02*
D03*
X202185Y247500D02*
D03*
X212815D02*
D03*
X419685Y210000D02*
D03*
X430315D02*
D03*
Y190000D02*
D03*
X419685D02*
D03*
Y200000D02*
D03*
X430315D02*
D03*
X399685Y190000D02*
D03*
X410315D02*
D03*
Y210000D02*
D03*
X399685D02*
D03*
X370315Y375000D02*
D03*
X359685D02*
D03*
X305315Y380000D02*
D03*
X294685D02*
D03*
X312185Y385000D02*
D03*
X322815D02*
D03*
X337185Y392500D02*
D03*
X347815D02*
D03*
X354685D02*
D03*
X365315D02*
D03*
X354685Y402500D02*
D03*
X365315D02*
D03*
X337185D02*
D03*
X347815D02*
D03*
X239685Y277500D02*
D03*
X250315D02*
D03*
X292185Y220000D02*
D03*
X302815D02*
D03*
X292185Y210000D02*
D03*
X302815D02*
D03*
Y200000D02*
D03*
X292185D02*
D03*
X285315D02*
D03*
X274685D02*
D03*
Y210000D02*
D03*
X285315D02*
D03*
X274685Y220000D02*
D03*
X285315D02*
D03*
X232815Y267500D02*
D03*
X222185D02*
D03*
Y277500D02*
D03*
X232815D02*
D03*
Y257500D02*
D03*
X222185D02*
D03*
X239685Y267500D02*
D03*
X250315D02*
D03*
X239685Y257500D02*
D03*
X250315D02*
D03*
X304685Y285000D02*
D03*
X315315D02*
D03*
X304685Y240000D02*
D03*
X315315D02*
D03*
X332185D02*
D03*
X342815D02*
D03*
X332185Y285000D02*
D03*
X342815D02*
D03*
D20*
X535000Y462500D02*
D03*
X497000D02*
D03*
X465000Y130000D02*
D03*
X427000D02*
D03*
X465000Y35000D02*
D03*
X427000D02*
D03*
D21*
X417500Y260900D02*
D03*
Y247500D02*
D03*
Y240800D02*
D03*
Y234100D02*
D03*
Y254200D02*
D03*
D22*
X377500Y247500D02*
D03*
D23*
X410000Y422500D02*
D03*
Y439823D02*
D03*
X312500Y422500D02*
D03*
Y439823D02*
D03*
D24*
X470000Y197500D02*
D03*
Y230571D02*
D03*
X487716Y197500D02*
D03*
Y230571D02*
D03*
X527500Y197500D02*
D03*
Y230571D02*
D03*
X545217Y197500D02*
D03*
Y230571D02*
D03*
D25*
X499689Y330216D02*
D03*
X492465D02*
D03*
X485240D02*
D03*
X499689Y315767D02*
D03*
Y322991D02*
D03*
X492465Y315767D02*
D03*
Y322991D02*
D03*
X485240Y315767D02*
D03*
Y322991D02*
D03*
D26*
X531929Y352500D02*
D03*
Y347500D02*
D03*
Y342500D02*
D03*
Y337500D02*
D03*
Y332500D02*
D03*
Y327500D02*
D03*
Y322500D02*
D03*
Y317500D02*
D03*
Y312500D02*
D03*
Y307500D02*
D03*
Y302500D02*
D03*
Y297500D02*
D03*
Y292500D02*
D03*
Y287500D02*
D03*
X465000D02*
D03*
Y292500D02*
D03*
Y297500D02*
D03*
Y302500D02*
D03*
Y307500D02*
D03*
Y312500D02*
D03*
Y317500D02*
D03*
Y322500D02*
D03*
Y327500D02*
D03*
Y332500D02*
D03*
Y337500D02*
D03*
Y342500D02*
D03*
Y347500D02*
D03*
Y352500D02*
D03*
D27*
X520965Y283563D02*
D03*
X515965D02*
D03*
X510965D02*
D03*
X505965D02*
D03*
X500965D02*
D03*
X495965D02*
D03*
X490965D02*
D03*
X485965D02*
D03*
X480965D02*
D03*
X475965D02*
D03*
D28*
X435000Y339685D02*
D03*
Y350315D02*
D03*
X250000Y430315D02*
D03*
Y419685D02*
D03*
X462500Y265315D02*
D03*
Y254685D02*
D03*
X452500Y265315D02*
D03*
Y254685D02*
D03*
X442500Y265315D02*
D03*
Y254685D02*
D03*
X432500Y265315D02*
D03*
Y254685D02*
D03*
X445000Y285315D02*
D03*
Y274685D02*
D03*
X435000Y285315D02*
D03*
Y274685D02*
D03*
X425000Y285315D02*
D03*
Y274685D02*
D03*
X415000Y285315D02*
D03*
Y274685D02*
D03*
X465000Y479685D02*
D03*
Y490315D02*
D03*
X552500Y335000D02*
D03*
Y324370D02*
D03*
Y355315D02*
D03*
Y344685D02*
D03*
X560000Y52815D02*
D03*
Y42185D02*
D03*
X570000D02*
D03*
Y52815D02*
D03*
X560000Y22185D02*
D03*
Y32815D02*
D03*
X570000D02*
D03*
Y22185D02*
D03*
X445000Y339685D02*
D03*
Y350315D02*
D03*
X335000Y84685D02*
D03*
Y95315D02*
D03*
Y67185D02*
D03*
Y77815D02*
D03*
X282500Y95315D02*
D03*
Y84685D02*
D03*
X345000D02*
D03*
Y95315D02*
D03*
X355000Y84685D02*
D03*
Y95315D02*
D03*
X345000Y77815D02*
D03*
Y67185D02*
D03*
X515500Y228315D02*
D03*
Y217685D02*
D03*
X445000Y307185D02*
D03*
Y317815D02*
D03*
X435000D02*
D03*
Y307185D02*
D03*
X515500Y208315D02*
D03*
Y197685D02*
D03*
X457500Y196870D02*
D03*
Y207500D02*
D03*
X355000Y77815D02*
D03*
Y67185D02*
D03*
X432500Y245315D02*
D03*
Y234685D02*
D03*
X330000Y350315D02*
D03*
Y339685D02*
D03*
X320000D02*
D03*
Y350315D02*
D03*
X310000Y339685D02*
D03*
Y350315D02*
D03*
X360000Y155315D02*
D03*
Y144685D02*
D03*
X340000Y155315D02*
D03*
Y144685D02*
D03*
X350000Y155315D02*
D03*
Y144685D02*
D03*
Y172815D02*
D03*
Y162185D02*
D03*
X360000Y172815D02*
D03*
Y162185D02*
D03*
X340000Y172815D02*
D03*
Y162185D02*
D03*
X286999Y310315D02*
D03*
Y299685D02*
D03*
X290000Y339685D02*
D03*
Y350315D02*
D03*
Y330315D02*
D03*
Y319685D02*
D03*
X265000Y300315D02*
D03*
Y289685D02*
D03*
X280000Y239685D02*
D03*
Y250315D02*
D03*
X262500Y239685D02*
D03*
Y250315D02*
D03*
D29*
X366260Y46142D02*
D03*
X373740D02*
D03*
X370000Y54606D02*
D03*
X366260Y66142D02*
D03*
X373740D02*
D03*
X370000Y74606D02*
D03*
X313760Y398268D02*
D03*
X321240D02*
D03*
X317500Y406732D02*
D03*
X537500Y20768D02*
D03*
X533760Y29232D02*
D03*
X541240D02*
D03*
X537500Y40768D02*
D03*
X533760Y49232D02*
D03*
X541240D02*
D03*
X300000Y406732D02*
D03*
X303740Y398268D02*
D03*
X296260D02*
D03*
D30*
X406567Y76634D02*
D03*
Y74075D02*
D03*
Y71516D02*
D03*
Y68957D02*
D03*
Y66398D02*
D03*
Y63839D02*
D03*
Y61279D02*
D03*
Y58720D02*
D03*
Y56161D02*
D03*
Y53602D02*
D03*
Y51043D02*
D03*
Y48484D02*
D03*
Y45925D02*
D03*
Y43366D02*
D03*
X383433D02*
D03*
Y45925D02*
D03*
Y48484D02*
D03*
Y51043D02*
D03*
Y53602D02*
D03*
Y56161D02*
D03*
Y58720D02*
D03*
Y61279D02*
D03*
Y63839D02*
D03*
Y66398D02*
D03*
Y68957D02*
D03*
Y71516D02*
D03*
Y74075D02*
D03*
Y76634D02*
D03*
X448433Y459075D02*
D03*
Y456516D02*
D03*
Y453957D02*
D03*
Y451398D02*
D03*
Y448839D02*
D03*
Y446279D02*
D03*
Y443720D02*
D03*
Y441161D02*
D03*
Y438602D02*
D03*
Y436043D02*
D03*
Y433484D02*
D03*
Y430925D02*
D03*
X471567D02*
D03*
Y433484D02*
D03*
Y436043D02*
D03*
Y438602D02*
D03*
Y441161D02*
D03*
Y443720D02*
D03*
Y446279D02*
D03*
Y448839D02*
D03*
Y451398D02*
D03*
Y453957D02*
D03*
Y456516D02*
D03*
Y459075D02*
D03*
D31*
X304803Y485000D02*
D03*
X280197D02*
D03*
X377697D02*
D03*
X402303D02*
D03*
D32*
X357126Y302500D02*
D03*
X372874Y306634D02*
D03*
Y298366D02*
D03*
D33*
X320000Y207874D02*
D03*
X324134Y192126D02*
D03*
X315866D02*
D03*
X380000Y207874D02*
D03*
X384134Y192126D02*
D03*
X375866D02*
D03*
X350000Y207874D02*
D03*
X354134Y192126D02*
D03*
X345866D02*
D03*
D34*
X259811Y20146D02*
D03*
X262370D02*
D03*
X257252Y20146D02*
D03*
X254693Y20146D02*
D03*
X252134D02*
D03*
D35*
X241504Y10500D02*
D03*
X273000D02*
D03*
D36*
X261976D02*
D03*
X252528D02*
D03*
D37*
X293721Y101634D02*
D03*
Y99075D02*
D03*
Y96516D02*
D03*
Y93957D02*
D03*
Y91398D02*
D03*
Y88839D02*
D03*
Y86279D02*
D03*
Y83720D02*
D03*
Y81161D02*
D03*
Y78602D02*
D03*
Y76043D02*
D03*
Y73484D02*
D03*
Y70925D02*
D03*
Y68366D02*
D03*
X321280D02*
D03*
Y70925D02*
D03*
Y73484D02*
D03*
Y76043D02*
D03*
Y78602D02*
D03*
Y81161D02*
D03*
Y83720D02*
D03*
Y86279D02*
D03*
Y88839D02*
D03*
Y91398D02*
D03*
Y93957D02*
D03*
Y96516D02*
D03*
Y99075D02*
D03*
Y101634D02*
D03*
D38*
X351948Y367500D02*
D03*
Y374900D02*
D03*
X342500Y367500D02*
D03*
Y371200D02*
D03*
Y374900D02*
D03*
D39*
X270000Y350000D02*
D03*
X270055Y321664D02*
D03*
D40*
X306664Y259945D02*
D03*
X335000Y260000D02*
D03*
X306664Y304945D02*
D03*
X335000Y305000D02*
D03*
D41*
X270000Y270000D02*
D03*
D42*
X264488Y262421D02*
D03*
X275512D02*
D03*
X264488Y277579D02*
D03*
X275512D02*
D03*
D43*
X266063Y262421D02*
D03*
X267638D02*
D03*
X269213D02*
D03*
X270787D02*
D03*
X272362D02*
D03*
X273937D02*
D03*
X266063Y277579D02*
D03*
X267638D02*
D03*
X269213D02*
D03*
X270787D02*
D03*
X272362D02*
D03*
X273937D02*
D03*
D44*
X262421Y269213D02*
D03*
Y270787D02*
D03*
Y272362D02*
D03*
Y273937D02*
D03*
Y266063D02*
D03*
Y267638D02*
D03*
X277579Y269213D02*
D03*
Y270787D02*
D03*
Y272362D02*
D03*
Y273937D02*
D03*
Y266063D02*
D03*
Y267638D02*
D03*
D45*
X262421Y275512D02*
D03*
Y264488D02*
D03*
X277579Y275512D02*
D03*
Y264488D02*
D03*
D46*
X455000Y487953D02*
D03*
Y482047D02*
D03*
M02*
