G04*
G04 #@! TF.GenerationSoftware,Altium Limited,Altium Designer,20.0.7 (75)*
G04*
G04 Layer_Color=2752767*
%FSLAX25Y25*%
%MOIN*%
G70*
G01*
G75*
%ADD10C,0.01000*%
%ADD16C,0.00500*%
%ADD104C,0.00200*%
%ADD105C,0.00267*%
D10*
X625000Y245000D02*
X625000Y10000D01*
X620000Y5000D02*
X625000Y10000D01*
X570000Y300000D02*
X625000Y245000D01*
X180000Y5000D02*
X620000D01*
X175000Y10000D02*
X180000Y5000D01*
X175000Y10000D02*
Y15000D01*
X175000D02*
X175000D01*
X175000D02*
Y245000D01*
X230000Y300000D01*
Y540000D02*
X235000Y545000D01*
X230000Y300000D02*
Y540000D01*
X570000Y300000D02*
Y540000D01*
X565000Y545000D02*
X570000Y540000D01*
X235000Y545000D02*
X565000D01*
D16*
X237252Y4791D02*
X277252D01*
D104*
X491700Y429200D02*
Y430800D01*
X493300D01*
Y429200D01*
X491700D01*
Y419200D02*
Y420800D01*
X493300D01*
Y419200D01*
X491700D01*
Y409200D02*
Y410800D01*
X493300D01*
Y409200D01*
X491700D01*
Y399200D02*
Y400800D01*
X493300D01*
Y399200D01*
X491700D01*
Y389200D02*
Y390800D01*
X493300D01*
Y389200D01*
X491700D01*
X319200Y364200D02*
Y365800D01*
X320800D01*
Y364200D01*
X319200D01*
X369200Y89200D02*
Y90800D01*
X370800D01*
Y89200D01*
X369200D01*
X289200Y364200D02*
Y365800D01*
X290800D01*
Y364200D01*
X289200D01*
X549200Y376700D02*
Y378300D01*
X550800D01*
Y376700D01*
X549200D01*
X439200D02*
Y378300D01*
X440800D01*
Y376700D01*
X439200D01*
X241700Y394200D02*
Y395800D01*
X243300D01*
Y394200D01*
X241700D01*
X276700Y506700D02*
Y508300D01*
X278300D01*
Y506700D01*
X276700D01*
X286700D02*
Y508300D01*
X288300D01*
Y506700D01*
X286700D01*
X289200Y266700D02*
Y268300D01*
X290800D01*
Y266700D01*
X289200D01*
X444200Y166700D02*
Y168300D01*
X445800D01*
Y166700D01*
X444200D01*
X437200Y222200D02*
Y223800D01*
X438800D01*
Y222200D01*
X437200D01*
X276700Y394200D02*
Y395800D01*
X278300D01*
Y394200D01*
X276700D01*
X394200Y154200D02*
Y155800D01*
X395800D01*
Y154200D01*
X394200D01*
X336700Y224200D02*
Y225800D01*
X338300D01*
Y224200D01*
X336700D01*
X571700Y274200D02*
Y275800D01*
X573300D01*
Y274200D01*
X571700D01*
X551700D02*
Y275800D01*
X553300D01*
Y274200D01*
X551700D01*
X504200Y249200D02*
Y250800D01*
X505800D01*
Y249200D01*
X504200D01*
X484200D02*
Y250800D01*
X485800D01*
Y249200D01*
X484200D01*
X544200D02*
Y250800D01*
X545800D01*
Y249200D01*
X544200D01*
X524200D02*
Y250800D01*
X525800D01*
Y249200D01*
X524200D01*
X581700Y236700D02*
Y238300D01*
X583300D01*
Y236700D01*
X581700D01*
Y226700D02*
Y228300D01*
X583300D01*
Y226700D01*
X581700D01*
X611700D02*
Y228300D01*
X613300D01*
Y226700D01*
X611700D01*
X601700D02*
Y228300D01*
X603300D01*
Y226700D01*
X601700D01*
Y236700D02*
Y238300D01*
X603300D01*
Y236700D01*
X601700D01*
X611700D02*
Y238300D01*
X613300D01*
Y236700D01*
X611700D01*
X591700D02*
Y238300D01*
X593300D01*
Y236700D01*
X591700D01*
Y226700D02*
Y228300D01*
X593300D01*
Y226700D01*
X591700D01*
X491700Y41700D02*
Y43300D01*
X493300D01*
Y41700D01*
X491700D01*
Y31700D02*
Y33300D01*
X493300D01*
Y31700D01*
X491700D01*
Y21700D02*
Y23300D01*
X493300D01*
Y21700D01*
X491700D01*
X514200D02*
Y23300D01*
X515800D01*
Y21700D01*
X514200D01*
Y31700D02*
Y33300D01*
X515800D01*
Y31700D01*
X514200D01*
Y41700D02*
Y43300D01*
X515800D01*
Y41700D01*
X514200D01*
Y51700D02*
Y53300D01*
X515800D01*
Y51700D01*
X514200D01*
X220000Y189200D02*
X219200Y190800D01*
X220800D01*
X220000Y189200D01*
Y89200D02*
X219200Y90800D01*
X220800D01*
X220000Y89200D01*
X250775Y523550D02*
X251175Y523950D01*
X251575D01*
X251175Y524350D01*
X251575Y524750D01*
X251175D01*
X250775Y525150D01*
X250375Y524750D01*
X249975D01*
X250375Y524350D01*
X249975Y523950D01*
X250375D01*
X250775Y523550D01*
X549225D02*
X549625Y523950D01*
X550025D01*
X549625Y524350D01*
X550025Y524750D01*
X549625D01*
X549225Y525150D01*
X548825Y524750D01*
X548425D01*
X548825Y524350D01*
X548425Y523950D01*
X548825D01*
X549225Y523550D01*
X400000Y299200D02*
X400400Y299600D01*
X400800D01*
X400400Y300000D01*
X400800Y300400D01*
X400400D01*
X400000Y300800D01*
X399600Y300400D01*
X399200D01*
X399600Y300000D01*
X399200Y299600D01*
X399600D01*
X400000Y299200D01*
X195700Y24900D02*
X196100Y25300D01*
X196500D01*
X196100Y25700D01*
X196500Y26100D01*
X196100D01*
X195700Y26500D01*
X195300Y26100D01*
X194900D01*
X195300Y25700D01*
X194900Y25300D01*
X195300D01*
X195700Y24900D01*
X604300D02*
X604700Y25300D01*
X605100D01*
X604700Y25700D01*
X605100Y26100D01*
X604700D01*
X604300Y26500D01*
X603900Y26100D01*
X603500D01*
X603900Y25700D01*
X603500Y25300D01*
X603900D01*
X604300Y24900D01*
X469200Y419200D02*
Y420800D01*
X470800D01*
Y419200D01*
X469200D01*
Y409200D02*
Y410800D01*
X470800D01*
Y409200D01*
X469200D01*
Y399200D02*
Y400800D01*
X470800D01*
Y399200D01*
X469200D01*
X539200Y89200D02*
Y90800D01*
X540800D01*
Y89200D01*
X539200D01*
Y79200D02*
Y80800D01*
X540800D01*
Y79200D01*
X539200D01*
Y69200D02*
Y70800D01*
X540800D01*
Y69200D01*
X539200D01*
X452200Y419200D02*
Y420800D01*
X453800D01*
Y419200D01*
X452200D01*
Y409200D02*
Y410800D01*
X453800D01*
Y409200D01*
X452200D01*
Y399200D02*
Y400800D01*
X453800D01*
Y399200D01*
X452200D01*
X509200Y89200D02*
Y90800D01*
X510800D01*
Y89200D01*
X509200D01*
Y79200D02*
Y80800D01*
X510800D01*
Y79200D01*
X509200D01*
Y69200D02*
Y70800D01*
X510800D01*
Y69200D01*
X509200D01*
X524200Y89200D02*
Y90800D01*
X525800D01*
Y89200D01*
X524200D01*
Y79200D02*
Y80800D01*
X525800D01*
Y79200D01*
X524200D01*
Y69200D02*
Y70800D01*
X525800D01*
Y69200D01*
X524200D01*
X479200Y89200D02*
Y90800D01*
X480800D01*
Y89200D01*
X479200D01*
Y79200D02*
Y80800D01*
X480800D01*
Y79200D01*
X479200D01*
Y69200D02*
Y70800D01*
X480800D01*
Y69200D01*
X479200D01*
X494200Y89200D02*
Y90800D01*
X495800D01*
Y89200D01*
X494200D01*
Y79200D02*
Y80800D01*
X495800D01*
Y79200D01*
X494200D01*
Y69200D02*
Y70800D01*
X495800D01*
Y69200D01*
X494200D01*
X449200Y89200D02*
Y90800D01*
X450800D01*
Y89200D01*
X449200D01*
Y79200D02*
Y80800D01*
X450800D01*
Y79200D01*
X449200D01*
Y69200D02*
Y70800D01*
X450800D01*
Y69200D01*
X449200D01*
X464200Y89200D02*
Y90800D01*
X465800D01*
Y89200D01*
X464200D01*
Y79200D02*
Y80800D01*
X465800D01*
Y79200D01*
X464200D01*
Y69200D02*
Y70800D01*
X465800D01*
Y69200D01*
X464200D01*
X424200Y331700D02*
Y333300D01*
X425800D01*
Y331700D01*
X424200D01*
Y341700D02*
Y343300D01*
X425800D01*
Y341700D01*
X424200D01*
Y351700D02*
Y353300D01*
X425800D01*
Y351700D01*
X424200D01*
Y361700D02*
Y363300D01*
X425800D01*
Y361700D01*
X424200D01*
Y371700D02*
Y373300D01*
X425800D01*
Y371700D01*
X424200D01*
Y381700D02*
Y383300D01*
X425800D01*
Y381700D01*
X424200D01*
Y391700D02*
Y393300D01*
X425800D01*
Y391700D01*
X424200D01*
Y401700D02*
Y403300D01*
X425800D01*
Y401700D01*
X424200D01*
X419200Y89200D02*
Y90800D01*
X420800D01*
Y89200D01*
X419200D01*
Y79200D02*
Y80800D01*
X420800D01*
Y79200D01*
X419200D01*
Y69200D02*
Y70800D01*
X420800D01*
Y69200D01*
X419200D01*
X434200Y89200D02*
Y90800D01*
X435800D01*
Y89200D01*
X434200D01*
Y79200D02*
Y80800D01*
X435800D01*
Y79200D01*
X434200D01*
Y69200D02*
Y70800D01*
X435800D01*
Y69200D01*
X434200D01*
X384200Y506700D02*
Y508300D01*
X385800D01*
Y506700D01*
X384200D01*
X374200D02*
Y508300D01*
X375800D01*
Y506700D01*
X374200D01*
X562200Y233200D02*
X562600Y234000D01*
X562200Y234800D01*
X563000Y234400D01*
X563800Y234800D01*
X563400Y234000D01*
X563800Y233200D01*
X563000Y233600D01*
X562200Y233200D01*
X559700D02*
X560100Y234000D01*
X559700Y234800D01*
X560500Y234400D01*
X561300Y234800D01*
X560900Y234000D01*
X561300Y233200D01*
X560500Y233600D01*
X559700Y233200D01*
X557200D02*
X557600Y234000D01*
X557200Y234800D01*
X558000Y234400D01*
X558800Y234800D01*
X558400Y234000D01*
X558800Y233200D01*
X558000Y233600D01*
X557200Y233200D01*
X554700D02*
X555100Y234000D01*
X554700Y234800D01*
X555500Y234400D01*
X556300Y234800D01*
X555900Y234000D01*
X556300Y233200D01*
X555500Y233600D01*
X554700Y233200D01*
X383200Y448000D02*
X383600Y448800D01*
X383200Y449600D01*
X384000Y449200D01*
X384800Y449600D01*
X384400Y448800D01*
X384800Y448000D01*
X384000Y448400D01*
X383200Y448000D01*
X365200D02*
X365600Y448800D01*
X365200Y449600D01*
X366000Y449200D01*
X366800Y449600D01*
X366400Y448800D01*
X366800Y448000D01*
X366000Y448400D01*
X365200Y448000D01*
X456700Y321700D02*
X457100Y322500D01*
X456700Y323300D01*
X457500Y322900D01*
X458300Y323300D01*
X457900Y322500D01*
X458300Y321700D01*
X457500Y322100D01*
X456700Y321700D01*
X483731Y381815D02*
X484131Y382615D01*
X483731Y383415D01*
X484531Y383015D01*
X485331Y383415D01*
X484931Y382615D01*
X485331Y381815D01*
X484531Y382215D01*
X483731Y381815D01*
X481700Y376700D02*
X482100Y377500D01*
X481700Y378300D01*
X482500Y377900D01*
X483300Y378300D01*
X482900Y377500D01*
X483300Y376700D01*
X482500Y377100D01*
X481700Y376700D01*
X464200Y366700D02*
X464600Y367500D01*
X464200Y368300D01*
X465000Y367900D01*
X465800Y368300D01*
X465400Y367500D01*
X465800Y366700D01*
X465000Y367100D01*
X464200Y366700D01*
X489200Y356700D02*
X489600Y357500D01*
X489200Y358300D01*
X490000Y357900D01*
X490800Y358300D01*
X490400Y357500D01*
X490800Y356700D01*
X490000Y357100D01*
X489200Y356700D01*
X499200Y354156D02*
X499600Y354957D01*
X499200Y355756D01*
X500000Y355357D01*
X500800Y355756D01*
X500400Y354957D01*
X500800Y354156D01*
X500000Y354556D01*
X499200Y354156D01*
X481700Y354200D02*
X482100Y355000D01*
X481700Y355800D01*
X482500Y355400D01*
X483300Y355800D01*
X482900Y355000D01*
X483300Y354200D01*
X482500Y354600D01*
X481700Y354200D01*
X490200Y183200D02*
X490600Y184000D01*
X490200Y184800D01*
X491000Y184400D01*
X491800Y184800D01*
X491400Y184000D01*
X491800Y183200D01*
X491000Y183600D01*
X490200Y183200D01*
X486200Y183700D02*
X486600Y184500D01*
X486200Y185300D01*
X487000Y184900D01*
X487800Y185300D01*
X487400Y184500D01*
X487800Y183700D01*
X487000Y184100D01*
X486200Y183700D01*
X282096Y262010D02*
X282496Y262810D01*
X282096Y263610D01*
X282896Y263210D01*
X283696Y263610D01*
X283296Y262810D01*
X283696Y262010D01*
X282896Y262410D01*
X282096Y262010D01*
X249200Y282700D02*
X249600Y283500D01*
X249200Y284300D01*
X250000Y283900D01*
X250800Y284300D01*
X250400Y283500D01*
X250800Y282700D01*
X250000Y283100D01*
X249200Y282700D01*
X575200Y252700D02*
X575600Y253500D01*
X575200Y254300D01*
X576000Y253900D01*
X576800Y254300D01*
X576400Y253500D01*
X576800Y252700D01*
X576000Y253100D01*
X575200Y252700D01*
X572700D02*
X573100Y253500D01*
X572700Y254300D01*
X573500Y253900D01*
X574300Y254300D01*
X573900Y253500D01*
X574300Y252700D01*
X573500Y253100D01*
X572700Y252700D01*
X570200D02*
X570600Y253500D01*
X570200Y254300D01*
X571000Y253900D01*
X571800Y254300D01*
X571400Y253500D01*
X571800Y252700D01*
X571000Y253100D01*
X570200Y252700D01*
X567700D02*
X568100Y253500D01*
X567700Y254300D01*
X568500Y253900D01*
X569300Y254300D01*
X568900Y253500D01*
X569300Y252700D01*
X568500Y253100D01*
X567700Y252700D01*
X575200Y245700D02*
X575600Y246500D01*
X575200Y247300D01*
X576000Y246900D01*
X576800Y247300D01*
X576400Y246500D01*
X576800Y245700D01*
X576000Y246100D01*
X575200Y245700D01*
X572700D02*
X573100Y246500D01*
X572700Y247300D01*
X573500Y246900D01*
X574300Y247300D01*
X573900Y246500D01*
X574300Y245700D01*
X573500Y246100D01*
X572700Y245700D01*
X570200D02*
X570600Y246500D01*
X570200Y247300D01*
X571000Y246900D01*
X571800Y247300D01*
X571400Y246500D01*
X571800Y245700D01*
X571000Y246100D01*
X570200Y245700D01*
X567700D02*
X568100Y246500D01*
X567700Y247300D01*
X568500Y246900D01*
X569300Y247300D01*
X568900Y246500D01*
X569300Y245700D01*
X568500Y246100D01*
X567700Y245700D01*
X536700Y254200D02*
X537100Y255000D01*
X536700Y255800D01*
X537500Y255400D01*
X538300Y255800D01*
X537900Y255000D01*
X538300Y254200D01*
X537500Y254600D01*
X536700Y254200D01*
X539200Y259200D02*
X539600Y260000D01*
X539200Y260800D01*
X540000Y260400D01*
X540800Y260800D01*
X540400Y260000D01*
X540800Y259200D01*
X540000Y259600D01*
X539200Y259200D01*
X536700Y256700D02*
X537100Y257500D01*
X536700Y258300D01*
X537500Y257900D01*
X538300Y258300D01*
X537900Y257500D01*
X538300Y256700D01*
X537500Y257100D01*
X536700Y256700D01*
X539200D02*
X539600Y257500D01*
X539200Y258300D01*
X540000Y257900D01*
X540800Y258300D01*
X540400Y257500D01*
X540800Y256700D01*
X540000Y257100D01*
X539200Y256700D01*
X536700Y259200D02*
X537100Y260000D01*
X536700Y260800D01*
X537500Y260400D01*
X538300Y260800D01*
X537900Y260000D01*
X538300Y259200D01*
X537500Y259600D01*
X536700Y259200D01*
Y261700D02*
X537100Y262500D01*
X536700Y263300D01*
X537500Y262900D01*
X538300Y263300D01*
X537900Y262500D01*
X538300Y261700D01*
X537500Y262100D01*
X536700Y261700D01*
Y264200D02*
X537100Y265000D01*
X536700Y265800D01*
X537500Y265400D01*
X538300Y265800D01*
X537900Y265000D01*
X538300Y264200D01*
X537500Y264600D01*
X536700Y264200D01*
Y266700D02*
X537100Y267500D01*
X536700Y268300D01*
X537500Y267900D01*
X538300Y268300D01*
X537900Y267500D01*
X538300Y266700D01*
X537500Y267100D01*
X536700Y266700D01*
Y279200D02*
X537100Y280000D01*
X536700Y280800D01*
X537500Y280400D01*
X538300Y280800D01*
X537900Y280000D01*
X538300Y279200D01*
X537500Y279600D01*
X536700Y279200D01*
Y276700D02*
X537100Y277500D01*
X536700Y278300D01*
X537500Y277900D01*
X538300Y278300D01*
X537900Y277500D01*
X538300Y276700D01*
X537500Y277100D01*
X536700Y276700D01*
Y271700D02*
X537100Y272500D01*
X536700Y273300D01*
X537500Y272900D01*
X538300Y273300D01*
X537900Y272500D01*
X538300Y271700D01*
X537500Y272100D01*
X536700Y271700D01*
X489200Y206700D02*
X489600Y207500D01*
X489200Y208300D01*
X490000Y207900D01*
X490800Y208300D01*
X490400Y207500D01*
X490800Y206700D01*
X490000Y207100D01*
X489200Y206700D01*
X486700D02*
X487100Y207500D01*
X486700Y208300D01*
X487500Y207900D01*
X488300Y208300D01*
X487900Y207500D01*
X488300Y206700D01*
X487500Y207100D01*
X486700Y206700D01*
X541700Y209200D02*
X542100Y210000D01*
X541700Y210800D01*
X542500Y210400D01*
X543300Y210800D01*
X542900Y210000D01*
X543300Y209200D01*
X542500Y209600D01*
X541700Y209200D01*
Y211700D02*
X542100Y212500D01*
X541700Y213300D01*
X542500Y212900D01*
X543300Y213300D01*
X542900Y212500D01*
X543300Y211700D01*
X542500Y212100D01*
X541700Y211700D01*
Y214200D02*
X542100Y215000D01*
X541700Y215800D01*
X542500Y215400D01*
X543300Y215800D01*
X542900Y215000D01*
X543300Y214200D01*
X542500Y214600D01*
X541700Y214200D01*
Y216700D02*
X542100Y217500D01*
X541700Y218300D01*
X542500Y217900D01*
X543300Y218300D01*
X542900Y217500D01*
X543300Y216700D01*
X542500Y217100D01*
X541700Y216700D01*
X544200Y209200D02*
X544600Y210000D01*
X544200Y210800D01*
X545000Y210400D01*
X545800Y210800D01*
X545400Y210000D01*
X545800Y209200D01*
X545000Y209600D01*
X544200Y209200D01*
Y211700D02*
X544600Y212500D01*
X544200Y213300D01*
X545000Y212900D01*
X545800Y213300D01*
X545400Y212500D01*
X545800Y211700D01*
X545000Y212100D01*
X544200Y211700D01*
Y216700D02*
X544600Y217500D01*
X544200Y218300D01*
X545000Y217900D01*
X545800Y218300D01*
X545400Y217500D01*
X545800Y216700D01*
X545000Y217100D01*
X544200Y216700D01*
Y214200D02*
X544600Y215000D01*
X544200Y215800D01*
X545000Y215400D01*
X545800Y215800D01*
X545400Y215000D01*
X545800Y214200D01*
X545000Y214600D01*
X544200Y214200D01*
X536700Y274200D02*
X537100Y275000D01*
X536700Y275800D01*
X537500Y275400D01*
X538300Y275800D01*
X537900Y275000D01*
X538300Y274200D01*
X537500Y274600D01*
X536700Y274200D01*
Y269200D02*
X537100Y270000D01*
X536700Y270800D01*
X537500Y270400D01*
X538300Y270800D01*
X537900Y270000D01*
X538300Y269200D01*
X537500Y269600D01*
X536700Y269200D01*
X540200Y343700D02*
X540600Y344500D01*
X540200Y345300D01*
X541000Y344900D01*
X541800Y345300D01*
X541400Y344500D01*
X541800Y343700D01*
X541000Y344100D01*
X540200Y343700D01*
Y346200D02*
X540600Y347000D01*
X540200Y347800D01*
X541000Y347400D01*
X541800Y347800D01*
X541400Y347000D01*
X541800Y346200D01*
X541000Y346600D01*
X540200Y346200D01*
Y348700D02*
X540600Y349500D01*
X540200Y350300D01*
X541000Y349900D01*
X541800Y350300D01*
X541400Y349500D01*
X541800Y348700D01*
X541000Y349100D01*
X540200Y348700D01*
X312700Y95700D02*
X313100Y96500D01*
X312700Y97300D01*
X313500Y96900D01*
X314300Y97300D01*
X313900Y96500D01*
X314300Y95700D01*
X313500Y96100D01*
X312700Y95700D01*
Y98700D02*
X313100Y99500D01*
X312700Y100300D01*
X313500Y99900D01*
X314300Y100300D01*
X313900Y99500D01*
X314300Y98700D01*
X313500Y99100D01*
X312700Y98700D01*
X354200Y49200D02*
X354600Y50000D01*
X354200Y50800D01*
X355000Y50400D01*
X355800Y50800D01*
X355400Y50000D01*
X355800Y49200D01*
X355000Y49600D01*
X354200Y49200D01*
X351700D02*
X352100Y50000D01*
X351700Y50800D01*
X352500Y50400D01*
X353300Y50800D01*
X352900Y50000D01*
X353300Y49200D01*
X352500Y49600D01*
X351700Y49200D01*
X349200D02*
X349600Y50000D01*
X349200Y50800D01*
X350000Y50400D01*
X350800Y50800D01*
X350400Y50000D01*
X350800Y49200D01*
X350000Y49600D01*
X349200Y49200D01*
X314200Y326700D02*
X314600Y327500D01*
X314200Y328300D01*
X315000Y327900D01*
X315800Y328300D01*
X315400Y327500D01*
X315800Y326700D01*
X315000Y327100D01*
X314200Y326700D01*
Y329200D02*
X314600Y330000D01*
X314200Y330800D01*
X315000Y330400D01*
X315800Y330800D01*
X315400Y330000D01*
X315800Y329200D01*
X315000Y329600D01*
X314200Y329200D01*
Y331700D02*
X314600Y332500D01*
X314200Y333300D01*
X315000Y332900D01*
X315800Y333300D01*
X315400Y332500D01*
X315800Y331700D01*
X315000Y332100D01*
X314200Y331700D01*
X446700Y371700D02*
X447100Y372500D01*
X446700Y373300D01*
X447500Y372900D01*
X448300Y373300D01*
X447900Y372500D01*
X448300Y371700D01*
X447500Y372100D01*
X446700Y371700D01*
Y376700D02*
X447100Y377500D01*
X446700Y378300D01*
X447500Y377900D01*
X448300Y378300D01*
X447900Y377500D01*
X448300Y376700D01*
X447500Y377100D01*
X446700Y376700D01*
X451700D02*
X452100Y377500D01*
X451700Y378300D01*
X452500Y377900D01*
X453300Y378300D01*
X452900Y377500D01*
X453300Y376700D01*
X452500Y377100D01*
X451700Y376700D01*
X441700Y356700D02*
X442100Y357500D01*
X441700Y358300D01*
X442500Y357900D01*
X443300Y358300D01*
X442900Y357500D01*
X443300Y356700D01*
X442500Y357100D01*
X441700Y356700D01*
X303000Y397600D02*
X303400Y398400D01*
X303000Y399200D01*
X303800Y398800D01*
X304600Y399200D01*
X304200Y398400D01*
X304600Y397600D01*
X303800Y398000D01*
X303000Y397600D01*
X409200Y439200D02*
X409600Y440000D01*
X409200Y440800D01*
X410000Y440400D01*
X410800Y440800D01*
X410400Y440000D01*
X410800Y439200D01*
X410000Y439600D01*
X409200Y439200D01*
Y436700D02*
X409600Y437500D01*
X409200Y438300D01*
X410000Y437900D01*
X410800Y438300D01*
X410400Y437500D01*
X410800Y436700D01*
X410000Y437100D01*
X409200Y436700D01*
Y441700D02*
X409600Y442500D01*
X409200Y443300D01*
X410000Y442900D01*
X410800Y443300D01*
X410400Y442500D01*
X410800Y441700D01*
X410000Y442100D01*
X409200Y441700D01*
X311700Y439200D02*
X312100Y440000D01*
X311700Y440800D01*
X312500Y440400D01*
X313300Y440800D01*
X312900Y440000D01*
X313300Y439200D01*
X312500Y439600D01*
X311700Y439200D01*
Y436700D02*
X312100Y437500D01*
X311700Y438300D01*
X312500Y437900D01*
X313300Y438300D01*
X312900Y437500D01*
X313300Y436700D01*
X312500Y437100D01*
X311700Y436700D01*
Y441700D02*
X312100Y442500D01*
X311700Y443300D01*
X312500Y442900D01*
X313300Y443300D01*
X312900Y442500D01*
X313300Y441700D01*
X312500Y442100D01*
X311700Y441700D01*
X282929Y468765D02*
X283330Y469565D01*
X282929Y470365D01*
X283730Y469965D01*
X284529Y470365D01*
X284130Y469565D01*
X284529Y468765D01*
X283730Y469165D01*
X282929Y468765D01*
X328700Y380700D02*
X329100Y381500D01*
X328700Y382300D01*
X329500Y381900D01*
X330300Y382300D01*
X329900Y381500D01*
X330300Y380700D01*
X329500Y381100D01*
X328700Y380700D01*
X337200Y371700D02*
X337600Y372500D01*
X337200Y373300D01*
X338000Y372900D01*
X338800Y373300D01*
X338400Y372500D01*
X338800Y371700D01*
X338000Y372100D01*
X337200Y371700D01*
X326700Y382700D02*
X327100Y383500D01*
X326700Y384300D01*
X327500Y383900D01*
X328300Y384300D01*
X327900Y383500D01*
X328300Y382700D01*
X327500Y383100D01*
X326700Y382700D01*
X335200Y373700D02*
X335600Y374500D01*
X335200Y375300D01*
X336000Y374900D01*
X336800Y375300D01*
X336400Y374500D01*
X336800Y373700D01*
X336000Y374100D01*
X335200Y373700D01*
X430200Y450200D02*
X430600Y451000D01*
X430200Y451800D01*
X431000Y451400D01*
X431800Y451800D01*
X431400Y451000D01*
X431800Y450200D01*
X431000Y450600D01*
X430200Y450200D01*
X429200Y445700D02*
X429600Y446500D01*
X429200Y447300D01*
X430000Y446900D01*
X430800Y447300D01*
X430400Y446500D01*
X430800Y445700D01*
X430000Y446100D01*
X429200Y445700D01*
X427700Y440700D02*
X428100Y441500D01*
X427700Y442300D01*
X428500Y441900D01*
X429300Y442300D01*
X428900Y441500D01*
X429300Y440700D01*
X428500Y441100D01*
X427700Y440700D01*
X429700Y434700D02*
X430100Y435500D01*
X429700Y436300D01*
X430500Y435900D01*
X431300Y436300D01*
X430900Y435500D01*
X431300Y434700D01*
X430500Y435100D01*
X429700Y434700D01*
X434700Y439200D02*
X435100Y440000D01*
X434700Y440800D01*
X435500Y440400D01*
X436300Y440800D01*
X435900Y440000D01*
X436300Y439200D01*
X435500Y439600D01*
X434700Y439200D01*
X433200Y434200D02*
X433600Y435000D01*
X433200Y435800D01*
X434000Y435400D01*
X434800Y435800D01*
X434400Y435000D01*
X434800Y434200D01*
X434000Y434600D01*
X433200Y434200D01*
X437700Y435200D02*
X438100Y436000D01*
X437700Y436800D01*
X438500Y436400D01*
X439300Y436800D01*
X438900Y436000D01*
X439300Y435200D01*
X438500Y435600D01*
X437700Y435200D01*
X380700Y467700D02*
X381100Y468500D01*
X380700Y469300D01*
X381500Y468900D01*
X382300Y469300D01*
X381900Y468500D01*
X382300Y467700D01*
X381500Y468100D01*
X380700Y467700D01*
X491700Y461700D02*
X492100Y462500D01*
X491700Y463300D01*
X492500Y462900D01*
X493300Y463300D01*
X492900Y462500D01*
X493300Y461700D01*
X492500Y462100D01*
X491700Y461700D01*
X496700D02*
X497100Y462500D01*
X496700Y463300D01*
X497500Y462900D01*
X498300Y463300D01*
X497900Y462500D01*
X498300Y461700D01*
X497500Y462100D01*
X496700Y461700D01*
X501700D02*
X502100Y462500D01*
X501700Y463300D01*
X502500Y462900D01*
X503300Y463300D01*
X502900Y462500D01*
X503300Y461700D01*
X502500Y462100D01*
X501700Y461700D01*
X529200D02*
X529600Y462500D01*
X529200Y463300D01*
X530000Y462900D01*
X530800Y463300D01*
X530400Y462500D01*
X530800Y461700D01*
X530000Y462100D01*
X529200Y461700D01*
X534200D02*
X534600Y462500D01*
X534200Y463300D01*
X535000Y462900D01*
X535800Y463300D01*
X535400Y462500D01*
X535800Y461700D01*
X535000Y462100D01*
X534200Y461700D01*
X539200D02*
X539600Y462500D01*
X539200Y463300D01*
X540000Y462900D01*
X540800Y463300D01*
X540400Y462500D01*
X540800Y461700D01*
X540000Y462100D01*
X539200Y461700D01*
X367000Y467700D02*
X367400Y468500D01*
X367000Y469300D01*
X367800Y468900D01*
X368600Y469300D01*
X368200Y468500D01*
X368600Y467700D01*
X367800Y468100D01*
X367000Y467700D01*
X418885Y209200D02*
X419285Y210000D01*
X418885Y210800D01*
X419685Y210400D01*
X420485Y210800D01*
X420085Y210000D01*
X420485Y209200D01*
X419685Y209600D01*
X418885Y209200D01*
Y199200D02*
X419285Y200000D01*
X418885Y200800D01*
X419685Y200400D01*
X420485Y200800D01*
X420085Y200000D01*
X420485Y199200D01*
X419685Y199600D01*
X418885Y199200D01*
X409515D02*
X409915Y200000D01*
X409515Y200800D01*
X410315Y200400D01*
X411115Y200800D01*
X410715Y200000D01*
X411115Y199200D01*
X410315Y199600D01*
X409515Y199200D01*
X398885Y209200D02*
X399285Y210000D01*
X398885Y210800D01*
X399685Y210400D01*
X400485Y210800D01*
X400085Y210000D01*
X400485Y209200D01*
X399685Y209600D01*
X398885Y209200D01*
X404200Y134700D02*
X404600Y135500D01*
X404200Y136300D01*
X405000Y135900D01*
X405800Y136300D01*
X405400Y135500D01*
X405800Y134700D01*
X405000Y135100D01*
X404200Y134700D01*
X385700D02*
X386100Y135500D01*
X385700Y136300D01*
X386500Y135900D01*
X387300Y136300D01*
X386900Y135500D01*
X387300Y134700D01*
X386500Y135100D01*
X385700Y134700D01*
X392200D02*
X392600Y135500D01*
X392200Y136300D01*
X393000Y135900D01*
X393800Y136300D01*
X393400Y135500D01*
X393800Y134700D01*
X393000Y135100D01*
X392200Y134700D01*
X391200Y107700D02*
X391600Y108500D01*
X391200Y109300D01*
X392000Y108900D01*
X392800Y109300D01*
X392400Y108500D01*
X392800Y107700D01*
X392000Y108100D01*
X391200Y107700D01*
X201700Y231700D02*
X202100Y232500D01*
X201700Y233300D01*
X202500Y232900D01*
X203300Y233300D01*
X202900Y232500D01*
X203300Y231700D01*
X202500Y232100D01*
X201700Y231700D01*
Y226700D02*
X202100Y227500D01*
X201700Y228300D01*
X202500Y227900D01*
X203300Y228300D01*
X202900Y227500D01*
X203300Y226700D01*
X202500Y227100D01*
X201700Y226700D01*
X196700D02*
X197100Y227500D01*
X196700Y228300D01*
X197500Y227900D01*
X198300Y228300D01*
X197900Y227500D01*
X198300Y226700D01*
X197500Y227100D01*
X196700Y226700D01*
X191700D02*
X192100Y227500D01*
X191700Y228300D01*
X192500Y227900D01*
X193300Y228300D01*
X192900Y227500D01*
X193300Y226700D01*
X192500Y227100D01*
X191700Y226700D01*
X186700D02*
X187100Y227500D01*
X186700Y228300D01*
X187500Y227900D01*
X188300Y228300D01*
X187900Y227500D01*
X188300Y226700D01*
X187500Y227100D01*
X186700Y226700D01*
X181700D02*
X182100Y227500D01*
X181700Y228300D01*
X182500Y227900D01*
X183300Y228300D01*
X182900Y227500D01*
X183300Y226700D01*
X182500Y227100D01*
X181700Y226700D01*
Y231700D02*
X182100Y232500D01*
X181700Y233300D01*
X182500Y232900D01*
X183300Y233300D01*
X182900Y232500D01*
X183300Y231700D01*
X182500Y232100D01*
X181700Y231700D01*
X186700D02*
X187100Y232500D01*
X186700Y233300D01*
X187500Y232900D01*
X188300Y233300D01*
X187900Y232500D01*
X188300Y231700D01*
X187500Y232100D01*
X186700Y231700D01*
X191700D02*
X192100Y232500D01*
X191700Y233300D01*
X192500Y232900D01*
X193300Y233300D01*
X192900Y232500D01*
X193300Y231700D01*
X192500Y232100D01*
X191700Y231700D01*
X196700D02*
X197100Y232500D01*
X196700Y233300D01*
X197500Y232900D01*
X198300Y233300D01*
X197900Y232500D01*
X198300Y231700D01*
X197500Y232100D01*
X196700Y231700D01*
X212015Y236700D02*
X212415Y237500D01*
X212015Y238300D01*
X212815Y237900D01*
X213615Y238300D01*
X213215Y237500D01*
X213615Y236700D01*
X212815Y237100D01*
X212015Y236700D01*
Y246700D02*
X212415Y247500D01*
X212015Y248300D01*
X212815Y247900D01*
X213615Y248300D01*
X213215Y247500D01*
X213615Y246700D01*
X212815Y247100D01*
X212015Y246700D01*
X476700Y446700D02*
X477100Y447500D01*
X476700Y448300D01*
X477500Y447900D01*
X478300Y448300D01*
X477900Y447500D01*
X478300Y446700D01*
X477500Y447100D01*
X476700Y446700D01*
Y439200D02*
X477100Y440000D01*
X476700Y440800D01*
X477500Y440400D01*
X478300Y440800D01*
X477900Y440000D01*
X478300Y439200D01*
X477500Y439600D01*
X476700Y439200D01*
X479200Y444161D02*
X479600Y444961D01*
X479200Y445761D01*
X480000Y445361D01*
X480800Y445761D01*
X480400Y444961D01*
X480800Y444161D01*
X480000Y444561D01*
X479200Y444161D01*
X476700Y444200D02*
X477100Y445000D01*
X476700Y445800D01*
X477500Y445400D01*
X478300Y445800D01*
X477900Y445000D01*
X478300Y444200D01*
X477500Y444600D01*
X476700Y444200D01*
X479200Y441700D02*
X479600Y442500D01*
X479200Y443300D01*
X480000Y442900D01*
X480800Y443300D01*
X480400Y442500D01*
X480800Y441700D01*
X480000Y442100D01*
X479200Y441700D01*
X476700D02*
X477100Y442500D01*
X476700Y443300D01*
X477500Y442900D01*
X478300Y443300D01*
X477900Y442500D01*
X478300Y441700D01*
X477500Y442100D01*
X476700Y441700D01*
X446700Y469200D02*
X447100Y470000D01*
X446700Y470800D01*
X447500Y470400D01*
X448300Y470800D01*
X447900Y470000D01*
X448300Y469200D01*
X447500Y469600D01*
X446700Y469200D01*
X449200Y471700D02*
X449600Y472500D01*
X449200Y473300D01*
X450000Y472900D01*
X450800Y473300D01*
X450400Y472500D01*
X450800Y471700D01*
X450000Y472100D01*
X449200Y471700D01*
X446700D02*
X447100Y472500D01*
X446700Y473300D01*
X447500Y472900D01*
X448300Y473300D01*
X447900Y472500D01*
X448300Y471700D01*
X447500Y472100D01*
X446700Y471700D01*
Y479200D02*
X447100Y480000D01*
X446700Y480800D01*
X447500Y480400D01*
X448300Y480800D01*
X447900Y480000D01*
X448300Y479200D01*
X447500Y479600D01*
X446700Y479200D01*
Y476700D02*
X447100Y477500D01*
X446700Y478300D01*
X447500Y477900D01*
X448300Y478300D01*
X447900Y477500D01*
X448300Y476700D01*
X447500Y477100D01*
X446700Y476700D01*
X449200D02*
X449600Y477500D01*
X449200Y478300D01*
X450000Y477900D01*
X450800Y478300D01*
X450400Y477500D01*
X450800Y476700D01*
X450000Y477100D01*
X449200Y476700D01*
X451700Y474200D02*
X452100Y475000D01*
X451700Y475800D01*
X452500Y475400D01*
X453300Y475800D01*
X452900Y475000D01*
X453300Y474200D01*
X452500Y474600D01*
X451700Y474200D01*
X446700D02*
X447100Y475000D01*
X446700Y475800D01*
X447500Y475400D01*
X448300Y475800D01*
X447900Y475000D01*
X448300Y474200D01*
X447500Y474600D01*
X446700Y474200D01*
Y489200D02*
X447100Y490000D01*
X446700Y490800D01*
X447500Y490400D01*
X448300Y490800D01*
X447900Y490000D01*
X448300Y489200D01*
X447500Y489600D01*
X446700Y489200D01*
Y491700D02*
X447100Y492500D01*
X446700Y493300D01*
X447500Y492900D01*
X448300Y493300D01*
X447900Y492500D01*
X448300Y491700D01*
X447500Y492100D01*
X446700Y491700D01*
X449200D02*
X449600Y492500D01*
X449200Y493300D01*
X450000Y492900D01*
X450800Y493300D01*
X450400Y492500D01*
X450800Y491700D01*
X450000Y492100D01*
X449200Y491700D01*
X334200Y264200D02*
X334600Y265000D01*
X334200Y265800D01*
X335000Y265400D01*
X335800Y265800D01*
X335400Y265000D01*
X335800Y264200D01*
X335000Y264600D01*
X334200Y264200D01*
Y259200D02*
X334600Y260000D01*
X334200Y260800D01*
X335000Y260400D01*
X335800Y260800D01*
X335400Y260000D01*
X335800Y259200D01*
X335000Y259600D01*
X334200Y259200D01*
Y254200D02*
X334600Y255000D01*
X334200Y255800D01*
X335000Y255400D01*
X335800Y255800D01*
X335400Y255000D01*
X335800Y254200D01*
X335000Y254600D01*
X334200Y254200D01*
X395100Y61900D02*
X395500Y62700D01*
X395100Y63500D01*
X395900Y63100D01*
X396700Y63500D01*
X396300Y62700D01*
X396700Y61900D01*
X395900Y62300D01*
X395100Y61900D01*
X389200Y74200D02*
X389600Y75000D01*
X389200Y75800D01*
X390000Y75400D01*
X390800Y75800D01*
X390400Y75000D01*
X390800Y74200D01*
X390000Y74600D01*
X389200Y74200D01*
X391700Y71700D02*
X392100Y72500D01*
X391700Y73300D01*
X392500Y72900D01*
X393300Y73300D01*
X392900Y72500D01*
X393300Y71700D01*
X392500Y72100D01*
X391700Y71700D01*
X389200D02*
X389600Y72500D01*
X389200Y73300D01*
X390000Y72900D01*
X390800Y73300D01*
X390400Y72500D01*
X390800Y71700D01*
X390000Y72100D01*
X389200Y71700D01*
Y69200D02*
X389600Y70000D01*
X389200Y70800D01*
X390000Y70400D01*
X390800Y70800D01*
X390400Y70000D01*
X390800Y69200D01*
X390000Y69600D01*
X389200Y69200D01*
X301700Y71700D02*
X302100Y72500D01*
X301700Y73300D01*
X302500Y72900D01*
X303300Y73300D01*
X302900Y72500D01*
X303300Y71700D01*
X302500Y72100D01*
X301700Y71700D01*
Y69200D02*
X302100Y70000D01*
X301700Y70800D01*
X302500Y70400D01*
X303300Y70800D01*
X302900Y70000D01*
X303300Y69200D01*
X302500Y69600D01*
X301700Y69200D01*
Y66700D02*
X302100Y67500D01*
X301700Y68300D01*
X302500Y67900D01*
X303300Y68300D01*
X302900Y67500D01*
X303300Y66700D01*
X302500Y67100D01*
X301700Y66700D01*
X311700Y76700D02*
X312100Y77500D01*
X311700Y78300D01*
X312500Y77900D01*
X313300Y78300D01*
X312900Y77500D01*
X313300Y76700D01*
X312500Y77100D01*
X311700Y76700D01*
Y69200D02*
X312100Y70000D01*
X311700Y70800D01*
X312500Y70400D01*
X313300Y70800D01*
X312900Y70000D01*
X313300Y69200D01*
X312500Y69600D01*
X311700Y69200D01*
Y74200D02*
X312100Y75000D01*
X311700Y75800D01*
X312500Y75400D01*
X313300Y75800D01*
X312900Y75000D01*
X313300Y74200D01*
X312500Y74600D01*
X311700Y74200D01*
X349200Y51700D02*
X349600Y52500D01*
X349200Y53300D01*
X350000Y52900D01*
X350800Y53300D01*
X350400Y52500D01*
X350800Y51700D01*
X350000Y52100D01*
X349200Y51700D01*
X351700D02*
X352100Y52500D01*
X351700Y53300D01*
X352500Y52900D01*
X353300Y53300D01*
X352900Y52500D01*
X353300Y51700D01*
X352500Y52100D01*
X351700Y51700D01*
X354200D02*
X354600Y52500D01*
X354200Y53300D01*
X355000Y52900D01*
X355800Y53300D01*
X355400Y52500D01*
X355800Y51700D01*
X355000Y52100D01*
X354200Y51700D01*
Y54200D02*
X354600Y55000D01*
X354200Y55800D01*
X355000Y55400D01*
X355800Y55800D01*
X355400Y55000D01*
X355800Y54200D01*
X355000Y54600D01*
X354200Y54200D01*
X351700D02*
X352100Y55000D01*
X351700Y55800D01*
X352500Y55400D01*
X353300Y55800D01*
X352900Y55000D01*
X353300Y54200D01*
X352500Y54600D01*
X351700Y54200D01*
X539200Y389200D02*
X539600Y390000D01*
X539200Y390800D01*
X540000Y390400D01*
X540800Y390800D01*
X540400Y390000D01*
X540800Y389200D01*
X540000Y389600D01*
X539200Y389200D01*
Y394200D02*
X539600Y395000D01*
X539200Y395800D01*
X540000Y395400D01*
X540800Y395800D01*
X540400Y395000D01*
X540800Y394200D01*
X540000Y394600D01*
X539200Y394200D01*
Y399200D02*
X539600Y400000D01*
X539200Y400800D01*
X540000Y400400D01*
X540800Y400800D01*
X540400Y400000D01*
X540800Y399200D01*
X540000Y399600D01*
X539200Y399200D01*
Y404200D02*
X539600Y405000D01*
X539200Y405800D01*
X540000Y405400D01*
X540800Y405800D01*
X540400Y405000D01*
X540800Y404200D01*
X540000Y404600D01*
X539200Y404200D01*
Y409200D02*
X539600Y410000D01*
X539200Y410800D01*
X540000Y410400D01*
X540800Y410800D01*
X540400Y410000D01*
X540800Y409200D01*
X540000Y409600D01*
X539200Y409200D01*
Y414200D02*
X539600Y415000D01*
X539200Y415800D01*
X540000Y415400D01*
X540800Y415800D01*
X540400Y415000D01*
X540800Y414200D01*
X540000Y414600D01*
X539200Y414200D01*
Y419200D02*
X539600Y420000D01*
X539200Y420800D01*
X540000Y420400D01*
X540800Y420800D01*
X540400Y420000D01*
X540800Y419200D01*
X540000Y419600D01*
X539200Y419200D01*
Y424200D02*
X539600Y425000D01*
X539200Y425800D01*
X540000Y425400D01*
X540800Y425800D01*
X540400Y425000D01*
X540800Y424200D01*
X540000Y424600D01*
X539200Y424200D01*
Y429200D02*
X539600Y430000D01*
X539200Y430800D01*
X540000Y430400D01*
X540800Y430800D01*
X540400Y430000D01*
X540800Y429200D01*
X540000Y429600D01*
X539200Y429200D01*
X441700Y241700D02*
X442100Y242500D01*
X441700Y243300D01*
X442500Y242900D01*
X443300Y243300D01*
X442900Y242500D01*
X443300Y241700D01*
X442500Y242100D01*
X441700Y241700D01*
Y244200D02*
X442100Y245000D01*
X441700Y245800D01*
X442500Y245400D01*
X443300Y245800D01*
X442900Y245000D01*
X443300Y244200D01*
X442500Y244600D01*
X441700Y244200D01*
Y246700D02*
X442100Y247500D01*
X441700Y248300D01*
X442500Y247900D01*
X443300Y248300D01*
X442900Y247500D01*
X443300Y246700D01*
X442500Y247100D01*
X441700Y246700D01*
X444200D02*
X444600Y247500D01*
X444200Y248300D01*
X445000Y247900D01*
X445800Y248300D01*
X445400Y247500D01*
X445800Y246700D01*
X445000Y247100D01*
X444200Y246700D01*
Y241700D02*
X444600Y242500D01*
X444200Y243300D01*
X445000Y242900D01*
X445800Y243300D01*
X445400Y242500D01*
X445800Y241700D01*
X445000Y242100D01*
X444200Y241700D01*
X316700Y326700D02*
X317100Y327500D01*
X316700Y328300D01*
X317500Y327900D01*
X318300Y328300D01*
X317900Y327500D01*
X318300Y326700D01*
X317500Y327100D01*
X316700Y326700D01*
Y329200D02*
X317100Y330000D01*
X316700Y330800D01*
X317500Y330400D01*
X318300Y330800D01*
X317900Y330000D01*
X318300Y329200D01*
X317500Y329600D01*
X316700Y329200D01*
Y331700D02*
X317100Y332500D01*
X316700Y333300D01*
X317500Y332900D01*
X318300Y333300D01*
X317900Y332500D01*
X318300Y331700D01*
X317500Y332100D01*
X316700Y331700D01*
X319200D02*
X319600Y332500D01*
X319200Y333300D01*
X320000Y332900D01*
X320800Y333300D01*
X320400Y332500D01*
X320800Y331700D01*
X320000Y332100D01*
X319200Y331700D01*
Y329200D02*
X319600Y330000D01*
X319200Y330800D01*
X320000Y330400D01*
X320800Y330800D01*
X320400Y330000D01*
X320800Y329200D01*
X320000Y329600D01*
X319200Y329200D01*
Y326700D02*
X319600Y327500D01*
X319200Y328300D01*
X320000Y327900D01*
X320800Y328300D01*
X320400Y327500D01*
X320800Y326700D01*
X320000Y327100D01*
X319200Y326700D01*
X356700Y203200D02*
X357100Y204000D01*
X356700Y204800D01*
X357500Y204400D01*
X358300Y204800D01*
X357900Y204000D01*
X358300Y203200D01*
X357500Y203600D01*
X356700Y203200D01*
X354200D02*
X354600Y204000D01*
X354200Y204800D01*
X355000Y204400D01*
X355800Y204800D01*
X355400Y204000D01*
X355800Y203200D01*
X355000Y203600D01*
X354200Y203200D01*
X356700Y205700D02*
X357100Y206500D01*
X356700Y207300D01*
X357500Y206900D01*
X358300Y207300D01*
X357900Y206500D01*
X358300Y205700D01*
X357500Y206100D01*
X356700Y205700D01*
X354200D02*
X354600Y206500D01*
X354200Y207300D01*
X355000Y206900D01*
X355800Y207300D01*
X355400Y206500D01*
X355800Y205700D01*
X355000Y206100D01*
X354200Y205700D01*
X366700Y194200D02*
X367100Y195000D01*
X366700Y195800D01*
X367500Y195400D01*
X368300Y195800D01*
X367900Y195000D01*
X368300Y194200D01*
X367500Y194600D01*
X366700Y194200D01*
X364200D02*
X364600Y195000D01*
X364200Y195800D01*
X365000Y195400D01*
X365800Y195800D01*
X365400Y195000D01*
X365800Y194200D01*
X365000Y194600D01*
X364200Y194200D01*
X361700D02*
X362100Y195000D01*
X361700Y195800D01*
X362500Y195400D01*
X363300Y195800D01*
X362900Y195000D01*
X363300Y194200D01*
X362500Y194600D01*
X361700Y194200D01*
X359200D02*
X359600Y195000D01*
X359200Y195800D01*
X360000Y195400D01*
X360800Y195800D01*
X360400Y195000D01*
X360800Y194200D01*
X360000Y194600D01*
X359200Y194200D01*
X366700Y186700D02*
X367100Y187500D01*
X366700Y188300D01*
X367500Y187900D01*
X368300Y188300D01*
X367900Y187500D01*
X368300Y186700D01*
X367500Y187100D01*
X366700Y186700D01*
X364200D02*
X364600Y187500D01*
X364200Y188300D01*
X365000Y187900D01*
X365800Y188300D01*
X365400Y187500D01*
X365800Y186700D01*
X365000Y187100D01*
X364200Y186700D01*
X361700D02*
X362100Y187500D01*
X361700Y188300D01*
X362500Y187900D01*
X363300Y188300D01*
X362900Y187500D01*
X363300Y186700D01*
X362500Y187100D01*
X361700Y186700D01*
X359200D02*
X359600Y187500D01*
X359200Y188300D01*
X360000Y187900D01*
X360800Y188300D01*
X360400Y187500D01*
X360800Y186700D01*
X360000Y187100D01*
X359200Y186700D01*
X414200Y209200D02*
X414600Y210000D01*
X414200Y210800D01*
X415000Y210400D01*
X415800Y210800D01*
X415400Y210000D01*
X415800Y209200D01*
X415000Y209600D01*
X414200Y209200D01*
Y211700D02*
X414600Y212500D01*
X414200Y213300D01*
X415000Y212900D01*
X415800Y213300D01*
X415400Y212500D01*
X415800Y211700D01*
X415000Y212100D01*
X414200Y211700D01*
Y214200D02*
X414600Y215000D01*
X414200Y215800D01*
X415000Y215400D01*
X415800Y215800D01*
X415400Y215000D01*
X415800Y214200D01*
X415000Y214600D01*
X414200Y214200D01*
Y216700D02*
X414600Y217500D01*
X414200Y218300D01*
X415000Y217900D01*
X415800Y218300D01*
X415400Y217500D01*
X415800Y216700D01*
X415000Y217100D01*
X414200Y216700D01*
X429200Y221700D02*
X429600Y222500D01*
X429200Y223300D01*
X430000Y222900D01*
X430800Y223300D01*
X430400Y222500D01*
X430800Y221700D01*
X430000Y222100D01*
X429200Y221700D01*
Y219200D02*
X429600Y220000D01*
X429200Y220800D01*
X430000Y220400D01*
X430800Y220800D01*
X430400Y220000D01*
X430800Y219200D01*
X430000Y219600D01*
X429200Y219200D01*
X426700D02*
X427100Y220000D01*
X426700Y220800D01*
X427500Y220400D01*
X428300Y220800D01*
X427900Y220000D01*
X428300Y219200D01*
X427500Y219600D01*
X426700Y219200D01*
X389200Y371700D02*
X389600Y372500D01*
X389200Y373300D01*
X390000Y372900D01*
X390800Y373300D01*
X390400Y372500D01*
X390800Y371700D01*
X390000Y372100D01*
X389200Y371700D01*
X386700Y369200D02*
X387100Y370000D01*
X386700Y370800D01*
X387500Y370400D01*
X388300Y370800D01*
X387900Y370000D01*
X388300Y369200D01*
X387500Y369600D01*
X386700Y369200D01*
X384200Y371700D02*
X384600Y372500D01*
X384200Y373300D01*
X385000Y372900D01*
X385800Y373300D01*
X385400Y372500D01*
X385800Y371700D01*
X385000Y372100D01*
X384200Y371700D01*
X386700Y374200D02*
X387100Y375000D01*
X386700Y375800D01*
X387500Y375400D01*
X388300Y375800D01*
X387900Y375000D01*
X388300Y374200D01*
X387500Y374600D01*
X386700Y374200D01*
Y371700D02*
X387100Y372500D01*
X386700Y373300D01*
X387500Y372900D01*
X388300Y373300D01*
X387900Y372500D01*
X388300Y371700D01*
X387500Y372100D01*
X386700Y371700D01*
X384200Y374200D02*
X384600Y375000D01*
X384200Y375800D01*
X385000Y375400D01*
X385800Y375800D01*
X385400Y375000D01*
X385800Y374200D01*
X385000Y374600D01*
X384200Y374200D01*
Y369200D02*
X384600Y370000D01*
X384200Y370800D01*
X385000Y370400D01*
X385800Y370800D01*
X385400Y370000D01*
X385800Y369200D01*
X385000Y369600D01*
X384200Y369200D01*
X389200D02*
X389600Y370000D01*
X389200Y370800D01*
X390000Y370400D01*
X390800Y370800D01*
X390400Y370000D01*
X390800Y369200D01*
X390000Y369600D01*
X389200Y369200D01*
Y374200D02*
X389600Y375000D01*
X389200Y375800D01*
X390000Y375400D01*
X390800Y375800D01*
X390400Y375000D01*
X390800Y374200D01*
X390000Y374600D01*
X389200Y374200D01*
X384200Y216700D02*
X384600Y217500D01*
X384200Y218300D01*
X385000Y217900D01*
X385800Y218300D01*
X385400Y217500D01*
X385800Y216700D01*
X385000Y217100D01*
X384200Y216700D01*
X386700D02*
X387100Y217500D01*
X386700Y218300D01*
X387500Y217900D01*
X388300Y218300D01*
X387900Y217500D01*
X388300Y216700D01*
X387500Y217100D01*
X386700Y216700D01*
X381700D02*
X382100Y217500D01*
X381700Y218300D01*
X382500Y217900D01*
X383300Y218300D01*
X382900Y217500D01*
X383300Y216700D01*
X382500Y217100D01*
X381700Y216700D01*
X379200D02*
X379600Y217500D01*
X379200Y218300D01*
X380000Y217900D01*
X380800Y218300D01*
X380400Y217500D01*
X380800Y216700D01*
X380000Y217100D01*
X379200Y216700D01*
X376700D02*
X377100Y217500D01*
X376700Y218300D01*
X377500Y217900D01*
X378300Y218300D01*
X377900Y217500D01*
X378300Y216700D01*
X377500Y217100D01*
X376700Y216700D01*
X374200D02*
X374600Y217500D01*
X374200Y218300D01*
X375000Y217900D01*
X375800Y218300D01*
X375400Y217500D01*
X375800Y216700D01*
X375000Y217100D01*
X374200Y216700D01*
X371700D02*
X372100Y217500D01*
X371700Y218300D01*
X372500Y217900D01*
X373300Y218300D01*
X372900Y217500D01*
X373300Y216700D01*
X372500Y217100D01*
X371700Y216700D01*
X369200D02*
X369600Y217500D01*
X369200Y218300D01*
X370000Y217900D01*
X370800Y218300D01*
X370400Y217500D01*
X370800Y216700D01*
X370000Y217100D01*
X369200Y216700D01*
X366700D02*
X367100Y217500D01*
X366700Y218300D01*
X367500Y217900D01*
X368300Y218300D01*
X367900Y217500D01*
X368300Y216700D01*
X367500Y217100D01*
X366700Y216700D01*
X413200Y373200D02*
X413600Y374000D01*
X413200Y374800D01*
X414000Y374400D01*
X414800Y374800D01*
X414400Y374000D01*
X414800Y373200D01*
X414000Y373600D01*
X413200Y373200D01*
Y370200D02*
X413600Y371000D01*
X413200Y371800D01*
X414000Y371400D01*
X414800Y371800D01*
X414400Y371000D01*
X414800Y370200D01*
X414000Y370600D01*
X413200Y370200D01*
X431700Y326700D02*
X432100Y327500D01*
X431700Y328300D01*
X432500Y327900D01*
X433300Y328300D01*
X432900Y327500D01*
X433300Y326700D01*
X432500Y327100D01*
X431700Y326700D01*
X386200Y102200D02*
X386600Y103000D01*
X386200Y103800D01*
X387000Y103400D01*
X387800Y103800D01*
X387400Y103000D01*
X387800Y102200D01*
X387000Y102600D01*
X386200Y102200D01*
X393700Y105200D02*
X394100Y106000D01*
X393700Y106800D01*
X394500Y106400D01*
X395300Y106800D01*
X394900Y106000D01*
X395300Y105200D01*
X394500Y105600D01*
X393700Y105200D01*
X388700Y99700D02*
X389100Y100500D01*
X388700Y101300D01*
X389500Y100900D01*
X390300Y101300D01*
X389900Y100500D01*
X390300Y99700D01*
X389500Y100100D01*
X388700Y99700D01*
X287700Y299200D02*
X288100Y300000D01*
X287700Y300800D01*
X288500Y300400D01*
X289300Y300800D01*
X288900Y300000D01*
X289300Y299200D01*
X288500Y299600D01*
X287700Y299200D01*
X284700D02*
X285100Y300000D01*
X284700Y300800D01*
X285500Y300400D01*
X286300Y300800D01*
X285900Y300000D01*
X286300Y299200D01*
X285500Y299600D01*
X284700Y299200D01*
X448200Y55700D02*
X448600Y56500D01*
X448200Y57300D01*
X449000Y56900D01*
X449800Y57300D01*
X449400Y56500D01*
X449800Y55700D01*
X449000Y56100D01*
X448200Y55700D01*
X265700Y288700D02*
X266100Y289500D01*
X265700Y290300D01*
X266500Y289900D01*
X267300Y290300D01*
X266900Y289500D01*
X267300Y288700D01*
X266500Y289100D01*
X265700Y288700D01*
X262700D02*
X263100Y289500D01*
X262700Y290300D01*
X263500Y289900D01*
X264300Y290300D01*
X263900Y289500D01*
X264300Y288700D01*
X263500Y289100D01*
X262700Y288700D01*
X280700Y249700D02*
X281100Y250500D01*
X280700Y251300D01*
X281500Y250900D01*
X282300Y251300D01*
X281900Y250500D01*
X282300Y249700D01*
X281500Y250100D01*
X280700Y249700D01*
X277700D02*
X278100Y250500D01*
X277700Y251300D01*
X278500Y250900D01*
X279300Y251300D01*
X278900Y250500D01*
X279300Y249700D01*
X278500Y250100D01*
X277700Y249700D01*
X260200D02*
X260600Y250500D01*
X260200Y251300D01*
X261000Y250900D01*
X261800Y251300D01*
X261400Y250500D01*
X261800Y249700D01*
X261000Y250100D01*
X260200Y249700D01*
X263200D02*
X263600Y250500D01*
X263200Y251300D01*
X264000Y250900D01*
X264800Y251300D01*
X264400Y250500D01*
X264800Y249700D01*
X264000Y250100D01*
X263200Y249700D01*
X319200Y338885D02*
X319600Y339685D01*
X319200Y340485D01*
X320000Y340085D01*
X320800Y340485D01*
X320400Y339685D01*
X320800Y338885D01*
X320000Y339285D01*
X319200Y338885D01*
X389515Y124574D02*
X389915Y125374D01*
X389515Y126174D01*
X390315Y125774D01*
X391115Y126174D01*
X390715Y125374D01*
X391115Y124574D01*
X390315Y124974D01*
X389515Y124574D01*
X447700Y429700D02*
X448100Y430500D01*
X447700Y431300D01*
X448500Y430900D01*
X449300Y431300D01*
X448900Y430500D01*
X449300Y429700D01*
X448500Y430100D01*
X447700Y429700D01*
X401700Y181700D02*
X402100Y182500D01*
X401700Y183300D01*
X402500Y182900D01*
X403300Y183300D01*
X402900Y182500D01*
X403300Y181700D01*
X402500Y182100D01*
X401700Y181700D01*
X418885Y189200D02*
X419285Y190000D01*
X418885Y190800D01*
X419685Y190400D01*
X420485Y190800D01*
X420085Y190000D01*
X420485Y189200D01*
X419685Y189600D01*
X418885Y189200D01*
X429515Y209200D02*
X429915Y210000D01*
X429515Y210800D01*
X430315Y210400D01*
X431115Y210800D01*
X430715Y210000D01*
X431115Y209200D01*
X430315Y209600D01*
X429515Y209200D01*
X387950Y331700D02*
X388350Y332500D01*
X387950Y333300D01*
X388750Y332900D01*
X389550Y333300D01*
X389150Y332500D01*
X389550Y331700D01*
X388750Y332100D01*
X387950Y331700D01*
X334200Y304200D02*
X334600Y305000D01*
X334200Y305800D01*
X335000Y305400D01*
X335800Y305800D01*
X335400Y305000D01*
X335800Y304200D01*
X335000Y304600D01*
X334200Y304200D01*
X264515Y474200D02*
X264915Y475000D01*
X264515Y475800D01*
X265315Y475400D01*
X266115Y475800D01*
X265715Y475000D01*
X266115Y474200D01*
X265315Y474600D01*
X264515Y474200D01*
X291385Y466700D02*
X291785Y467500D01*
X291385Y468300D01*
X292185Y467900D01*
X292985Y468300D01*
X292585Y467500D01*
X292985Y466700D01*
X292185Y467100D01*
X291385Y466700D01*
X319515D02*
X319915Y467500D01*
X319515Y468300D01*
X320315Y467900D01*
X321115Y468300D01*
X320715Y467500D01*
X321115Y466700D01*
X320315Y467100D01*
X319515Y466700D01*
X362015Y464200D02*
X362415Y465000D01*
X362015Y465800D01*
X362815Y465400D01*
X363615Y465800D01*
X363215Y465000D01*
X363615Y464200D01*
X362815Y464600D01*
X362015Y464200D01*
X388885Y466700D02*
X389285Y467500D01*
X388885Y468300D01*
X389685Y467900D01*
X390485Y468300D01*
X390085Y467500D01*
X390485Y466700D01*
X389685Y467100D01*
X388885Y466700D01*
X417015D02*
X417415Y467500D01*
X417015Y468300D01*
X417815Y467900D01*
X418615Y468300D01*
X418215Y467500D01*
X418615Y466700D01*
X417815Y467100D01*
X417015Y466700D01*
X469515D02*
X469915Y467500D01*
X469515Y468300D01*
X470315Y467900D01*
X471115Y468300D01*
X470715Y467500D01*
X471115Y466700D01*
X470315Y467100D01*
X469515Y466700D01*
X444200Y284515D02*
X444600Y285315D01*
X444200Y286115D01*
X445000Y285715D01*
X445800Y286115D01*
X445400Y285315D01*
X445800Y284515D01*
X445000Y284915D01*
X444200Y284515D01*
X434200D02*
X434600Y285315D01*
X434200Y286115D01*
X435000Y285715D01*
X435800Y286115D01*
X435400Y285315D01*
X435800Y284515D01*
X435000Y284915D01*
X434200Y284515D01*
X424200D02*
X424600Y285315D01*
X424200Y286115D01*
X425000Y285715D01*
X425800Y286115D01*
X425400Y285315D01*
X425800Y284515D01*
X425000Y284915D01*
X424200Y284515D01*
X414200D02*
X414600Y285315D01*
X414200Y286115D01*
X415000Y285715D01*
X415800Y286115D01*
X415400Y285315D01*
X415800Y284515D01*
X415000Y284915D01*
X414200Y284515D01*
X269255Y320864D02*
X269655Y321664D01*
X269255Y322464D01*
X270055Y322064D01*
X270855Y322464D01*
X270455Y321664D01*
X270855Y320864D01*
X270055Y321264D01*
X269255Y320864D01*
X289200Y318885D02*
X289600Y319685D01*
X289200Y320485D01*
X290000Y320085D01*
X290800Y320485D01*
X290400Y319685D01*
X290800Y318885D01*
X290000Y319285D01*
X289200Y318885D01*
X284515Y199200D02*
X284915Y200000D01*
X284515Y200800D01*
X285315Y200400D01*
X286115Y200800D01*
X285715Y200000D01*
X286115Y199200D01*
X285315Y199600D01*
X284515Y199200D01*
X261700Y239200D02*
X262100Y240000D01*
X261700Y240800D01*
X262500Y240400D01*
X263300Y240800D01*
X262900Y240000D01*
X263300Y239200D01*
X262500Y239600D01*
X261700Y239200D01*
X279200Y238700D02*
X279600Y239500D01*
X279200Y240300D01*
X280000Y239900D01*
X280800Y240300D01*
X280400Y239500D01*
X280800Y238700D01*
X280000Y239100D01*
X279200Y238700D01*
X287795Y233599D02*
X288195Y234399D01*
X287795Y235199D01*
X288595Y234799D01*
X289395Y235199D01*
X288995Y234399D01*
X289395Y233599D01*
X288595Y233999D01*
X287795Y233599D01*
X270778Y240122D02*
X271178Y240922D01*
X270778Y241722D01*
X271578Y241322D01*
X272378Y241722D01*
X271978Y240922D01*
X272378Y240122D01*
X271578Y240522D01*
X270778Y240122D01*
X379200Y207074D02*
X379600Y207874D01*
X379200Y208674D01*
X380000Y208274D01*
X380800Y208674D01*
X380400Y207874D01*
X380800Y207074D01*
X380000Y207474D01*
X379200Y207074D01*
X291385Y209200D02*
X291785Y210000D01*
X291385Y210800D01*
X292185Y210400D01*
X292985Y210800D01*
X292585Y210000D01*
X292985Y209200D01*
X292185Y209600D01*
X291385Y209200D01*
X302015D02*
X302415Y210000D01*
X302015Y210800D01*
X302815Y210400D01*
X303615Y210800D01*
X303215Y210000D01*
X303615Y209200D01*
X302815Y209600D01*
X302015Y209200D01*
Y219200D02*
X302415Y220000D01*
X302015Y220800D01*
X302815Y220400D01*
X303615Y220800D01*
X303215Y220000D01*
X303615Y219200D01*
X302815Y219600D01*
X302015Y219200D01*
X349200Y207074D02*
X349600Y207874D01*
X349200Y208674D01*
X350000Y208274D01*
X350800Y208674D01*
X350400Y207874D01*
X350800Y207074D01*
X350000Y207474D01*
X349200Y207074D01*
X459200Y214200D02*
X459600Y215000D01*
X459200Y215800D01*
X460000Y215400D01*
X460800Y215800D01*
X460400Y215000D01*
X460800Y214200D01*
X460000Y214600D01*
X459200Y214200D01*
Y216700D02*
X459600Y217500D01*
X459200Y218300D01*
X460000Y217900D01*
X460800Y218300D01*
X460400Y217500D01*
X460800Y216700D01*
X460000Y217100D01*
X459200Y216700D01*
Y219200D02*
X459600Y220000D01*
X459200Y220800D01*
X460000Y220400D01*
X460800Y220800D01*
X460400Y220000D01*
X460800Y219200D01*
X460000Y219600D01*
X459200Y219200D01*
Y221700D02*
X459600Y222500D01*
X459200Y223300D01*
X460000Y222900D01*
X460800Y223300D01*
X460400Y222500D01*
X460800Y221700D01*
X460000Y222100D01*
X459200Y221700D01*
Y224200D02*
X459600Y225000D01*
X459200Y225800D01*
X460000Y225400D01*
X460800Y225800D01*
X460400Y225000D01*
X460800Y224200D01*
X460000Y224600D01*
X459200Y224200D01*
X449200Y214200D02*
X449600Y215000D01*
X449200Y215800D01*
X450000Y215400D01*
X450800Y215800D01*
X450400Y215000D01*
X450800Y214200D01*
X450000Y214600D01*
X449200Y214200D01*
Y216700D02*
X449600Y217500D01*
X449200Y218300D01*
X450000Y217900D01*
X450800Y218300D01*
X450400Y217500D01*
X450800Y216700D01*
X450000Y217100D01*
X449200Y216700D01*
Y219200D02*
X449600Y220000D01*
X449200Y220800D01*
X450000Y220400D01*
X450800Y220800D01*
X450400Y220000D01*
X450800Y219200D01*
X450000Y219600D01*
X449200Y219200D01*
Y221700D02*
X449600Y222500D01*
X449200Y223300D01*
X450000Y222900D01*
X450800Y223300D01*
X450400Y222500D01*
X450800Y221700D01*
X450000Y222100D01*
X449200Y221700D01*
Y224200D02*
X449600Y225000D01*
X449200Y225800D01*
X450000Y225400D01*
X450800Y225800D01*
X450400Y225000D01*
X450800Y224200D01*
X450000Y224600D01*
X449200Y224200D01*
X464200Y164200D02*
X464600Y165000D01*
X464200Y165800D01*
X465000Y165400D01*
X465800Y165800D01*
X465400Y165000D01*
X465800Y164200D01*
X465000Y164600D01*
X464200Y164200D01*
Y166700D02*
X464600Y167500D01*
X464200Y168300D01*
X465000Y167900D01*
X465800Y168300D01*
X465400Y167500D01*
X465800Y166700D01*
X465000Y167100D01*
X464200Y166700D01*
Y169200D02*
X464600Y170000D01*
X464200Y170800D01*
X465000Y170400D01*
X465800Y170800D01*
X465400Y170000D01*
X465800Y169200D01*
X465000Y169600D01*
X464200Y169200D01*
Y171700D02*
X464600Y172500D01*
X464200Y173300D01*
X465000Y172900D01*
X465800Y173300D01*
X465400Y172500D01*
X465800Y171700D01*
X465000Y172100D01*
X464200Y171700D01*
Y174200D02*
X464600Y175000D01*
X464200Y175800D01*
X465000Y175400D01*
X465800Y175800D01*
X465400Y175000D01*
X465800Y174200D01*
X465000Y174600D01*
X464200Y174200D01*
Y176700D02*
X464600Y177500D01*
X464200Y178300D01*
X465000Y177900D01*
X465800Y178300D01*
X465400Y177500D01*
X465800Y176700D01*
X465000Y177100D01*
X464200Y176700D01*
Y179200D02*
X464600Y180000D01*
X464200Y180800D01*
X465000Y180400D01*
X465800Y180800D01*
X465400Y180000D01*
X465800Y179200D01*
X465000Y179600D01*
X464200Y179200D01*
X474200Y164200D02*
X474600Y165000D01*
X474200Y165800D01*
X475000Y165400D01*
X475800Y165800D01*
X475400Y165000D01*
X475800Y164200D01*
X475000Y164600D01*
X474200Y164200D01*
Y166700D02*
X474600Y167500D01*
X474200Y168300D01*
X475000Y167900D01*
X475800Y168300D01*
X475400Y167500D01*
X475800Y166700D01*
X475000Y167100D01*
X474200Y166700D01*
Y169200D02*
X474600Y170000D01*
X474200Y170800D01*
X475000Y170400D01*
X475800Y170800D01*
X475400Y170000D01*
X475800Y169200D01*
X475000Y169600D01*
X474200Y169200D01*
Y171700D02*
X474600Y172500D01*
X474200Y173300D01*
X475000Y172900D01*
X475800Y173300D01*
X475400Y172500D01*
X475800Y171700D01*
X475000Y172100D01*
X474200Y171700D01*
Y174200D02*
X474600Y175000D01*
X474200Y175800D01*
X475000Y175400D01*
X475800Y175800D01*
X475400Y175000D01*
X475800Y174200D01*
X475000Y174600D01*
X474200Y174200D01*
Y176700D02*
X474600Y177500D01*
X474200Y178300D01*
X475000Y177900D01*
X475800Y178300D01*
X475400Y177500D01*
X475800Y176700D01*
X475000Y177100D01*
X474200Y176700D01*
Y179200D02*
X474600Y180000D01*
X474200Y180800D01*
X475000Y180400D01*
X475800Y180800D01*
X475400Y180000D01*
X475800Y179200D01*
X475000Y179600D01*
X474200Y179200D01*
X421700Y19200D02*
X422100Y20000D01*
X421700Y20800D01*
X422500Y20400D01*
X423300Y20800D01*
X422900Y20000D01*
X423300Y19200D01*
X422500Y19600D01*
X421700Y19200D01*
X424200D02*
X424600Y20000D01*
X424200Y20800D01*
X425000Y20400D01*
X425800Y20800D01*
X425400Y20000D01*
X425800Y19200D01*
X425000Y19600D01*
X424200Y19200D01*
X426700D02*
X427100Y20000D01*
X426700Y20800D01*
X427500Y20400D01*
X428300Y20800D01*
X427900Y20000D01*
X428300Y19200D01*
X427500Y19600D01*
X426700Y19200D01*
X429200D02*
X429600Y20000D01*
X429200Y20800D01*
X430000Y20400D01*
X430800Y20800D01*
X430400Y20000D01*
X430800Y19200D01*
X430000Y19600D01*
X429200Y19200D01*
X431700D02*
X432100Y20000D01*
X431700Y20800D01*
X432500Y20400D01*
X433300Y20800D01*
X432900Y20000D01*
X433300Y19200D01*
X432500Y19600D01*
X431700Y19200D01*
X196700Y236700D02*
X197100Y237500D01*
X196700Y238300D01*
X197500Y237900D01*
X198300Y238300D01*
X197900Y237500D01*
X198300Y236700D01*
X197500Y237100D01*
X196700Y236700D01*
Y241700D02*
X197100Y242500D01*
X196700Y243300D01*
X197500Y242900D01*
X198300Y243300D01*
X197900Y242500D01*
X198300Y241700D01*
X197500Y242100D01*
X196700Y241700D01*
Y246700D02*
X197100Y247500D01*
X196700Y248300D01*
X197500Y247900D01*
X198300Y248300D01*
X197900Y247500D01*
X198300Y246700D01*
X197500Y247100D01*
X196700Y246700D01*
X201700Y251700D02*
X202100Y252500D01*
X201700Y253300D01*
X202500Y252900D01*
X203300Y253300D01*
X202900Y252500D01*
X203300Y251700D01*
X202500Y252100D01*
X201700Y251700D01*
X424200Y309200D02*
X424600Y310000D01*
X424200Y310800D01*
X425000Y310400D01*
X425800Y310800D01*
X425400Y310000D01*
X425800Y309200D01*
X425000Y309600D01*
X424200Y309200D01*
X421700D02*
X422100Y310000D01*
X421700Y310800D01*
X422500Y310400D01*
X423300Y310800D01*
X422900Y310000D01*
X423300Y309200D01*
X422500Y309600D01*
X421700Y309200D01*
X419200D02*
X419600Y310000D01*
X419200Y310800D01*
X420000Y310400D01*
X420800Y310800D01*
X420400Y310000D01*
X420800Y309200D01*
X420000Y309600D01*
X419200Y309200D01*
X421700Y311700D02*
X422100Y312500D01*
X421700Y313300D01*
X422500Y312900D01*
X423300Y313300D01*
X422900Y312500D01*
X423300Y311700D01*
X422500Y312100D01*
X421700Y311700D01*
Y306700D02*
X422100Y307500D01*
X421700Y308300D01*
X422500Y307900D01*
X423300Y308300D01*
X422900Y307500D01*
X423300Y306700D01*
X422500Y307100D01*
X421700Y306700D01*
X394309Y444353D02*
X394709Y445153D01*
X394309Y445953D01*
X395110Y445553D01*
X395910Y445953D01*
X395510Y445153D01*
X395910Y444353D01*
X395110Y444753D01*
X394309Y444353D01*
X394200Y439200D02*
X394600Y440000D01*
X394200Y440800D01*
X395000Y440400D01*
X395800Y440800D01*
X395400Y440000D01*
X395800Y439200D01*
X395000Y439600D01*
X394200Y439200D01*
Y419200D02*
X394600Y420000D01*
X394200Y420800D01*
X395000Y420400D01*
X395800Y420800D01*
X395400Y420000D01*
X395800Y419200D01*
X395000Y419600D01*
X394200Y419200D01*
X404200Y339200D02*
X404600Y340000D01*
X404200Y340800D01*
X405000Y340400D01*
X405800Y340800D01*
X405400Y340000D01*
X405800Y339200D01*
X405000Y339600D01*
X404200Y339200D01*
X399200D02*
X399600Y340000D01*
X399200Y340800D01*
X400000Y340400D01*
X400800Y340800D01*
X400400Y340000D01*
X400800Y339200D01*
X400000Y339600D01*
X399200Y339200D01*
X394200D02*
X394600Y340000D01*
X394200Y340800D01*
X395000Y340400D01*
X395800Y340800D01*
X395400Y340000D01*
X395800Y339200D01*
X395000Y339600D01*
X394200Y339200D01*
X346700Y276700D02*
X347100Y277500D01*
X346700Y278300D01*
X347500Y277900D01*
X348300Y278300D01*
X347900Y277500D01*
X348300Y276700D01*
X347500Y277100D01*
X346700Y276700D01*
Y271700D02*
X347100Y272500D01*
X346700Y273300D01*
X347500Y272900D01*
X348300Y273300D01*
X347900Y272500D01*
X348300Y271700D01*
X347500Y272100D01*
X346700Y271700D01*
Y274200D02*
X347100Y275000D01*
X346700Y275800D01*
X347500Y275400D01*
X348300Y275800D01*
X347900Y275000D01*
X348300Y274200D01*
X347500Y274600D01*
X346700Y274200D01*
Y269200D02*
X347100Y270000D01*
X346700Y270800D01*
X347500Y270400D01*
X348300Y270800D01*
X347900Y270000D01*
X348300Y269200D01*
X347500Y269600D01*
X346700Y269200D01*
Y264200D02*
X347100Y265000D01*
X346700Y265800D01*
X347500Y265400D01*
X348300Y265800D01*
X347900Y265000D01*
X348300Y264200D01*
X347500Y264600D01*
X346700Y264200D01*
Y259200D02*
X347100Y260000D01*
X346700Y260800D01*
X347500Y260400D01*
X348300Y260800D01*
X347900Y260000D01*
X348300Y259200D01*
X347500Y259600D01*
X346700Y259200D01*
X351700Y134200D02*
X352100Y135000D01*
X351700Y135800D01*
X352500Y135400D01*
X353300Y135800D01*
X352900Y135000D01*
X353300Y134200D01*
X352500Y134600D01*
X351700Y134200D01*
Y131700D02*
X352100Y132500D01*
X351700Y133300D01*
X352500Y132900D01*
X353300Y133300D01*
X352900Y132500D01*
X353300Y131700D01*
X352500Y132100D01*
X351700Y131700D01*
Y129200D02*
X352100Y130000D01*
X351700Y130800D01*
X352500Y130400D01*
X353300Y130800D01*
X352900Y130000D01*
X353300Y129200D01*
X352500Y129600D01*
X351700Y129200D01*
Y126700D02*
X352100Y127500D01*
X351700Y128300D01*
X352500Y127900D01*
X353300Y128300D01*
X352900Y127500D01*
X353300Y126700D01*
X352500Y127100D01*
X351700Y126700D01*
Y124200D02*
X352100Y125000D01*
X351700Y125800D01*
X352500Y125400D01*
X353300Y125800D01*
X352900Y125000D01*
X353300Y124200D01*
X352500Y124600D01*
X351700Y124200D01*
Y119200D02*
X352100Y120000D01*
X351700Y120800D01*
X352500Y120400D01*
X353300Y120800D01*
X352900Y120000D01*
X353300Y119200D01*
X352500Y119600D01*
X351700Y119200D01*
Y121700D02*
X352100Y122500D01*
X351700Y123300D01*
X352500Y122900D01*
X353300Y123300D01*
X352900Y122500D01*
X353300Y121700D01*
X352500Y122100D01*
X351700Y121700D01*
X339200Y119200D02*
X339600Y120000D01*
X339200Y120800D01*
X340000Y120400D01*
X340800Y120800D01*
X340400Y120000D01*
X340800Y119200D01*
X340000Y119600D01*
X339200Y119200D01*
Y121700D02*
X339600Y122500D01*
X339200Y123300D01*
X340000Y122900D01*
X340800Y123300D01*
X340400Y122500D01*
X340800Y121700D01*
X340000Y122100D01*
X339200Y121700D01*
Y124200D02*
X339600Y125000D01*
X339200Y125800D01*
X340000Y125400D01*
X340800Y125800D01*
X340400Y125000D01*
X340800Y124200D01*
X340000Y124600D01*
X339200Y124200D01*
Y126700D02*
X339600Y127500D01*
X339200Y128300D01*
X340000Y127900D01*
X340800Y128300D01*
X340400Y127500D01*
X340800Y126700D01*
X340000Y127100D01*
X339200Y126700D01*
Y129200D02*
X339600Y130000D01*
X339200Y130800D01*
X340000Y130400D01*
X340800Y130800D01*
X340400Y130000D01*
X340800Y129200D01*
X340000Y129600D01*
X339200Y129200D01*
Y131700D02*
X339600Y132500D01*
X339200Y133300D01*
X340000Y132900D01*
X340800Y133300D01*
X340400Y132500D01*
X340800Y131700D01*
X340000Y132100D01*
X339200Y131700D01*
Y134200D02*
X339600Y135000D01*
X339200Y135800D01*
X340000Y135400D01*
X340800Y135800D01*
X340400Y135000D01*
X340800Y134200D01*
X340000Y134600D01*
X339200Y134200D01*
X426700Y51700D02*
X427100Y52500D01*
X426700Y53300D01*
X427500Y52900D01*
X428300Y53300D01*
X427900Y52500D01*
X428300Y51700D01*
X427500Y52100D01*
X426700Y51700D01*
X431700D02*
X432100Y52500D01*
X431700Y53300D01*
X432500Y52900D01*
X433300Y53300D01*
X432900Y52500D01*
X433300Y51700D01*
X432500Y52100D01*
X431700Y51700D01*
X436700D02*
X437100Y52500D01*
X436700Y53300D01*
X437500Y52900D01*
X438300Y53300D01*
X437900Y52500D01*
X438300Y51700D01*
X437500Y52100D01*
X436700Y51700D01*
X441700D02*
X442100Y52500D01*
X441700Y53300D01*
X442500Y52900D01*
X443300Y53300D01*
X442900Y52500D01*
X443300Y51700D01*
X442500Y52100D01*
X441700Y51700D01*
X424200Y24200D02*
X424600Y25000D01*
X424200Y25800D01*
X425000Y25400D01*
X425800Y25800D01*
X425400Y25000D01*
X425800Y24200D01*
X425000Y24600D01*
X424200Y24200D01*
Y21700D02*
X424600Y22500D01*
X424200Y23300D01*
X425000Y22900D01*
X425800Y23300D01*
X425400Y22500D01*
X425800Y21700D01*
X425000Y22100D01*
X424200Y21700D01*
X429200D02*
X429600Y22500D01*
X429200Y23300D01*
X430000Y22900D01*
X430800Y23300D01*
X430400Y22500D01*
X430800Y21700D01*
X430000Y22100D01*
X429200Y21700D01*
Y24200D02*
X429600Y25000D01*
X429200Y25800D01*
X430000Y25400D01*
X430800Y25800D01*
X430400Y25000D01*
X430800Y24200D01*
X430000Y24600D01*
X429200Y24200D01*
X431700Y21700D02*
X432100Y22500D01*
X431700Y23300D01*
X432500Y22900D01*
X433300Y23300D01*
X432900Y22500D01*
X433300Y21700D01*
X432500Y22100D01*
X431700Y21700D01*
X426700D02*
X427100Y22500D01*
X426700Y23300D01*
X427500Y22900D01*
X428300Y23300D01*
X427900Y22500D01*
X428300Y21700D01*
X427500Y22100D01*
X426700Y21700D01*
X421700D02*
X422100Y22500D01*
X421700Y23300D01*
X422500Y22900D01*
X423300Y23300D01*
X422900Y22500D01*
X423300Y21700D01*
X422500Y22100D01*
X421700Y21700D01*
X434200Y109200D02*
X434600Y110000D01*
X434200Y110800D01*
X435000Y110400D01*
X435800Y110800D01*
X435400Y110000D01*
X435800Y109200D01*
X435000Y109600D01*
X434200Y109200D01*
X431700Y111700D02*
X432100Y112500D01*
X431700Y113300D01*
X432500Y112900D01*
X433300Y113300D01*
X432900Y112500D01*
X433300Y111700D01*
X432500Y112100D01*
X431700Y111700D01*
X429200Y114200D02*
X429600Y115000D01*
X429200Y115800D01*
X430000Y115400D01*
X430800Y115800D01*
X430400Y115000D01*
X430800Y114200D01*
X430000Y114600D01*
X429200Y114200D01*
X426700Y116700D02*
X427100Y117500D01*
X426700Y118300D01*
X427500Y117900D01*
X428300Y118300D01*
X427900Y117500D01*
X428300Y116700D01*
X427500Y117100D01*
X426700Y116700D01*
X434200Y106700D02*
X434600Y107500D01*
X434200Y108300D01*
X435000Y107900D01*
X435800Y108300D01*
X435400Y107500D01*
X435800Y106700D01*
X435000Y107100D01*
X434200Y106700D01*
X424200Y116700D02*
X424600Y117500D01*
X424200Y118300D01*
X425000Y117900D01*
X425800Y118300D01*
X425400Y117500D01*
X425800Y116700D01*
X425000Y117100D01*
X424200Y116700D01*
X429200Y111700D02*
X429600Y112500D01*
X429200Y113300D01*
X430000Y112900D01*
X430800Y113300D01*
X430400Y112500D01*
X430800Y111700D01*
X430000Y112100D01*
X429200Y111700D01*
X424200Y99200D02*
X424600Y100000D01*
X424200Y100800D01*
X425000Y100400D01*
X425800Y100800D01*
X425400Y100000D01*
X425800Y99200D01*
X425000Y99600D01*
X424200Y99200D01*
X421700Y101700D02*
X422100Y102500D01*
X421700Y103300D01*
X422500Y102900D01*
X423300Y103300D01*
X422900Y102500D01*
X423300Y101700D01*
X422500Y102100D01*
X421700Y101700D01*
X419200Y104200D02*
X419600Y105000D01*
X419200Y105800D01*
X420000Y105400D01*
X420800Y105800D01*
X420400Y105000D01*
X420800Y104200D01*
X420000Y104600D01*
X419200Y104200D01*
X416700Y106700D02*
X417100Y107500D01*
X416700Y108300D01*
X417500Y107900D01*
X418300Y108300D01*
X417900Y107500D01*
X418300Y106700D01*
X417500Y107100D01*
X416700Y106700D01*
X419200D02*
X419600Y107500D01*
X419200Y108300D01*
X420000Y107900D01*
X420800Y108300D01*
X420400Y107500D01*
X420800Y106700D01*
X420000Y107100D01*
X419200Y106700D01*
X424200Y101700D02*
X424600Y102500D01*
X424200Y103300D01*
X425000Y102900D01*
X425800Y103300D01*
X425400Y102500D01*
X425800Y101700D01*
X425000Y102100D01*
X424200Y101700D01*
X486700Y216700D02*
X487100Y217500D01*
X486700Y218300D01*
X487500Y217900D01*
X488300Y218300D01*
X487900Y217500D01*
X488300Y216700D01*
X487500Y217100D01*
X486700Y216700D01*
Y211700D02*
X487100Y212500D01*
X486700Y213300D01*
X487500Y212900D01*
X488300Y213300D01*
X487900Y212500D01*
X488300Y211700D01*
X487500Y212100D01*
X486700Y211700D01*
X489200D02*
X489600Y212500D01*
X489200Y213300D01*
X490000Y212900D01*
X490800Y213300D01*
X490400Y212500D01*
X490800Y211700D01*
X490000Y212100D01*
X489200Y211700D01*
Y216700D02*
X489600Y217500D01*
X489200Y218300D01*
X490000Y217900D01*
X490800Y218300D01*
X490400Y217500D01*
X490800Y216700D01*
X490000Y217100D01*
X489200Y216700D01*
X451700Y221700D02*
X452100Y222500D01*
X451700Y223300D01*
X452500Y222900D01*
X453300Y223300D01*
X452900Y222500D01*
X453300Y221700D01*
X452500Y222100D01*
X451700Y221700D01*
Y216700D02*
X452100Y217500D01*
X451700Y218300D01*
X452500Y217900D01*
X453300Y218300D01*
X452900Y217500D01*
X453300Y216700D01*
X452500Y217100D01*
X451700Y216700D01*
X456700D02*
X457100Y217500D01*
X456700Y218300D01*
X457500Y217900D01*
X458300Y218300D01*
X457900Y217500D01*
X458300Y216700D01*
X457500Y217100D01*
X456700Y216700D01*
Y221700D02*
X457100Y222500D01*
X456700Y223300D01*
X457500Y222900D01*
X458300Y223300D01*
X457900Y222500D01*
X458300Y221700D01*
X457500Y222100D01*
X456700Y221700D01*
X476700Y166700D02*
X477100Y167500D01*
X476700Y168300D01*
X477500Y167900D01*
X478300Y168300D01*
X477900Y167500D01*
X478300Y166700D01*
X477500Y167100D01*
X476700Y166700D01*
Y171700D02*
X477100Y172500D01*
X476700Y173300D01*
X477500Y172900D01*
X478300Y173300D01*
X477900Y172500D01*
X478300Y171700D01*
X477500Y172100D01*
X476700Y171700D01*
Y176700D02*
X477100Y177500D01*
X476700Y178300D01*
X477500Y177900D01*
X478300Y178300D01*
X477900Y177500D01*
X478300Y176700D01*
X477500Y177100D01*
X476700Y176700D01*
X466700D02*
X467100Y177500D01*
X466700Y178300D01*
X467500Y177900D01*
X468300Y178300D01*
X467900Y177500D01*
X468300Y176700D01*
X467500Y177100D01*
X466700Y176700D01*
Y171700D02*
X467100Y172500D01*
X466700Y173300D01*
X467500Y172900D01*
X468300Y173300D01*
X467900Y172500D01*
X468300Y171700D01*
X467500Y172100D01*
X466700Y171700D01*
Y166700D02*
X467100Y167500D01*
X466700Y168300D01*
X467500Y167900D01*
X468300Y168300D01*
X467900Y167500D01*
X468300Y166700D01*
X467500Y167100D01*
X466700Y166700D01*
X489200Y371700D02*
X489600Y372500D01*
X489200Y373300D01*
X490000Y372900D01*
X490800Y373300D01*
X490400Y372500D01*
X490800Y371700D01*
X490000Y372100D01*
X489200Y371700D01*
X494200Y366700D02*
X494600Y367500D01*
X494200Y368300D01*
X495000Y367900D01*
X495800Y368300D01*
X495400Y367500D01*
X495800Y366700D01*
X495000Y367100D01*
X494200Y366700D01*
X516700Y391700D02*
X517100Y392500D01*
X516700Y393300D01*
X517500Y392900D01*
X518300Y393300D01*
X517900Y392500D01*
X518300Y391700D01*
X517500Y392100D01*
X516700Y391700D01*
X511700Y396700D02*
X512100Y397500D01*
X511700Y398300D01*
X512500Y397900D01*
X513300Y398300D01*
X512900Y397500D01*
X513300Y396700D01*
X512500Y397100D01*
X511700Y396700D01*
X501700Y386700D02*
X502100Y387500D01*
X501700Y388300D01*
X502500Y387900D01*
X503300Y388300D01*
X502900Y387500D01*
X503300Y386700D01*
X502500Y387100D01*
X501700Y386700D01*
X506700Y381700D02*
X507100Y382500D01*
X506700Y383300D01*
X507500Y382900D01*
X508300Y383300D01*
X507900Y382500D01*
X508300Y381700D01*
X507500Y382100D01*
X506700Y381700D01*
X449200Y474200D02*
X449600Y475000D01*
X449200Y475800D01*
X450000Y475400D01*
X450800Y475800D01*
X450400Y475000D01*
X450800Y474200D01*
X450000Y474600D01*
X449200Y474200D01*
X393676Y92638D02*
X394076Y93438D01*
X393676Y94238D01*
X394476Y93838D01*
X395276Y94238D01*
X394876Y93438D01*
X395276Y92638D01*
X394476Y93038D01*
X393676Y92638D01*
X311700Y71700D02*
X312100Y72500D01*
X311700Y73300D01*
X312500Y72900D01*
X313300Y73300D01*
X312900Y72500D01*
X313300Y71700D01*
X312500Y72100D01*
X311700Y71700D01*
X301700Y64200D02*
X302100Y65000D01*
X301700Y65800D01*
X302500Y65400D01*
X303300Y65800D01*
X302900Y65000D01*
X303300Y64200D01*
X302500Y64600D01*
X301700Y64200D01*
X231700Y241700D02*
X232100Y242500D01*
X231700Y243300D01*
X232500Y242900D01*
X233300Y243300D01*
X232900Y242500D01*
X233300Y241700D01*
X232500Y242100D01*
X231700Y241700D01*
X257274Y289020D02*
X257674Y289820D01*
X257274Y290620D01*
X258074Y290220D01*
X258874Y290620D01*
X258474Y289820D01*
X258874Y289020D01*
X258074Y289420D01*
X257274Y289020D01*
X271218Y294375D02*
X271618Y295175D01*
X271218Y295975D01*
X272018Y295575D01*
X272818Y295975D01*
X272418Y295175D01*
X272818Y294375D01*
X272018Y294775D01*
X271218Y294375D01*
X251274Y290492D02*
X251674Y291292D01*
X251274Y292092D01*
X252074Y291692D01*
X252874Y292092D01*
X252474Y291292D01*
X252874Y290492D01*
X252074Y290892D01*
X251274Y290492D01*
X261381Y281810D02*
X261781Y282610D01*
X261381Y283410D01*
X262181Y283010D01*
X262981Y283410D01*
X262581Y282610D01*
X262981Y281810D01*
X262181Y282210D01*
X261381Y281810D01*
X241700Y224200D02*
X242100Y225000D01*
X241700Y225800D01*
X242500Y225400D01*
X243300Y225800D01*
X242900Y225000D01*
X243300Y224200D01*
X242500Y224600D01*
X241700Y224200D01*
X236700D02*
X237100Y225000D01*
X236700Y225800D01*
X237500Y225400D01*
X238300Y225800D01*
X237900Y225000D01*
X238300Y224200D01*
X237500Y224600D01*
X236700Y224200D01*
X231700D02*
X232100Y225000D01*
X231700Y225800D01*
X232500Y225400D01*
X233300Y225800D01*
X232900Y225000D01*
X233300Y224200D01*
X232500Y224600D01*
X231700Y224200D01*
X269700Y468665D02*
X270100Y469465D01*
X269700Y470265D01*
X270500Y469865D01*
X271300Y470265D01*
X270900Y469465D01*
X271300Y468665D01*
X270500Y469065D01*
X269700Y468665D01*
X334122Y209193D02*
X334522Y209994D01*
X334122Y210793D01*
X334922Y210394D01*
X335722Y210793D01*
X335322Y209994D01*
X335722Y209193D01*
X334922Y209594D01*
X334122Y209193D01*
X351700Y419200D02*
X352100Y420000D01*
X351700Y420800D01*
X352500Y420400D01*
X353300Y420800D01*
X352900Y420000D01*
X353300Y419200D01*
X352500Y419600D01*
X351700Y419200D01*
X291700Y426700D02*
X292100Y427500D01*
X291700Y428300D01*
X292500Y427900D01*
X293300Y428300D01*
X292900Y427500D01*
X293300Y426700D01*
X292500Y427100D01*
X291700Y426700D01*
X271031Y411340D02*
X271431Y412140D01*
X271031Y412940D01*
X271831Y412540D01*
X272631Y412940D01*
X272231Y412140D01*
X272631Y411340D01*
X271831Y411740D01*
X271031Y411340D01*
X302231Y414367D02*
X302631Y415167D01*
X302231Y415967D01*
X303031Y415567D01*
X303831Y415967D01*
X303431Y415167D01*
X303831Y414367D01*
X303031Y414767D01*
X302231Y414367D01*
X266700Y399200D02*
X267100Y400000D01*
X266700Y400800D01*
X267500Y400400D01*
X268300Y400800D01*
X267900Y400000D01*
X268300Y399200D01*
X267500Y399600D01*
X266700Y399200D01*
X309200Y371700D02*
X309600Y372500D01*
X309200Y373300D01*
X310000Y372900D01*
X310800Y373300D01*
X310400Y372500D01*
X310800Y371700D01*
X310000Y372100D01*
X309200Y371700D01*
X277100Y432100D02*
Y431700D01*
X277900D01*
Y432100D01*
X278300D01*
Y432900D01*
X277900D01*
Y433300D01*
X277100D01*
Y432900D01*
X276700D01*
Y432100D01*
X277100D01*
X281700Y431700D02*
X282100Y432500D01*
X281700Y433300D01*
X282500Y432900D01*
X283300Y433300D01*
X282900Y432500D01*
X283300Y431700D01*
X282500Y432100D01*
X281700Y431700D01*
X287100Y432100D02*
Y431700D01*
X287900D01*
Y432100D01*
X288300D01*
Y432900D01*
X287900D01*
Y433300D01*
X287100D01*
Y432900D01*
X286700D01*
Y432100D01*
X287100D01*
X291700Y431700D02*
X292100Y432500D01*
X291700Y433300D01*
X292500Y432900D01*
X293300Y433300D01*
X292900Y432500D01*
X293300Y431700D01*
X292500Y432100D01*
X291700Y431700D01*
X271700D02*
X272100Y432500D01*
X271700Y433300D01*
X272500Y432900D01*
X273300Y433300D01*
X272900Y432500D01*
X273300Y431700D01*
X272500Y432100D01*
X271700Y431700D01*
X261700D02*
X262100Y432500D01*
X261700Y433300D01*
X262500Y432900D01*
X263300Y433300D01*
X262900Y432500D01*
X263300Y431700D01*
X262500Y432100D01*
X261700Y431700D01*
Y436700D02*
X262100Y437500D01*
X261700Y438300D01*
X262500Y437900D01*
X263300Y438300D01*
X262900Y437500D01*
X263300Y436700D01*
X262500Y437100D01*
X261700Y436700D01*
X266700D02*
X267100Y437500D01*
X266700Y438300D01*
X267500Y437900D01*
X268300Y438300D01*
X267900Y437500D01*
X268300Y436700D01*
X267500Y437100D01*
X266700Y436700D01*
X271700D02*
X272100Y437500D01*
X271700Y438300D01*
X272500Y437900D01*
X273300Y438300D01*
X272900Y437500D01*
X273300Y436700D01*
X272500Y437100D01*
X271700Y436700D01*
X276700D02*
X277100Y437500D01*
X276700Y438300D01*
X277500Y437900D01*
X278300Y438300D01*
X277900Y437500D01*
X278300Y436700D01*
X277500Y437100D01*
X276700Y436700D01*
X281700D02*
X282100Y437500D01*
X281700Y438300D01*
X282500Y437900D01*
X283300Y438300D01*
X282900Y437500D01*
X283300Y436700D01*
X282500Y437100D01*
X281700Y436700D01*
X286700D02*
X287100Y437500D01*
X286700Y438300D01*
X287500Y437900D01*
X288300Y438300D01*
X287900Y437500D01*
X288300Y436700D01*
X287500Y437100D01*
X286700Y436700D01*
X291700D02*
X292100Y437500D01*
X291700Y438300D01*
X292500Y437900D01*
X293300Y438300D01*
X292900Y437500D01*
X293300Y436700D01*
X292500Y437100D01*
X291700Y436700D01*
X286700Y426700D02*
X287100Y427500D01*
X286700Y428300D01*
X287500Y427900D01*
X288300Y428300D01*
X287900Y427500D01*
X288300Y426700D01*
X287500Y427100D01*
X286700Y426700D01*
X281700D02*
X282100Y427500D01*
X281700Y428300D01*
X282500Y427900D01*
X283300Y428300D01*
X282900Y427500D01*
X283300Y426700D01*
X282500Y427100D01*
X281700Y426700D01*
X276700D02*
X277100Y427500D01*
X276700Y428300D01*
X277500Y427900D01*
X278300Y428300D01*
X277900Y427500D01*
X278300Y426700D01*
X277500Y427100D01*
X276700Y426700D01*
X271700D02*
X272100Y427500D01*
X271700Y428300D01*
X272500Y427900D01*
X273300Y428300D01*
X272900Y427500D01*
X273300Y426700D01*
X272500Y427100D01*
X271700Y426700D01*
X266700D02*
X267100Y427500D01*
X266700Y428300D01*
X267500Y427900D01*
X268300Y428300D01*
X267900Y427500D01*
X268300Y426700D01*
X267500Y427100D01*
X266700Y426700D01*
X261700D02*
X262100Y427500D01*
X261700Y428300D01*
X262500Y427900D01*
X263300Y428300D01*
X262900Y427500D01*
X263300Y426700D01*
X262500Y427100D01*
X261700Y426700D01*
X374600Y432100D02*
Y431700D01*
X375400D01*
Y432100D01*
X375800D01*
Y432900D01*
X375400D01*
Y433300D01*
X374600D01*
Y432900D01*
X374200D01*
Y432100D01*
X374600D01*
X379200Y436700D02*
X379600Y437500D01*
X379200Y438300D01*
X380000Y437900D01*
X380800Y438300D01*
X380400Y437500D01*
X380800Y436700D01*
X380000Y437100D01*
X379200Y436700D01*
X374200D02*
X374600Y437500D01*
X374200Y438300D01*
X375000Y437900D01*
X375800Y438300D01*
X375400Y437500D01*
X375800Y436700D01*
X375000Y437100D01*
X374200Y436700D01*
X369200D02*
X369600Y437500D01*
X369200Y438300D01*
X370000Y437900D01*
X370800Y438300D01*
X370400Y437500D01*
X370800Y436700D01*
X370000Y437100D01*
X369200Y436700D01*
X364200D02*
X364600Y437500D01*
X364200Y438300D01*
X365000Y437900D01*
X365800Y438300D01*
X365400Y437500D01*
X365800Y436700D01*
X365000Y437100D01*
X364200Y436700D01*
X359200D02*
X359600Y437500D01*
X359200Y438300D01*
X360000Y437900D01*
X360800Y438300D01*
X360400Y437500D01*
X360800Y436700D01*
X360000Y437100D01*
X359200Y436700D01*
Y431700D02*
X359600Y432500D01*
X359200Y433300D01*
X360000Y432900D01*
X360800Y433300D01*
X360400Y432500D01*
X360800Y431700D01*
X360000Y432100D01*
X359200Y431700D01*
X364600Y432100D02*
Y431700D01*
X365400D01*
Y432100D01*
X365800D01*
Y432900D01*
X365400D01*
Y433300D01*
X364600D01*
Y432900D01*
X364200D01*
Y432100D01*
X364600D01*
X369200Y431700D02*
X369600Y432500D01*
X369200Y433300D01*
X370000Y432900D01*
X370800Y433300D01*
X370400Y432500D01*
X370800Y431700D01*
X370000Y432100D01*
X369200Y431700D01*
X359200Y426700D02*
X359600Y427500D01*
X359200Y428300D01*
X360000Y427900D01*
X360800Y428300D01*
X360400Y427500D01*
X360800Y426700D01*
X360000Y427100D01*
X359200Y426700D01*
X364200D02*
X364600Y427500D01*
X364200Y428300D01*
X365000Y427900D01*
X365800Y428300D01*
X365400Y427500D01*
X365800Y426700D01*
X365000Y427100D01*
X364200Y426700D01*
X369200D02*
X369600Y427500D01*
X369200Y428300D01*
X370000Y427900D01*
X370800Y428300D01*
X370400Y427500D01*
X370800Y426700D01*
X370000Y427100D01*
X369200Y426700D01*
X492100Y319000D02*
Y318600D01*
X492900D01*
Y319000D01*
X493300D01*
Y319800D01*
X492900D01*
Y320200D01*
X492100D01*
Y319800D01*
X491700D01*
Y319000D01*
X492100D01*
X488300Y322600D02*
Y322200D01*
X489100D01*
Y322600D01*
X489500D01*
Y323400D01*
X489100D01*
Y323800D01*
X488300D01*
Y323400D01*
X487900D01*
Y322600D01*
X488300D01*
X495700D02*
Y322200D01*
X496500D01*
Y322600D01*
X496900D01*
Y323400D01*
X496500D01*
Y323800D01*
X495700D01*
Y323400D01*
X495300D01*
Y322600D01*
X495700D01*
X498900Y325800D02*
X499300Y326600D01*
X498900Y327400D01*
X499700Y327000D01*
X500500Y327400D01*
X500100Y326600D01*
X500500Y325800D01*
X499700Y326200D01*
X498900Y325800D01*
X492100Y326200D02*
Y325800D01*
X492900D01*
Y326200D01*
X493300D01*
Y327000D01*
X492900D01*
Y327400D01*
X492100D01*
Y327000D01*
X491700D01*
Y326200D01*
X492100D01*
X495300Y329400D02*
X495700Y330200D01*
X495300Y331000D01*
X496100Y330600D01*
X496900Y331000D01*
X496500Y330200D01*
X496900Y329400D01*
X496100Y329800D01*
X495300Y329400D01*
X246700Y329200D02*
X247100Y330000D01*
X246700Y330800D01*
X247500Y330400D01*
X248300Y330800D01*
X247900Y330000D01*
X248300Y329200D01*
X247500Y329600D01*
X246700Y329200D01*
X297028Y237028D02*
X297428Y237828D01*
X297028Y238628D01*
X297828Y238228D01*
X298628Y238628D01*
X298228Y237828D01*
X298628Y237028D01*
X297828Y237428D01*
X297028Y237028D01*
X271700Y269200D02*
X272100Y270000D01*
X271700Y270800D01*
X272500Y270400D01*
X273300Y270800D01*
X272900Y270000D01*
X273300Y269200D01*
X272500Y269600D01*
X271700Y269200D01*
X269200Y266700D02*
X269600Y267500D01*
X269200Y268300D01*
X270000Y267900D01*
X270800Y268300D01*
X270400Y267500D01*
X270800Y266700D01*
X270000Y267100D01*
X269200Y266700D01*
X266700Y271700D02*
X267100Y272500D01*
X266700Y273300D01*
X267500Y272900D01*
X268300Y273300D01*
X267900Y272500D01*
X268300Y271700D01*
X267500Y272100D01*
X266700Y271700D01*
Y266700D02*
X267100Y267500D01*
X266700Y268300D01*
X267500Y267900D01*
X268300Y268300D01*
X267900Y267500D01*
X268300Y266700D01*
X267500Y267100D01*
X266700Y266700D01*
X269200Y271700D02*
X269600Y272500D01*
X269200Y273300D01*
X270000Y272900D01*
X270800Y273300D01*
X270400Y272500D01*
X270800Y271700D01*
X270000Y272100D01*
X269200Y271700D01*
X271700D02*
X272100Y272500D01*
X271700Y273300D01*
X272500Y272900D01*
X273300Y273300D01*
X272900Y272500D01*
X273300Y271700D01*
X272500Y272100D01*
X271700Y271700D01*
X269200Y269200D02*
X269600Y270000D01*
X269200Y270800D01*
X270000Y270400D01*
X270800Y270800D01*
X270400Y270000D01*
X270800Y269200D01*
X270000Y269600D01*
X269200Y269200D01*
X266700D02*
X267100Y270000D01*
X266700Y270800D01*
X267500Y270400D01*
X268300Y270800D01*
X267900Y270000D01*
X268300Y269200D01*
X267500Y269600D01*
X266700Y269200D01*
X319200Y61700D02*
X319600Y62500D01*
X319200Y63300D01*
X320000Y62900D01*
X320800Y63300D01*
X320400Y62500D01*
X320800Y61700D01*
X320000Y62100D01*
X319200Y61700D01*
X240212Y284154D02*
X240612Y284953D01*
X240212Y285753D01*
X241012Y285353D01*
X241812Y285753D01*
X241412Y284953D01*
X241812Y284154D01*
X241012Y284554D01*
X240212Y284154D01*
X234200Y246700D02*
X234600Y247500D01*
X234200Y248300D01*
X235000Y247900D01*
X235800Y248300D01*
X235400Y247500D01*
X235800Y246700D01*
X235000Y247100D01*
X234200Y246700D01*
X290690Y255617D02*
X291090Y256417D01*
X290690Y257217D01*
X291490Y256817D01*
X292290Y257217D01*
X291890Y256417D01*
X292290Y255617D01*
X291490Y256017D01*
X290690Y255617D01*
X296575Y244075D02*
X296975Y244875D01*
X296575Y245675D01*
X297375Y245275D01*
X298175Y245675D01*
X297775Y244875D01*
X298175Y244075D01*
X297375Y244475D01*
X296575Y244075D01*
X283368Y286875D02*
X283768Y287675D01*
X283368Y288475D01*
X284168Y288075D01*
X284968Y288475D01*
X284568Y287675D01*
X284968Y286875D01*
X284168Y287275D01*
X283368Y286875D01*
X279700Y279700D02*
X280100Y280500D01*
X279700Y281300D01*
X280500Y280900D01*
X281300Y281300D01*
X280900Y280500D01*
X281300Y279700D01*
X280500Y280100D01*
X279700Y279700D01*
X325888Y44971D02*
X326288Y45771D01*
X325888Y46571D01*
X326688Y46171D01*
X327488Y46571D01*
X327088Y45771D01*
X327488Y44971D01*
X326688Y45371D01*
X325888Y44971D01*
X301700Y96700D02*
X302100Y97500D01*
X301700Y98300D01*
X302500Y97900D01*
X303300Y98300D01*
X302900Y97500D01*
X303300Y96700D01*
X302500Y97100D01*
X301700Y96700D01*
X309200Y101700D02*
X309600Y102500D01*
X309200Y103300D01*
X310000Y102900D01*
X310800Y103300D01*
X310400Y102500D01*
X310800Y101700D01*
X310000Y102100D01*
X309200Y101700D01*
X306700Y91700D02*
X307100Y92500D01*
X306700Y93300D01*
X307500Y92900D01*
X308300Y93300D01*
X307900Y92500D01*
X308300Y91700D01*
X307500Y92100D01*
X306700Y91700D01*
X419200Y56700D02*
X419600Y57500D01*
X419200Y58300D01*
X420000Y57900D01*
X420800Y58300D01*
X420400Y57500D01*
X420800Y56700D01*
X420000Y57100D01*
X419200Y56700D01*
X409200Y104200D02*
X409600Y105000D01*
X409200Y105800D01*
X410000Y105400D01*
X410800Y105800D01*
X410400Y105000D01*
X410800Y104200D01*
X410000Y104600D01*
X409200Y104200D01*
X369200Y106700D02*
X369600Y107500D01*
X369200Y108300D01*
X370000Y107900D01*
X370800Y108300D01*
X370400Y107500D01*
X370800Y106700D01*
X370000Y107100D01*
X369200Y106700D01*
X371700Y39200D02*
X372100Y40000D01*
X371700Y40800D01*
X372500Y40400D01*
X373300Y40800D01*
X372900Y40000D01*
X373300Y39200D01*
X372500Y39600D01*
X371700Y39200D01*
X391700Y69200D02*
X392100Y70000D01*
X391700Y70800D01*
X392500Y70400D01*
X393300Y70800D01*
X392900Y70000D01*
X393300Y69200D01*
X392500Y69600D01*
X391700Y69200D01*
X391340Y60577D02*
X391740Y61377D01*
X391340Y62177D01*
X392140Y61777D01*
X392940Y62177D01*
X392540Y61377D01*
X392940Y60577D01*
X392140Y60977D01*
X391340Y60577D01*
X394781Y49290D02*
X395181Y50090D01*
X394781Y50890D01*
X395581Y50490D01*
X396381Y50890D01*
X395981Y50090D01*
X396381Y49290D01*
X395581Y49690D01*
X394781Y49290D01*
X398610Y65708D02*
X399010Y66508D01*
X398610Y67308D01*
X399410Y66908D01*
X400210Y67308D01*
X399810Y66508D01*
X400210Y65708D01*
X399410Y66108D01*
X398610Y65708D01*
X398289Y59668D02*
X398689Y60468D01*
X398289Y61268D01*
X399089Y60868D01*
X399889Y61268D01*
X399489Y60468D01*
X399889Y59668D01*
X399089Y60068D01*
X398289Y59668D01*
X452622Y55778D02*
X453022Y56578D01*
X452622Y57378D01*
X453422Y56978D01*
X454222Y57378D01*
X453822Y56578D01*
X454222Y55778D01*
X453422Y56178D01*
X452622Y55778D01*
X349200Y54200D02*
X349600Y55000D01*
X349200Y55800D01*
X350000Y55400D01*
X350800Y55800D01*
X350400Y55000D01*
X350800Y54200D01*
X350000Y54600D01*
X349200Y54200D01*
X498900Y318600D02*
X499300Y319400D01*
X498900Y320200D01*
X499700Y319800D01*
X500500Y320200D01*
X500100Y319400D01*
X500500Y318600D01*
X499700Y319000D01*
X498900Y318600D01*
X495300Y315000D02*
X495700Y315800D01*
X495300Y316600D01*
X496100Y316200D01*
X496900Y316600D01*
X496500Y315800D01*
X496900Y315000D01*
X496100Y315400D01*
X495300Y315000D01*
X251700Y329200D02*
X252100Y330000D01*
X251700Y330800D01*
X252500Y330400D01*
X253300Y330800D01*
X252900Y330000D01*
X253300Y329200D01*
X252500Y329600D01*
X251700Y329200D01*
X246700Y324200D02*
X247100Y325000D01*
X246700Y325800D01*
X247500Y325400D01*
X248300Y325800D01*
X247900Y325000D01*
X248300Y324200D01*
X247500Y324600D01*
X246700Y324200D01*
X251700D02*
X252100Y325000D01*
X251700Y325800D01*
X252500Y325400D01*
X253300Y325800D01*
X252900Y325000D01*
X253300Y324200D01*
X252500Y324600D01*
X251700Y324200D01*
X246700Y319200D02*
X247100Y320000D01*
X246700Y320800D01*
X247500Y320400D01*
X248300Y320800D01*
X247900Y320000D01*
X248300Y319200D01*
X247500Y319600D01*
X246700Y319200D01*
X251700D02*
X252100Y320000D01*
X251700Y320800D01*
X252500Y320400D01*
X253300Y320800D01*
X252900Y320000D01*
X253300Y319200D01*
X252500Y319600D01*
X251700Y319200D01*
X246700Y314200D02*
X247100Y315000D01*
X246700Y315800D01*
X247500Y315400D01*
X248300Y315800D01*
X247900Y315000D01*
X248300Y314200D01*
X247500Y314600D01*
X246700Y314200D01*
X251700D02*
X252100Y315000D01*
X251700Y315800D01*
X252500Y315400D01*
X253300Y315800D01*
X252900Y315000D01*
X253300Y314200D01*
X252500Y314600D01*
X251700Y314200D01*
X246700Y334200D02*
X247100Y335000D01*
X246700Y335800D01*
X247500Y335400D01*
X248300Y335800D01*
X247900Y335000D01*
X248300Y334200D01*
X247500Y334600D01*
X246700Y334200D01*
X251700D02*
X252100Y335000D01*
X251700Y335800D01*
X252500Y335400D01*
X253300Y335800D01*
X252900Y335000D01*
X253300Y334200D01*
X252500Y334600D01*
X251700Y334200D01*
X246700Y339200D02*
X247100Y340000D01*
X246700Y340800D01*
X247500Y340400D01*
X248300Y340800D01*
X247900Y340000D01*
X248300Y339200D01*
X247500Y339600D01*
X246700Y339200D01*
X251700D02*
X252100Y340000D01*
X251700Y340800D01*
X252500Y340400D01*
X253300Y340800D01*
X252900Y340000D01*
X253300Y339200D01*
X252500Y339600D01*
X251700Y339200D01*
X246700Y309200D02*
X247100Y310000D01*
X246700Y310800D01*
X247500Y310400D01*
X248300Y310800D01*
X247900Y310000D01*
X248300Y309200D01*
X247500Y309600D01*
X246700Y309200D01*
X251700D02*
X252100Y310000D01*
X251700Y310800D01*
X252500Y310400D01*
X253300Y310800D01*
X252900Y310000D01*
X253300Y309200D01*
X252500Y309600D01*
X251700Y309200D01*
Y304200D02*
X252100Y305000D01*
X251700Y305800D01*
X252500Y305400D01*
X253300Y305800D01*
X252900Y305000D01*
X253300Y304200D01*
X252500Y304600D01*
X251700Y304200D01*
X226700Y224200D02*
X227100Y225000D01*
X226700Y225800D01*
X227500Y225400D01*
X228300Y225800D01*
X227900Y225000D01*
X228300Y224200D01*
X227500Y224600D01*
X226700Y224200D01*
Y219200D02*
X227100Y220000D01*
X226700Y220800D01*
X227500Y220400D01*
X228300Y220800D01*
X227900Y220000D01*
X228300Y219200D01*
X227500Y219600D01*
X226700Y219200D01*
X231700D02*
X232100Y220000D01*
X231700Y220800D01*
X232500Y220400D01*
X233300Y220800D01*
X232900Y220000D01*
X233300Y219200D01*
X232500Y219600D01*
X231700Y219200D01*
X236700D02*
X237100Y220000D01*
X236700Y220800D01*
X237500Y220400D01*
X238300Y220800D01*
X237900Y220000D01*
X238300Y219200D01*
X237500Y219600D01*
X236700Y219200D01*
X221700Y256700D02*
X222100Y257500D01*
X221700Y258300D01*
X222500Y257900D01*
X223300Y258300D01*
X222900Y257500D01*
X223300Y256700D01*
X222500Y257100D01*
X221700Y256700D01*
Y266700D02*
X222100Y267500D01*
X221700Y268300D01*
X222500Y267900D01*
X223300Y268300D01*
X222900Y267500D01*
X223300Y266700D01*
X222500Y267100D01*
X221700Y266700D01*
Y261700D02*
X222100Y262500D01*
X221700Y263300D01*
X222500Y262900D01*
X223300Y263300D01*
X222900Y262500D01*
X223300Y261700D01*
X222500Y262100D01*
X221700Y261700D01*
X206700Y266700D02*
X207100Y267500D01*
X206700Y268300D01*
X207500Y267900D01*
X208300Y268300D01*
X207900Y267500D01*
X208300Y266700D01*
X207500Y267100D01*
X206700Y266700D01*
Y261700D02*
X207100Y262500D01*
X206700Y263300D01*
X207500Y262900D01*
X208300Y263300D01*
X207900Y262500D01*
X208300Y261700D01*
X207500Y262100D01*
X206700Y261700D01*
X201700D02*
X202100Y262500D01*
X201700Y263300D01*
X202500Y262900D01*
X203300Y263300D01*
X202900Y262500D01*
X203300Y261700D01*
X202500Y262100D01*
X201700Y261700D01*
X206700Y256700D02*
X207100Y257500D01*
X206700Y258300D01*
X207500Y257900D01*
X208300Y258300D01*
X207900Y257500D01*
X208300Y256700D01*
X207500Y257100D01*
X206700Y256700D01*
X201700D02*
X202100Y257500D01*
X201700Y258300D01*
X202500Y257900D01*
X203300Y258300D01*
X202900Y257500D01*
X203300Y256700D01*
X202500Y257100D01*
X201700Y256700D01*
X196700D02*
X197100Y257500D01*
X196700Y258300D01*
X197500Y257900D01*
X198300Y258300D01*
X197900Y257500D01*
X198300Y256700D01*
X197500Y257100D01*
X196700Y256700D01*
X191700Y251700D02*
X192100Y252500D01*
X191700Y253300D01*
X192500Y252900D01*
X193300Y253300D01*
X192900Y252500D01*
X193300Y251700D01*
X192500Y252100D01*
X191700Y251700D01*
X196700D02*
X197100Y252500D01*
X196700Y253300D01*
X197500Y252900D01*
X198300Y253300D01*
X197900Y252500D01*
X198300Y251700D01*
X197500Y252100D01*
X196700Y251700D01*
X226700Y214200D02*
X227100Y215000D01*
X226700Y215800D01*
X227500Y215400D01*
X228300Y215800D01*
X227900Y215000D01*
X228300Y214200D01*
X227500Y214600D01*
X226700Y214200D01*
X231700D02*
X232100Y215000D01*
X231700Y215800D01*
X232500Y215400D01*
X233300Y215800D01*
X232900Y215000D01*
X233300Y214200D01*
X232500Y214600D01*
X231700Y214200D01*
X236949Y213930D02*
X237349Y214730D01*
X236949Y215530D01*
X237749Y215130D01*
X238549Y215530D01*
X238149Y214730D01*
X238549Y213930D01*
X237749Y214330D01*
X236949Y213930D01*
X226700Y209200D02*
X227100Y210000D01*
X226700Y210800D01*
X227500Y210400D01*
X228300Y210800D01*
X227900Y210000D01*
X228300Y209200D01*
X227500Y209600D01*
X226700Y209200D01*
X231700D02*
X232100Y210000D01*
X231700Y210800D01*
X232500Y210400D01*
X233300Y210800D01*
X232900Y210000D01*
X233300Y209200D01*
X232500Y209600D01*
X231700Y209200D01*
X236700D02*
X237100Y210000D01*
X236700Y210800D01*
X237500Y210400D01*
X238300Y210800D01*
X237900Y210000D01*
X238300Y209200D01*
X237500Y209600D01*
X236700Y209200D01*
X231700Y204200D02*
X232100Y205000D01*
X231700Y205800D01*
X232500Y205400D01*
X233300Y205800D01*
X232900Y205000D01*
X233300Y204200D01*
X232500Y204600D01*
X231700Y204200D01*
X236700D02*
X237100Y205000D01*
X236700Y205800D01*
X237500Y205400D01*
X238300Y205800D01*
X237900Y205000D01*
X238300Y204200D01*
X237500Y204600D01*
X236700Y204200D01*
Y199200D02*
X237100Y200000D01*
X236700Y200800D01*
X237500Y200400D01*
X238300Y200800D01*
X237900Y200000D01*
X238300Y199200D01*
X237500Y199600D01*
X236700Y199200D01*
X241700Y219200D02*
X242100Y220000D01*
X241700Y220800D01*
X242500Y220400D01*
X243300Y220800D01*
X242900Y220000D01*
X243300Y219200D01*
X242500Y219600D01*
X241700Y219200D01*
Y214200D02*
X242100Y215000D01*
X241700Y215800D01*
X242500Y215400D01*
X243300Y215800D01*
X242900Y215000D01*
X243300Y214200D01*
X242500Y214600D01*
X241700Y214200D01*
Y209200D02*
X242100Y210000D01*
X241700Y210800D01*
X242500Y210400D01*
X243300Y210800D01*
X242900Y210000D01*
X243300Y209200D01*
X242500Y209600D01*
X241700Y209200D01*
Y204200D02*
X242100Y205000D01*
X241700Y205800D01*
X242500Y205400D01*
X243300Y205800D01*
X242900Y205000D01*
X243300Y204200D01*
X242500Y204600D01*
X241700Y204200D01*
Y199200D02*
X242100Y200000D01*
X241700Y200800D01*
X242500Y200400D01*
X243300Y200800D01*
X242900Y200000D01*
X243300Y199200D01*
X242500Y199600D01*
X241700Y199200D01*
Y194200D02*
X242100Y195000D01*
X241700Y195800D01*
X242500Y195400D01*
X243300Y195800D01*
X242900Y195000D01*
X243300Y194200D01*
X242500Y194600D01*
X241700Y194200D01*
X246700Y344200D02*
X247100Y345000D01*
X246700Y345800D01*
X247500Y345400D01*
X248300Y345800D01*
X247900Y345000D01*
X248300Y344200D01*
X247500Y344600D01*
X246700Y344200D01*
X251700D02*
X252100Y345000D01*
X251700Y345800D01*
X252500Y345400D01*
X253300Y345800D01*
X252900Y345000D01*
X253300Y344200D01*
X252500Y344600D01*
X251700Y344200D01*
Y349200D02*
X252100Y350000D01*
X251700Y350800D01*
X252500Y350400D01*
X253300Y350800D01*
X252900Y350000D01*
X253300Y349200D01*
X252500Y349600D01*
X251700Y349200D01*
X246700D02*
X247100Y350000D01*
X246700Y350800D01*
X247500Y350400D01*
X248300Y350800D01*
X247900Y350000D01*
X248300Y349200D01*
X247500Y349600D01*
X246700Y349200D01*
Y354200D02*
X247100Y355000D01*
X246700Y355800D01*
X247500Y355400D01*
X248300Y355800D01*
X247900Y355000D01*
X248300Y354200D01*
X247500Y354600D01*
X246700Y354200D01*
X251700D02*
X252100Y355000D01*
X251700Y355800D01*
X252500Y355400D01*
X253300Y355800D01*
X252900Y355000D01*
X253300Y354200D01*
X252500Y354600D01*
X251700Y354200D01*
Y359200D02*
X252100Y360000D01*
X251700Y360800D01*
X252500Y360400D01*
X253300Y360800D01*
X252900Y360000D01*
X253300Y359200D01*
X252500Y359600D01*
X251700Y359200D01*
X246700D02*
X247100Y360000D01*
X246700Y360800D01*
X247500Y360400D01*
X248300Y360800D01*
X247900Y360000D01*
X248300Y359200D01*
X247500Y359600D01*
X246700Y359200D01*
Y364200D02*
X247100Y365000D01*
X246700Y365800D01*
X247500Y365400D01*
X248300Y365800D01*
X247900Y365000D01*
X248300Y364200D01*
X247500Y364600D01*
X246700Y364200D01*
X251700D02*
X252100Y365000D01*
X251700Y365800D01*
X252500Y365400D01*
X253300Y365800D01*
X252900Y365000D01*
X253300Y364200D01*
X252500Y364600D01*
X251700Y364200D01*
Y369200D02*
X252100Y370000D01*
X251700Y370800D01*
X252500Y370400D01*
X253300Y370800D01*
X252900Y370000D01*
X253300Y369200D01*
X252500Y369600D01*
X251700Y369200D01*
X246700D02*
X247100Y370000D01*
X246700Y370800D01*
X247500Y370400D01*
X248300Y370800D01*
X247900Y370000D01*
X248300Y369200D01*
X247500Y369600D01*
X246700Y369200D01*
Y374200D02*
X247100Y375000D01*
X246700Y375800D01*
X247500Y375400D01*
X248300Y375800D01*
X247900Y375000D01*
X248300Y374200D01*
X247500Y374600D01*
X246700Y374200D01*
X251700D02*
X252100Y375000D01*
X251700Y375800D01*
X252500Y375400D01*
X253300Y375800D01*
X252900Y375000D01*
X253300Y374200D01*
X252500Y374600D01*
X251700Y374200D01*
Y379200D02*
X252100Y380000D01*
X251700Y380800D01*
X252500Y380400D01*
X253300Y380800D01*
X252900Y380000D01*
X253300Y379200D01*
X252500Y379600D01*
X251700Y379200D01*
X246700D02*
X247100Y380000D01*
X246700Y380800D01*
X247500Y380400D01*
X248300Y380800D01*
X247900Y380000D01*
X248300Y379200D01*
X247500Y379600D01*
X246700Y379200D01*
Y384200D02*
X247100Y385000D01*
X246700Y385800D01*
X247500Y385400D01*
X248300Y385800D01*
X247900Y385000D01*
X248300Y384200D01*
X247500Y384600D01*
X246700Y384200D01*
X251700D02*
X252100Y385000D01*
X251700Y385800D01*
X252500Y385400D01*
X253300Y385800D01*
X252900Y385000D01*
X253300Y384200D01*
X252500Y384600D01*
X251700Y384200D01*
Y389200D02*
X252100Y390000D01*
X251700Y390800D01*
X252500Y390400D01*
X253300Y390800D01*
X252900Y390000D01*
X253300Y389200D01*
X252500Y389600D01*
X251700Y389200D01*
X246700D02*
X247100Y390000D01*
X246700Y390800D01*
X247500Y390400D01*
X248300Y390800D01*
X247900Y390000D01*
X248300Y389200D01*
X247500Y389600D01*
X246700Y389200D01*
X221700Y251700D02*
X222100Y252500D01*
X221700Y253300D01*
X222500Y252900D01*
X223300Y253300D01*
X222900Y252500D01*
X223300Y251700D01*
X222500Y252100D01*
X221700Y251700D01*
Y246700D02*
X222100Y247500D01*
X221700Y248300D01*
X222500Y247900D01*
X223300Y248300D01*
X222900Y247500D01*
X223300Y246700D01*
X222500Y247100D01*
X221700Y246700D01*
X226700D02*
X227100Y247500D01*
X226700Y248300D01*
X227500Y247900D01*
X228300Y248300D01*
X227900Y247500D01*
X228300Y246700D01*
X227500Y247100D01*
X226700Y246700D01*
X241700Y184200D02*
X242100Y185000D01*
X241700Y185800D01*
X242500Y185400D01*
X243300Y185800D01*
X242900Y185000D01*
X243300Y184200D01*
X242500Y184600D01*
X241700Y184200D01*
X236700Y179200D02*
X237100Y180000D01*
X236700Y180800D01*
X237500Y180400D01*
X238300Y180800D01*
X237900Y180000D01*
X238300Y179200D01*
X237500Y179600D01*
X236700Y179200D01*
X241700D02*
X242100Y180000D01*
X241700Y180800D01*
X242500Y180400D01*
X243300Y180800D01*
X242900Y180000D01*
X243300Y179200D01*
X242500Y179600D01*
X241700Y179200D01*
Y174200D02*
X242100Y175000D01*
X241700Y175800D01*
X242500Y175400D01*
X243300Y175800D01*
X242900Y175000D01*
X243300Y174200D01*
X242500Y174600D01*
X241700Y174200D01*
X236700D02*
X237100Y175000D01*
X236700Y175800D01*
X237500Y175400D01*
X238300Y175800D01*
X237900Y175000D01*
X238300Y174200D01*
X237500Y174600D01*
X236700Y174200D01*
X231700D02*
X232100Y175000D01*
X231700Y175800D01*
X232500Y175400D01*
X233300Y175800D01*
X232900Y175000D01*
X233300Y174200D01*
X232500Y174600D01*
X231700Y174200D01*
X226700Y169200D02*
X227100Y170000D01*
X226700Y170800D01*
X227500Y170400D01*
X228300Y170800D01*
X227900Y170000D01*
X228300Y169200D01*
X227500Y169600D01*
X226700Y169200D01*
X231700D02*
X232100Y170000D01*
X231700Y170800D01*
X232500Y170400D01*
X233300Y170800D01*
X232900Y170000D01*
X233300Y169200D01*
X232500Y169600D01*
X231700Y169200D01*
X236700D02*
X237100Y170000D01*
X236700Y170800D01*
X237500Y170400D01*
X238300Y170800D01*
X237900Y170000D01*
X238300Y169200D01*
X237500Y169600D01*
X236700Y169200D01*
X241700D02*
X242100Y170000D01*
X241700Y170800D01*
X242500Y170400D01*
X243300Y170800D01*
X242900Y170000D01*
X243300Y169200D01*
X242500Y169600D01*
X241700Y169200D01*
Y164200D02*
X242100Y165000D01*
X241700Y165800D01*
X242500Y165400D01*
X243300Y165800D01*
X242900Y165000D01*
X243300Y164200D01*
X242500Y164600D01*
X241700Y164200D01*
X236700D02*
X237100Y165000D01*
X236700Y165800D01*
X237500Y165400D01*
X238300Y165800D01*
X237900Y165000D01*
X238300Y164200D01*
X237500Y164600D01*
X236700Y164200D01*
X231700D02*
X232100Y165000D01*
X231700Y165800D01*
X232500Y165400D01*
X233300Y165800D01*
X232900Y165000D01*
X233300Y164200D01*
X232500Y164600D01*
X231700Y164200D01*
X226700D02*
X227100Y165000D01*
X226700Y165800D01*
X227500Y165400D01*
X228300Y165800D01*
X227900Y165000D01*
X228300Y164200D01*
X227500Y164600D01*
X226700Y164200D01*
X221700Y169200D02*
X222100Y170000D01*
X221700Y170800D01*
X222500Y170400D01*
X223300Y170800D01*
X222900Y170000D01*
X223300Y169200D01*
X222500Y169600D01*
X221700Y169200D01*
Y164200D02*
X222100Y165000D01*
X221700Y165800D01*
X222500Y165400D01*
X223300Y165800D01*
X222900Y165000D01*
X223300Y164200D01*
X222500Y164600D01*
X221700Y164200D01*
X226700Y241700D02*
X227100Y242500D01*
X226700Y243300D01*
X227500Y242900D01*
X228300Y243300D01*
X227900Y242500D01*
X228300Y241700D01*
X227500Y242100D01*
X226700Y241700D01*
X238885Y276700D02*
X239285Y277500D01*
X238885Y278300D01*
X239685Y277900D01*
X240485Y278300D01*
X240085Y277500D01*
X240485Y276700D01*
X239685Y277100D01*
X238885Y276700D01*
X267100Y432100D02*
Y431700D01*
X267900D01*
Y432100D01*
X268300D01*
Y432900D01*
X267900D01*
Y433300D01*
X267100D01*
Y432900D01*
X266700D01*
Y432100D01*
X267100D01*
X421700Y24200D02*
X422100Y25000D01*
X421700Y25800D01*
X422500Y25400D01*
X423300Y25800D01*
X422900Y25000D01*
X423300Y24200D01*
X422500Y24600D01*
X421700Y24200D01*
X426700D02*
X427100Y25000D01*
X426700Y25800D01*
X427500Y25400D01*
X428300Y25800D01*
X427900Y25000D01*
X428300Y24200D01*
X427500Y24600D01*
X426700Y24200D01*
X431700D02*
X432100Y25000D01*
X431700Y25800D01*
X432500Y25400D01*
X433300Y25800D01*
X432900Y25000D01*
X433300Y24200D01*
X432500Y24600D01*
X431700Y24200D01*
Y109200D02*
X432100Y110000D01*
X431700Y110800D01*
X432500Y110400D01*
X433300Y110800D01*
X432900Y110000D01*
X433300Y109200D01*
X432500Y109600D01*
X431700Y109200D01*
X426700Y114200D02*
X427100Y115000D01*
X426700Y115800D01*
X427500Y115400D01*
X428300Y115800D01*
X427900Y115000D01*
X428300Y114200D01*
X427500Y114600D01*
X426700Y114200D01*
X399380Y42575D02*
X399780Y43375D01*
X399380Y44175D01*
X400180Y43775D01*
X400980Y44175D01*
X400580Y43375D01*
X400980Y42575D01*
X400180Y42975D01*
X399380Y42575D01*
X391700Y36700D02*
X392100Y37500D01*
X391700Y38300D01*
X392500Y37900D01*
X393300Y38300D01*
X392900Y37500D01*
X393300Y36700D01*
X392500Y37100D01*
X391700Y36700D01*
X398859Y53695D02*
X399259Y54495D01*
X398859Y55295D01*
X399659Y54895D01*
X400459Y55295D01*
X400059Y54495D01*
X400459Y53695D01*
X399659Y54095D01*
X398859Y53695D01*
X419200Y46700D02*
X419600Y47500D01*
X419200Y48300D01*
X420000Y47900D01*
X420800Y48300D01*
X420400Y47500D01*
X420800Y46700D01*
X420000Y47100D01*
X419200Y46700D01*
X526700Y56700D02*
X527100Y57500D01*
X526700Y58300D01*
X527500Y57900D01*
X528300Y58300D01*
X527900Y57500D01*
X528300Y56700D01*
X527500Y57100D01*
X526700Y56700D01*
X531700D02*
X532100Y57500D01*
X531700Y58300D01*
X532500Y57900D01*
X533300Y58300D01*
X532900Y57500D01*
X533300Y56700D01*
X532500Y57100D01*
X531700Y56700D01*
X526700Y51700D02*
X527100Y52500D01*
X526700Y53300D01*
X527500Y52900D01*
X528300Y53300D01*
X527900Y52500D01*
X528300Y51700D01*
X527500Y52100D01*
X526700Y51700D01*
X521700D02*
X522100Y52500D01*
X521700Y53300D01*
X522500Y52900D01*
X523300Y53300D01*
X522900Y52500D01*
X523300Y51700D01*
X522500Y52100D01*
X521700Y51700D01*
Y56700D02*
X522100Y57500D01*
X521700Y58300D01*
X522500Y57900D01*
X523300Y58300D01*
X522900Y57500D01*
X523300Y56700D01*
X522500Y57100D01*
X521700Y56700D01*
Y46700D02*
X522100Y47500D01*
X521700Y48300D01*
X522500Y47900D01*
X523300Y48300D01*
X522900Y47500D01*
X523300Y46700D01*
X522500Y47100D01*
X521700Y46700D01*
X271700Y266700D02*
X272100Y267500D01*
X271700Y268300D01*
X272500Y267900D01*
X273300Y268300D01*
X272900Y267500D01*
X273300Y266700D01*
X272500Y267100D01*
X271700Y266700D01*
X361700Y261700D02*
X362100Y262500D01*
X361700Y263300D01*
X362500Y262900D01*
X363300Y263300D01*
X362900Y262500D01*
X363300Y261700D01*
X362500Y262100D01*
X361700Y261700D01*
X371700D02*
X372100Y262500D01*
X371700Y263300D01*
X372500Y262900D01*
X373300Y263300D01*
X372900Y262500D01*
X373300Y261700D01*
X372500Y262100D01*
X371700Y261700D01*
X381700D02*
X382100Y262500D01*
X381700Y263300D01*
X382500Y262900D01*
X383300Y263300D01*
X382900Y262500D01*
X383300Y261700D01*
X382500Y262100D01*
X381700Y261700D01*
X391700D02*
X392100Y262500D01*
X391700Y263300D01*
X392500Y262900D01*
X393300Y263300D01*
X392900Y262500D01*
X393300Y261700D01*
X392500Y262100D01*
X391700Y261700D01*
X361700Y251700D02*
X362100Y252500D01*
X361700Y253300D01*
X362500Y252900D01*
X363300Y253300D01*
X362900Y252500D01*
X363300Y251700D01*
X362500Y252100D01*
X361700Y251700D01*
X371700D02*
X372100Y252500D01*
X371700Y253300D01*
X372500Y252900D01*
X373300Y253300D01*
X372900Y252500D01*
X373300Y251700D01*
X372500Y252100D01*
X371700Y251700D01*
X381700D02*
X382100Y252500D01*
X381700Y253300D01*
X382500Y252900D01*
X383300Y253300D01*
X382900Y252500D01*
X383300Y251700D01*
X382500Y252100D01*
X381700Y251700D01*
X391700D02*
X392100Y252500D01*
X391700Y253300D01*
X392500Y252900D01*
X393300Y253300D01*
X392900Y252500D01*
X393300Y251700D01*
X392500Y252100D01*
X391700Y251700D01*
X361700Y241700D02*
X362100Y242500D01*
X361700Y243300D01*
X362500Y242900D01*
X363300Y243300D01*
X362900Y242500D01*
X363300Y241700D01*
X362500Y242100D01*
X361700Y241700D01*
X381700D02*
X382100Y242500D01*
X381700Y243300D01*
X382500Y242900D01*
X383300Y243300D01*
X382900Y242500D01*
X383300Y241700D01*
X382500Y242100D01*
X381700Y241700D01*
X391700D02*
X392100Y242500D01*
X391700Y243300D01*
X392500Y242900D01*
X393300Y243300D01*
X392900Y242500D01*
X393300Y241700D01*
X392500Y242100D01*
X391700Y241700D01*
X371700Y231700D02*
X372100Y232500D01*
X371700Y233300D01*
X372500Y232900D01*
X373300Y233300D01*
X372900Y232500D01*
X373300Y231700D01*
X372500Y232100D01*
X371700Y231700D01*
X484400Y325900D02*
X484800Y326700D01*
X484400Y327500D01*
X485200Y327100D01*
X486000Y327500D01*
X485600Y326700D01*
X486000Y325900D01*
X485200Y326300D01*
X484400Y325900D01*
X484500Y318500D02*
X484900Y319300D01*
X484500Y320100D01*
X485300Y319700D01*
X486100Y320100D01*
X485700Y319300D01*
X486100Y318500D01*
X485300Y318900D01*
X484500Y318500D01*
X488100Y315000D02*
X488500Y315800D01*
X488100Y316600D01*
X488900Y316200D01*
X489700Y316600D01*
X489300Y315800D01*
X489700Y315000D01*
X488900Y315400D01*
X488100Y315000D01*
X488000Y329400D02*
X488400Y330200D01*
X488000Y331000D01*
X488800Y330600D01*
X489600Y331000D01*
X489200Y330200D01*
X489600Y329400D01*
X488800Y329800D01*
X488000Y329400D01*
X489200Y219200D02*
X489600Y220000D01*
X489200Y220800D01*
X490000Y220400D01*
X490800Y220800D01*
X490400Y220000D01*
X490800Y219200D01*
X490000Y219600D01*
X489200Y219200D01*
X456700D02*
X457100Y220000D01*
X456700Y220800D01*
X457500Y220400D01*
X458300Y220800D01*
X457900Y220000D01*
X458300Y219200D01*
X457500Y219600D01*
X456700Y219200D01*
Y224200D02*
X457100Y225000D01*
X456700Y225800D01*
X457500Y225400D01*
X458300Y225800D01*
X457900Y225000D01*
X458300Y224200D01*
X457500Y224600D01*
X456700Y224200D01*
X451700Y219200D02*
X452100Y220000D01*
X451700Y220800D01*
X452500Y220400D01*
X453300Y220800D01*
X452900Y220000D01*
X453300Y219200D01*
X452500Y219600D01*
X451700Y219200D01*
Y214200D02*
X452100Y215000D01*
X451700Y215800D01*
X452500Y215400D01*
X453300Y215800D01*
X452900Y215000D01*
X453300Y214200D01*
X452500Y214600D01*
X451700Y214200D01*
X426700Y239200D02*
X427100Y240000D01*
X426700Y240800D01*
X427500Y240400D01*
X428300Y240800D01*
X427900Y240000D01*
X428300Y239200D01*
X427500Y239600D01*
X426700Y239200D01*
X431700Y244515D02*
X432100Y245315D01*
X431700Y246115D01*
X432500Y245715D01*
X433300Y246115D01*
X432900Y245315D01*
X433300Y244515D01*
X432500Y244915D01*
X431700Y244515D01*
X416700Y246700D02*
X417100Y247500D01*
X416700Y248300D01*
X417500Y247900D01*
X418300Y248300D01*
X417900Y247500D01*
X418300Y246700D01*
X417500Y247100D01*
X416700Y246700D01*
X506700Y341700D02*
X507100Y342500D01*
X506700Y343300D01*
X507500Y342900D01*
X508300Y343300D01*
X507900Y342500D01*
X508300Y341700D01*
X507500Y342100D01*
X506700Y341700D01*
X371700Y134200D02*
X372100Y135000D01*
X371700Y135800D01*
X372500Y135400D01*
X373300Y135800D01*
X372900Y135000D01*
X373300Y134200D01*
X372500Y134600D01*
X371700Y134200D01*
Y125670D02*
X372100Y126470D01*
X371700Y127270D01*
X372500Y126870D01*
X373300Y127270D01*
X372900Y126470D01*
X373300Y125670D01*
X372500Y126070D01*
X371700Y125670D01*
X486700Y214200D02*
X487100Y215000D01*
X486700Y215800D01*
X487500Y215400D01*
X488300Y215800D01*
X487900Y215000D01*
X488300Y214200D01*
X487500Y214600D01*
X486700Y214200D01*
Y219200D02*
X487100Y220000D01*
X486700Y220800D01*
X487500Y220400D01*
X488300Y220800D01*
X487900Y220000D01*
X488300Y219200D01*
X487500Y219600D01*
X486700Y219200D01*
Y209200D02*
X487100Y210000D01*
X486700Y210800D01*
X487500Y210400D01*
X488300Y210800D01*
X487900Y210000D01*
X488300Y209200D01*
X487500Y209600D01*
X486700Y209200D01*
X521700Y331700D02*
X522100Y332500D01*
X521700Y333300D01*
X522500Y332900D01*
X523300Y333300D01*
X522900Y332500D01*
X523300Y331700D01*
X522500Y332100D01*
X521700Y331700D01*
X516700Y337700D02*
X517100Y338500D01*
X516700Y339300D01*
X517500Y338900D01*
X518300Y339300D01*
X517900Y338500D01*
X518300Y337700D01*
X517500Y338100D01*
X516700Y337700D01*
X506700Y349200D02*
X507100Y350000D01*
X506700Y350800D01*
X507500Y350400D01*
X508300Y350800D01*
X507900Y350000D01*
X508300Y349200D01*
X507500Y349600D01*
X506700Y349200D01*
X486700Y374200D02*
X487100Y375000D01*
X486700Y375800D01*
X487500Y375400D01*
X488300Y375800D01*
X487900Y375000D01*
X488300Y374200D01*
X487500Y374600D01*
X486700Y374200D01*
X491700Y369200D02*
X492100Y370000D01*
X491700Y370800D01*
X492500Y370400D01*
X493300Y370800D01*
X492900Y370000D01*
X493300Y369200D01*
X492500Y369600D01*
X491700Y369200D01*
X499200Y389200D02*
X499600Y390000D01*
X499200Y390800D01*
X500000Y390400D01*
X500800Y390800D01*
X500400Y390000D01*
X500800Y389200D01*
X500000Y389600D01*
X499200Y389200D01*
X381700Y139200D02*
X382100Y140000D01*
X381700Y140800D01*
X382500Y140400D01*
X383300Y140800D01*
X382900Y140000D01*
X383300Y139200D01*
X382500Y139600D01*
X381700Y139200D01*
X391700Y165600D02*
X392100Y166400D01*
X391700Y167200D01*
X392500Y166800D01*
X393300Y167200D01*
X392900Y166400D01*
X393300Y165600D01*
X392500Y166000D01*
X391700Y165600D01*
X456700Y214200D02*
X457100Y215000D01*
X456700Y215800D01*
X457500Y215400D01*
X458300Y215800D01*
X457900Y215000D01*
X458300Y214200D01*
X457500Y214600D01*
X456700Y214200D01*
X354200Y59200D02*
X354600Y60000D01*
X354200Y60800D01*
X355000Y60400D01*
X355800Y60800D01*
X355400Y60000D01*
X355800Y59200D01*
X355000Y59600D01*
X354200Y59200D01*
X424200Y51700D02*
X424600Y52500D01*
X424200Y53300D01*
X425000Y52900D01*
X425800Y53300D01*
X425400Y52500D01*
X425800Y51700D01*
X425000Y52100D01*
X424200Y51700D01*
X429200D02*
X429600Y52500D01*
X429200Y53300D01*
X430000Y52900D01*
X430800Y53300D01*
X430400Y52500D01*
X430800Y51700D01*
X430000Y52100D01*
X429200Y51700D01*
X434200D02*
X434600Y52500D01*
X434200Y53300D01*
X435000Y52900D01*
X435800Y53300D01*
X435400Y52500D01*
X435800Y51700D01*
X435000Y52100D01*
X434200Y51700D01*
X439200D02*
X439600Y52500D01*
X439200Y53300D01*
X440000Y52900D01*
X440800Y53300D01*
X440400Y52500D01*
X440800Y51700D01*
X440000Y52100D01*
X439200Y51700D01*
X416700Y109200D02*
X417100Y110000D01*
X416700Y110800D01*
X417500Y110400D01*
X418300Y110800D01*
X417900Y110000D01*
X418300Y109200D01*
X417500Y109600D01*
X416700Y109200D01*
X421700Y104200D02*
X422100Y105000D01*
X421700Y105800D01*
X422500Y105400D01*
X423300Y105800D01*
X422900Y105000D01*
X423300Y104200D01*
X422500Y104600D01*
X421700Y104200D01*
X426700Y99200D02*
X427100Y100000D01*
X426700Y100800D01*
X427500Y100400D01*
X428300Y100800D01*
X427900Y100000D01*
X428300Y99200D01*
X427500Y99600D01*
X426700Y99200D01*
X399200Y32800D02*
X399600Y33600D01*
X399200Y34400D01*
X400000Y34000D01*
X400800Y34400D01*
X400400Y33600D01*
X400800Y32800D01*
X400000Y33200D01*
X399200Y32800D01*
X186700Y246700D02*
X187100Y247500D01*
X186700Y248300D01*
X187500Y247900D01*
X188300Y248300D01*
X187900Y247500D01*
X188300Y246700D01*
X187500Y247100D01*
X186700Y246700D01*
X181700Y241700D02*
X182100Y242500D01*
X181700Y243300D01*
X182500Y242900D01*
X183300Y243300D01*
X182900Y242500D01*
X183300Y241700D01*
X182500Y242100D01*
X181700Y241700D01*
X186700D02*
X187100Y242500D01*
X186700Y243300D01*
X187500Y242900D01*
X188300Y243300D01*
X187900Y242500D01*
X188300Y241700D01*
X187500Y242100D01*
X186700Y241700D01*
X191700D02*
X192100Y242500D01*
X191700Y243300D01*
X192500Y242900D01*
X193300Y243300D01*
X192900Y242500D01*
X193300Y241700D01*
X192500Y242100D01*
X191700Y241700D01*
X186700Y236700D02*
X187100Y237500D01*
X186700Y238300D01*
X187500Y237900D01*
X188300Y238300D01*
X187900Y237500D01*
X188300Y236700D01*
X187500Y237100D01*
X186700Y236700D01*
X181700D02*
X182100Y237500D01*
X181700Y238300D01*
X182500Y237900D01*
X183300Y238300D01*
X182900Y237500D01*
X183300Y236700D01*
X182500Y237100D01*
X181700Y236700D01*
X466700Y179200D02*
X467100Y180000D01*
X466700Y180800D01*
X467500Y180400D01*
X468300Y180800D01*
X467900Y180000D01*
X468300Y179200D01*
X467500Y179600D01*
X466700Y179200D01*
Y174200D02*
X467100Y175000D01*
X466700Y175800D01*
X467500Y175400D01*
X468300Y175800D01*
X467900Y175000D01*
X468300Y174200D01*
X467500Y174600D01*
X466700Y174200D01*
Y169200D02*
X467100Y170000D01*
X466700Y170800D01*
X467500Y170400D01*
X468300Y170800D01*
X467900Y170000D01*
X468300Y169200D01*
X467500Y169600D01*
X466700Y169200D01*
Y164200D02*
X467100Y165000D01*
X466700Y165800D01*
X467500Y165400D01*
X468300Y165800D01*
X467900Y165000D01*
X468300Y164200D01*
X467500Y164600D01*
X466700Y164200D01*
X406700D02*
X407100Y165000D01*
X406700Y165800D01*
X407500Y165400D01*
X408300Y165800D01*
X407900Y165000D01*
X408300Y164200D01*
X407500Y164600D01*
X406700Y164200D01*
X461700Y276700D02*
X462100Y277500D01*
X461700Y278300D01*
X462500Y277900D01*
X463300Y278300D01*
X462900Y277500D01*
X463300Y276700D01*
X462500Y277100D01*
X461700Y276700D01*
X361700Y231700D02*
X362100Y232500D01*
X361700Y233300D01*
X362500Y232900D01*
X363300Y233300D01*
X362900Y232500D01*
X363300Y231700D01*
X362500Y232100D01*
X361700Y231700D01*
X371700Y241700D02*
X372100Y242500D01*
X371700Y243300D01*
X372500Y242900D01*
X373300Y243300D01*
X372900Y242500D01*
X373300Y241700D01*
X372500Y242100D01*
X371700Y241700D01*
X381700Y231700D02*
X382100Y232500D01*
X381700Y233300D01*
X382500Y232900D01*
X383300Y233300D01*
X382900Y232500D01*
X383300Y231700D01*
X382500Y232100D01*
X381700Y231700D01*
X476700Y174200D02*
X477100Y175000D01*
X476700Y175800D01*
X477500Y175400D01*
X478300Y175800D01*
X477900Y175000D01*
X478300Y174200D01*
X477500Y174600D01*
X476700Y174200D01*
Y169200D02*
X477100Y170000D01*
X476700Y170800D01*
X477500Y170400D01*
X478300Y170800D01*
X477900Y170000D01*
X478300Y169200D01*
X477500Y169600D01*
X476700Y169200D01*
Y179200D02*
X477100Y180000D01*
X476700Y180800D01*
X477500Y180400D01*
X478300Y180800D01*
X477900Y180000D01*
X478300Y179200D01*
X477500Y179600D01*
X476700Y179200D01*
Y164200D02*
X477100Y165000D01*
X476700Y165800D01*
X477500Y165400D01*
X478300Y165800D01*
X477900Y165000D01*
X478300Y164200D01*
X477500Y164600D01*
X476700Y164200D01*
X451700Y224200D02*
X452100Y225000D01*
X451700Y225800D01*
X452500Y225400D01*
X453300Y225800D01*
X452900Y225000D01*
X453300Y224200D01*
X452500Y224600D01*
X451700Y224200D01*
X489200Y209200D02*
X489600Y210000D01*
X489200Y210800D01*
X490000Y210400D01*
X490800Y210800D01*
X490400Y210000D01*
X490800Y209200D01*
X490000Y209600D01*
X489200Y209200D01*
Y214200D02*
X489600Y215000D01*
X489200Y215800D01*
X490000Y215400D01*
X490800Y215800D01*
X490400Y215000D01*
X490800Y214200D01*
X490000Y214600D01*
X489200Y214200D01*
X504935Y233643D02*
X505335Y234443D01*
X504935Y235243D01*
X505735Y234843D01*
X506535Y235243D01*
X506135Y234443D01*
X506535Y233643D01*
X505735Y234043D01*
X504935Y233643D01*
X504200Y226700D02*
X504600Y227500D01*
X504200Y228300D01*
X505000Y227900D01*
X505800Y228300D01*
X505400Y227500D01*
X505800Y226700D01*
X505000Y227100D01*
X504200Y226700D01*
X391700Y231700D02*
X392100Y232500D01*
X391700Y233300D01*
X392500Y232900D01*
X393300Y233300D01*
X392900Y232500D01*
X393300Y231700D01*
X392500Y232100D01*
X391700Y231700D01*
X426700Y221700D02*
X427100Y222500D01*
X426700Y223300D01*
X427500Y222900D01*
X428300Y223300D01*
X427900Y222500D01*
X428300Y221700D01*
X427500Y222100D01*
X426700Y221700D01*
X451700Y361700D02*
X452100Y362500D01*
X451700Y363300D01*
X452500Y362900D01*
X453300Y363300D01*
X452900Y362500D01*
X453300Y361700D01*
X452500Y362100D01*
X451700Y361700D01*
Y356700D02*
X452100Y357500D01*
X451700Y358300D01*
X452500Y357900D01*
X453300Y358300D01*
X452900Y357500D01*
X453300Y356700D01*
X452500Y357100D01*
X451700Y356700D01*
Y366700D02*
X452100Y367500D01*
X451700Y368300D01*
X452500Y367900D01*
X453300Y368300D01*
X452900Y367500D01*
X453300Y366700D01*
X452500Y367100D01*
X451700Y366700D01*
X456700Y361700D02*
X457100Y362500D01*
X456700Y363300D01*
X457500Y362900D01*
X458300Y363300D01*
X457900Y362500D01*
X458300Y361700D01*
X457500Y362100D01*
X456700Y361700D01*
X446700Y356700D02*
X447100Y357500D01*
X446700Y358300D01*
X447500Y357900D01*
X448300Y358300D01*
X447900Y357500D01*
X448300Y356700D01*
X447500Y357100D01*
X446700Y356700D01*
Y361700D02*
X447100Y362500D01*
X446700Y363300D01*
X447500Y362900D01*
X448300Y363300D01*
X447900Y362500D01*
X448300Y361700D01*
X447500Y362100D01*
X446700Y361700D01*
Y366700D02*
X447100Y367500D01*
X446700Y368300D01*
X447500Y367900D01*
X448300Y368300D01*
X447900Y367500D01*
X448300Y366700D01*
X447500Y367100D01*
X446700Y366700D01*
X504200Y384200D02*
X504600Y385000D01*
X504200Y385800D01*
X505000Y385400D01*
X505800Y385800D01*
X505400Y385000D01*
X505800Y384200D01*
X505000Y384600D01*
X504200Y384200D01*
X509200Y379200D02*
X509600Y380000D01*
X509200Y380800D01*
X510000Y380400D01*
X510800Y380800D01*
X510400Y380000D01*
X510800Y379200D01*
X510000Y379600D01*
X509200Y379200D01*
X514200Y394200D02*
X514600Y395000D01*
X514200Y395800D01*
X515000Y395400D01*
X515800Y395800D01*
X515400Y395000D01*
X515800Y394200D01*
X515000Y394600D01*
X514200Y394200D01*
X479200Y464200D02*
X479600Y465000D01*
X479200Y465800D01*
X480000Y465400D01*
X480800Y465800D01*
X480400Y465000D01*
X480800Y464200D01*
X480000Y464600D01*
X479200Y464200D01*
X474200Y389200D02*
X474600Y390000D01*
X474200Y390800D01*
X475000Y390400D01*
X475800Y390800D01*
X475400Y390000D01*
X475800Y389200D01*
X475000Y389600D01*
X474200Y389200D01*
X479200Y419200D02*
X479600Y420000D01*
X479200Y420800D01*
X480000Y420400D01*
X480800Y420800D01*
X480400Y420000D01*
X480800Y419200D01*
X480000Y419600D01*
X479200Y419200D01*
X334200Y321700D02*
X334600Y322500D01*
X334200Y323300D01*
X335000Y322900D01*
X335800Y323300D01*
X335400Y322500D01*
X335800Y321700D01*
X335000Y322100D01*
X334200Y321700D01*
X241700Y246700D02*
X242100Y247500D01*
X241700Y248300D01*
X242500Y247900D01*
X243300Y248300D01*
X242900Y247500D01*
X243300Y246700D01*
X242500Y247100D01*
X241700Y246700D01*
X389200Y426700D02*
X389600Y427500D01*
X389200Y428300D01*
X390000Y427900D01*
X390800Y428300D01*
X390400Y427500D01*
X390800Y426700D01*
X390000Y427100D01*
X389200Y426700D01*
X384200D02*
X384600Y427500D01*
X384200Y428300D01*
X385000Y427900D01*
X385800Y428300D01*
X385400Y427500D01*
X385800Y426700D01*
X385000Y427100D01*
X384200Y426700D01*
X389200Y431700D02*
X389600Y432500D01*
X389200Y433300D01*
X390000Y432900D01*
X390800Y433300D01*
X390400Y432500D01*
X390800Y431700D01*
X390000Y432100D01*
X389200Y431700D01*
X379200Y426700D02*
X379600Y427500D01*
X379200Y428300D01*
X380000Y427900D01*
X380800Y428300D01*
X380400Y427500D01*
X380800Y426700D01*
X380000Y427100D01*
X379200Y426700D01*
X384600Y432100D02*
Y431700D01*
X385400D01*
Y432100D01*
X385800D01*
Y432900D01*
X385400D01*
Y433300D01*
X384600D01*
Y432900D01*
X384200D01*
Y432100D01*
X384600D01*
X389200Y436700D02*
X389600Y437500D01*
X389200Y438300D01*
X390000Y437900D01*
X390800Y438300D01*
X390400Y437500D01*
X390800Y436700D01*
X390000Y437100D01*
X389200Y436700D01*
X384200D02*
X384600Y437500D01*
X384200Y438300D01*
X385000Y437900D01*
X385800Y438300D01*
X385400Y437500D01*
X385800Y436700D01*
X385000Y437100D01*
X384200Y436700D01*
X379200Y431700D02*
X379600Y432500D01*
X379200Y433300D01*
X380000Y432900D01*
X380800Y433300D01*
X380400Y432500D01*
X380800Y431700D01*
X380000Y432100D01*
X379200Y431700D01*
X374200Y426700D02*
X374600Y427500D01*
X374200Y428300D01*
X375000Y427900D01*
X375800Y428300D01*
X375400Y427500D01*
X375800Y426700D01*
X375000Y427100D01*
X374200Y426700D01*
X276905Y403391D02*
X277305Y404191D01*
X276905Y404991D01*
X277705Y404591D01*
X278505Y404991D01*
X278105Y404191D01*
X278505Y403391D01*
X277705Y403791D01*
X276905Y403391D01*
X368585Y411331D02*
X368985Y412131D01*
X368585Y412931D01*
X369385Y412531D01*
X370185Y412931D01*
X369785Y412131D01*
X370185Y411331D01*
X369385Y411731D01*
X368585Y411331D01*
X371120Y403011D02*
X371520Y403811D01*
X371120Y404611D01*
X371920Y404211D01*
X372720Y404611D01*
X372320Y403811D01*
X372720Y403011D01*
X371920Y403411D01*
X371120Y403011D01*
X376700Y409200D02*
X377100Y410000D01*
X376700Y410800D01*
X377500Y410400D01*
X378300Y410800D01*
X377900Y410000D01*
X378300Y409200D01*
X377500Y409600D01*
X376700Y409200D01*
X509200Y399200D02*
X509600Y400000D01*
X509200Y400800D01*
X510000Y400400D01*
X510800Y400800D01*
X510400Y400000D01*
X510800Y399200D01*
X510000Y399600D01*
X509200Y399200D01*
X444200Y244200D02*
X444600Y245000D01*
X444200Y245800D01*
X445000Y245400D01*
X445800Y245800D01*
X445400Y245000D01*
X445800Y244200D01*
X445000Y244600D01*
X444200Y244200D01*
X509200Y474200D02*
X509600Y475000D01*
X509200Y475800D01*
X510000Y475400D01*
X510800Y475800D01*
X510400Y475000D01*
X510800Y474200D01*
X510000Y474600D01*
X509200Y474200D01*
X504200D02*
X504600Y475000D01*
X504200Y475800D01*
X505000Y475400D01*
X505800Y475800D01*
X505400Y475000D01*
X505800Y474200D01*
X505000Y474600D01*
X504200Y474200D01*
X499200D02*
X499600Y475000D01*
X499200Y475800D01*
X500000Y475400D01*
X500800Y475800D01*
X500400Y475000D01*
X500800Y474200D01*
X500000Y474600D01*
X499200Y474200D01*
X521700Y61700D02*
X522100Y62500D01*
X521700Y63300D01*
X522500Y62900D01*
X523300Y63300D01*
X522900Y62500D01*
X523300Y61700D01*
X522500Y62100D01*
X521700Y61700D01*
X526700D02*
X527100Y62500D01*
X526700Y63300D01*
X527500Y62900D01*
X528300Y63300D01*
X527900Y62500D01*
X528300Y61700D01*
X527500Y62100D01*
X526700Y61700D01*
X531700D02*
X532100Y62500D01*
X531700Y63300D01*
X532500Y62900D01*
X533300Y63300D01*
X532900Y62500D01*
X533300Y61700D01*
X532500Y62100D01*
X531700Y61700D01*
X456700Y366700D02*
X457100Y367500D01*
X456700Y368300D01*
X457500Y367900D01*
X458300Y368300D01*
X457900Y367500D01*
X458300Y366700D01*
X457500Y367100D01*
X456700Y366700D01*
X451700Y371700D02*
X452100Y372500D01*
X451700Y373300D01*
X452500Y372900D01*
X453300Y373300D01*
X452900Y372500D01*
X453300Y371700D01*
X452500Y372100D01*
X451700Y371700D01*
X456700D02*
X457100Y372500D01*
X456700Y373300D01*
X457500Y372900D01*
X458300Y373300D01*
X457900Y372500D01*
X458300Y371700D01*
X457500Y372100D01*
X456700Y371700D01*
Y376700D02*
X457100Y377500D01*
X456700Y378300D01*
X457500Y377900D01*
X458300Y378300D01*
X457900Y377500D01*
X458300Y376700D01*
X457500Y377100D01*
X456700Y376700D01*
X481700Y361700D02*
X482100Y362500D01*
X481700Y363300D01*
X482500Y362900D01*
X483300Y363300D01*
X482900Y362500D01*
X483300Y361700D01*
X482500Y362100D01*
X481700Y361700D01*
X540200Y351200D02*
X540600Y352000D01*
X540200Y352800D01*
X541000Y352400D01*
X541800Y352800D01*
X541400Y352000D01*
X541800Y351200D01*
X541000Y351600D01*
X540200Y351200D01*
X519200Y356700D02*
X519600Y357500D01*
X519200Y358300D01*
X520000Y357900D01*
X520800Y358300D01*
X520400Y357500D01*
X520800Y356700D01*
X520000Y357100D01*
X519200Y356700D01*
Y389200D02*
X519600Y390000D01*
X519200Y390800D01*
X520000Y390400D01*
X520800Y390800D01*
X520400Y390000D01*
X520800Y389200D01*
X520000Y389600D01*
X519200Y389200D01*
X514200Y474200D02*
X514600Y475000D01*
X514200Y475800D01*
X515000Y475400D01*
X515800Y475800D01*
X515400Y475000D01*
X515800Y474200D01*
X515000Y474600D01*
X514200Y474200D01*
X479200Y301700D02*
X479600Y302500D01*
X479200Y303300D01*
X480000Y302900D01*
X480800Y303300D01*
X480400Y302500D01*
X480800Y301700D01*
X480000Y302100D01*
X479200Y301700D01*
X406700Y221700D02*
X407100Y222500D01*
X406700Y223300D01*
X407500Y222900D01*
X408300Y223300D01*
X407900Y222500D01*
X408300Y221700D01*
X407500Y222100D01*
X406700Y221700D01*
X397950Y216700D02*
X398350Y217500D01*
X397950Y218300D01*
X398750Y217900D01*
X399550Y218300D01*
X399150Y217500D01*
X399550Y216700D01*
X398750Y217100D01*
X397950Y216700D01*
X544200Y364200D02*
X544600Y365000D01*
X544200Y365800D01*
X545000Y365400D01*
X545800Y365800D01*
X545400Y365000D01*
X545800Y364200D01*
X545000Y364600D01*
X544200Y364200D01*
X496193Y364707D02*
X496593Y365507D01*
X496193Y366307D01*
X496993Y365907D01*
X497793Y366307D01*
X497393Y365507D01*
X497793Y364707D01*
X496993Y365107D01*
X496193Y364707D01*
X461747Y444361D02*
X462147Y445161D01*
X461747Y445961D01*
X462547Y445561D01*
X463347Y445961D01*
X462947Y445161D01*
X463347Y444361D01*
X462547Y444761D01*
X461747Y444361D01*
X464200Y434200D02*
X464600Y435000D01*
X464200Y435800D01*
X465000Y435400D01*
X465800Y435800D01*
X465400Y435000D01*
X465800Y434200D01*
X465000Y434600D01*
X464200Y434200D01*
X455747Y442381D02*
X456147Y443181D01*
X455747Y443981D01*
X456547Y443581D01*
X457347Y443981D01*
X456947Y443181D01*
X457347Y442381D01*
X456547Y442781D01*
X455747Y442381D01*
X456700Y434200D02*
X457100Y435000D01*
X456700Y435800D01*
X457500Y435400D01*
X458300Y435800D01*
X457900Y435000D01*
X458300Y434200D01*
X457500Y434600D01*
X456700Y434200D01*
X455503Y450381D02*
X455903Y451181D01*
X455503Y451981D01*
X456303Y451581D01*
X457103Y451981D01*
X456703Y451181D01*
X457103Y450381D01*
X456303Y450781D01*
X455503Y450381D01*
X539465Y368871D02*
X539865Y369671D01*
X539465Y370471D01*
X540265Y370071D01*
X541065Y370471D01*
X540665Y369671D01*
X541065Y368871D01*
X540265Y369271D01*
X539465Y368871D01*
X529200Y379200D02*
X529600Y380000D01*
X529200Y380800D01*
X530000Y380400D01*
X530800Y380800D01*
X530400Y380000D01*
X530800Y379200D01*
X530000Y379600D01*
X529200Y379200D01*
X535700Y373543D02*
X536100Y374343D01*
X535700Y375143D01*
X536500Y374743D01*
X537300Y375143D01*
X536900Y374343D01*
X537300Y373543D01*
X536500Y373943D01*
X535700Y373543D01*
X459503Y455022D02*
X459903Y455822D01*
X459503Y456622D01*
X460303Y456222D01*
X461103Y456622D01*
X460703Y455822D01*
X461103Y455022D01*
X460303Y455422D01*
X459503Y455022D01*
X414200Y396700D02*
X414600Y397500D01*
X414200Y398300D01*
X415000Y397900D01*
X415800Y398300D01*
X415400Y397500D01*
X415800Y396700D01*
X415000Y397100D01*
X414200Y396700D01*
X417143Y391158D02*
X417543Y391958D01*
X417143Y392758D01*
X417943Y392358D01*
X418743Y392758D01*
X418343Y391958D01*
X418743Y391158D01*
X417943Y391558D01*
X417143Y391158D01*
X283976Y401476D02*
X284376Y402276D01*
X283976Y403076D01*
X284776Y402676D01*
X285576Y403076D01*
X285176Y402276D01*
X285576Y401476D01*
X284776Y401876D01*
X283976Y401476D01*
X288219Y405719D02*
X288619Y406519D01*
X288219Y407319D01*
X289019Y406919D01*
X289819Y407319D01*
X289419Y406519D01*
X289819Y405719D01*
X289019Y406119D01*
X288219Y405719D01*
X293876Y411376D02*
X294275Y412176D01*
X293876Y412976D01*
X294675Y412575D01*
X295476Y412976D01*
X295075Y412176D01*
X295476Y411376D01*
X294675Y411775D01*
X293876Y411376D01*
X284539Y411033D02*
X284939Y411833D01*
X284539Y412633D01*
X285339Y412233D01*
X286139Y412633D01*
X285739Y411833D01*
X286139Y411033D01*
X285339Y411433D01*
X284539Y411033D01*
X378807Y401307D02*
X379207Y402107D01*
X378807Y402908D01*
X379608Y402507D01*
X380408Y402908D01*
X380008Y402107D01*
X380408Y401307D01*
X379608Y401708D01*
X378807Y401307D01*
X271700Y474200D02*
X272100Y475000D01*
X271700Y475800D01*
X272500Y475400D01*
X273300Y475800D01*
X272900Y475000D01*
X273300Y474200D01*
X272500Y474600D01*
X271700Y474200D01*
X279700D02*
X280100Y475000D01*
X279700Y475800D01*
X280500Y475400D01*
X281300Y475800D01*
X280900Y475000D01*
X281300Y474200D01*
X280500Y474600D01*
X279700Y474200D01*
X285688Y447746D02*
X286088Y448546D01*
X285688Y449346D01*
X286488Y448946D01*
X287288Y449346D01*
X286888Y448546D01*
X287288Y447746D01*
X286488Y448146D01*
X285688Y447746D01*
X377369Y473531D02*
X377769Y474331D01*
X377369Y475131D01*
X378169Y474731D01*
X378969Y475131D01*
X378569Y474331D01*
X378969Y473531D01*
X378169Y473931D01*
X377369Y473531D01*
X369520Y473563D02*
X369920Y474364D01*
X369520Y475164D01*
X370320Y474763D01*
X371120Y475164D01*
X370720Y474364D01*
X371120Y473563D01*
X370320Y473963D01*
X369520Y473563D01*
X359200Y356700D02*
X359600Y357500D01*
X359200Y358300D01*
X360000Y357900D01*
X360800Y358300D01*
X360400Y357500D01*
X360800Y356700D01*
X360000Y357100D01*
X359200Y356700D01*
X339200Y441700D02*
X339600Y442500D01*
X339200Y443300D01*
X340000Y442900D01*
X340800Y443300D01*
X340400Y442500D01*
X340800Y441700D01*
X340000Y442100D01*
X339200Y441700D01*
Y436700D02*
X339600Y437500D01*
X339200Y438300D01*
X340000Y437900D01*
X340800Y438300D01*
X340400Y437500D01*
X340800Y436700D01*
X340000Y437100D01*
X339200Y436700D01*
Y431700D02*
X339600Y432500D01*
X339200Y433300D01*
X340000Y432900D01*
X340800Y433300D01*
X340400Y432500D01*
X340800Y431700D01*
X340000Y432100D01*
X339200Y431700D01*
Y426700D02*
X339600Y427500D01*
X339200Y428300D01*
X340000Y427900D01*
X340800Y428300D01*
X340400Y427500D01*
X340800Y426700D01*
X340000Y427100D01*
X339200Y426700D01*
Y421700D02*
X339600Y422500D01*
X339200Y423300D01*
X340000Y422900D01*
X340800Y423300D01*
X340400Y422500D01*
X340800Y421700D01*
X340000Y422100D01*
X339200Y421700D01*
X334200D02*
X334600Y422500D01*
X334200Y423300D01*
X335000Y422900D01*
X335800Y423300D01*
X335400Y422500D01*
X335800Y421700D01*
X335000Y422100D01*
X334200Y421700D01*
Y426700D02*
X334600Y427500D01*
X334200Y428300D01*
X335000Y427900D01*
X335800Y428300D01*
X335400Y427500D01*
X335800Y426700D01*
X335000Y427100D01*
X334200Y426700D01*
Y431700D02*
X334600Y432500D01*
X334200Y433300D01*
X335000Y432900D01*
X335800Y433300D01*
X335400Y432500D01*
X335800Y431700D01*
X335000Y432100D01*
X334200Y431700D01*
Y436700D02*
X334600Y437500D01*
X334200Y438300D01*
X335000Y437900D01*
X335800Y438300D01*
X335400Y437500D01*
X335800Y436700D01*
X335000Y437100D01*
X334200Y436700D01*
Y441700D02*
X334600Y442500D01*
X334200Y443300D01*
X335000Y442900D01*
X335800Y443300D01*
X335400Y442500D01*
X335800Y441700D01*
X335000Y442100D01*
X334200Y441700D01*
X344200D02*
X344600Y442500D01*
X344200Y443300D01*
X345000Y442900D01*
X345800Y443300D01*
X345400Y442500D01*
X345800Y441700D01*
X345000Y442100D01*
X344200Y441700D01*
Y436700D02*
X344600Y437500D01*
X344200Y438300D01*
X345000Y437900D01*
X345800Y438300D01*
X345400Y437500D01*
X345800Y436700D01*
X345000Y437100D01*
X344200Y436700D01*
Y431700D02*
X344600Y432500D01*
X344200Y433300D01*
X345000Y432900D01*
X345800Y433300D01*
X345400Y432500D01*
X345800Y431700D01*
X345000Y432100D01*
X344200Y431700D01*
Y426700D02*
X344600Y427500D01*
X344200Y428300D01*
X345000Y427900D01*
X345800Y428300D01*
X345400Y427500D01*
X345800Y426700D01*
X345000Y427100D01*
X344200Y426700D01*
Y421700D02*
X344600Y422500D01*
X344200Y423300D01*
X345000Y422900D01*
X345800Y423300D01*
X345400Y422500D01*
X345800Y421700D01*
X345000Y422100D01*
X344200Y421700D01*
X334200Y446700D02*
X334600Y447500D01*
X334200Y448300D01*
X335000Y447900D01*
X335800Y448300D01*
X335400Y447500D01*
X335800Y446700D01*
X335000Y447100D01*
X334200Y446700D01*
X339200D02*
X339600Y447500D01*
X339200Y448300D01*
X340000Y447900D01*
X340800Y448300D01*
X340400Y447500D01*
X340800Y446700D01*
X340000Y447100D01*
X339200Y446700D01*
X344200D02*
X344600Y447500D01*
X344200Y448300D01*
X345000Y447900D01*
X345800Y448300D01*
X345400Y447500D01*
X345800Y446700D01*
X345000Y447100D01*
X344200Y446700D01*
X414200Y424200D02*
X414600Y425000D01*
X414200Y425800D01*
X415000Y425400D01*
X415800Y425800D01*
X415400Y425000D01*
X415800Y424200D01*
X415000Y424600D01*
X414200Y424200D01*
X409200Y419200D02*
X409600Y420000D01*
X409200Y420800D01*
X410000Y420400D01*
X410800Y420800D01*
X410400Y420000D01*
X410800Y419200D01*
X410000Y419600D01*
X409200Y419200D01*
Y424200D02*
X409600Y425000D01*
X409200Y425800D01*
X410000Y425400D01*
X410800Y425800D01*
X410400Y425000D01*
X410800Y424200D01*
X410000Y424600D01*
X409200Y424200D01*
X404200Y419200D02*
X404600Y420000D01*
X404200Y420800D01*
X405000Y420400D01*
X405800Y420800D01*
X405400Y420000D01*
X405800Y419200D01*
X405000Y419600D01*
X404200Y419200D01*
Y424200D02*
X404600Y425000D01*
X404200Y425800D01*
X405000Y425400D01*
X405800Y425800D01*
X405400Y425000D01*
X405800Y424200D01*
X405000Y424600D01*
X404200Y424200D01*
X399200D02*
X399600Y425000D01*
X399200Y425800D01*
X400000Y425400D01*
X400800Y425800D01*
X400400Y425000D01*
X400800Y424200D01*
X400000Y424600D01*
X399200Y424200D01*
Y419200D02*
X399600Y420000D01*
X399200Y420800D01*
X400000Y420400D01*
X400800Y420800D01*
X400400Y420000D01*
X400800Y419200D01*
X400000Y419600D01*
X399200Y419200D01*
Y429200D02*
X399600Y430000D01*
X399200Y430800D01*
X400000Y430400D01*
X400800Y430800D01*
X400400Y430000D01*
X400800Y429200D01*
X400000Y429600D01*
X399200Y429200D01*
Y434200D02*
X399600Y435000D01*
X399200Y435800D01*
X400000Y435400D01*
X400800Y435800D01*
X400400Y435000D01*
X400800Y434200D01*
X400000Y434600D01*
X399200Y434200D01*
Y439200D02*
X399600Y440000D01*
X399200Y440800D01*
X400000Y440400D01*
X400800Y440800D01*
X400400Y440000D01*
X400800Y439200D01*
X400000Y439600D01*
X399200Y439200D01*
Y444200D02*
X399600Y445000D01*
X399200Y445800D01*
X400000Y445400D01*
X400800Y445800D01*
X400400Y445000D01*
X400800Y444200D01*
X400000Y444600D01*
X399200Y444200D01*
X394200Y434200D02*
X394600Y435000D01*
X394200Y435800D01*
X395000Y435400D01*
X395800Y435800D01*
X395400Y435000D01*
X395800Y434200D01*
X395000Y434600D01*
X394200Y434200D01*
Y429200D02*
X394600Y430000D01*
X394200Y430800D01*
X395000Y430400D01*
X395800Y430800D01*
X395400Y430000D01*
X395800Y429200D01*
X395000Y429600D01*
X394200Y429200D01*
Y424200D02*
X394600Y425000D01*
X394200Y425800D01*
X395000Y425400D01*
X395800Y425800D01*
X395400Y425000D01*
X395800Y424200D01*
X395000Y424600D01*
X394200Y424200D01*
X267700Y447700D02*
X268100Y448500D01*
X267700Y449300D01*
X268500Y448900D01*
X269300Y449300D01*
X268900Y448500D01*
X269300Y447700D01*
X268500Y448100D01*
X267700Y447700D01*
X338106Y327873D02*
X338506Y328673D01*
X338106Y329473D01*
X338906Y329073D01*
X339706Y329473D01*
X339306Y328673D01*
X339706Y327873D01*
X338906Y328273D01*
X338106Y327873D01*
X353377Y329591D02*
X353777Y330391D01*
X353377Y331191D01*
X354176Y330791D01*
X354977Y331191D01*
X354576Y330391D01*
X354977Y329591D01*
X354176Y329991D01*
X353377Y329591D01*
X347206Y322248D02*
X347606Y323048D01*
X347206Y323848D01*
X348006Y323448D01*
X348806Y323848D01*
X348406Y323048D01*
X348806Y322248D01*
X348006Y322648D01*
X347206Y322248D01*
X304200Y366700D02*
X304600Y367500D01*
X304200Y368300D01*
X305000Y367900D01*
X305800Y368300D01*
X305400Y367500D01*
X305800Y366700D01*
X305000Y367100D01*
X304200Y366700D01*
X299200Y359200D02*
X299600Y360000D01*
X299200Y360800D01*
X300000Y360400D01*
X300800Y360800D01*
X300400Y360000D01*
X300800Y359200D01*
X300000Y359600D01*
X299200Y359200D01*
X307659Y360791D02*
X308059Y361591D01*
X307659Y362391D01*
X308459Y361991D01*
X309259Y362391D01*
X308859Y361591D01*
X309259Y360791D01*
X308459Y361191D01*
X307659Y360791D01*
X391700Y339200D02*
X392100Y340000D01*
X391700Y340800D01*
X392500Y340400D01*
X393300Y340800D01*
X392900Y340000D01*
X393300Y339200D01*
X392500Y339600D01*
X391700Y339200D01*
X396700D02*
X397100Y340000D01*
X396700Y340800D01*
X397500Y340400D01*
X398300Y340800D01*
X397900Y340000D01*
X398300Y339200D01*
X397500Y339600D01*
X396700Y339200D01*
X401700D02*
X402100Y340000D01*
X401700Y340800D01*
X402500Y340400D01*
X403300Y340800D01*
X402900Y340000D01*
X403300Y339200D01*
X402500Y339600D01*
X401700Y339200D01*
X406700D02*
X407100Y340000D01*
X406700Y340800D01*
X407500Y340400D01*
X408300Y340800D01*
X407900Y340000D01*
X408300Y339200D01*
X407500Y339600D01*
X406700Y339200D01*
X424200Y306700D02*
X424600Y307500D01*
X424200Y308300D01*
X425000Y307900D01*
X425800Y308300D01*
X425400Y307500D01*
X425800Y306700D01*
X425000Y307100D01*
X424200Y306700D01*
X419122Y306694D02*
X419522Y307493D01*
X419122Y308294D01*
X419922Y307893D01*
X420722Y308294D01*
X420322Y307493D01*
X420722Y306694D01*
X419922Y307094D01*
X419122Y306694D01*
Y311694D02*
X419522Y312493D01*
X419122Y313294D01*
X419922Y312894D01*
X420722Y313294D01*
X420322Y312493D01*
X420722Y311694D01*
X419922Y312093D01*
X419122Y311694D01*
X424122D02*
X424522Y312493D01*
X424122Y313294D01*
X424922Y312894D01*
X425722Y313294D01*
X425322Y312493D01*
X425722Y311694D01*
X424922Y312093D01*
X424122Y311694D01*
X346700Y256700D02*
X347100Y257500D01*
X346700Y258300D01*
X347500Y257900D01*
X348300Y258300D01*
X347900Y257500D01*
X348300Y256700D01*
X347500Y257100D01*
X346700Y256700D01*
X346622Y261694D02*
X347022Y262493D01*
X346622Y263294D01*
X347422Y262894D01*
X348222Y263294D01*
X347822Y262493D01*
X348222Y261694D01*
X347422Y262093D01*
X346622Y261694D01*
Y266693D02*
X347022Y267494D01*
X346622Y268293D01*
X347422Y267894D01*
X348222Y268293D01*
X347822Y267494D01*
X348222Y266693D01*
X347422Y267093D01*
X346622Y266693D01*
X329122Y219194D02*
X329522Y219993D01*
X329122Y220794D01*
X329922Y220393D01*
X330722Y220794D01*
X330322Y219993D01*
X330722Y219194D01*
X329922Y219594D01*
X329122Y219194D01*
Y214194D02*
X329522Y214994D01*
X329122Y215793D01*
X329922Y215393D01*
X330722Y215793D01*
X330322Y214994D01*
X330722Y214194D01*
X329922Y214594D01*
X329122Y214194D01*
X334122D02*
X334522Y214994D01*
X334122Y215793D01*
X334922Y215393D01*
X335722Y215793D01*
X335322Y214994D01*
X335722Y214194D01*
X334922Y214594D01*
X334122Y214194D01*
X329122Y209193D02*
X329522Y209994D01*
X329122Y210793D01*
X329922Y210394D01*
X330722Y210793D01*
X330322Y209994D01*
X330722Y209193D01*
X329922Y209594D01*
X329122Y209193D01*
D105*
X308300Y145000D02*
G03*
X308300Y145000I-800J0D01*
G01*
X288300D02*
G03*
X288300Y145000I-800J0D01*
G01*
M02*
